<svg width="555" height="534" viewBox="0 0 555 534" fill="none" xmlns="http://www.w3.org/2000/svg">
<mask id="mask0_914_10360" style="mask-type:alpha" maskUnits="userSpaceOnUse" x="0" y="269" width="555" height="265">
<rect x="1.86533" y="270.69" width="551.396" height="262.036" rx="12.0953" fill="url(#paint0_linear_914_10360)" stroke="url(#paint1_linear_914_10360)" stroke-width="2.26933"/>
</mask>
<g mask="url(#mask0_914_10360)">
<rect x="1.86533" y="270.69" width="551.396" height="262.036" rx="12.0953" fill="url(#paint2_linear_914_10360)" stroke="url(#paint3_linear_914_10360)" stroke-width="2.26933"/>
<g clip-path="url(#clip0_914_10360)">
<line opacity="0.3" x1="25.4318" y1="107.812" x2="25.4318" y2="685.142" stroke="url(#paint4_linear_914_10360)" stroke-width="1.02182"/>
<line opacity="0.3" x1="69.2746" y1="107.811" x2="69.2746" y2="685.141" stroke="url(#paint5_linear_914_10360)" stroke-width="1.02182"/>
<line opacity="0.3" x1="113.116" y1="107.812" x2="113.116" y2="685.142" stroke="url(#paint6_linear_914_10360)" stroke-width="1.02182"/>
<line opacity="0.3" x1="156.959" y1="107.812" x2="156.959" y2="685.142" stroke="url(#paint7_linear_914_10360)" stroke-width="1.02182"/>
<line opacity="0.3" x1="200.803" y1="107.812" x2="200.803" y2="685.142" stroke="url(#paint8_linear_914_10360)" stroke-width="1.02182"/>
<line opacity="0.3" x1="244.645" y1="107.812" x2="244.645" y2="685.142" stroke="url(#paint9_linear_914_10360)" stroke-width="1.02182"/>
<line opacity="0.3" x1="288.487" y1="107.812" x2="288.487" y2="685.142" stroke="url(#paint10_linear_914_10360)" stroke-width="1.02182"/>
<line opacity="0.3" x1="332.329" y1="107.812" x2="332.329" y2="685.142" stroke="url(#paint11_linear_914_10360)" stroke-width="1.02182"/>
<line opacity="0.3" x1="376.172" y1="107.812" x2="376.172" y2="685.142" stroke="url(#paint12_linear_914_10360)" stroke-width="1.02182"/>
<line opacity="0.3" x1="420.014" y1="107.812" x2="420.014" y2="685.142" stroke="url(#paint13_linear_914_10360)" stroke-width="1.02182"/>
<line opacity="0.3" x1="463.857" y1="107.812" x2="463.857" y2="685.142" stroke="url(#paint14_linear_914_10360)" stroke-width="1.02182"/>
<line opacity="0.3" x1="507.699" y1="107.812" x2="507.699" y2="685.142" stroke="url(#paint15_linear_914_10360)" stroke-width="1.02182"/>
<line opacity="0.3" x1="551.541" y1="107.811" x2="551.541" y2="685.141" stroke="url(#paint16_linear_914_10360)" stroke-width="1.02182"/>
<line opacity="0.3" x1="610.217" y1="271.636" x2="-148.258" y2="271.636" stroke="url(#paint17_linear_914_10360)" stroke-width="1.02182"/>
<line opacity="0.3" x1="610.217" y1="313.285" x2="-148.258" y2="313.285" stroke="url(#paint18_linear_914_10360)" stroke-width="1.02182"/>
<line opacity="0.3" x1="610.217" y1="357.128" x2="-148.258" y2="357.128" stroke="url(#paint19_linear_914_10360)" stroke-width="1.02182"/>
<line opacity="0.3" x1="610.217" y1="400.971" x2="-148.258" y2="400.971" stroke="url(#paint20_linear_914_10360)" stroke-width="1.02182"/>
<line opacity="0.3" x1="610.217" y1="444.813" x2="-148.258" y2="444.813" stroke="url(#paint21_linear_914_10360)" stroke-width="1.02182"/>
<line opacity="0.3" x1="610.217" y1="488.655" x2="-148.258" y2="488.655" stroke="url(#paint22_linear_914_10360)" stroke-width="1.02182"/>
<line opacity="0.3" x1="610.217" y1="532.497" x2="-148.258" y2="532.497" stroke="url(#paint23_linear_914_10360)" stroke-width="1.02182"/>
<ellipse cx="166.861" cy="312.925" rx="100.29" ry="0.548031" fill="url(#paint24_linear_914_10360)"/>
<ellipse opacity="0.66" cx="156.997" cy="420.889" rx="62.4755" ry="0.548028" transform="rotate(90 156.997 420.889)" fill="url(#paint25_linear_914_10360)"/>
<ellipse opacity="0.66" cx="376.21" cy="301.417" rx="18.633" ry="0.54803" transform="rotate(90 376.21 301.417)" fill="url(#paint26_linear_914_10360)"/>
<ellipse cx="123.018" cy="408.282" rx="56.4472" ry="0.548031" fill="url(#paint27_linear_914_10360)"/>
<ellipse cx="421.148" cy="453.222" rx="100.29" ry="0.548031" fill="url(#paint28_linear_914_10360)"/>
<ellipse cx="48.7747" cy="0.328818" rx="48.7747" ry="0.328818" transform="matrix(1 0 0 -1 395.39 359.508)" fill="url(#paint29_linear_914_10360)"/>
</g>
</g>
<circle cx="278.063" cy="400.013" r="54.7546" fill="white"/>
<path d="M296.938 380.486C294.549 384.657 292.249 388.676 289.82 392.92C290.552 392.983 291.025 393.061 291.499 393.061C295.311 393.072 299.123 393.065 302.935 393.079C304.195 393.083 304.314 393.275 303.7 394.336C299.185 402.156 294.649 409.965 290.153 417.796C289.72 418.55 289.169 418.698 288.404 418.698C284.341 418.683 280.277 418.724 276.214 418.676C275.238 418.665 274.676 419.02 274.214 419.833C272.25 423.286 270.254 426.718 268.257 430.149C268.061 430.489 267.788 430.781 267.422 431.269C266.338 429.435 265.362 427.794 264.401 426.145C263.203 424.085 262.061 421.992 260.811 419.966C260.238 419.035 260.227 418.299 260.804 417.341C262.896 413.869 264.9 410.342 266.93 406.833C267.048 406.63 267.096 406.386 267.255 405.953C262.453 405.953 257.79 405.953 252.902 405.953C253.102 405.432 253.172 405.125 253.324 404.863C257.857 397.006 262.382 389.145 266.967 381.318C267.241 380.852 267.98 380.383 268.505 380.379C277.593 380.32 286.685 380.335 295.777 380.338C296.058 380.338 296.342 380.409 296.938 380.486ZM289.413 393.401C288.84 393.323 288.448 393.224 288.057 393.224C284.075 393.212 280.092 393.242 276.11 393.201C275.19 393.19 274.665 393.527 274.221 394.311C272.472 397.405 270.661 400.463 268.886 403.543C268.501 404.212 268.165 404.911 267.721 405.761C268.35 405.798 268.756 405.839 269.159 405.839C272.302 405.846 275.463 405.639 278.584 405.905C281.338 406.138 283.18 405.399 284.038 402.689C284.086 402.537 284.226 402.415 284.311 402.271C285.979 399.38 287.639 396.485 289.413 393.401Z" fill="url(#paint30_linear_914_10360)"/>
<rect x="68.7637" width="133.165" height="48.2267" rx="24.1134" fill="url(#paint31_linear_914_10360)"/>
<g clip-path="url(#clip1_914_10360)">
<path d="M110.414 37.2664C117.678 37.2664 123.567 31.3777 123.567 24.1137C123.567 16.8496 117.678 10.9609 110.414 10.9609C103.15 10.9609 97.2612 16.8496 97.2612 24.1137C97.2612 31.3777 103.15 37.2664 110.414 37.2664Z" fill="#F0F0F0"/>
<path d="M97.2612 24.1139C97.2612 29.7692 100.831 34.5902 105.839 36.4486V11.7793C100.831 13.6376 97.2612 18.4587 97.2612 24.1139Z" fill="#6DA544"/>
<path d="M123.567 24.1139C123.567 18.4587 119.997 13.6376 114.989 11.7793V36.4486C119.997 34.5902 123.567 29.7692 123.567 24.1139Z" fill="#6DA544"/>
</g>
<path d="M134.869 29.6133H136.991V20.003L142.638 29.6133H145.058V17.0743H142.936V26.141L137.658 17.0743H134.869V29.6133ZM153.566 29.7887C157.108 29.7887 159.283 27.6842 159.283 24.2119V23.0544H153.829V24.8081H156.985C156.915 26.5443 155.951 27.9648 153.601 27.9648C150.97 27.9648 149.725 26.1234 149.725 23.4403V23.3C149.725 20.5467 151.146 18.7228 153.601 18.7228C155.232 18.7228 156.354 19.4418 156.635 21.1078H158.967C158.634 18.109 156.249 16.8814 153.566 16.8814C149.9 16.8814 147.305 19.5471 147.305 23.2824V23.4227C147.305 27.123 149.55 29.7887 153.566 29.7887ZM161.534 29.6133H163.656V20.003L169.303 29.6133H171.723V17.0743H169.601V26.141L164.323 17.0743H161.534V29.6133Z" fill="white"/>
<rect x="212.89" width="130.165" height="48.2267" rx="24.1134" fill="url(#paint32_linear_914_10360)"/>
<g clip-path="url(#clip2_914_10360)">
<path d="M254.54 37.2664C261.804 37.2664 267.693 31.3777 267.693 24.1137C267.693 16.8496 261.804 10.9609 254.54 10.9609C247.276 10.9609 241.387 16.8496 241.387 24.1137C241.387 31.3777 247.276 37.2664 254.54 37.2664Z" fill="#F0F0F0"/>
<path d="M253.967 24.1128H267.692C267.692 22.9257 267.534 21.7756 267.239 20.6816H253.967V24.1128Z" fill="#D80027"/>
<path d="M253.967 17.2505H265.761C264.956 15.9367 263.927 14.7754 262.726 13.8193H253.967V17.2505Z" fill="#D80027"/>
<path d="M254.54 37.2655C257.635 37.2655 260.481 36.1956 262.727 34.4062H246.353C248.599 36.1956 251.444 37.2655 254.54 37.2655Z" fill="#D80027"/>
<path d="M243.317 30.9751H265.762C266.408 29.9204 266.909 28.7675 267.239 27.5439H241.84C242.17 28.7675 242.671 29.9204 243.317 30.9751Z" fill="#D80027"/>
<path d="M247.48 13.0149H248.678L247.563 13.8249L247.989 15.1355L246.875 14.3255L245.76 15.1355L246.128 14.0033C245.146 14.821 244.286 15.779 243.577 16.8464H243.961L243.251 17.362C243.14 17.5464 243.034 17.7338 242.933 17.9239L243.272 18.9669L242.639 18.5076C242.482 18.8406 242.338 19.181 242.209 19.5286L242.583 20.6778H243.961L242.846 21.4878L243.272 22.7984L242.157 21.9884L241.489 22.4736C241.422 23.011 241.387 23.5582 241.387 24.1137H254.54C254.54 16.8497 254.54 15.9933 254.54 10.9609C251.942 10.9609 249.52 11.7147 247.48 13.0149ZM247.989 22.7984L246.875 21.9884L245.76 22.7984L246.186 21.4878L245.071 20.6778H246.449L246.875 19.3672L247.3 20.6778H248.678L247.563 21.4878L247.989 22.7984ZM247.563 17.6563L247.989 18.9669L246.875 18.157L245.76 18.9669L246.186 17.6563L245.071 16.8464H246.449L246.875 15.5358L247.3 16.8464H248.678L247.563 17.6563ZM252.707 22.7984L251.592 21.9884L250.477 22.7984L250.903 21.4878L249.788 20.6778H251.167L251.592 19.3672L252.018 20.6778H253.396L252.281 21.4878L252.707 22.7984ZM252.281 17.6563L252.707 18.9669L251.592 18.157L250.477 18.9669L250.903 17.6563L249.788 16.8464H251.167L251.592 15.5358L252.018 16.8464H253.396L252.281 17.6563ZM252.281 13.8249L252.707 15.1355L251.592 14.3255L250.477 15.1355L250.903 13.8249L249.788 13.0149H251.167L251.592 11.7043L252.018 13.0149H253.396L252.281 13.8249Z" fill="#0052B4"/>
</g>
<path d="M283.818 29.7887C287.132 29.7887 288.904 27.9823 288.904 24.7029V17.0743H286.554V24.51C286.554 27.1055 285.642 27.9122 283.835 27.9122C281.976 27.9122 281.24 26.9652 281.24 24.6679V17.0743H278.89V24.8432C278.89 28.07 280.679 29.7887 283.818 29.7887ZM295.93 29.7887C298.701 29.7887 300.542 28.0876 300.542 25.913C300.542 23.4052 299.016 22.5634 296.07 22.1601C293.896 21.8444 293.475 21.3358 293.475 20.3187C293.475 19.3541 294.211 18.6702 295.632 18.6702C297.07 18.6702 297.824 19.2314 298.052 20.5467H300.191C299.946 18.1441 298.332 16.9165 295.632 16.9165C293.019 16.9165 291.265 18.4598 291.265 20.5116C291.265 22.8615 292.686 23.7735 295.684 24.1768C297.719 24.51 298.297 24.9484 298.297 26.1059C298.297 27.2633 297.315 28.035 295.93 28.035C293.808 28.035 293.299 26.9827 293.141 25.7201H290.897C291.072 28.0876 292.51 29.7887 295.93 29.7887ZM305.133 27.7719V18.9157H306.483C309.429 18.9157 310.657 20.5467 310.657 23.2474V23.3877C310.657 26.1585 309.306 27.7719 306.501 27.7719H305.133ZM302.8 29.6133H306.571C310.972 29.6133 313.094 27.0178 313.094 23.3701V23.2123C313.094 19.5646 310.972 17.0743 306.606 17.0743H302.8V29.6133Z" fill="white"/>
<rect x="354.016" width="143.165" height="48.2267" rx="24.1134" fill="url(#paint33_linear_914_10360)"/>
<g clip-path="url(#clip3_914_10360)">
<path d="M405.468 32.8826C407.551 30.5556 408.819 27.4831 408.819 24.1141C408.819 20.7452 407.551 17.6726 405.468 15.3456L395.666 14.3926L385.863 15.3456C383.78 17.6726 382.513 20.7452 382.513 24.1141C382.513 27.4831 383.78 30.5556 385.863 32.8826L395.666 33.8357L405.468 32.8826Z" fill="#FFDA44"/>
<path d="M385.863 15.3452H405.468C403.06 12.6547 399.561 10.9609 395.666 10.9609C391.771 10.9609 388.272 12.6547 385.863 15.3452Z" fill="black"/>
<path d="M382.513 24.1138L395.666 25.2575L408.819 24.1138C408.819 22.5763 408.554 21.1009 408.069 19.7295H383.263C382.778 21.1009 382.513 22.5763 382.513 24.1138V24.1138Z" fill="#D80027"/>
<path d="M383.263 28.4975H408.069C408.554 27.1261 408.819 25.6507 408.819 24.1133H382.513C382.513 25.6507 382.778 27.1261 383.263 28.4975Z" fill="black"/>
<path d="M405.468 32.8818H385.863C388.272 35.5724 391.771 37.2661 395.666 37.2661C399.561 37.2661 403.06 35.5724 405.468 32.8818Z" fill="#D80027"/>
<path d="M400.055 24.1146C400.055 26.5388 398.091 28.5036 395.666 28.5036C393.242 28.5036 391.277 26.5388 391.277 24.1146C391.277 21.6904 393.242 19.7256 395.666 19.7256C398.091 19.7256 400.055 21.6904 400.055 24.1146Z" fill="#F0F0F0"/>
<path d="M397.274 24.3384L395.666 23.6417C395.666 23.6417 396.042 22.393 396.062 22.3076C396.077 22.2452 396.084 22.1801 396.084 22.1132C396.084 21.8763 395.988 21.6618 395.833 21.5067L396.237 21.1023C395.979 20.8436 395.621 20.6836 395.226 20.6836C394.832 20.6836 394.474 20.8436 394.216 21.1023L394.62 21.5067C394.465 21.6619 394.369 21.8763 394.369 22.1132C394.369 22.1998 394.382 22.2833 394.406 22.3622L393.797 22.9709H394.903C394.903 22.9709 394.446 23.658 394.196 24.2223C393.946 24.7865 394.2 25.4754 394.777 25.7319L395.111 25.8803L395.666 26.4021V26.9739L395.094 27.5457H396.238V26.402L396.759 25.8802H397.839C397.844 25.8694 397.849 25.8589 397.854 25.8479C398.111 25.2708 397.851 24.5949 397.274 24.3384Z" fill="black"/>
</g>
<path d="M424.944 29.7887C428.258 29.7887 430.03 27.9823 430.03 24.7029V17.0743H427.68V24.51C427.68 27.1055 426.768 27.9122 424.961 27.9122C423.102 27.9122 422.366 26.9652 422.366 24.6679V17.0743H420.016V24.8432C420.016 28.07 421.805 29.7887 424.944 29.7887ZM437.056 29.7887C439.827 29.7887 441.668 28.0876 441.668 25.913C441.668 23.4052 440.142 22.5634 437.196 22.1601C435.022 21.8444 434.601 21.3358 434.601 20.3187C434.601 19.3541 435.337 18.6702 436.758 18.6702C438.196 18.6702 438.95 19.2314 439.178 20.5467H441.317C441.072 18.1441 439.458 16.9165 436.758 16.9165C434.145 16.9165 432.391 18.4598 432.391 20.5116C432.391 22.8615 433.811 23.7735 436.81 24.1768C438.845 24.51 439.423 24.9484 439.423 26.1059C439.423 27.2633 438.441 28.035 437.056 28.035C434.934 28.035 434.425 26.9827 434.267 25.7201H432.023C432.198 28.0876 433.636 29.7887 437.056 29.7887ZM446.259 27.7719V18.9157H447.609C450.555 18.9157 451.783 20.5467 451.783 23.2474V23.3877C451.783 26.1585 450.432 27.7719 447.627 27.7719H446.259ZM443.926 29.6133H447.697C452.098 29.6133 454.22 27.0178 454.22 23.3701V23.2123C454.22 19.5646 452.098 17.0743 447.732 17.0743H443.926V29.6133ZM461.934 29.7887C464.916 29.7887 467.055 28.2629 467.423 25.2466H465.144C464.898 27.0178 463.671 27.8947 461.934 27.8947C459.619 27.8947 458.269 26.2286 458.269 23.4052V23.2649C458.269 20.459 459.707 18.7404 461.917 18.7404C463.723 18.7404 464.653 19.5997 464.916 21.2657H467.283C467.003 18.3195 464.775 16.8814 461.899 16.8814C458.409 16.8814 455.814 19.512 455.814 23.2824V23.4227C455.814 27.2809 458.006 29.7887 461.934 29.7887Z" fill="white"/>
<rect x="3" y="67.9561" width="129.165" height="48.2267" rx="24.1134" fill="url(#paint34_linear_914_10360)"/>
<g clip-path="url(#clip4_914_10360)">
<path d="M44.6503 105.222C51.9144 105.222 57.803 99.3338 57.803 92.0697C57.803 84.8057 51.9144 78.917 44.6503 78.917C37.3862 78.917 31.4976 84.8057 31.4976 92.0697C31.4976 99.3338 37.3862 105.222 44.6503 105.222Z" fill="#F0F0F0"/>
<path d="M34.216 84.0615C33.1829 85.4057 32.4038 86.955 31.9502 88.6381H38.7926L34.216 84.0615Z" fill="#0052B4"/>
<path d="M57.3496 88.6381C56.896 86.955 56.1169 85.4057 55.0838 84.0615L50.5073 88.6381H57.3496Z" fill="#0052B4"/>
<path d="M31.9502 95.5C32.4039 97.183 33.1829 98.7323 34.216 100.076L38.7924 95.5H31.9502Z" fill="#0052B4"/>
<path d="M52.6571 81.635C51.3129 80.6019 49.7637 79.8228 48.0806 79.3691V86.2115L52.6571 81.635Z" fill="#0052B4"/>
<path d="M36.6426 102.502C37.9868 103.535 39.5361 104.314 41.2191 104.768V97.9258L36.6426 102.502Z" fill="#0052B4"/>
<path d="M41.2191 79.3691C39.536 79.8228 37.9867 80.6018 36.6426 81.635L41.2191 86.2114V79.3691Z" fill="#0052B4"/>
<path d="M48.0806 104.768C49.7636 104.314 51.3129 103.535 52.6571 102.502L48.0806 97.9258V104.768Z" fill="#0052B4"/>
<path d="M50.5073 95.5L55.0838 100.077C56.1169 98.7324 56.896 97.183 57.3496 95.5H50.5073Z" fill="#0052B4"/>
<path d="M57.6917 90.3542H46.366H46.3659V79.0283C45.8043 78.9552 45.2317 78.917 44.6503 78.917C44.0688 78.917 43.4963 78.9552 42.9347 79.0283V90.3541V90.3541H31.6089C31.5358 90.9157 31.4976 91.4883 31.4976 92.0697C31.4976 92.6513 31.5358 93.2237 31.6089 93.7853H42.9346H42.9347V105.111C43.4963 105.184 44.0688 105.222 44.6503 105.222C45.2317 105.222 45.8043 105.184 46.3659 105.111V93.7854V93.7853H57.6917C57.7648 93.2237 57.803 92.6513 57.803 92.0697C57.803 91.4883 57.7648 90.9157 57.6917 90.3542Z" fill="#D80027"/>
<path d="M48.0811 95.501L53.9503 101.37C54.2202 101.1 54.4777 100.818 54.7234 100.526L49.6985 95.501H48.0811V95.501Z" fill="#D80027"/>
<path d="M41.2189 95.501H41.2188L35.3496 101.37C35.6194 101.64 35.9016 101.898 36.194 102.143L41.2189 97.1183V95.501Z" fill="#D80027"/>
<path d="M41.2195 88.6389V88.6388L35.3503 82.7695C35.0803 83.0394 34.8228 83.3215 34.5771 83.6139L39.6021 88.6388H41.2195V88.6389Z" fill="#D80027"/>
<path d="M48.0811 88.6385L53.9503 82.7692C53.6805 82.4992 53.3984 82.2417 53.1059 81.9961L48.0811 87.021V88.6385Z" fill="#D80027"/>
</g>
<path d="M74.7349 97.7447C78.2774 97.7447 80.4519 95.6403 80.4519 92.1679V91.0105H74.9979V92.7642H78.1546C78.0845 94.5004 77.1199 95.9209 74.77 95.9209C72.1394 95.9209 70.8943 94.0795 70.8943 91.3963V91.256C70.8943 88.5027 72.3148 86.6789 74.77 86.6789C76.4009 86.6789 77.5233 87.3979 77.8039 89.0639H80.1363C79.8031 86.0651 77.418 84.8375 74.7349 84.8375C71.0697 84.8375 68.4742 87.5031 68.4742 91.2385V91.3788C68.4742 95.0791 70.7189 97.7447 74.7349 97.7447ZM82.7035 97.5693H87.5262C90.2795 97.5693 91.8228 96.3944 91.8228 94.0619V93.9918C91.8228 92.3258 91.0161 91.3963 89.315 91.028C90.7355 90.5896 91.2967 89.6075 91.2967 88.3624V88.2923C91.2967 86.0125 89.7709 85.0304 87.193 85.0304H82.7035V97.5693ZM84.9833 95.9033V91.8874H87.0878C88.8064 91.8874 89.5254 92.5362 89.5254 93.834V93.9041C89.5254 95.2018 88.8064 95.9033 87.2456 95.9033H84.9833ZM84.9833 90.309V86.6964H86.8773C88.368 86.6964 89.0519 87.205 89.0519 88.3975V88.4676C89.0519 89.7478 88.4557 90.309 86.9124 90.309H84.9833ZM94.0067 97.5693H96.3391V92.7993H98.0928C100.776 92.7993 102.687 91.6243 102.687 88.9762V88.9061C102.687 86.2755 100.846 85.0304 98.0402 85.0304H94.0067V97.5693ZM96.3391 91.1157V86.8367H98.0402C99.5308 86.8367 100.408 87.4154 100.408 88.9061V88.9762C100.408 90.3616 99.5834 91.1157 98.0402 91.1157H96.3391Z" fill="white"/>
<rect x="143.126" y="67.9561" width="126.165" height="48.2267" rx="24.1134" fill="url(#paint35_linear_914_10360)"/>
<g clip-path="url(#clip5_914_10360)">
<path d="M184.776 105.222C192.04 105.222 197.929 99.3338 197.929 92.0697C197.929 84.8057 192.04 78.917 184.776 78.917C177.512 78.917 171.624 84.8057 171.624 92.0697C171.624 99.3338 177.512 105.222 184.776 105.222Z" fill="#F0F0F0"/>
<path d="M184.776 78.917C179.561 78.917 175.056 81.9516 172.928 86.3512H196.623C194.496 81.9516 189.99 78.917 184.776 78.917Z" fill="black"/>
<path d="M184.776 105.223C179.561 105.223 175.056 102.189 172.928 97.7891H196.623C194.496 102.189 189.99 105.223 184.776 105.223Z" fill="#496E2D"/>
<path d="M197.308 88.0664H172.245C171.842 89.3287 171.624 90.6735 171.624 92.0694C171.624 93.4653 171.842 94.8101 172.245 96.0724H197.308C197.711 94.8101 197.929 93.4653 197.929 92.0694C197.929 90.6735 197.711 89.3287 197.308 88.0664Z" fill="#A2001D"/>
<path d="M188.872 84.9953L187.315 84.2764L184.777 90.023L182.239 84.2764L180.681 84.9953L183.832 92.07L180.681 99.1447L182.239 99.8636L184.777 94.1169L187.315 99.8636L188.872 99.1447L185.721 92.07L188.872 84.9953Z" fill="#F0F0F0"/>
<path d="M185.835 85.6728C185.232 85.0143 184.777 84.6357 184.777 84.6357C184.777 84.6357 184.322 85.0142 183.719 85.6728V98.4669C184.322 99.1255 184.777 99.5041 184.777 99.5041C184.777 99.5041 185.232 99.1256 185.835 98.467V85.6728Z" fill="#F0F0F0"/>
<path d="M181.917 88.126V96.0131C182.555 97.1421 183.335 98.0675 183.919 98.6811V85.458C183.335 86.0715 182.555 86.997 181.917 88.126Z" fill="#A2001D"/>
<path d="M187.636 88.126C186.999 86.9969 186.219 86.0715 185.635 85.458V98.6811C186.219 98.0675 186.999 97.1421 187.636 96.0131V88.126Z" fill="#A2001D"/>
<path d="M187.635 88.127V96.0141C188.28 94.871 188.779 93.5193 188.779 92.0706C188.779 90.6219 188.28 89.2701 187.635 88.127Z" fill="black"/>
<path d="M181.917 88.127V96.0141C181.272 94.871 180.773 93.5193 180.773 92.0706C180.773 90.6219 181.272 89.2701 181.917 88.127Z" fill="black"/>
</g>
<path d="M209.231 97.5693H211.564V91.712L216.387 97.5693H219.14L213.686 91.0105L218.877 85.0129H216.369L211.564 90.7124V85.0304H209.231V97.5693ZM220.792 97.5693H228.929V95.728H223.124V92.0627H227.543V90.309H223.124V86.8718H228.631V85.0304H220.792V97.5693ZM235.294 97.7447C238.065 97.7447 239.907 96.0436 239.907 93.869C239.907 91.3612 238.381 90.5195 235.435 90.1161C233.26 89.8005 232.839 89.2919 232.839 88.2747C232.839 87.3102 233.576 86.6263 234.996 86.6263C236.434 86.6263 237.188 87.1874 237.416 88.5027H239.556C239.31 86.1001 237.697 84.8726 234.996 84.8726C232.383 84.8726 230.629 86.4158 230.629 88.4676C230.629 90.8176 232.05 91.7295 235.049 92.1329C237.083 92.4661 237.662 92.9045 237.662 94.0619C237.662 95.2194 236.68 95.991 235.294 95.991C233.172 95.991 232.664 94.9388 232.506 93.6761H230.261C230.437 96.0436 231.875 97.7447 235.294 97.7447Z" fill="white"/>
<rect x="280.252" y="67.9561" width="128.165" height="48.2267" rx="24.1134" fill="url(#paint36_linear_914_10360)"/>
<g clip-path="url(#clip6_914_10360)">
<path d="M321.902 105.222C329.166 105.222 335.055 99.3338 335.055 92.0697C335.055 84.8057 329.166 78.917 321.902 78.917C314.638 78.917 308.75 84.8057 308.75 92.0697C308.75 99.3338 314.638 105.222 321.902 105.222Z" fill="#F0F0F0"/>
<path d="M312.602 101.37C307.465 96.2339 307.465 87.906 312.602 82.7695C312.601 82.7701 320.187 92.07 320.187 92.07L312.602 101.37Z" fill="black"/>
<path d="M320.187 92.0705L310.494 85.5205C310.194 86.0429 309.929 86.5881 309.701 87.1524L314.608 92.0706L309.701 96.989C309.929 97.5529 310.194 98.0978 310.494 98.6198L320.187 92.0705Z" fill="#FFDA44"/>
<path d="M334.943 90.3542H320.186L312.601 82.7695C311.784 83.5869 311.074 84.5112 310.494 85.5198L317.031 92.0697L310.493 98.6189C311.074 99.6277 311.784 100.552 312.601 101.37L320.186 93.7853H334.943C335.016 93.2237 335.055 92.6512 335.055 92.0697C335.055 91.4883 335.016 90.9158 334.943 90.3542Z" fill="#6DA544"/>
<path d="M313.895 102.503C316.113 104.208 318.889 105.223 321.903 105.223C327.98 105.223 333.093 101.101 334.603 95.501H320.898L313.895 102.503Z" fill="#0052B4"/>
<path d="M334.603 88.6386C333.093 83.0386 327.98 78.917 321.903 78.917C318.889 78.917 316.113 79.9312 313.895 81.6361L320.898 88.6386H334.603Z" fill="#D80027"/>
</g>
<path d="M345.305 97.5693H354.828V95.6929H348.742L355.003 85.3285V85.0304H345.954V86.8718H351.706L345.305 97.2537V97.5693ZM356.062 97.5693H358.255L359.237 94.4653H364.024L365.024 97.5693H367.444L363.305 85.0304H360.254L356.062 97.5693ZM361.639 86.9419L363.481 92.7642H359.78L361.639 86.9419ZM369.358 97.5693H371.69V92.5011H373.181L376.46 97.5693H378.985L375.461 92.1504C377.021 91.7471 378.249 90.7474 378.249 88.7833V88.7132C378.249 86.1528 376.32 85.0304 373.567 85.0304H369.358V97.5693ZM371.69 90.8351V86.8367H373.567C375.057 86.8367 375.952 87.3277 375.952 88.7658V88.8359C375.952 90.1687 375.127 90.8351 373.567 90.8351H371.69Z" fill="white"/>
<rect x="419.377" y="67.9561" width="131.165" height="48.2267" rx="24.1134" fill="url(#paint37_linear_914_10360)"/>
<g clip-path="url(#clip7_914_10360)">
<path d="M447.875 92.0695C447.875 94.3481 448.455 96.4913 449.474 98.36L461.028 99.5037L472.581 98.36C473.601 96.4913 474.18 94.3481 474.18 92.0695L461.028 90.9258L447.875 92.0695Z" fill="#FFDA44"/>
<path d="M472.581 85.7793C470.35 81.6908 466.013 78.917 461.028 78.917C456.042 78.917 451.705 81.6908 449.474 85.7793C448.455 87.6479 447.875 89.7911 447.875 92.0697H474.18C474.18 89.7911 473.601 87.6479 472.581 85.7793Z" fill="#338AF3"/>
<path d="M461.028 105.223C466.013 105.223 470.35 102.449 472.581 98.3604H449.474C451.705 102.449 456.042 105.223 461.028 105.223Z" fill="#496E2D"/>
<path d="M462.744 86.6146L464.35 87.3702L463.495 88.9259L465.239 88.5923L465.46 90.3543L466.675 89.0583L467.89 90.3543L468.111 88.5923L469.855 88.9258L469 87.3702L470.606 86.6146L469 85.8591L469.855 84.3034L468.111 84.637L467.89 82.875L466.675 84.171L465.46 82.875L465.239 84.637L463.495 84.3034L464.35 85.8591L462.744 86.6146Z" fill="#FFDA44"/>
</g>
<path d="M485.483 97.5693H487.815V92.5011H489.306L492.585 97.5693H495.111L491.586 92.1504C493.147 91.7471 494.374 90.7474 494.374 88.7833V88.7132C494.374 86.1528 492.445 85.0304 489.692 85.0304H485.483V97.5693ZM487.815 90.8351V86.8367H489.692C491.182 86.8367 492.077 87.3277 492.077 88.7658V88.8359C492.077 90.1687 491.253 90.8351 489.692 90.8351H487.815ZM499.028 97.5693H501.256L503.798 88.4326L506.271 97.5693H508.604L511.743 85.0304H509.568L507.323 94.2899L504.833 85.0304H502.904L500.466 94.2373L498.292 85.0304H495.907L499.028 97.5693ZM513.638 97.5693H515.97V92.431H520.249V90.6247H515.97V86.8893H521.407V85.0304H513.638V97.5693Z" fill="white"/>
<path fill-rule="evenodd" clip-rule="evenodd" d="M514.911 142.489L515.459 142.489C515.459 142.489 515.459 142.489 515.459 142.489V142.49V142.49V142.493V142.506V142.556L515.459 142.756V142.996C515.459 143.298 515.213 143.544 514.911 143.544C514.608 143.544 514.363 143.298 514.363 142.996V142.756V142.556L514.363 142.506V142.494V142.49V142.49V142.489V142.489C514.363 142.489 514.363 142.489 514.363 142.489L514.911 142.489ZM514.911 145.668C515.214 145.668 515.459 145.913 515.459 146.216L515.459 147.249C515.459 147.551 515.214 147.797 514.911 147.797C514.608 147.797 514.363 147.551 514.363 147.249L514.363 146.216C514.363 145.913 514.608 145.668 514.911 145.668ZM514.911 149.914C515.214 149.914 515.459 150.159 515.459 150.462L515.459 151.489C515.459 151.792 515.214 152.037 514.911 152.037C514.608 152.038 514.363 151.792 514.363 151.489L514.363 150.462C514.363 150.159 514.608 149.914 514.911 149.914ZM514.911 154.164C515.214 154.164 515.459 154.41 515.459 154.712L515.459 155.737C515.459 156.039 515.214 156.285 514.911 156.285C514.608 156.285 514.363 156.039 514.363 155.737L514.363 154.712C514.363 154.41 514.608 154.164 514.911 154.164ZM514.911 158.407C515.214 158.407 515.459 158.653 515.459 158.955L515.459 159.983C515.459 160.286 515.214 160.531 514.911 160.531C514.609 160.531 514.363 160.286 514.363 159.983L514.363 158.956C514.363 158.653 514.609 158.407 514.911 158.407ZM514.911 162.656C515.214 162.656 515.459 162.902 515.459 163.204L515.459 164.228C515.459 164.531 515.214 164.776 514.911 164.776C514.609 164.776 514.363 164.531 514.363 164.228L514.363 163.204C514.363 162.902 514.609 162.656 514.911 162.656ZM514.911 166.901C515.214 166.901 515.459 167.147 515.459 167.449L515.459 168.481C515.459 168.783 515.214 169.029 514.911 169.029C514.609 169.029 514.363 168.783 514.363 168.481L514.363 167.449C514.363 167.147 514.609 166.901 514.911 166.901ZM514.911 171.149C515.214 171.149 515.459 171.394 515.459 171.697V172.723C515.459 173.025 515.214 173.271 514.911 173.271C514.609 173.271 514.363 173.025 514.363 172.723V171.697C514.363 171.394 514.609 171.149 514.911 171.149ZM514.911 175.393C515.214 175.393 515.459 175.639 515.459 175.941V176.46C515.459 176.659 515.457 176.857 515.453 177.054C515.447 177.357 515.192 177.592 514.89 177.581C514.587 177.569 514.352 177.314 514.358 177.012C514.362 176.828 514.363 176.645 514.363 176.46V175.941C514.363 175.639 514.609 175.393 514.911 175.393ZM514.716 179.812C515.017 179.847 515.233 180.12 515.192 180.42C515.138 180.812 515.077 181.203 515.008 181.59C514.955 181.888 514.666 182.081 514.369 182.022C514.072 181.964 513.879 181.675 513.932 181.377C513.996 181.018 514.053 180.656 514.103 180.292C514.144 179.992 514.416 179.777 514.716 179.812ZM513.848 184.2C514.139 184.282 514.31 184.584 514.222 184.874C514.107 185.253 513.985 185.629 513.856 186.001C513.757 186.287 513.441 186.432 513.157 186.327C512.873 186.223 512.728 185.908 512.828 185.622C512.947 185.276 513.06 184.928 513.167 184.577C513.254 184.287 513.557 184.117 513.848 184.2ZM512.3 188.395C512.575 188.522 512.695 188.848 512.563 189.12C512.39 189.476 512.211 189.828 512.024 190.176C511.881 190.443 511.546 190.537 511.282 190.389C511.018 190.24 510.925 189.907 511.068 189.64C511.241 189.317 511.407 188.991 511.568 188.661C511.7 188.389 512.025 188.268 512.3 188.395ZM510.112 192.296C510.363 192.464 510.431 192.805 510.258 193.053C510.032 193.378 509.799 193.697 509.56 194.012C509.377 194.253 509.032 194.293 508.795 194.106C508.557 193.918 508.517 193.574 508.7 193.333C508.921 193.041 509.137 192.744 509.347 192.443C509.52 192.195 509.86 192.127 510.112 192.296ZM507.341 195.807C507.563 196.012 507.577 196.36 507.367 196.578C507.094 196.863 506.815 197.142 506.53 197.416C506.311 197.626 505.964 197.612 505.759 197.39C505.553 197.168 505.567 196.821 505.785 196.612C506.049 196.357 506.308 196.098 506.562 195.834C506.772 195.616 507.119 195.602 507.341 195.807ZM504.058 198.844C504.245 199.082 504.205 199.427 503.964 199.61C503.65 199.849 503.33 200.082 503.006 200.308C502.758 200.481 502.417 200.413 502.248 200.162C502.08 199.91 502.148 199.571 502.396 199.397C502.697 199.187 502.993 198.971 503.285 198.75C503.526 198.567 503.87 198.607 504.058 198.844ZM500.342 201.333C500.49 201.597 500.396 201.932 500.13 202.075C499.782 202.262 499.43 202.442 499.074 202.614C498.802 202.747 498.476 202.626 498.349 202.351C498.222 202.077 498.342 201.752 498.614 201.619C498.944 201.459 499.27 201.292 499.593 201.119C499.86 200.976 500.194 201.07 500.342 201.333ZM496.281 203.209C496.386 203.493 496.241 203.809 495.955 203.908C495.583 204.038 495.207 204.16 494.828 204.275C494.538 204.362 494.235 204.192 494.153 203.901C494.071 203.609 494.241 203.307 494.531 203.219C494.882 203.113 495.23 203 495.575 202.88C495.861 202.781 496.176 202.925 496.281 203.209ZM491.976 204.422C492.035 204.719 491.842 205.008 491.544 205.061C491.157 205.13 490.766 205.191 490.374 205.245C490.074 205.286 489.801 205.07 489.766 204.77C489.731 204.469 489.946 204.197 490.246 204.156C490.61 204.106 490.972 204.049 491.331 203.985C491.629 203.933 491.918 204.125 491.976 204.422ZM487.535 204.943C487.547 205.246 487.311 205.501 487.008 205.507C486.811 205.511 486.613 205.513 486.414 205.513H485.872C485.569 205.513 485.324 205.267 485.324 204.965C485.324 204.662 485.569 204.417 485.872 204.417H486.414C486.599 204.417 486.782 204.415 486.966 204.411C487.268 204.406 487.523 204.641 487.535 204.943ZM483.142 204.965C483.142 205.267 482.897 205.513 482.594 205.513H481.509C481.207 205.513 480.961 205.267 480.961 204.965C480.961 204.662 481.207 204.417 481.509 204.417H482.594C482.897 204.417 483.142 204.662 483.142 204.965ZM478.78 204.965C478.78 205.267 478.535 205.513 478.232 205.513H477.147C476.844 205.513 476.599 205.267 476.599 204.965C476.599 204.662 476.844 204.417 477.147 204.417H478.232C478.535 204.417 478.78 204.662 478.78 204.965ZM474.418 204.965C474.418 205.267 474.172 205.513 473.87 205.513H472.785C472.482 205.513 472.237 205.267 472.237 204.965C472.237 204.662 472.482 204.417 472.785 204.417H473.87C474.172 204.417 474.418 204.662 474.418 204.965ZM470.056 204.965C470.056 205.267 469.81 205.513 469.507 205.513H468.422C468.12 205.513 467.874 205.267 467.874 204.965C467.874 204.662 468.12 204.417 468.422 204.417H469.507C469.81 204.417 470.056 204.662 470.056 204.965ZM465.693 204.965C465.693 205.267 465.448 205.513 465.145 205.513H464.06C463.757 205.513 463.512 205.267 463.512 204.965C463.512 204.662 463.757 204.417 464.06 204.417H465.145C465.448 204.417 465.693 204.662 465.693 204.965ZM461.331 204.965C461.331 205.267 461.085 205.513 460.783 205.513H459.698C459.395 205.513 459.15 205.267 459.15 204.965C459.15 204.662 459.395 204.417 459.698 204.417H460.783C461.085 204.417 461.331 204.662 461.331 204.965ZM456.968 204.965C456.968 205.267 456.723 205.513 456.42 205.513H455.335C455.033 205.513 454.787 205.267 454.787 204.965C454.787 204.662 455.033 204.417 455.335 204.417H456.42C456.723 204.417 456.968 204.662 456.968 204.965ZM452.606 204.965C452.606 205.267 452.361 205.513 452.058 205.513H450.973C450.67 205.513 450.425 205.267 450.425 204.965C450.425 204.662 450.67 204.417 450.973 204.417H452.058C452.361 204.417 452.606 204.662 452.606 204.965ZM448.244 204.965C448.244 205.267 447.998 205.513 447.696 205.513H446.611C446.308 205.513 446.063 205.267 446.063 204.965C446.063 204.662 446.308 204.417 446.611 204.417H447.696C447.998 204.417 448.244 204.662 448.244 204.965ZM443.882 204.965C443.882 205.267 443.636 205.513 443.333 205.513H442.248C441.946 205.513 441.7 205.267 441.7 204.965C441.7 204.662 441.946 204.417 442.248 204.417H443.333C443.636 204.417 443.882 204.662 443.882 204.965ZM439.519 204.965C439.519 205.267 439.274 205.513 438.971 205.513H437.886C437.583 205.513 437.338 205.267 437.338 204.965C437.338 204.662 437.583 204.417 437.886 204.417H438.971C439.274 204.417 439.519 204.662 439.519 204.965ZM435.157 204.965C435.157 205.267 434.911 205.513 434.609 205.513H433.524C433.221 205.513 432.976 205.267 432.976 204.965C432.976 204.662 433.221 204.417 433.524 204.417H434.609C434.911 204.417 435.157 204.662 435.157 204.965ZM430.794 204.965C430.794 205.267 430.549 205.513 430.246 205.513H429.161C428.859 205.513 428.613 205.267 428.613 204.965C428.613 204.662 428.859 204.417 429.161 204.417H430.246C430.549 204.417 430.794 204.662 430.794 204.965ZM426.432 204.965C426.432 205.267 426.187 205.513 425.884 205.513H424.799C424.496 205.513 424.251 205.267 424.251 204.965C424.251 204.662 424.496 204.417 424.799 204.417H425.884C426.187 204.417 426.432 204.662 426.432 204.965ZM422.07 204.965C422.07 205.267 421.824 205.513 421.522 205.513H420.437C420.134 205.513 419.889 205.267 419.889 204.965C419.889 204.662 420.134 204.417 420.437 204.417H421.522C421.824 204.417 422.07 204.662 422.07 204.965ZM417.707 204.965C417.707 205.267 417.462 205.513 417.159 205.513H416.074C415.772 205.513 415.526 205.267 415.526 204.965C415.526 204.662 415.772 204.417 416.074 204.417H417.159C417.462 204.417 417.707 204.662 417.707 204.965ZM413.345 204.965C413.345 205.267 413.1 205.513 412.797 205.513H411.712C411.409 205.513 411.164 205.267 411.164 204.965C411.164 204.662 411.409 204.417 411.712 204.417H412.797C413.1 204.417 413.345 204.662 413.345 204.965ZM408.983 204.965C408.983 205.267 408.737 205.513 408.435 205.513H407.35C407.047 205.513 406.802 205.267 406.802 204.965C406.802 204.662 407.047 204.417 407.35 204.417H408.435C408.737 204.417 408.983 204.662 408.983 204.965ZM404.62 204.965C404.62 205.267 404.375 205.513 404.072 205.513H402.987C402.685 205.513 402.439 205.267 402.439 204.965C402.439 204.662 402.685 204.417 402.987 204.417H404.072C404.375 204.417 404.62 204.662 404.62 204.965ZM400.258 204.965C400.258 205.267 400.013 205.513 399.71 205.513H398.625C398.322 205.513 398.077 205.267 398.077 204.965C398.077 204.662 398.322 204.417 398.625 204.417H399.71C400.013 204.417 400.258 204.662 400.258 204.965ZM395.896 204.965C395.896 205.267 395.65 205.513 395.348 205.513H394.263C393.96 205.513 393.715 205.267 393.715 204.965C393.715 204.662 393.96 204.417 394.263 204.417H395.348C395.65 204.417 395.896 204.662 395.896 204.965ZM391.533 204.965C391.533 205.267 391.288 205.513 390.985 205.513H389.9C389.598 205.513 389.352 205.267 389.352 204.965C389.352 204.662 389.598 204.417 389.9 204.417H390.985C391.288 204.417 391.533 204.662 391.533 204.965ZM387.171 204.965C387.171 205.267 386.926 205.513 386.623 205.513H385.538C385.235 205.513 384.99 205.267 384.99 204.965C384.99 204.662 385.235 204.417 385.538 204.417H386.623C386.926 204.417 387.171 204.662 387.171 204.965ZM382.809 204.965C382.809 205.267 382.563 205.513 382.261 205.513H381.176C380.873 205.513 380.628 205.267 380.628 204.965C380.628 204.662 380.873 204.417 381.176 204.417H382.261C382.563 204.417 382.809 204.662 382.809 204.965ZM378.446 204.965C378.446 205.267 378.201 205.513 377.898 205.513H376.813C376.511 205.513 376.265 205.267 376.265 204.965C376.265 204.662 376.511 204.417 376.813 204.417H377.898C378.201 204.417 378.446 204.662 378.446 204.965ZM374.084 204.965C374.084 205.267 373.839 205.513 373.536 205.513H372.451C372.148 205.513 371.903 205.267 371.903 204.965C371.903 204.662 372.148 204.417 372.451 204.417H373.536C373.839 204.417 374.084 204.662 374.084 204.965ZM369.722 204.965C369.722 205.267 369.476 205.513 369.174 205.513H368.089C367.786 205.513 367.541 205.267 367.541 204.965C367.541 204.662 367.786 204.417 368.089 204.417H369.174C369.476 204.417 369.722 204.662 369.722 204.965ZM365.359 204.965C365.359 205.267 365.114 205.513 364.811 205.513H363.726C363.424 205.513 363.178 205.267 363.178 204.965C363.178 204.662 363.424 204.417 363.726 204.417H364.811C365.114 204.417 365.359 204.662 365.359 204.965ZM360.997 204.965C360.997 205.267 360.752 205.513 360.449 205.513H359.364C359.061 205.513 358.816 205.267 358.816 204.965C358.816 204.662 359.061 204.417 359.364 204.417H360.449C360.752 204.417 360.997 204.662 360.997 204.965ZM356.635 204.965C356.635 205.267 356.389 205.513 356.087 205.513H355.002C354.699 205.513 354.454 205.267 354.454 204.965C354.454 204.662 354.699 204.417 355.002 204.417H356.087C356.389 204.417 356.635 204.662 356.635 204.965ZM352.272 204.965C352.272 205.267 352.027 205.513 351.724 205.513H350.639C350.337 205.513 350.091 205.267 350.091 204.965C350.091 204.662 350.337 204.417 350.639 204.417H351.724C352.027 204.417 352.272 204.662 352.272 204.965ZM347.91 204.965C347.91 205.267 347.665 205.513 347.362 205.513H346.277C345.974 205.513 345.729 205.267 345.729 204.965C345.729 204.662 345.974 204.417 346.277 204.417H347.362C347.665 204.417 347.91 204.662 347.91 204.965ZM343.548 204.965C343.548 205.267 343.302 205.513 343 205.513H341.915C341.612 205.513 341.367 205.267 341.367 204.965C341.367 204.662 341.612 204.417 341.915 204.417H343C343.302 204.417 343.548 204.662 343.548 204.965ZM339.185 204.965C339.185 205.267 338.94 205.513 338.637 205.513H337.552C337.25 205.513 337.004 205.267 337.004 204.965C337.004 204.662 337.25 204.417 337.552 204.417H338.637C338.94 204.417 339.185 204.662 339.185 204.965ZM334.823 204.965C334.823 205.267 334.578 205.513 334.275 205.513H333.19C332.887 205.513 332.642 205.267 332.642 204.965C332.642 204.662 332.887 204.417 333.19 204.417H334.275C334.578 204.417 334.823 204.662 334.823 204.965ZM330.461 204.965C330.461 205.267 330.215 205.513 329.913 205.513H328.828C328.525 205.513 328.28 205.267 328.28 204.965C328.28 204.662 328.525 204.417 328.828 204.417H329.913C330.215 204.417 330.461 204.662 330.461 204.965ZM326.098 204.965C326.098 205.267 325.853 205.513 325.55 205.513H324.465C324.163 205.513 323.917 205.267 323.917 204.965C323.917 204.662 324.163 204.417 324.465 204.417H325.55C325.853 204.417 326.098 204.662 326.098 204.965ZM321.736 204.965C321.736 205.267 321.491 205.513 321.188 205.513H320.103C319.8 205.513 319.555 205.267 319.555 204.965C319.555 204.662 319.8 204.417 320.103 204.417H321.188C321.491 204.417 321.736 204.662 321.736 204.965ZM317.374 204.965C317.374 205.267 317.128 205.513 316.826 205.513H315.741C315.438 205.513 315.193 205.267 315.193 204.965C315.193 204.662 315.438 204.417 315.741 204.417H316.826C317.128 204.417 317.374 204.662 317.374 204.965ZM313.011 204.965C313.011 205.267 312.766 205.513 312.463 205.513H311.378C311.076 205.513 310.83 205.267 310.83 204.965C310.83 204.662 311.076 204.417 311.378 204.417H312.463C312.766 204.417 313.011 204.662 313.011 204.965ZM308.649 204.965C308.649 205.267 308.404 205.513 308.101 205.513H307.016C306.713 205.513 306.468 205.267 306.468 204.965C306.468 204.662 306.713 204.417 307.016 204.417H308.101C308.404 204.417 308.649 204.662 308.649 204.965ZM304.287 204.965C304.287 205.267 304.041 205.513 303.739 205.513H302.654C302.351 205.513 302.106 205.267 302.106 204.965C302.106 204.662 302.351 204.417 302.654 204.417H303.739C304.041 204.417 304.287 204.662 304.287 204.965ZM299.924 204.965C299.924 205.267 299.679 205.513 299.376 205.513H298.291C297.989 205.513 297.743 205.267 297.743 204.965C297.743 204.662 297.989 204.417 298.291 204.417H299.376C299.679 204.417 299.924 204.662 299.924 204.965ZM295.562 204.965C295.562 205.267 295.317 205.513 295.014 205.513H293.929C293.626 205.513 293.381 205.267 293.381 204.965C293.381 204.662 293.626 204.417 293.929 204.417H295.014C295.317 204.417 295.562 204.662 295.562 204.965ZM291.2 204.965C291.2 205.267 290.954 205.513 290.652 205.513H289.567C289.264 205.513 289.019 205.267 289.019 204.965C289.019 204.662 289.264 204.417 289.567 204.417H290.652C290.954 204.417 291.2 204.662 291.2 204.965ZM286.837 204.965C286.837 205.267 286.592 205.513 286.289 205.513H285.204C284.902 205.513 284.656 205.267 284.656 204.965C284.656 204.662 284.902 204.417 285.204 204.417H286.289C286.592 204.417 286.837 204.662 286.837 204.965ZM282.475 204.965C282.475 205.267 282.23 205.513 281.927 205.513H280.842C280.539 205.513 280.294 205.267 280.294 204.965C280.294 204.662 280.539 204.417 280.842 204.417H281.927C282.23 204.417 282.475 204.662 282.475 204.965ZM278.113 204.965C278.113 205.267 277.867 205.513 277.565 205.513H276.48C276.177 205.513 275.932 205.267 275.932 204.965C275.932 204.662 276.177 204.417 276.48 204.417H277.565C277.867 204.417 278.113 204.662 278.113 204.965ZM273.75 204.965C273.75 205.267 273.505 205.513 273.202 205.513H272.117C271.815 205.513 271.569 205.267 271.569 204.965C271.569 204.662 271.815 204.417 272.117 204.417H273.202C273.505 204.417 273.75 204.662 273.75 204.965ZM269.388 204.965C269.388 205.266 269.144 205.513 268.843 205.513C268.542 205.513 268.298 205.266 268.298 204.965C268.298 204.664 268.542 204.417 268.843 204.417C269.144 204.417 269.388 204.664 269.388 204.965ZM31.5487 142.489L31.0006 142.489C31.0006 142.489 31.0006 142.489 31.0006 142.489V142.489V142.49L31.0006 142.49L31.0006 142.493L31.0006 142.506L31.0006 142.556L31.0006 142.756L31.0006 142.996C31.0006 143.298 31.2459 143.544 31.5486 143.544C31.8513 143.544 32.0967 143.298 32.0967 142.996L32.0967 142.756L32.0967 142.556L32.0967 142.506L32.0967 142.494L32.0967 142.49V142.49V142.489V142.489C32.0967 142.489 32.0967 142.489 32.0967 142.489L31.5487 142.489ZM31.5485 145.668C31.2459 145.668 31.0005 145.913 31.0005 146.216L31.0004 147.249C31.0004 147.551 31.2458 147.797 31.5484 147.797C31.8511 147.797 32.0965 147.551 32.0965 147.249L32.0965 146.216C32.0965 145.913 31.8512 145.668 31.5485 145.668ZM31.5484 149.914C31.2457 149.914 31.0003 150.159 31.0003 150.462L31.0003 151.489C31.0003 151.792 31.2456 152.037 31.5483 152.037C31.851 152.037 32.0963 151.792 32.0964 151.489L32.0964 150.462C32.0964 150.159 31.851 149.914 31.5484 149.914ZM31.5483 154.164C31.2456 154.164 31.0002 154.41 31.0002 154.712L31.0002 155.737C31.0002 156.039 31.2455 156.285 31.5482 156.285C31.8509 156.285 32.0962 156.039 32.0962 155.737L32.0963 154.712C32.0963 154.41 31.8509 154.164 31.5483 154.164ZM31.5482 158.407C31.2455 158.407 31.0001 158.653 31.0001 158.955L31.0001 159.983C31.0001 160.286 31.2455 160.531 31.5481 160.531C31.8508 160.531 32.0962 160.286 32.0962 159.983L32.0962 158.955C32.0962 158.653 31.8508 158.407 31.5482 158.407ZM31.5481 162.656C31.2454 162.656 31.0001 162.902 31.0001 163.204L31 164.228C31 164.531 31.2454 164.776 31.5481 164.776C31.8507 164.776 32.0961 164.531 32.0961 164.228L32.0961 163.204C32.0961 162.902 31.8508 162.656 31.5481 162.656ZM31.5481 166.901C31.2454 166.901 31 167.147 31 167.449L31 168.481C31 168.783 31.2454 169.029 31.548 169.029C31.8507 169.029 32.0961 168.783 32.0961 168.481L32.0961 167.449C32.0961 167.147 31.8507 166.901 31.5481 166.901ZM31.548 171.149C31.2454 171.149 31 171.394 31 171.697L31 172.722C31 173.025 31.2454 173.27 31.548 173.27C31.8507 173.27 32.0961 173.025 32.0961 172.722L32.0961 171.697C32.0961 171.394 31.8507 171.149 31.548 171.149ZM31.548 175.393C31.2454 175.393 31 175.639 31 175.941L31 176.46C31 176.659 31.002 176.857 31.006 177.054C31.012 177.357 31.2672 177.592 31.5697 177.581C31.8721 177.569 32.1073 177.314 32.1014 177.012C32.0979 176.828 32.0961 176.644 32.0961 176.46L32.0961 175.941C32.0961 175.639 31.8507 175.393 31.548 175.393ZM31.7431 179.812C31.4425 179.847 31.2268 180.12 31.2677 180.42C31.3212 180.812 31.3826 181.202 31.4517 181.59C31.5048 181.888 31.7936 182.081 32.0906 182.022C32.3875 181.964 32.58 181.675 32.5271 181.377C32.4633 181.018 32.4064 180.656 32.3565 180.292C32.3154 179.992 32.0437 179.777 31.7431 179.812ZM32.6114 184.199C32.3201 184.281 32.1498 184.584 32.2374 184.874C32.3519 185.253 32.4739 185.629 32.6033 186.001C32.7027 186.287 33.0183 186.432 33.3023 186.327C33.5863 186.223 33.731 185.908 33.6318 185.622C33.5121 185.276 33.399 184.928 33.2926 184.577C33.2049 184.287 32.9028 184.117 32.6114 184.199ZM34.1596 188.395C33.8848 188.522 33.7644 188.848 33.8965 189.12C34.0692 189.476 34.2489 189.828 34.4355 190.176C34.5786 190.443 34.9131 190.537 35.177 190.389C35.441 190.24 35.5344 189.907 35.3915 189.64C35.2188 189.317 35.0521 188.991 34.8918 188.661C34.7596 188.389 34.4344 188.268 34.1596 188.395ZM36.3479 192.296C36.0963 192.464 36.0285 192.805 36.2015 193.053C36.4276 193.377 36.6602 193.697 36.899 194.012C37.082 194.253 37.427 194.293 37.6646 194.106C37.9022 193.918 37.9424 193.574 37.7595 193.333C37.5382 193.041 37.3225 192.744 37.1126 192.443C36.9393 192.195 36.5994 192.127 36.3479 192.296ZM39.1185 195.807C38.8963 196.012 38.8823 196.36 39.0919 196.578C39.3655 196.863 39.6449 197.142 39.9298 197.416C40.1481 197.626 40.4952 197.612 40.7008 197.39C40.9063 197.168 40.8925 196.821 40.6743 196.611C40.4101 196.357 40.1509 196.098 39.8969 195.834C39.6871 195.615 39.3408 195.601 39.1185 195.807ZM42.4015 198.844C42.2139 199.082 42.2541 199.427 42.4951 199.61C42.8096 199.849 43.1291 200.082 43.4535 200.308C43.7018 200.481 44.0425 200.413 44.2109 200.162C44.3794 199.91 44.3117 199.57 44.0636 199.397C43.7629 199.187 43.4665 198.971 43.1746 198.75C42.9334 198.567 42.5891 198.607 42.4015 198.844ZM46.1177 201.333C45.9695 201.597 46.063 201.932 46.3297 202.075C46.6774 202.262 47.0294 202.442 47.3855 202.614C47.6578 202.747 47.9837 202.626 48.1106 202.351C48.2376 202.077 48.1175 201.752 47.8453 201.619C47.5153 201.459 47.189 201.292 46.8664 201.119C46.5997 200.976 46.2658 201.07 46.1177 201.333ZM50.1782 203.209C50.0734 203.493 50.2184 203.809 50.5043 203.908C50.8766 204.038 51.2523 204.16 51.6313 204.275C51.921 204.362 52.2239 204.192 52.306 203.901C52.388 203.609 52.2182 203.307 51.9286 203.219C51.5774 203.113 51.2292 203 50.884 202.88C50.5981 202.781 50.2831 202.925 50.1782 203.209ZM54.483 204.422C54.4242 204.719 54.6172 205.008 54.9152 205.061C55.3028 205.13 55.693 205.191 56.0858 205.245C56.3856 205.286 56.658 205.07 56.6932 204.77C56.7285 204.469 56.5133 204.197 56.2134 204.156C55.8493 204.106 55.4875 204.049 55.1281 203.985C54.83 203.933 54.5418 204.125 54.483 204.422ZM58.9246 204.943C58.9129 205.246 59.1486 205.501 59.4512 205.507C59.6487 205.511 59.8467 205.513 60.0451 205.513H60.5818C60.8844 205.513 61.1298 205.267 61.1298 204.965C61.1298 204.662 60.8844 204.417 60.5818 204.417H60.0451C59.8608 204.417 59.677 204.415 59.4935 204.411C59.1909 204.406 58.9363 204.641 58.9246 204.943ZM63.2991 204.965C63.2991 205.267 63.5444 205.513 63.8471 205.513H64.9203C65.223 205.513 65.4684 205.267 65.4684 204.965C65.4684 204.662 65.223 204.417 64.9203 204.417H63.8471C63.5444 204.417 63.2991 204.662 63.2991 204.965ZM67.6377 204.965C67.6377 205.267 67.883 205.513 68.1857 205.513H69.2589C69.5616 205.513 69.807 205.267 69.807 204.965C69.807 204.662 69.5616 204.417 69.2589 204.417H68.1857C67.883 204.417 67.6377 204.662 67.6377 204.965ZM71.9763 204.965C71.9763 205.267 72.2216 205.513 72.5243 205.513H73.5975C73.9002 205.513 74.1455 205.267 74.1455 204.965C74.1455 204.662 73.9002 204.417 73.5975 204.417H72.5243C72.2216 204.417 71.9763 204.662 71.9763 204.965ZM76.3148 204.965C76.3148 205.267 76.5602 205.513 76.8629 205.513H77.9361C78.2388 205.513 78.4841 205.267 78.4841 204.965C78.4841 204.662 78.2388 204.417 77.9361 204.417H76.8629C76.5602 204.417 76.3148 204.662 76.3148 204.965ZM80.6534 204.965C80.6534 205.267 80.8988 205.513 81.2015 205.513H82.2747C82.5774 205.513 82.8227 205.267 82.8227 204.965C82.8227 204.662 82.5774 204.417 82.2747 204.417H81.2015C80.8988 204.417 80.6534 204.662 80.6534 204.965ZM84.992 204.965C84.992 205.267 85.2374 205.513 85.5401 205.513H86.6133C86.916 205.513 87.1613 205.267 87.1613 204.965C87.1613 204.662 86.916 204.417 86.6133 204.417H85.5401C85.2374 204.417 84.992 204.662 84.992 204.965ZM89.3306 204.965C89.3306 205.267 89.576 205.513 89.8786 205.513H90.9519C91.2545 205.513 91.4999 205.267 91.4999 204.965C91.4999 204.662 91.2545 204.417 90.9519 204.417H89.8786C89.576 204.417 89.3306 204.662 89.3306 204.965ZM93.6692 204.965C93.6692 205.267 93.9146 205.513 94.2172 205.513H95.2905C95.5931 205.513 95.8385 205.267 95.8385 204.965C95.8385 204.662 95.5931 204.417 95.2905 204.417H94.2172C93.9146 204.417 93.6692 204.662 93.6692 204.965ZM98.0078 204.965C98.0078 205.267 98.2531 205.513 98.5558 205.513H99.629C99.9317 205.513 100.177 205.267 100.177 204.965C100.177 204.662 99.9317 204.417 99.629 204.417H98.5558C98.2531 204.417 98.0078 204.662 98.0078 204.965ZM102.346 204.965C102.346 205.267 102.592 205.513 102.894 205.513H103.968C104.27 205.513 104.516 205.267 104.516 204.965C104.516 204.662 104.27 204.417 103.968 204.417H102.894C102.592 204.417 102.346 204.662 102.346 204.965ZM106.685 204.965C106.685 205.267 106.93 205.513 107.233 205.513H108.306C108.609 205.513 108.854 205.267 108.854 204.965C108.854 204.662 108.609 204.417 108.306 204.417H107.233C106.93 204.417 106.685 204.662 106.685 204.965ZM111.024 204.965C111.024 205.267 111.269 205.513 111.572 205.513H112.645C112.947 205.513 113.193 205.267 113.193 204.965C113.193 204.662 112.947 204.417 112.645 204.417H111.572C111.269 204.417 111.024 204.662 111.024 204.965ZM115.362 204.965C115.362 205.267 115.607 205.513 115.91 205.513H116.983C117.286 205.513 117.531 205.267 117.531 204.965C117.531 204.662 117.286 204.417 116.983 204.417H115.91C115.607 204.417 115.362 204.662 115.362 204.965ZM119.701 204.965C119.701 205.267 119.946 205.513 120.249 205.513H121.322C121.625 205.513 121.87 205.267 121.87 204.965C121.87 204.662 121.625 204.417 121.322 204.417H120.249C119.946 204.417 119.701 204.662 119.701 204.965ZM124.039 204.965C124.039 205.267 124.285 205.513 124.587 205.513H125.661C125.963 205.513 126.209 205.267 126.209 204.965C126.209 204.662 125.963 204.417 125.661 204.417H124.587C124.285 204.417 124.039 204.662 124.039 204.965ZM128.378 204.965C128.378 205.267 128.623 205.513 128.926 205.513H129.999C130.302 205.513 130.547 205.267 130.547 204.965C130.547 204.662 130.302 204.417 129.999 204.417H128.926C128.623 204.417 128.378 204.662 128.378 204.965ZM132.716 204.965C132.716 205.267 132.962 205.513 133.265 205.513H134.338C134.64 205.513 134.886 205.267 134.886 204.965C134.886 204.662 134.64 204.417 134.338 204.417H133.265C132.962 204.417 132.716 204.662 132.716 204.965ZM137.055 204.965C137.055 205.267 137.3 205.513 137.603 205.513H138.676C138.979 205.513 139.224 205.267 139.224 204.965C139.224 204.662 138.979 204.417 138.676 204.417H137.603C137.3 204.417 137.055 204.662 137.055 204.965ZM141.394 204.965C141.394 205.267 141.639 205.513 141.942 205.513H143.015C143.318 205.513 143.563 205.267 143.563 204.965C143.563 204.662 143.318 204.417 143.015 204.417H141.942C141.639 204.417 141.394 204.662 141.394 204.965ZM145.732 204.965C145.732 205.267 145.978 205.513 146.28 205.513H147.354C147.656 205.513 147.902 205.267 147.902 204.965C147.902 204.662 147.656 204.417 147.354 204.417H146.28C145.978 204.417 145.732 204.662 145.732 204.965ZM150.071 204.965C150.071 205.267 150.316 205.513 150.619 205.513H151.692C151.995 205.513 152.24 205.267 152.24 204.965C152.24 204.662 151.995 204.417 151.692 204.417H150.619C150.316 204.417 150.071 204.662 150.071 204.965ZM154.409 204.965C154.409 205.267 154.655 205.513 154.957 205.513H156.031C156.333 205.513 156.579 205.267 156.579 204.965C156.579 204.662 156.333 204.417 156.031 204.417H154.957C154.655 204.417 154.409 204.662 154.409 204.965ZM158.748 204.965C158.748 205.267 158.993 205.513 159.296 205.513H160.369C160.672 205.513 160.917 205.267 160.917 204.965C160.917 204.662 160.672 204.417 160.369 204.417H159.296C158.993 204.417 158.748 204.662 158.748 204.965ZM163.087 204.965C163.087 205.267 163.332 205.513 163.635 205.513H164.708C165.011 205.513 165.256 205.267 165.256 204.965C165.256 204.662 165.011 204.417 164.708 204.417H163.635C163.332 204.417 163.087 204.662 163.087 204.965ZM167.425 204.965C167.425 205.267 167.671 205.513 167.973 205.513H169.046C169.349 205.513 169.594 205.267 169.594 204.965C169.594 204.662 169.349 204.417 169.046 204.417H167.973C167.671 204.417 167.425 204.662 167.425 204.965ZM171.764 204.965C171.764 205.267 172.009 205.513 172.312 205.513H173.385C173.688 205.513 173.933 205.267 173.933 204.965C173.933 204.662 173.688 204.417 173.385 204.417H172.312C172.009 204.417 171.764 204.662 171.764 204.965ZM176.102 204.965C176.102 205.267 176.348 205.513 176.65 205.513H177.724C178.026 205.513 178.272 205.267 178.272 204.965C178.272 204.662 178.026 204.417 177.724 204.417H176.65C176.348 204.417 176.102 204.662 176.102 204.965ZM180.441 204.965C180.441 205.267 180.686 205.513 180.989 205.513H182.062C182.365 205.513 182.61 205.267 182.61 204.965C182.61 204.662 182.365 204.417 182.062 204.417H180.989C180.686 204.417 180.441 204.662 180.441 204.965ZM184.78 204.965C184.78 205.267 185.025 205.513 185.328 205.513H186.401C186.704 205.513 186.949 205.267 186.949 204.965C186.949 204.662 186.704 204.417 186.401 204.417H185.328C185.025 204.417 184.78 204.662 184.78 204.965ZM189.118 204.965C189.118 205.267 189.364 205.513 189.666 205.513H190.739C191.042 205.513 191.287 205.267 191.287 204.965C191.287 204.662 191.042 204.417 190.739 204.417H189.666C189.364 204.417 189.118 204.662 189.118 204.965ZM193.457 204.965C193.457 205.267 193.702 205.513 194.005 205.513H195.078C195.381 205.513 195.626 205.267 195.626 204.965C195.626 204.662 195.381 204.417 195.078 204.417H194.005C193.702 204.417 193.457 204.662 193.457 204.965ZM197.795 204.965C197.795 205.267 198.041 205.513 198.343 205.513H199.417C199.719 205.513 199.965 205.267 199.965 204.965C199.965 204.662 199.719 204.417 199.417 204.417H198.343C198.041 204.417 197.795 204.662 197.795 204.965ZM202.134 204.965C202.134 205.267 202.379 205.513 202.682 205.513H203.755C204.058 205.513 204.303 205.267 204.303 204.965C204.303 204.662 204.058 204.417 203.755 204.417H202.682C202.379 204.417 202.134 204.662 202.134 204.965ZM206.473 204.965C206.473 205.267 206.718 205.513 207.021 205.513H208.094C208.396 205.513 208.642 205.267 208.642 204.965C208.642 204.662 208.396 204.417 208.094 204.417H207.021C206.718 204.417 206.473 204.662 206.473 204.965ZM210.811 204.965C210.811 205.267 211.056 205.513 211.359 205.513H212.432C212.735 205.513 212.98 205.267 212.98 204.965C212.98 204.662 212.735 204.417 212.432 204.417H211.359C211.056 204.417 210.811 204.662 210.811 204.965ZM215.15 204.965C215.15 205.267 215.395 205.513 215.698 205.513H216.771C217.074 205.513 217.319 205.267 217.319 204.965C217.319 204.662 217.074 204.417 216.771 204.417H215.698C215.395 204.417 215.15 204.662 215.15 204.965ZM219.488 204.965C219.488 205.267 219.734 205.513 220.036 205.513H221.11C221.412 205.513 221.658 205.267 221.658 204.965C221.658 204.662 221.412 204.417 221.11 204.417H220.036C219.734 204.417 219.488 204.662 219.488 204.965ZM223.827 204.965C223.827 205.267 224.072 205.513 224.375 205.513H225.448C225.751 205.513 225.996 205.267 225.996 204.965C225.996 204.662 225.751 204.417 225.448 204.417H224.375C224.072 204.417 223.827 204.662 223.827 204.965ZM228.165 204.965C228.165 205.267 228.411 205.513 228.714 205.513H229.787C230.089 205.513 230.335 205.267 230.335 204.965C230.335 204.662 230.089 204.417 229.787 204.417H228.714C228.411 204.417 228.165 204.662 228.165 204.965ZM232.504 204.965C232.504 205.267 232.749 205.513 233.052 205.513H234.125C234.428 205.513 234.673 205.267 234.673 204.965C234.673 204.662 234.428 204.417 234.125 204.417H233.052C232.749 204.417 232.504 204.662 232.504 204.965ZM236.843 204.965C236.843 205.267 237.088 205.513 237.391 205.513H238.464C238.767 205.513 239.012 205.267 239.012 204.965C239.012 204.662 238.767 204.417 238.464 204.417H237.391C237.088 204.417 236.843 204.662 236.843 204.965ZM241.181 204.965C241.181 205.267 241.427 205.513 241.729 205.513H242.803C243.105 205.513 243.351 205.267 243.351 204.965C243.351 204.662 243.105 204.417 242.803 204.417H241.729C241.427 204.417 241.181 204.662 241.181 204.965ZM245.52 204.965C245.52 205.267 245.765 205.513 246.068 205.513H247.141C247.444 205.513 247.689 205.267 247.689 204.965C247.689 204.662 247.444 204.417 247.141 204.417H246.068C245.765 204.417 245.52 204.662 245.52 204.965ZM249.858 204.965C249.858 205.267 250.104 205.513 250.406 205.513H251.48C251.782 205.513 252.028 205.267 252.028 204.965C252.028 204.662 251.782 204.417 251.48 204.417H250.406C250.104 204.417 249.858 204.662 249.858 204.965ZM254.197 204.965C254.197 205.267 254.442 205.513 254.745 205.513H255.818C256.121 205.513 256.366 205.267 256.366 204.965C256.366 204.662 256.121 204.417 255.818 204.417H254.745C254.442 204.417 254.197 204.662 254.197 204.965ZM258.536 204.965C258.536 205.267 258.781 205.513 259.084 205.513H260.157C260.46 205.513 260.705 205.267 260.705 204.965C260.705 204.662 260.46 204.417 260.157 204.417H259.084C258.781 204.417 258.536 204.662 258.536 204.965ZM262.874 204.965C262.874 205.267 263.12 205.513 263.422 205.513H264.495C264.798 205.513 265.044 205.267 265.044 204.965C265.044 204.662 264.798 204.417 264.495 204.417H263.422C263.12 204.417 262.874 204.662 262.874 204.965ZM267.213 204.971C267.213 205.27 267.456 205.513 267.755 205.513C268.055 205.513 268.297 205.27 268.297 204.971V204.959C268.297 204.66 268.055 204.417 267.755 204.417C267.456 204.417 267.213 204.66 267.213 204.959V204.971Z" fill="url(#paint38_linear_914_10360)"/>
<path d="M273 207.155L273 271.823" stroke="url(#paint39_linear_914_10360)" stroke-width="1.09606" stroke-dasharray="2.19 2.19"/>
<ellipse cx="177.5" cy="205" rx="100.5" ry="1" fill="url(#paint40_linear_914_10360)"/>
<ellipse cx="373.5" cy="205" rx="100.5" ry="0.999991" transform="rotate(-180 373.5 205)" fill="url(#paint41_linear_914_10360)"/>
<defs>
<linearGradient id="paint0_linear_914_10360" x1="300.691" y1="271.824" x2="315.089" y2="530.79" gradientUnits="userSpaceOnUse">
<stop stop-color="#2964BB" stop-opacity="0.6"/>
<stop offset="0.944269" stop-color="#4F4F4F" stop-opacity="0"/>
</linearGradient>
<linearGradient id="paint1_linear_914_10360" x1="310.118" y1="551.287" x2="308.851" y2="259.351" gradientUnits="userSpaceOnUse">
<stop stop-color="#00349A"/>
<stop offset="0.411458" stop-color="#AFC1FF" stop-opacity="0.59"/>
<stop offset="1" stop-color="#708AE6" stop-opacity="0"/>
</linearGradient>
<linearGradient id="paint2_linear_914_10360" x1="300.691" y1="271.824" x2="315.089" y2="530.79" gradientUnits="userSpaceOnUse">
<stop stop-color="#2964BB" stop-opacity="0.6"/>
<stop offset="0.944269" stop-color="#4F4F4F" stop-opacity="0"/>
</linearGradient>
<linearGradient id="paint3_linear_914_10360" x1="538.638" y1="558.571" x2="13.3706" y2="400.168" gradientUnits="userSpaceOnUse">
<stop stop-color="#455575"/>
<stop offset="0.411458" stop-color="#AFC1FF" stop-opacity="0.59"/>
<stop offset="1" stop-color="#708AE6" stop-opacity="0.24"/>
</linearGradient>
<linearGradient id="paint4_linear_914_10360" x1="24.5294" y1="180.934" x2="24.5282" y2="678.859" gradientUnits="userSpaceOnUse">
<stop stop-color="#689BFF" stop-opacity="0.33"/>
<stop offset="0.649746" stop-color="#759CE8" stop-opacity="0.115584"/>
<stop offset="1" stop-color="#7C9CDB" stop-opacity="0"/>
</linearGradient>
<linearGradient id="paint5_linear_914_10360" x1="68.3721" y1="180.933" x2="68.371" y2="678.858" gradientUnits="userSpaceOnUse">
<stop stop-color="#689BFF" stop-opacity="0.33"/>
<stop offset="0.649746" stop-color="#759CE8" stop-opacity="0.115584"/>
<stop offset="1" stop-color="#7C9CDB" stop-opacity="0"/>
</linearGradient>
<linearGradient id="paint6_linear_914_10360" x1="112.214" y1="180.934" x2="112.213" y2="678.859" gradientUnits="userSpaceOnUse">
<stop stop-color="#689BFF" stop-opacity="0.33"/>
<stop offset="0.649746" stop-color="#759CE8" stop-opacity="0.115584"/>
<stop offset="1" stop-color="#7C9CDB" stop-opacity="0"/>
</linearGradient>
<linearGradient id="paint7_linear_914_10360" x1="156.057" y1="180.934" x2="156.056" y2="678.859" gradientUnits="userSpaceOnUse">
<stop stop-color="#689BFF" stop-opacity="0.33"/>
<stop offset="0.649746" stop-color="#759CE8" stop-opacity="0.115584"/>
<stop offset="1" stop-color="#7C9CDB" stop-opacity="0"/>
</linearGradient>
<linearGradient id="paint8_linear_914_10360" x1="199.9" y1="180.934" x2="199.899" y2="678.859" gradientUnits="userSpaceOnUse">
<stop stop-color="#689BFF" stop-opacity="0.33"/>
<stop offset="0.649746" stop-color="#759CE8" stop-opacity="0.115584"/>
<stop offset="1" stop-color="#7C9CDB" stop-opacity="0"/>
</linearGradient>
<linearGradient id="paint9_linear_914_10360" x1="243.742" y1="180.934" x2="243.741" y2="678.859" gradientUnits="userSpaceOnUse">
<stop stop-color="#689BFF" stop-opacity="0.33"/>
<stop offset="0.649746" stop-color="#759CE8" stop-opacity="0.115584"/>
<stop offset="1" stop-color="#7C9CDB" stop-opacity="0"/>
</linearGradient>
<linearGradient id="paint10_linear_914_10360" x1="287.585" y1="180.934" x2="287.584" y2="678.859" gradientUnits="userSpaceOnUse">
<stop stop-color="#689BFF" stop-opacity="0.33"/>
<stop offset="0.649746" stop-color="#759CE8" stop-opacity="0.115584"/>
<stop offset="1" stop-color="#7C9CDB" stop-opacity="0"/>
</linearGradient>
<linearGradient id="paint11_linear_914_10360" x1="331.427" y1="180.934" x2="331.426" y2="678.859" gradientUnits="userSpaceOnUse">
<stop stop-color="#689BFF" stop-opacity="0.33"/>
<stop offset="0.649746" stop-color="#759CE8" stop-opacity="0.115584"/>
<stop offset="1" stop-color="#7C9CDB" stop-opacity="0"/>
</linearGradient>
<linearGradient id="paint12_linear_914_10360" x1="375.27" y1="180.934" x2="375.268" y2="678.859" gradientUnits="userSpaceOnUse">
<stop stop-color="#689BFF" stop-opacity="0.33"/>
<stop offset="0.649746" stop-color="#759CE8" stop-opacity="0.115584"/>
<stop offset="1" stop-color="#7C9CDB" stop-opacity="0"/>
</linearGradient>
<linearGradient id="paint13_linear_914_10360" x1="419.111" y1="180.934" x2="419.11" y2="678.859" gradientUnits="userSpaceOnUse">
<stop stop-color="#689BFF" stop-opacity="0.33"/>
<stop offset="0.649746" stop-color="#759CE8" stop-opacity="0.115584"/>
<stop offset="1" stop-color="#7C9CDB" stop-opacity="0"/>
</linearGradient>
<linearGradient id="paint14_linear_914_10360" x1="462.954" y1="180.934" x2="462.953" y2="678.859" gradientUnits="userSpaceOnUse">
<stop stop-color="#689BFF" stop-opacity="0.33"/>
<stop offset="0.649746" stop-color="#759CE8" stop-opacity="0.115584"/>
<stop offset="1" stop-color="#7C9CDB" stop-opacity="0"/>
</linearGradient>
<linearGradient id="paint15_linear_914_10360" x1="506.797" y1="180.934" x2="506.796" y2="678.859" gradientUnits="userSpaceOnUse">
<stop stop-color="#689BFF" stop-opacity="0.33"/>
<stop offset="0.649746" stop-color="#759CE8" stop-opacity="0.115584"/>
<stop offset="1" stop-color="#7C9CDB" stop-opacity="0"/>
</linearGradient>
<linearGradient id="paint16_linear_914_10360" x1="550.639" y1="180.933" x2="550.638" y2="678.858" gradientUnits="userSpaceOnUse">
<stop stop-color="#689BFF" stop-opacity="0.33"/>
<stop offset="0.649746" stop-color="#759CE8" stop-opacity="0.115584"/>
<stop offset="1" stop-color="#7C9CDB" stop-opacity="0"/>
</linearGradient>
<linearGradient id="paint17_linear_914_10360" x1="514.151" y1="270.733" x2="-140.004" y2="270.732" gradientUnits="userSpaceOnUse">
<stop stop-color="#689BFF" stop-opacity="0.33"/>
<stop offset="0.649746" stop-color="#759CE8" stop-opacity="0.115584"/>
<stop offset="1" stop-color="#7C9CDB" stop-opacity="0"/>
</linearGradient>
<linearGradient id="paint18_linear_914_10360" x1="514.151" y1="312.383" x2="-140.004" y2="312.381" gradientUnits="userSpaceOnUse">
<stop stop-color="#689BFF" stop-opacity="0.33"/>
<stop offset="0.649746" stop-color="#759CE8" stop-opacity="0.115584"/>
<stop offset="1" stop-color="#7C9CDB" stop-opacity="0"/>
</linearGradient>
<linearGradient id="paint19_linear_914_10360" x1="514.151" y1="356.226" x2="-140.004" y2="356.224" gradientUnits="userSpaceOnUse">
<stop stop-color="#689BFF" stop-opacity="0.33"/>
<stop offset="0.649746" stop-color="#759CE8" stop-opacity="0.115584"/>
<stop offset="1" stop-color="#7C9CDB" stop-opacity="0"/>
</linearGradient>
<linearGradient id="paint20_linear_914_10360" x1="514.151" y1="400.068" x2="-140.004" y2="400.066" gradientUnits="userSpaceOnUse">
<stop stop-color="#689BFF" stop-opacity="0.33"/>
<stop offset="0.649746" stop-color="#759CE8" stop-opacity="0.115584"/>
<stop offset="1" stop-color="#7C9CDB" stop-opacity="0"/>
</linearGradient>
<linearGradient id="paint21_linear_914_10360" x1="514.151" y1="443.91" x2="-140.004" y2="443.908" gradientUnits="userSpaceOnUse">
<stop stop-color="#689BFF" stop-opacity="0.33"/>
<stop offset="0.649746" stop-color="#759CE8" stop-opacity="0.115584"/>
<stop offset="1" stop-color="#7C9CDB" stop-opacity="0"/>
</linearGradient>
<linearGradient id="paint22_linear_914_10360" x1="514.151" y1="487.753" x2="-140.004" y2="487.751" gradientUnits="userSpaceOnUse">
<stop stop-color="#689BFF" stop-opacity="0.33"/>
<stop offset="0.649746" stop-color="#759CE8" stop-opacity="0.115584"/>
<stop offset="1" stop-color="#7C9CDB" stop-opacity="0"/>
</linearGradient>
<linearGradient id="paint23_linear_914_10360" x1="514.151" y1="531.595" x2="-140.004" y2="531.593" gradientUnits="userSpaceOnUse">
<stop stop-color="#689BFF" stop-opacity="0.33"/>
<stop offset="0.649746" stop-color="#759CE8" stop-opacity="0.115584"/>
<stop offset="1" stop-color="#7C9CDB" stop-opacity="0"/>
</linearGradient>
<linearGradient id="paint24_linear_914_10360" x1="87.3965" y1="313.473" x2="269.343" y2="312.377" gradientUnits="userSpaceOnUse">
<stop stop-color="#87A9EA"/>
<stop offset="1" stop-color="#83ADFF" stop-opacity="0"/>
</linearGradient>
<linearGradient id="paint25_linear_914_10360" x1="107.494" y1="421.437" x2="220.84" y2="421.011" gradientUnits="userSpaceOnUse">
<stop stop-color="#87A9EA"/>
<stop offset="1" stop-color="#83ADFF" stop-opacity="0"/>
</linearGradient>
<linearGradient id="paint26_linear_914_10360" x1="361.446" y1="301.965" x2="395.251" y2="301.927" gradientUnits="userSpaceOnUse">
<stop stop-color="#87A9EA"/>
<stop offset="1" stop-color="#83ADFF" stop-opacity="0"/>
</linearGradient>
<linearGradient id="paint27_linear_914_10360" x1="78.2926" y1="408.83" x2="180.702" y2="408.483" gradientUnits="userSpaceOnUse">
<stop stop-color="#87A9EA"/>
<stop offset="1" stop-color="#83ADFF" stop-opacity="0"/>
</linearGradient>
<linearGradient id="paint28_linear_914_10360" x1="341.684" y1="453.77" x2="523.63" y2="452.674" gradientUnits="userSpaceOnUse">
<stop stop-color="#87A9EA"/>
<stop offset="1" stop-color="white" stop-opacity="0"/>
</linearGradient>
<linearGradient id="paint29_linear_914_10360" x1="10.1281" y1="0.657672" x2="98.6167" y2="0.225601" gradientUnits="userSpaceOnUse">
<stop stop-color="#87A9EA"/>
<stop offset="1" stop-color="#9BBDFF" stop-opacity="0.4"/>
</linearGradient>
<linearGradient id="paint30_linear_914_10360" x1="252.902" y1="405.801" x2="304.06" y2="405.801" gradientUnits="userSpaceOnUse">
<stop stop-color="#0052D4"/>
<stop offset="0.5" stop-color="#4364F7"/>
<stop offset="1" stop-color="#6FB1FC"/>
</linearGradient>
<linearGradient id="paint31_linear_914_10360" x1="68.7637" y1="23.5526" x2="195.602" y2="23.5526" gradientUnits="userSpaceOnUse">
<stop stop-color="#445266"/>
<stop offset="1" stop-color="#445266" stop-opacity="0.64"/>
</linearGradient>
<linearGradient id="paint32_linear_914_10360" x1="212.89" y1="23.5526" x2="336.871" y2="23.5526" gradientUnits="userSpaceOnUse">
<stop stop-color="#445266"/>
<stop offset="1" stop-color="#445266" stop-opacity="0.64"/>
</linearGradient>
<linearGradient id="paint33_linear_914_10360" x1="354.016" y1="23.5526" x2="490.379" y2="23.5526" gradientUnits="userSpaceOnUse">
<stop stop-color="#445266"/>
<stop offset="1" stop-color="#445266" stop-opacity="0.64"/>
</linearGradient>
<linearGradient id="paint34_linear_914_10360" x1="3" y1="91.5086" x2="126.028" y2="91.5086" gradientUnits="userSpaceOnUse">
<stop stop-color="#445266"/>
<stop offset="1" stop-color="#445266" stop-opacity="0.64"/>
</linearGradient>
<linearGradient id="paint35_linear_914_10360" x1="143.126" y1="91.5086" x2="263.297" y2="91.5086" gradientUnits="userSpaceOnUse">
<stop stop-color="#445266"/>
<stop offset="1" stop-color="#445266" stop-opacity="0.64"/>
</linearGradient>
<linearGradient id="paint36_linear_914_10360" x1="280.252" y1="91.5086" x2="402.328" y2="91.5086" gradientUnits="userSpaceOnUse">
<stop stop-color="#445266"/>
<stop offset="1" stop-color="#445266" stop-opacity="0.64"/>
</linearGradient>
<linearGradient id="paint37_linear_914_10360" x1="419.377" y1="91.5086" x2="544.311" y2="91.5086" gradientUnits="userSpaceOnUse">
<stop stop-color="#445266"/>
<stop offset="1" stop-color="#445266" stop-opacity="0.64"/>
</linearGradient>
<linearGradient id="paint38_linear_914_10360" x1="26.0677" y1="186.88" x2="516.007" y2="189.62" gradientUnits="userSpaceOnUse">
<stop stop-color="#689BFF"/>
<stop offset="0.3125" stop-color="#B897FF" stop-opacity="0.6875"/>
<stop offset="0.713542" stop-color="#9A93E6" stop-opacity="0.286458"/>
<stop offset="1" stop-color="#608CFF"/>
</linearGradient>
<linearGradient id="paint39_linear_914_10360" x1="273" y1="272.919" x2="273" y2="207.155" gradientUnits="userSpaceOnUse">
<stop stop-color="#689BFF"/>
<stop offset="1" stop-color="#689BFF" stop-opacity="0"/>
</linearGradient>
<linearGradient id="paint40_linear_914_10360" x1="97.8689" y1="206" x2="209.785" y2="205.397" gradientUnits="userSpaceOnUse">
<stop stop-color="#357AFF"/>
<stop offset="1" stop-color="#83ADFF" stop-opacity="0"/>
</linearGradient>
<linearGradient id="paint41_linear_914_10360" x1="293.869" y1="206" x2="405.785" y2="205.397" gradientUnits="userSpaceOnUse">
<stop stop-color="#357AFF"/>
<stop offset="1" stop-color="#83ADFF" stop-opacity="0"/>
</linearGradient>
<clipPath id="clip0_914_10360">
<path d="M552.127 742.416L254.2 742.416C113.063 742.416 -1.35119 628.001 -1.35118 486.864L-1.35118 420.709C-1.35117 279.571 113.063 165.157 254.201 165.157L552.127 165.157L552.127 742.416Z" fill="white"/>
</clipPath>
<clipPath id="clip1_914_10360">
<rect width="26.3055" height="26.3055" fill="white" transform="translate(97.2612 10.9609)"/>
</clipPath>
<clipPath id="clip2_914_10360">
<rect width="26.3055" height="26.3055" fill="white" transform="translate(241.387 10.9609)"/>
</clipPath>
<clipPath id="clip3_914_10360">
<rect width="26.3055" height="26.3055" fill="white" transform="translate(382.513 10.9609)"/>
</clipPath>
<clipPath id="clip4_914_10360">
<rect width="26.3055" height="26.3055" fill="white" transform="translate(31.4976 78.917)"/>
</clipPath>
<clipPath id="clip5_914_10360">
<rect width="26.3055" height="26.3055" fill="white" transform="translate(171.624 78.917)"/>
</clipPath>
<clipPath id="clip6_914_10360">
<rect width="26.3055" height="26.3055" fill="white" transform="translate(308.75 78.917)"/>
</clipPath>
<clipPath id="clip7_914_10360">
<rect width="26.3055" height="26.3055" fill="white" transform="translate(447.875 78.917)"/>
</clipPath>
</defs>
</svg>
