<svg width="146" height="146" viewBox="0 0 146 146" fill="none" xmlns="http://www.w3.org/2000/svg">
<circle cx="73" cy="73" r="73" fill="#94DFB2"/>
<rect x="32.6014" y="32.6014" width="80.5942" height="81.7971" stroke="white" stroke-width="1.2029"/>
<line x1="73.5" y1="2.18557e-08" x2="73.5" y2="146" stroke="white"/>
<line x1="146" y1="73.5" y2="73.5" stroke="white"/>
<line x1="123.364" y1="20.3431" x2="23.3637" y2="126.343" stroke="white"/>
<line x1="21.3536" y1="21.6464" x2="123.354" y2="123.646" stroke="white"/>
<circle cx="33.5" cy="32.5" r="4.5" fill="white"/>
<circle cx="33.5" cy="113.5" r="4.5" fill="white"/>
<circle cx="112.5" cy="113.5" r="4.5" fill="white"/>
<circle cx="112.5" cy="32.5" r="4.5" fill="white"/>
<rect x="51" y="52" width="43" height="43" rx="10" fill="white"/>
<path d="M75.7292 77.375L79.6042 73.5L75.7292 69.625M69.2708 69.625L65.3958 73.5L69.2708 77.375M67.075 85.125H77.925C80.0952 85.125 81.1803 85.125 82.0092 84.7026C82.7383 84.3311 83.3311 83.7383 83.7026 83.0092C84.125 82.1803 84.125 81.0952 84.125 78.925V68.075C84.125 65.9048 84.125 64.8197 83.7026 63.9908C83.3311 63.2617 82.7383 62.6689 82.0092 62.2973C81.1803 61.875 80.0952 61.875 77.925 61.875H67.075C64.9048 61.875 63.8197 61.875 62.9908 62.2973C62.2617 62.6689 61.6689 63.2617 61.2973 63.9908C60.875 64.8197 60.875 65.9048 60.875 68.075V78.925C60.875 81.0952 60.875 82.1803 61.2973 83.0092C61.6689 83.7383 62.2617 84.3311 62.9908 84.7026C63.8197 85.125 64.9048 85.125 67.075 85.125Z" stroke="#008905" stroke-width="2.58333" stroke-linecap="round" stroke-linejoin="round"/>
</svg>
