<svg width="64" height="64" viewBox="0 0 64 64" fill="none" xmlns="http://www.w3.org/2000/svg">
<g clip-path="url(#clip0_979_9166)">
<path d="M63.9986 32C63.9986 49.673 49.6715 64 31.9985 64C14.3255 64 -0.00146484 49.673 -0.00146484 32C-0.00146484 32.0075 31.9985 0.003625 31.9985 0C49.6715 0 63.9986 14.327 63.9986 32Z" fill="#0052B4"/>
<path d="M31.9141 31.9997H31.9997C31.9997 31.9707 31.9997 31.9429 31.9997 31.9141C31.9712 31.9427 31.9427 31.9712 31.9141 31.9997Z" fill="#F0F0F0"/>
<path d="M32 16.6956C32 11.065 32 7.37537 32 0H31.9946C14.324 0.002875 0 14.3285 0 31.9999H16.6956V22.5984L26.0971 31.9999H31.9145C31.9431 31.9714 31.9716 31.9429 32.0001 31.9142C32.0001 29.7584 32.0001 27.8347 32.0001 26.0972L22.5985 16.6956H32Z" fill="#F0F0F0"/>
<path d="M16.1883 4.17383C11.1835 7.0237 7.02273 11.1845 4.17285 16.1893V32H12.5207V12.5218V12.5217H31.999C31.999 9.88883 31.999 7.38058 31.999 4.17383H16.1883Z" fill="#D80027"/>
<path d="M31.9991 28.0634L20.6299 16.6944H16.6948C16.6948 16.6943 16.6948 16.6944 16.6948 16.6944L31.9989 31.9985H31.9991C31.9991 31.9985 31.9991 29.2854 31.9991 28.0634Z" fill="#D80027"/>
<path d="M19.2994 37.5654L21.0557 41.2377L25.0216 40.3211L23.2456 43.9838L26.4348 46.5129L22.4639 47.4079L22.4751 51.4784L19.2994 48.9318L16.1239 51.4784L16.1351 47.4079L12.1641 46.5129L15.3534 43.9838L13.5772 40.3211L17.5433 41.2377L19.2994 37.5654Z" fill="#F0F0F0"/>
<path d="M47.9099 44.5234L48.788 46.3596L50.771 45.9012L49.8829 47.7326L51.4777 48.9972L49.4922 49.4447L49.4977 51.4799L47.9099 50.2066L46.3222 51.4799L46.3277 49.4447L44.3423 48.9972L45.9369 47.7326L45.0489 45.9012L47.0318 46.3596L47.9099 44.5234Z" fill="#F0F0F0"/>
<path d="M39.7421 25.0439L40.6201 26.8802L42.6031 26.4217L41.7151 28.2531L43.3097 29.5177L41.3243 29.9652L41.3297 32.0004L39.7421 30.7271L38.1543 32.0004L38.1597 29.9652L36.1743 29.5177L37.7689 28.2531L36.8809 26.4217L38.8639 26.8802L39.7421 25.0439Z" fill="#F0F0F0"/>
<path d="M47.9099 13.9141L48.788 15.7503L50.771 15.2919L49.883 17.1233L51.4775 18.3878L49.4922 18.8354L49.4977 20.8707L47.9099 19.5973L46.3222 20.8707L46.3277 18.8354L44.3423 18.3878L45.9368 17.1233L45.0489 15.2919L47.0318 15.7503L47.9099 13.9141Z" fill="#F0F0F0"/>
<path d="M55.0458 22.2627L55.9238 24.0989L57.9068 23.6404L57.0188 25.4718L58.6134 26.7364L56.6279 27.1841L56.6334 29.2192L55.0458 27.9459L53.458 29.2192L53.4634 27.1841L51.478 26.7364L53.0727 25.4718L52.1847 23.6404L54.1675 24.0989L55.0458 22.2627Z" fill="#F0F0F0"/>
<path d="M49.9439 32L50.6346 34.1258H52.8698L51.0614 35.4396L51.7523 37.5652L49.9439 36.2515L48.1357 37.5652L48.8263 35.4396L47.0181 34.1258H49.2532L49.9439 32Z" fill="#F0F0F0"/>
</g>
<defs>
<clipPath id="clip0_979_9166">
<rect width="64" height="64" fill="white"/>
</clipPath>
</defs>
</svg>
