<svg width="128" height="26" viewBox="0 0 128 26" fill="none" xmlns="http://www.w3.org/2000/svg">
<path d="M5.80447 12.9996L2.90098 15.9043L0 12.9996L2.90098 10.095L5.80447 12.9996ZM12.8436 5.9465L17.8149 10.9267L20.7159 8.02199L12.8436 0.139648L4.97132 8.02199L7.8723 10.9267L12.8436 5.9465ZM22.7888 10.095L19.8878 12.9996L22.7888 15.9043L25.6872 12.9996L22.7888 10.095ZM12.8436 20.0528L7.8723 15.0751L4.97132 17.9773L12.8436 25.8596L20.7159 17.9773L17.8149 15.0751L12.8436 20.0528ZM12.8436 15.9043L15.7446 12.9996L12.8436 10.095L9.94264 12.9996L12.8436 15.9043ZM43.4595 16.1832V16.143C43.4595 14.2485 42.4557 13.3012 40.822 12.678C41.8258 12.1127 42.674 11.2257 42.674 9.63514V9.59494C42.674 7.37874 40.9023 5.9465 38.0239 5.9465H31.4892V20.0528H38.1896C41.3691 20.0528 43.4645 18.7638 43.4645 16.1832H43.4595ZM39.5949 10.1528C39.5949 11.2006 38.7291 11.6453 37.3614 11.6453H34.5081V8.66775H37.5672C38.8747 8.66775 39.5999 9.19039 39.5999 10.1176L39.5949 10.1528ZM40.3804 15.7963C40.3804 16.8441 39.5547 17.3265 38.1845 17.3265H34.5081V14.2284H38.0892C39.6802 14.2284 40.3854 14.8138 40.3854 15.7611L40.3804 15.7963ZM49.9717 20.0528V5.9465H46.8624V20.0528H49.9717ZM66.6322 20.0528V5.9465H63.5631V14.6329L56.9631 5.9465H54.1048V20.0528H57.1639V11.085L63.9847 20.0528H66.6322ZM83.7997 20.0528L77.7518 5.84599H74.8935L68.8581 20.0528H72.0176L73.31 16.8893H79.2675L80.5549 20.0528H83.7997ZM78.1659 14.148H74.4117L76.2838 9.57484L78.1659 14.148ZM98.5731 20.0528V5.9465H95.504V14.6329L88.9015 5.9465H86.0457V20.0528H89.1023V11.085L95.9256 20.0528H98.5731ZM114.571 17.7763L112.601 15.7812C111.495 16.7863 110.508 17.4321 108.897 17.4321C106.483 17.4321 104.812 15.4219 104.812 12.9996V12.9594C104.812 10.5422 106.523 8.56724 108.897 8.56724C110.305 8.56724 111.407 9.17029 112.501 10.1578L114.466 7.88128C113.158 6.59226 111.57 5.70528 108.912 5.70528C104.586 5.70528 101.567 8.98938 101.567 12.9921V13.0323C101.567 17.0828 104.646 20.2865 108.792 20.2865C111.505 20.294 113.113 19.3266 114.561 17.7763H114.571ZM127.796 20.0528V17.2888H120.137V14.3213H126.78V11.5574H120.137V8.70796H127.686V5.94399H117.058V20.0503L127.796 20.0528Z" fill="#F6F7F8"/>
</svg>
