<svg width="85" height="26" viewBox="0 0 85 26" fill="none" xmlns="http://www.w3.org/2000/svg">
<path d="M25.2596 14.3032C24.3826 13.4808 23.2649 12.8433 21.9367 12.4075C21.5863 12.2924 21.2188 12.1911 20.8452 12.1055C21.4061 10.3053 21.5098 8.68404 21.1543 7.28514C20.8585 6.15022 20.1951 5.13909 19.2632 4.4025C18.3312 3.6659 17.1806 3.24329 15.9827 3.19765C14.9372 3.16142 13.9036 3.4231 13.0076 3.95079C12.1117 4.47848 11.3923 5.24939 10.937 6.16957C10.1808 7.70914 10.1636 9.41595 10.1475 10.928V10.9624C10.1385 11.8704 10.1425 12.7912 10.1606 13.7779C9.12047 14.3741 8.36325 15.0027 7.78527 15.7435C6.86796 16.9063 6.4964 18.2992 6.76122 19.5663C6.98678 20.6484 7.6735 21.5397 8.59888 21.9559C9.1656 22.1991 9.78887 22.2888 10.4033 22.2156C10.21 23.7896 9.51921 24.4015 9.38026 24.5107L9.33092 24.55L11.0306 25.8053L11.0608 25.7728C11.3114 25.5073 11.53 25.2145 11.7123 24.9002C12.2389 23.9912 12.5179 22.8904 12.5561 21.6273C12.6629 21.584 12.7706 21.5387 12.8773 21.4925C13.6667 22.142 14.5486 22.6759 15.4954 23.0773C16.6542 23.5729 17.882 23.8974 19.1384 24.0404C21.542 24.309 23.8761 23.7069 25.3814 22.429C25.9238 21.9668 26.3602 21.398 26.6623 20.7598C26.9644 20.1216 27.1253 19.4283 27.1345 18.7252C27.1477 17.9021 26.9881 17.0851 26.6657 16.3246C26.3432 15.564 25.8647 14.8761 25.2596 14.3032ZM18.7447 11.7947C18.5947 11.7838 18.4427 11.774 18.2916 11.7671C16.2267 11.6856 14.1676 12.0326 12.25 12.7853C12.25 12.1705 12.25 11.5645 12.25 10.9831V10.9486C12.2641 9.59008 12.2782 8.18528 12.833 7.0579C13.1046 6.51533 13.5266 6.05812 14.0511 5.7383C14.5755 5.41847 15.1812 5.24887 15.7995 5.24877H15.9122C16.6537 5.27997 17.3653 5.54295 17.9423 5.99899C18.5193 6.45503 18.9312 7.08002 19.1173 7.78194C19.3982 8.88669 19.2724 10.2364 18.7447 11.7947ZM17.8939 13.8064C17.267 15.0635 16.4458 16.2189 15.4591 17.2319C14.5945 18.1168 13.5835 18.8531 12.4685 19.4099C12.4081 18.1832 12.3336 16.5905 12.2893 15.0017C14.0393 14.1895 15.9567 13.7806 17.8939 13.8064ZM19.3781 22.0021C17.7318 21.8181 16.1327 21.2495 14.865 20.4005C15.6255 19.8899 16.3309 19.3052 16.9705 18.6554C18.2796 17.3088 19.3377 15.749 20.097 14.0465C21.6648 14.3613 22.9165 14.9456 23.8056 15.7828C24.2021 16.1572 24.5158 16.607 24.7275 17.1044C24.9391 17.6018 25.0441 18.1364 25.0361 18.675C25.0337 19.0931 24.9405 19.506 24.7626 19.8862C24.5847 20.2664 24.3261 20.6054 24.0039 20.8806C22.7463 21.949 20.7898 22.1605 19.3781 22.0021ZM9.44571 16.9918C9.67438 16.704 9.93661 16.4432 10.2271 16.2147C10.2774 17.6067 10.3439 18.9771 10.4033 20.1438C10.0086 20.2117 9.70449 20.1949 9.47591 20.0916C9.16578 19.9529 8.908 19.586 8.81839 19.1561C8.67742 18.4812 8.91203 17.6726 9.44571 16.9918Z" fill="white"/>
<path d="M33.6655 22.0872C32.9684 22.0872 32.3684 21.9766 31.8657 21.7554C31.3696 21.5342 30.9574 21.2392 30.6289 20.8705C30.3004 20.5019 30.0424 20.093 29.8547 19.6438C29.667 19.1947 29.5329 18.7355 29.4525 18.2663C29.3787 17.7971 29.3419 17.358 29.3419 16.9491V10.9463H31.1518V16.386C31.1518 16.8955 31.1987 17.3882 31.2925 17.8641C31.3864 18.34 31.5439 18.7691 31.7651 19.1511C31.993 19.5332 32.2947 19.8349 32.6701 20.0561C33.0521 20.2773 33.5281 20.3879 34.0979 20.3879C34.547 20.3879 34.9559 20.3108 35.3246 20.1566C35.6933 20.0025 36.0083 19.7746 36.2697 19.4729C36.5312 19.1646 36.7323 18.7758 36.873 18.3065C37.0138 17.8373 37.0842 17.291 37.0842 16.6676L38.2606 17.0295C38.2606 18.0753 38.0696 18.9769 37.6875 19.7343C37.3121 20.4918 36.7792 21.075 36.0888 21.4839C35.405 21.8861 34.5973 22.0872 33.6655 22.0872ZM37.2853 21.8057V18.8998H37.0842V10.9463H38.884V21.8057H37.2853ZM49.4316 21.8057V16.3659C49.4316 15.8498 49.3847 15.3537 49.2908 14.8778C49.2037 14.4018 49.0461 13.9762 48.8182 13.6008C48.597 13.2187 48.2954 12.917 47.9133 12.6958C47.5379 12.4746 47.062 12.364 46.4855 12.364C46.0363 12.364 45.6274 12.4411 45.2588 12.5953C44.8968 12.7428 44.5851 12.9707 44.3236 13.279C44.0622 13.5874 43.8578 13.9762 43.7103 14.4454C43.5695 14.9079 43.4991 15.4543 43.4991 16.0844L42.3227 15.7224C42.3227 14.67 42.5104 13.7684 42.8858 13.0176C43.2679 12.2601 43.8008 11.6803 44.4845 11.2781C45.175 10.8692 45.9861 10.6647 46.9178 10.6647C47.6217 10.6647 48.2216 10.7753 48.7177 10.9965C49.2137 11.2177 49.626 11.5127 49.9544 11.8814C50.2829 12.2434 50.541 12.6523 50.7287 13.1081C50.9164 13.5572 51.0471 14.0164 51.1208 14.4856C51.2013 14.9482 51.2415 15.3872 51.2415 15.8028V21.8057H49.4316ZM41.6892 21.8057V10.9463H43.298V13.8522H43.4991V21.8057H41.6892ZM58.0208 22.1073C57.0086 22.1073 56.1405 21.8559 55.4165 21.3532C54.6926 20.8437 54.1328 20.1566 53.7373 19.2919C53.3485 18.4272 53.1541 17.4518 53.1541 16.3659C53.1541 15.28 53.3485 14.3046 53.7373 13.4399C54.1328 12.5752 54.6926 11.8948 55.4165 11.3987C56.1405 10.896 57.0052 10.6446 58.0107 10.6446C59.0363 10.6446 59.8977 10.8926 60.5948 11.3887C61.292 11.8847 61.8182 12.5651 62.1735 13.4298C62.5355 14.2946 62.7164 15.2733 62.7164 16.3659C62.7164 17.4451 62.5355 18.4205 62.1735 19.2919C61.8182 20.1566 61.292 20.8437 60.5948 21.3532C59.8977 21.8559 59.0397 22.1073 58.0208 22.1073ZM58.242 20.4683C58.9726 20.4683 59.5726 20.2941 60.0418 19.9455C60.511 19.5902 60.8563 19.1042 61.0775 18.4875C61.3054 17.8641 61.4193 17.1569 61.4193 16.3659C61.4193 15.5615 61.3054 14.8543 61.0775 14.2443C60.8563 13.6276 60.5144 13.1483 60.0519 12.8064C59.5893 12.4579 59.0028 12.2836 58.2922 12.2836C57.5549 12.2836 56.9449 12.4646 56.4622 12.8265C55.9863 13.1885 55.631 13.6779 55.3964 14.2946C55.1685 14.9113 55.0545 15.6017 55.0545 16.3659C55.0545 17.1368 55.1718 17.8339 55.4065 18.4573C55.6411 19.0741 55.993 19.5634 56.4622 19.9254C56.9382 20.2874 57.5314 20.4683 58.242 20.4683ZM61.4193 21.8057V13.8119H61.2182V7.32646H63.0181V21.8057H61.4193ZM66.0363 21.8057V7.02481H67.8261V21.8057H66.0363ZM75.5488 22.1073C74.483 22.1073 73.5512 21.8727 72.7535 21.4035C71.9625 20.9275 71.3458 20.2672 70.9034 19.4226C70.461 18.5713 70.2398 17.5792 70.2398 16.4463C70.2398 15.2599 70.4576 14.2342 70.8934 13.3695C71.3291 12.4981 71.9357 11.8278 72.7133 11.3585C73.4976 10.8826 74.416 10.6446 75.4684 10.6446C76.561 10.6446 77.4894 10.896 78.2536 11.3987C79.0245 11.9015 79.601 12.6187 79.9831 13.5505C80.3719 14.4823 80.5395 15.5917 80.4858 16.8787H78.6759V16.2352C78.6558 14.9012 78.3843 13.9058 77.8615 13.2489C77.3386 12.5852 76.561 12.2534 75.5287 12.2534C74.4227 12.2534 73.5814 12.6087 73.0049 13.3192C72.4284 14.0298 72.1402 15.0487 72.1402 16.376C72.1402 17.6563 72.4284 18.6484 73.0049 19.3522C73.5814 20.0561 74.4026 20.408 75.4684 20.408C76.1856 20.408 76.809 20.2438 77.3386 19.9153C77.8682 19.5869 78.2838 19.1143 78.5854 18.4976L80.3048 19.0908C79.8825 20.0494 79.2457 20.7935 78.3944 21.323C77.5498 21.8459 76.6012 22.1073 75.5488 22.1073ZM71.5369 16.8787V15.4408H79.5608V16.8787H71.5369Z" fill="#F6F7F8"/>
</svg>
