<svg width="64" height="64" viewBox="0 0 64 64" fill="none" xmlns="http://www.w3.org/2000/svg">
<path d="M32 64C49.6736 64 64 49.6736 64 32C64 14.3264 49.6736 0 32 0C14.3264 0 0 14.3264 0 32C0 49.6736 14.3264 64 32 64Z" fill="#F0B90B"/>
<path d="M36.9836 16.9742L32 11.8857L19.4511 24.517L24.4347 29.4857L36.9836 16.9742Z" fill="white"/>
<path d="M44.5489 24.517L39.5654 19.4286L19.4511 39.6027L24.4347 44.5715L44.5489 24.517Z" fill="white"/>
<path d="M16.8693 26.9715L21.8528 32.0599L16.8693 37.0286L11.8857 32.0599L16.8693 26.9715Z" fill="white"/>
<path d="M52.1143 32.0599L47.1308 26.9715L27.0165 47.1456L32 52.1143L52.1143 32.0599Z" fill="white"/>
<path d="M36.9836 16.9742L32 11.8857L19.4511 24.517L24.4347 29.4857L36.9836 16.9742Z" stroke="#F0B90B" stroke-width="2.66667"/>
<path d="M44.5489 24.517L39.5654 19.4286L19.4511 39.6027L24.4347 44.5715L44.5489 24.517Z" stroke="#F0B90B" stroke-width="2.66667"/>
<path d="M16.8693 26.9715L21.8528 32.0599L16.8693 37.0286L11.8857 32.0599L16.8693 26.9715Z" stroke="#F0B90B" stroke-width="2.66667"/>
<path d="M52.1143 32.0599L47.1308 26.9715L27.0165 47.1456L32 52.1143L52.1143 32.0599Z" stroke="#F0B90B" stroke-width="2.66667"/>
</svg>
