<svg width="678" height="550" viewBox="0 0 678 550" fill="none" xmlns="http://www.w3.org/2000/svg">
<mask id="mask0_1138_7838" style="mask-type:alpha" maskUnits="userSpaceOnUse" x="123" y="42" width="555" height="508">
<rect x="124.865" y="43.8653" width="551.269" height="504.269" rx="12.0953" fill="url(#paint0_linear_1138_7838)" stroke="url(#paint1_linear_1138_7838)" stroke-width="2.26933"/>
</mask>
<g mask="url(#mask0_1138_7838)">
<rect x="124.865" y="43.8653" width="551.269" height="504.269" rx="12.0953" fill="url(#paint2_linear_1138_7838)" stroke="url(#paint3_linear_1138_7838)" stroke-width="2.26933"/>
<g filter="url(#filter0_b_1138_7838)">
<rect x="176" y="84" width="450" height="183" rx="8" fill="url(#paint4_linear_1138_7838)" fill-opacity="0.6"/>
<rect x="176.172" y="84.1716" width="449.657" height="182.657" rx="7.82837" stroke="url(#paint5_linear_1138_7838)" stroke-opacity="0.6" stroke-width="0.343259"/>
<rect x="176.172" y="84.1716" width="449.657" height="182.657" rx="7.82837" stroke="url(#paint6_linear_1138_7838)" stroke-width="0.343259"/>
</g>
<ellipse cx="516" cy="84.5" rx="102" ry="0.5" fill="url(#paint7_linear_1138_7838)"/>
<rect x="176.5" y="308.5" width="449" height="45" rx="7.5" fill="url(#paint8_linear_1138_7838)"/>
<rect x="176.5" y="308.5" width="449" height="45" rx="7.5" stroke="url(#paint9_linear_1138_7838)" stroke-opacity="0.6"/>
<rect x="176.5" y="308.5" width="449" height="45" rx="7.5" stroke="url(#paint10_linear_1138_7838)"/>
<rect x="176.5" y="395.5" width="449" height="45" rx="7.5" fill="url(#paint11_linear_1138_7838)"/>
<rect x="176.5" y="395.5" width="449" height="45" rx="7.5" stroke="url(#paint12_linear_1138_7838)" stroke-opacity="0.6"/>
<rect x="176.5" y="395.5" width="449" height="45" rx="7.5" stroke="url(#paint13_linear_1138_7838)"/>
</g>
<g clip-path="url(#clip0_1138_7838)">
<rect x="177" y="378" width="98" height="11" rx="5.5" fill="url(#paint14_linear_1138_7838)"/>
</g>
<g clip-path="url(#clip1_1138_7838)">
<rect x="172" y="289" width="103" height="11" rx="5.5" fill="url(#paint15_linear_1138_7838)"/>
</g>
<rect x="177" y="461" width="449" height="64" rx="25.1817" fill="url(#paint16_linear_1138_7838)"/>
<path d="M337.938 498.5H340.27V493.73H342.024C344.707 493.73 346.619 492.555 346.619 489.907V489.837C346.619 487.206 344.777 485.961 341.972 485.961H337.938V498.5ZM340.27 492.046V487.767H341.972C343.462 487.767 344.339 488.346 344.339 489.837V489.907C344.339 491.292 343.515 492.046 341.972 492.046H340.27ZM350.681 498.675C352.084 498.675 352.89 498.167 353.486 497.378V498.5H355.573V492.485C355.573 489.977 353.96 489.135 351.908 489.135C349.856 489.135 348.155 490.03 347.98 492.169H350.032C350.137 491.257 350.681 490.731 351.785 490.731C353.031 490.731 353.451 491.345 353.451 492.572V493.046H352.312C349.681 493.046 347.612 493.818 347.612 495.957C347.612 497.869 348.997 498.675 350.681 498.675ZM351.189 497.15C350.137 497.15 349.716 496.641 349.716 495.869C349.716 494.747 350.751 494.379 352.364 494.379H353.451V495.291C353.451 496.466 352.487 497.15 351.189 497.15ZM358.766 501.639H360.853L365.851 489.328H363.781L361.537 495.238L359.099 489.328H356.802L360.432 497.571L358.766 501.639ZM373.515 498.5H375.689L377.548 492.327L379.249 498.5H381.406L384.282 489.328H382.213L380.301 495.957L378.513 489.328H376.741L374.795 495.957L372.971 489.328H370.709L373.515 498.5ZM385.956 498.5H388.078V489.328H385.956V498.5ZM386.991 487.82C387.693 487.82 388.254 487.294 388.254 486.61C388.254 485.908 387.693 485.382 386.991 485.382C386.29 485.382 385.728 485.908 385.728 486.61C385.728 487.294 386.29 487.82 386.991 487.82ZM393.786 498.658C394.435 498.658 394.891 498.553 395.224 498.43V496.746C394.926 496.869 394.611 496.922 394.19 496.922C393.523 496.922 393.137 496.553 393.137 495.747V490.924H395.154V489.328H393.137V487.311H391.015V489.328H389.788V490.924H391.015V495.94C391.015 497.676 391.962 498.658 393.786 498.658ZM397.138 498.5H399.26V493.099C399.26 491.643 400.225 490.906 401.417 490.906C402.68 490.906 403.241 491.538 403.241 492.923V498.5H405.363V492.73C405.363 490.205 404.065 489.135 402.224 489.135C400.716 489.135 399.699 489.889 399.26 490.784V485.084H397.138V498.5ZM416.003 498.675C418.493 498.675 420.089 497.185 420.247 495.08H418.3C418.177 496.378 417.213 497.044 416.09 497.044C414.529 497.044 413.547 495.992 413.547 493.993V493.853C413.547 491.959 414.582 490.836 416.038 490.836C417.16 490.836 417.967 491.345 418.142 492.572H420.194C419.948 490.047 418.037 489.135 416.003 489.135C413.442 489.135 411.373 490.977 411.373 493.888V494.028C411.373 496.957 413.372 498.675 416.003 498.675ZM422.074 498.5H424.196V493.73C424.196 491.783 425.318 491.187 427.177 491.17V489.188C425.634 489.205 424.774 489.889 424.196 491.047V489.328H422.074V498.5ZM430.147 501.639H432.234L437.232 489.328H435.162L432.918 495.238L430.48 489.328H428.183L431.813 497.571L430.147 501.639ZM438.823 501.639H440.945V497.062C441.436 497.956 442.488 498.675 443.944 498.675C446.311 498.675 448.012 496.887 448.012 493.94V493.8C448.012 490.836 446.241 489.135 443.944 489.135C442.593 489.135 441.454 489.924 440.945 490.801V489.328H438.823V501.639ZM443.418 496.992C441.874 496.992 440.875 496.027 440.875 493.975V493.835C440.875 491.801 441.927 490.801 443.4 490.801C444.786 490.801 445.838 491.801 445.838 493.835V493.975C445.838 495.94 444.978 496.992 443.418 496.992ZM453.042 498.658C453.691 498.658 454.147 498.553 454.48 498.43V496.746C454.182 496.869 453.866 496.922 453.446 496.922C452.779 496.922 452.393 496.553 452.393 495.747V490.924H454.41V489.328H452.393V487.311H450.271V489.328H449.044V490.924H450.271V495.94C450.271 497.676 451.218 498.658 453.042 498.658ZM460.498 497.027C458.884 497.027 457.955 495.852 457.955 493.975V493.835C457.955 491.941 458.92 490.801 460.498 490.801C462.076 490.801 463.023 491.959 463.023 493.853V493.975C463.023 495.852 462.076 497.027 460.498 497.027ZM460.48 498.675C463.181 498.675 465.198 496.816 465.198 493.958V493.818C465.198 491.012 463.181 489.135 460.498 489.135C457.797 489.135 455.78 491.029 455.78 493.87V494.011C455.78 496.799 457.78 498.675 460.48 498.675Z" fill="white"/>
<g filter="url(#filter1_b_1138_7838)">
<rect width="274" height="228" rx="7.57202" fill="url(#paint17_linear_1138_7838)" fill-opacity="0.6"/>
<rect x="0.473251" y="0.473251" width="273.053" height="227.053" rx="7.09877" stroke="url(#paint18_linear_1138_7838)" stroke-width="0.946502"/>
<rect x="0.473251" y="0.473251" width="273.053" height="227.053" rx="7.09877" stroke="url(#paint19_linear_1138_7838)" stroke-width="0.946502"/>
</g>
<circle cx="136" cy="51.2777" r="15.2777" fill="#12B76A"/>
<path d="M141.82 46.9131L133.817 54.9157L130.18 51.2782" stroke="#F9FAFB" stroke-width="1.45502" stroke-linecap="round" stroke-linejoin="round"/>
<g opacity="0.8">
<path d="M64.2756 88.5557H66.3444V84.3246H67.9C70.28 84.3246 71.9756 83.2823 71.9756 80.9334V80.8712C71.9756 78.5379 70.3422 77.4334 67.8533 77.4334H64.2756V88.5557ZM66.3444 82.8312V79.0357H67.8533C69.1756 79.0357 69.9533 79.549 69.9533 80.8712V80.9334C69.9533 82.1623 69.2222 82.8312 67.8533 82.8312H66.3444ZM75.5784 88.7112C76.8228 88.7112 77.5384 88.2601 78.0673 87.5601V88.5557H79.9184V83.2201C79.9184 80.9957 78.4873 80.249 76.6673 80.249C74.8473 80.249 73.3384 81.0423 73.1828 82.9401H75.0028C75.0961 82.1312 75.5784 81.6646 76.5584 81.6646C77.6628 81.6646 78.0361 82.209 78.0361 83.2979V83.7179H77.025C74.6917 83.7179 72.8561 84.4023 72.8561 86.3001C72.8561 87.9957 74.085 88.7112 75.5784 88.7112ZM76.0295 87.3579C75.0961 87.3579 74.7228 86.9068 74.7228 86.2223C74.7228 85.2268 75.6406 84.9001 77.0717 84.9001H78.0361V85.709C78.0361 86.7512 77.1806 87.3579 76.0295 87.3579ZM82.7501 91.3401H84.6012L89.0345 80.4201H87.199L85.2079 85.6623L83.0456 80.4201H81.0079L84.2279 87.7312L82.7501 91.3401ZM90.446 88.5557H92.3282V83.6868C92.3282 82.4423 93.1837 81.8201 94.1171 81.8201C95.0348 81.8201 95.5637 82.3334 95.5637 83.5312V88.5557H97.446V83.6868C97.446 82.4423 98.3015 81.8201 99.2348 81.8201C100.168 81.8201 100.682 82.3334 100.682 83.5312V88.5557H102.564V83.4068C102.564 81.1668 101.35 80.249 99.8571 80.249C98.846 80.249 97.726 80.7001 97.1037 81.7112C96.6993 80.7001 95.8593 80.249 94.8015 80.249C93.6037 80.249 92.7171 80.9023 92.3282 81.6646V80.4201H90.446V88.5557ZM108.303 88.7112C110.388 88.7112 111.772 87.7779 112.037 86.0668H110.217C110.077 86.8601 109.485 87.3112 108.35 87.3112C106.95 87.3112 106.172 86.4401 106.11 84.9001H112.068V84.3557C112.068 81.4468 110.248 80.249 108.225 80.249C105.908 80.249 104.181 81.929 104.181 84.449V84.5734C104.181 87.1401 105.908 88.7112 108.303 88.7112ZM106.141 83.6401C106.328 82.3801 107.09 81.6179 108.225 81.6179C109.392 81.6179 110.108 82.2401 110.201 83.6401H106.141ZM113.749 88.5557H115.631V83.7646C115.631 82.4734 116.487 81.8201 117.544 81.8201C118.664 81.8201 119.162 82.3801 119.162 83.609V88.5557H121.044V83.4379C121.044 81.1979 119.893 80.249 118.26 80.249C116.922 80.249 116.02 80.9179 115.631 81.7112V80.4201H113.749V88.5557ZM125.982 88.6957C126.557 88.6957 126.962 88.6023 127.257 88.4934V87.0001C126.993 87.109 126.713 87.1557 126.34 87.1557C125.748 87.1557 125.406 86.829 125.406 86.1134V81.8357H127.195V80.4201H125.406V78.6312H123.524V80.4201H122.435V81.8357H123.524V86.2846C123.524 87.8246 124.364 88.6957 125.982 88.6957ZM136.224 88.7112C138.433 88.7112 139.848 87.389 139.988 85.5223H138.262C138.153 86.6734 137.297 87.2646 136.302 87.2646C134.917 87.2646 134.046 86.3312 134.046 84.5579V84.4334C134.046 82.7534 134.964 81.7579 136.255 81.7579C137.251 81.7579 137.966 82.209 138.122 83.2979H139.942C139.724 81.0579 138.028 80.249 136.224 80.249C133.953 80.249 132.117 81.8823 132.117 84.4646V84.589C132.117 87.1868 133.891 88.7112 136.224 88.7112ZM145.249 87.249C143.818 87.249 142.994 86.2068 142.994 84.5423V84.4179C142.994 82.7379 143.849 81.7268 145.249 81.7268C146.649 81.7268 147.489 82.7534 147.489 84.4334V84.5423C147.489 86.2068 146.649 87.249 145.249 87.249ZM145.234 88.7112C147.629 88.7112 149.418 87.0623 149.418 84.5268V84.4023C149.418 81.9134 147.629 80.249 145.249 80.249C142.854 80.249 141.065 81.929 141.065 84.449V84.5734C141.065 87.0468 142.838 88.7112 145.234 88.7112ZM151.119 88.5557H153.001V83.7646C153.001 82.4734 153.856 81.8201 154.914 81.8201C156.034 81.8201 156.532 82.3801 156.532 83.609V88.5557H158.414V83.4379C158.414 81.1979 157.263 80.249 155.63 80.249C154.292 80.249 153.39 80.9179 153.001 81.7112V80.4201H151.119V88.5557ZM160.909 88.5557H162.792V81.8357H164.643V80.4201H162.792V79.2534C162.792 78.5534 163.103 78.0557 163.849 78.0557C164.192 78.0557 164.425 78.0868 164.643 78.1801V76.7179C164.347 76.6246 164.083 76.5779 163.616 76.5779C161.889 76.5779 160.909 77.5423 160.909 79.3312V80.4201H159.805V81.8357H160.909V88.5557ZM166.053 88.5557H167.935V80.4201H166.053V88.5557ZM166.97 79.0823C167.593 79.0823 168.09 78.6157 168.09 78.009C168.09 77.3868 167.593 76.9201 166.97 76.9201C166.348 76.9201 165.85 77.3868 165.85 78.009C165.85 78.6157 166.348 79.0823 166.97 79.0823ZM170.229 88.5557H172.111V84.3246C172.111 82.5979 173.107 82.069 174.756 82.0534V80.2957C173.387 80.3112 172.624 80.9179 172.111 81.9446V80.4201H170.229V88.5557ZM176.412 88.5557H178.294V83.6868C178.294 82.4423 179.149 81.8201 180.083 81.8201C181.001 81.8201 181.529 82.3334 181.529 83.5312V88.5557H183.412V83.6868C183.412 82.4423 184.267 81.8201 185.201 81.8201C186.134 81.8201 186.647 82.3334 186.647 83.5312V88.5557H188.529V83.4068C188.529 81.1668 187.316 80.249 185.823 80.249C184.812 80.249 183.692 80.7001 183.069 81.7112C182.665 80.7001 181.825 80.249 180.767 80.249C179.569 80.249 178.683 80.9023 178.294 81.6646V80.4201H176.412V88.5557ZM194.269 88.7112C196.353 88.7112 197.738 87.7779 198.002 86.0668H196.182C196.042 86.8601 195.451 87.3112 194.316 87.3112C192.916 87.3112 192.138 86.4401 192.076 84.9001H198.033V84.3557C198.033 81.4468 196.213 80.249 194.191 80.249C191.873 80.249 190.147 81.929 190.147 84.449V84.5734C190.147 87.1401 191.873 88.7112 194.269 88.7112ZM192.107 83.6401C192.293 82.3801 193.056 81.6179 194.191 81.6179C195.358 81.6179 196.073 82.2401 196.167 83.6401H192.107ZM202.764 88.7112C203.961 88.7112 205.004 87.9957 205.439 87.1868V88.5557H207.321V76.6557H205.439V81.6646C204.988 80.8557 204.164 80.249 202.841 80.249C200.726 80.249 199.186 81.8979 199.186 84.4957V84.6201C199.186 87.2646 200.726 88.7112 202.764 88.7112ZM203.23 87.2179C202.017 87.2179 201.115 86.3623 201.115 84.5734V84.449C201.115 82.6912 201.924 81.7268 203.308 81.7268C204.677 81.7268 205.501 82.6134 205.501 84.4023V84.5268C205.501 86.3468 204.537 87.2179 203.23 87.2179Z" fill="white"/>
</g>
<g opacity="0.8">
<path d="M37.504 127H38.652L39.618 124.116H43.748L44.728 127H45.932L42.544 116.99H40.948L37.504 127ZM41.69 117.998L43.426 123.15H39.954L41.69 117.998ZM47.6096 127H48.7716V122.52C48.7716 121.204 49.7516 120.56 50.7036 120.56C51.7116 120.56 52.2576 121.092 52.2576 122.38V127H53.4196V122.52C53.4196 121.204 54.3996 120.56 55.3516 120.56C56.3596 120.56 56.9056 121.092 56.9056 122.38V127H58.0676V122.464C58.0676 120.336 56.9196 119.552 55.6036 119.552C54.6936 119.552 53.6016 119.972 53.0976 120.924C52.7196 119.944 51.8936 119.552 50.9556 119.552C49.9056 119.552 49.1076 120.112 48.7716 120.798V119.678H47.6096V127ZM63.4038 126.16C61.9198 126.16 61.0098 125.068 61.0098 123.402V123.29C61.0098 121.61 61.9338 120.518 63.4038 120.518C64.8598 120.518 65.7978 121.61 65.7978 123.304V123.402C65.7978 125.054 64.8738 126.16 63.4038 126.16ZM63.3898 127.126C65.4758 127.126 67.0018 125.6 67.0018 123.388V123.276C67.0018 121.078 65.4758 119.552 63.4038 119.552C61.3318 119.552 59.8058 121.092 59.8058 123.29V123.402C59.8058 125.544 61.3038 127.126 63.3898 127.126ZM71.279 127.126C72.455 127.126 73.267 126.524 73.603 125.838V127H74.765V119.678H73.603V124.116C73.603 125.432 72.623 126.118 71.587 126.118C70.439 126.118 69.893 125.544 69.893 124.256V119.678H68.731V124.312C68.731 126.328 69.823 127.126 71.279 127.126ZM77.1135 127H78.2755V122.562C78.2755 121.246 79.2415 120.56 80.3195 120.56C81.4955 120.56 82.0415 121.134 82.0415 122.422V127H83.2035V122.506C83.2035 120.378 82.1395 119.552 80.6275 119.552C79.4235 119.552 78.6115 120.154 78.2755 120.84V119.678H77.1135V127ZM87.7067 127.098C88.1827 127.098 88.4627 127.028 88.7007 126.944V125.964C88.4487 126.062 88.1687 126.118 87.8047 126.118C87.2167 126.118 86.8947 125.768 86.8947 125.054V120.658H88.6027V119.678H86.8947V118.012H85.7327V119.678H84.6827V120.658H85.7327V125.166C85.7327 126.314 86.3767 127.098 87.7067 127.098Z" fill="#D0D5DD"/>
<path d="M168.702 127H169.92V116.99H168.786L166.462 118.67V119.804L168.702 118.194V127ZM171.858 127H178.564V126.006H173.734L176.492 123.318C177.724 122.114 178.508 120.91 178.508 119.678C178.508 117.956 177.332 116.864 175.484 116.864C173.58 116.864 172.39 118.11 172.236 120.07H173.37C173.566 118.502 174.322 117.844 175.484 117.844C176.618 117.844 177.276 118.516 177.276 119.636C177.276 120.658 176.744 121.568 175.834 122.534L171.858 126.72V127ZM181.181 127.07C181.671 127.07 182.077 126.678 182.077 126.174C182.077 125.67 181.671 125.278 181.181 125.278C180.691 125.278 180.285 125.67 180.285 126.174C180.285 126.678 180.691 127.07 181.181 127.07ZM186.863 127.126C188.935 127.126 190.419 126.034 190.419 124.214C190.419 122.828 189.663 122.002 188.487 121.694C189.397 121.316 190.069 120.644 190.069 119.51C190.069 118.124 188.963 116.864 187.059 116.864C185.155 116.864 183.853 118.166 183.783 119.748H184.847C184.973 118.614 185.813 117.858 187.059 117.858C188.277 117.858 188.879 118.586 188.879 119.538C188.879 120.63 188.305 121.246 187.003 121.246H186.303V122.268H187.059C188.473 122.268 189.173 122.926 189.173 124.214C189.173 125.39 188.459 126.146 186.891 126.146C185.309 126.146 184.595 125.236 184.483 124.046H183.363C183.433 125.796 184.735 127.126 186.863 127.126ZM195.312 127.112C197.706 127.112 199.078 125.278 199.078 121.96V121.33C199.078 118.446 197.846 116.85 195.48 116.85C193.366 116.85 192.022 118.194 192.022 120.196C192.022 122.086 193.366 123.472 195.312 123.472C196.46 123.472 197.426 122.954 197.902 122.142C197.874 124.802 196.936 126.118 195.34 126.118C194.052 126.118 193.492 125.516 193.268 124.536H192.092C192.358 126.146 193.464 127.112 195.312 127.112ZM195.494 122.52C194.136 122.52 193.268 121.582 193.268 120.14C193.268 118.726 194.164 117.802 195.48 117.802C196.824 117.802 197.79 118.712 197.79 120.35C197.79 121.652 196.838 122.52 195.494 122.52ZM204.708 127.126C207.284 127.126 208.502 125.628 208.502 123.192V116.99H207.284V123.024C207.284 125.474 206.332 126.118 204.736 126.118C203.07 126.118 202.328 125.306 202.328 123.206V116.99H201.11V123.346C201.11 125.782 202.412 127.126 204.708 127.126ZM214.176 127.126C216.164 127.126 217.634 125.852 217.634 124.172C217.634 122.282 216.458 121.61 214.232 121.26C212.188 120.952 211.824 120.448 211.824 119.468C211.824 118.53 212.538 117.844 213.91 117.844C215.296 117.844 216.024 118.362 216.262 119.622H217.354C217.158 117.844 215.912 116.864 213.91 116.864C212.02 116.864 210.69 118.04 210.69 119.58C210.69 121.358 211.936 122.016 214.036 122.338C215.94 122.646 216.458 123.122 216.458 124.256C216.458 125.39 215.464 126.146 214.176 126.146C212.16 126.146 211.684 125.138 211.53 123.948H210.354C210.536 125.656 211.502 127.126 214.176 127.126ZM220.937 126.006V117.97H222.295C225.053 117.97 226.173 119.594 226.173 121.904V122.016C226.173 124.466 224.885 126.006 222.309 126.006H220.937ZM219.719 127H222.337C225.837 127 227.433 124.802 227.433 122.03V121.904C227.433 119.118 225.809 116.99 222.365 116.99H219.719V127ZM231.033 127H232.251V117.984H235.163V116.99H228.121V117.984H231.033V127Z" fill="#D0D5DD"/>
<path d="M38.26 158H39.422V149.418L44.476 158H45.876V147.99H44.714V156.264L39.842 147.99H38.26V158ZM51.3029 158.126C52.9549 158.126 54.1729 157.356 54.4249 155.886H53.2629C53.1089 156.74 52.4509 157.16 51.3169 157.16C49.8189 157.16 49.0209 156.236 48.9649 154.57H54.4809V154.192C54.4809 151.574 52.8849 150.552 51.1909 150.552C49.1749 150.552 47.7609 152.092 47.7609 154.304V154.416C47.7609 156.67 49.2309 158.126 51.3029 158.126ZM49.0069 153.632C49.2029 152.33 50.0009 151.518 51.1909 151.518C52.3949 151.518 53.1789 152.12 53.2909 153.632H49.0069ZM58.4899 158.098C58.9659 158.098 59.2459 158.028 59.4839 157.944V156.964C59.2319 157.062 58.9519 157.118 58.5879 157.118C57.9999 157.118 57.6779 156.768 57.6779 156.054V151.658H59.3859V150.678H57.6779V149.012H56.5159V150.678H55.4659V151.658H56.5159V156.166C56.5159 157.314 57.1599 158.098 58.4899 158.098ZM62.7105 158H63.9845L65.6925 152.512L67.2185 158H68.5065L70.7885 150.678H69.5985L67.8765 156.572L66.2105 150.678H65.2025L63.4245 156.572L61.7165 150.678H60.4565L62.7105 158ZM75.271 157.16C73.787 157.16 72.877 156.068 72.877 154.402V154.29C72.877 152.61 73.801 151.518 75.271 151.518C76.727 151.518 77.665 152.61 77.665 154.304V154.402C77.665 156.054 76.741 157.16 75.271 157.16ZM75.257 158.126C77.343 158.126 78.869 156.6 78.869 154.388V154.276C78.869 152.078 77.343 150.552 75.271 150.552C73.199 150.552 71.673 152.092 71.673 154.29V154.402C71.673 156.544 73.171 158.126 75.257 158.126ZM80.6682 158H81.8302V153.982C81.8302 152.176 82.7682 151.714 84.2382 151.644V150.552C82.9222 150.594 82.2922 151.168 81.8302 151.994V150.678H80.6682V158ZM85.9319 158H87.0939V154.206L90.3419 158H91.7559L88.3539 154.08L91.4899 150.678H90.1319L87.0939 154.052V147.178H85.9319V158Z" fill="#D0D5DD"/>
<path d="M172.774 158.126C175.35 158.126 176.568 156.628 176.568 154.192V147.99H175.35V154.024C175.35 156.474 174.398 157.118 172.802 157.118C171.136 157.118 170.394 156.306 170.394 154.206V147.99H169.176V154.346C169.176 156.782 170.478 158.126 172.774 158.126ZM182.242 158.126C184.23 158.126 185.7 156.852 185.7 155.172C185.7 153.282 184.524 152.61 182.298 152.26C180.254 151.952 179.89 151.448 179.89 150.468C179.89 149.53 180.604 148.844 181.976 148.844C183.362 148.844 184.09 149.362 184.328 150.622H185.42C185.224 148.844 183.978 147.864 181.976 147.864C180.086 147.864 178.756 149.04 178.756 150.58C178.756 152.358 180.002 153.016 182.102 153.338C184.006 153.646 184.524 154.122 184.524 155.256C184.524 156.39 183.53 157.146 182.242 157.146C180.226 157.146 179.75 156.138 179.596 154.948H178.42C178.602 156.656 179.568 158.126 182.242 158.126ZM189.003 157.006V148.97H190.361C193.119 148.97 194.239 150.594 194.239 152.904V153.016C194.239 155.466 192.951 157.006 190.375 157.006H189.003ZM187.785 158H190.403C193.903 158 195.499 155.802 195.499 153.03V152.904C195.499 150.118 193.875 147.99 190.431 147.99H187.785V158ZM199.099 158H200.317V148.984H203.229V147.99H196.187V148.984H199.099V158Z" fill="#D0D5DD"/>
<path d="M40.318 189H41.536V179.984H44.448V178.99H37.406V179.984H40.318V189ZM45.4631 189H46.6251V184.562C46.6251 183.246 47.5911 182.56 48.6691 182.56C49.8451 182.56 50.3911 183.134 50.3911 184.422V189H51.5531V184.506C51.5531 182.378 50.4891 181.552 48.9771 181.552C47.7731 181.552 46.9611 182.154 46.6251 182.84V181.678H45.4631V189ZM53.0463 189H54.2923L56.3083 186.046L58.2823 189H59.6543L56.9803 185.15L59.4023 181.678H58.1423L56.3643 184.338L54.5723 181.678H53.2143L55.6643 185.234L53.0463 189ZM65.0859 189H66.3039V178.99H65.0859V189ZM70.1167 188.006V179.97H71.4747C74.2327 179.97 75.3527 181.594 75.3527 183.904V184.016C75.3527 186.466 74.0647 188.006 71.4887 188.006H70.1167ZM68.8987 189H71.5167C75.0167 189 76.6127 186.802 76.6127 184.03V183.904C76.6127 181.118 74.9887 178.99 71.5447 178.99H68.8987V189Z" fill="#D0D5DD"/>
<path d="M175.06 189.126C177.132 189.126 178.616 188.034 178.616 186.214C178.616 184.828 177.86 184.002 176.684 183.694C177.594 183.316 178.266 182.644 178.266 181.51C178.266 180.124 177.16 178.864 175.256 178.864C173.352 178.864 172.05 180.166 171.98 181.748H173.044C173.17 180.614 174.01 179.858 175.256 179.858C176.474 179.858 177.076 180.586 177.076 181.538C177.076 182.63 176.502 183.246 175.2 183.246H174.5V184.268H175.256C176.67 184.268 177.37 184.926 177.37 186.214C177.37 187.39 176.656 188.146 175.088 188.146C173.506 188.146 172.792 187.236 172.68 186.046H171.56C171.63 187.796 172.932 189.126 175.06 189.126ZM180.625 189H181.787V184.562C181.787 183.246 182.753 182.56 183.831 182.56C185.007 182.56 185.553 183.134 185.553 184.422V189H186.715V184.506C186.715 182.378 185.651 181.552 184.139 181.552C182.935 181.552 182.123 182.154 181.787 182.84V181.678H180.625V189ZM191.876 189.126C193.948 189.126 195.432 188.034 195.432 186.214C195.432 184.828 194.676 184.002 193.5 183.694C194.41 183.316 195.082 182.644 195.082 181.51C195.082 180.124 193.976 178.864 192.072 178.864C190.168 178.864 188.866 180.166 188.796 181.748H189.86C189.986 180.614 190.826 179.858 192.072 179.858C193.29 179.858 193.892 180.586 193.892 181.538C193.892 182.63 193.318 183.246 192.016 183.246H191.316V184.268H192.072C193.486 184.268 194.186 184.926 194.186 186.214C194.186 187.39 193.472 188.146 191.904 188.146C190.322 188.146 189.608 187.236 189.496 186.046H188.376C188.446 187.796 189.748 189.126 191.876 189.126ZM201.687 189H202.877V186.9H204.263V185.906H202.877V178.99H201.253L196.675 186.508V186.9H201.687V189ZM198.215 185.906L201.687 179.914V185.906H198.215ZM208.704 189.126C210.608 189.126 212.134 187.838 212.134 185.724C212.134 183.68 210.818 182.406 209.026 182.406C208.074 182.406 207.388 182.714 206.982 183.092V180.04H211.602V178.99H205.974V184.352H206.422C206.954 183.75 207.626 183.386 208.788 183.386C210.062 183.386 210.888 184.31 210.888 185.724C210.888 187.236 210.048 188.146 208.69 188.146C207.164 188.146 206.73 187.39 206.534 186.298H205.372C205.512 187.936 206.548 189.126 208.704 189.126ZM216.91 189.112C219.304 189.112 220.676 187.278 220.676 183.96V183.33C220.676 180.446 219.444 178.85 217.078 178.85C214.964 178.85 213.62 180.194 213.62 182.196C213.62 184.086 214.964 185.472 216.91 185.472C218.058 185.472 219.024 184.954 219.5 184.142C219.472 186.802 218.534 188.118 216.938 188.118C215.65 188.118 215.09 187.516 214.866 186.536H213.69C213.956 188.146 215.062 189.112 216.91 189.112ZM217.092 184.52C215.734 184.52 214.866 183.582 214.866 182.14C214.866 180.726 215.762 179.802 217.078 179.802C218.422 179.802 219.388 180.712 219.388 182.35C219.388 183.652 218.436 184.52 217.092 184.52ZM226.884 189H228.074V186.9H229.46V185.906H228.074V178.99H226.45L221.872 186.508V186.9H226.884V189ZM223.412 185.906L226.884 179.914V185.906H223.412ZM234.714 188.118C233.048 188.118 231.984 186.802 231.984 184.268V183.708C231.984 181.244 232.992 179.844 234.686 179.844C236.38 179.844 237.36 181.356 237.36 183.68V184.24C237.36 186.774 236.464 188.118 234.714 188.118ZM234.714 189.126C237.178 189.126 238.592 187.166 238.592 184.254V183.694C238.592 180.838 237.15 178.864 234.686 178.864C232.236 178.864 230.738 180.768 230.738 183.722V184.282C230.738 187.194 232.32 189.126 234.714 189.126ZM243.488 189.126C245.56 189.126 247.044 188.034 247.044 186.214C247.044 184.828 246.288 184.002 245.112 183.694C246.022 183.316 246.694 182.644 246.694 181.51C246.694 180.124 245.588 178.864 243.684 178.864C241.78 178.864 240.478 180.166 240.408 181.748H241.472C241.598 180.614 242.438 179.858 243.684 179.858C244.902 179.858 245.504 180.586 245.504 181.538C245.504 182.63 244.93 183.246 243.628 183.246H242.928V184.268H243.684C245.098 184.268 245.798 184.926 245.798 186.214C245.798 187.39 245.084 188.146 243.516 188.146C241.934 188.146 241.22 187.236 241.108 186.046H239.988C240.058 187.796 241.36 189.126 243.488 189.126Z" fill="#D0D5DD"/>
</g>
<defs>
<filter id="filter0_b_1138_7838" x="151.972" y="59.9719" width="498.056" height="231.056" filterUnits="userSpaceOnUse" color-interpolation-filters="sRGB">
<feFlood flood-opacity="0" result="BackgroundImageFix"/>
<feGaussianBlur in="BackgroundImageFix" stdDeviation="12.0141"/>
<feComposite in2="SourceAlpha" operator="in" result="effect1_backgroundBlur_1138_7838"/>
<feBlend mode="normal" in="SourceGraphic" in2="effect1_backgroundBlur_1138_7838" result="shape"/>
</filter>
<filter id="filter1_b_1138_7838" x="-22.7427" y="-22.7427" width="319.485" height="273.485" filterUnits="userSpaceOnUse" color-interpolation-filters="sRGB">
<feFlood flood-opacity="0" result="BackgroundImageFix"/>
<feGaussianBlur in="BackgroundImageFix" stdDeviation="11.3713"/>
<feComposite in2="SourceAlpha" operator="in" result="effect1_backgroundBlur_1138_7838"/>
<feBlend mode="normal" in="SourceGraphic" in2="effect1_backgroundBlur_1138_7838" result="shape"/>
</filter>
<linearGradient id="paint0_linear_1138_7838" x1="423.622" y1="45" x2="476.957" y2="541.268" gradientUnits="userSpaceOnUse">
<stop stop-color="#2964BB" stop-opacity="0.6"/>
<stop offset="1" stop-color="#4F4F4F" stop-opacity="0.52"/>
</linearGradient>
<linearGradient id="paint1_linear_1138_7838" x1="433.047" y1="585.064" x2="428.316" y2="20.9254" gradientUnits="userSpaceOnUse">
<stop stop-color="#00349A"/>
<stop offset="0.411458" stop-color="#AFC1FF" stop-opacity="0.59"/>
<stop offset="1" stop-color="#708AE6" stop-opacity="0"/>
</linearGradient>
<linearGradient id="paint2_linear_1138_7838" x1="423.622" y1="45" x2="476.957" y2="541.268" gradientUnits="userSpaceOnUse">
<stop stop-color="#2964BB" stop-opacity="0.6"/>
<stop offset="0.944269" stop-color="#4F4F4F" stop-opacity="0"/>
</linearGradient>
<linearGradient id="paint3_linear_1138_7838" x1="661.514" y1="599.14" x2="102.223" y2="511.883" gradientUnits="userSpaceOnUse">
<stop stop-color="#455575"/>
<stop offset="0.411458" stop-color="#AFC1FF" stop-opacity="0.59"/>
<stop offset="1" stop-color="#708AE6" stop-opacity="0.44"/>
</linearGradient>
<linearGradient id="paint4_linear_1138_7838" x1="401" y1="84" x2="433.828" y2="261.265" gradientUnits="userSpaceOnUse">
<stop stop-color="#4886FF" stop-opacity="0.95"/>
<stop offset="1" stop-color="#4175D9" stop-opacity="0.78"/>
</linearGradient>
<linearGradient id="paint5_linear_1138_7838" x1="712.293" y1="157.157" x2="559.399" y2="169.09" gradientUnits="userSpaceOnUse">
<stop stop-color="white"/>
<stop offset="1" stop-color="#EFEFEF" stop-opacity="0"/>
</linearGradient>
<linearGradient id="paint6_linear_1138_7838" x1="176" y1="84" x2="262.231" y2="196.712" gradientUnits="userSpaceOnUse">
<stop stop-color="white" stop-opacity="0.5"/>
<stop offset="1" stop-color="white" stop-opacity="0"/>
</linearGradient>
<linearGradient id="paint7_linear_1138_7838" x1="435.18" y1="85.0001" x2="620.228" y2="83.7574" gradientUnits="userSpaceOnUse">
<stop stop-color="#87A9EA"/>
<stop offset="1" stop-color="#83ADFF" stop-opacity="0"/>
</linearGradient>
<linearGradient id="paint8_linear_1138_7838" x1="176" y1="330.465" x2="604.62" y2="330.465" gradientUnits="userSpaceOnUse">
<stop stop-color="#445266"/>
<stop offset="1" stop-color="#445266" stop-opacity="0.64"/>
</linearGradient>
<linearGradient id="paint9_linear_1138_7838" x1="712.293" y1="326.389" x2="571.992" y2="369.95" gradientUnits="userSpaceOnUse">
<stop stop-color="white"/>
<stop offset="1" stop-color="#EFEFEF" stop-opacity="0"/>
</linearGradient>
<linearGradient id="paint10_linear_1138_7838" x1="176" y1="308" x2="184.329" y2="351.313" gradientUnits="userSpaceOnUse">
<stop stop-color="white" stop-opacity="0.5"/>
<stop offset="1" stop-color="white" stop-opacity="0"/>
</linearGradient>
<linearGradient id="paint11_linear_1138_7838" x1="176" y1="417.465" x2="604.62" y2="417.465" gradientUnits="userSpaceOnUse">
<stop stop-color="#445266"/>
<stop offset="1" stop-color="#445266" stop-opacity="0.64"/>
</linearGradient>
<linearGradient id="paint12_linear_1138_7838" x1="712.293" y1="413.389" x2="571.992" y2="456.95" gradientUnits="userSpaceOnUse">
<stop stop-color="white"/>
<stop offset="1" stop-color="#EFEFEF" stop-opacity="0"/>
</linearGradient>
<linearGradient id="paint13_linear_1138_7838" x1="176" y1="395" x2="184.329" y2="438.313" gradientUnits="userSpaceOnUse">
<stop stop-color="white" stop-opacity="0.5"/>
<stop offset="1" stop-color="white" stop-opacity="0"/>
</linearGradient>
<linearGradient id="paint14_linear_1138_7838" x1="177" y1="383.372" x2="270.344" y2="383.372" gradientUnits="userSpaceOnUse">
<stop stop-color="#445266"/>
<stop offset="1" stop-color="#445266" stop-opacity="0.64"/>
</linearGradient>
<linearGradient id="paint15_linear_1138_7838" x1="172" y1="294.372" x2="270.106" y2="294.372" gradientUnits="userSpaceOnUse">
<stop stop-color="#445266"/>
<stop offset="1" stop-color="#445266" stop-opacity="0.64"/>
</linearGradient>
<linearGradient id="paint16_linear_1138_7838" x1="177" y1="492.256" x2="604.667" y2="492.256" gradientUnits="userSpaceOnUse">
<stop stop-color="#04234F"/>
<stop offset="1" stop-color="#042655" stop-opacity="0.64"/>
</linearGradient>
<linearGradient id="paint17_linear_1138_7838" x1="137" y1="0" x2="212.691" y2="199.747" gradientUnits="userSpaceOnUse">
<stop stop-color="#02102D"/>
<stop offset="1" stop-color="#010815"/>
</linearGradient>
<linearGradient id="paint18_linear_1138_7838" x1="326.543" y1="91.1469" x2="233.016" y2="94.7141" gradientUnits="userSpaceOnUse">
<stop stop-color="white"/>
<stop offset="1" stop-color="#EFEFEF" stop-opacity="0"/>
</linearGradient>
<linearGradient id="paint19_linear_1138_7838" x1="0" y1="0" x2="100.997" y2="64.5161" gradientUnits="userSpaceOnUse">
<stop stop-color="white" stop-opacity="0.5"/>
<stop offset="1" stop-color="white" stop-opacity="0"/>
</linearGradient>
<clipPath id="clip0_1138_7838">
<rect x="177" y="378" width="98" height="11" rx="5.5" fill="white"/>
</clipPath>
<clipPath id="clip1_1138_7838">
<rect x="172" y="289" width="103" height="11" rx="5.5" fill="white"/>
</clipPath>
</defs>
</svg>
