<svg width="64" height="64" viewBox="0 0 64 64" fill="none" xmlns="http://www.w3.org/2000/svg">
<g clip-path="url(#clip0_979_9190)">
<path d="M31.9985 64C49.6717 64 63.9986 49.6731 63.9986 32C63.9986 14.3269 49.6717 0 31.9985 0C14.3254 0 -0.00146484 14.3269 -0.00146484 32C-0.00146484 49.6731 14.3254 64 31.9985 64Z" fill="#F0F0F0"/>
<path d="M63.9996 31.9986C63.9996 19.3118 56.6165 8.34983 45.9126 3.17383V60.8232C56.6165 55.6473 63.9996 44.6853 63.9996 31.9986Z" fill="#D80027"/>
<path d="M0 31.9986C0 44.6853 7.38313 55.6473 18.087 60.8233V3.17383C7.38313 8.34983 0 19.3118 0 31.9986Z" fill="#D80027"/>
<path d="M37.5653 36.1728L43.1304 33.3901L40.3479 31.9989V29.2163L34.7826 31.9989L37.5653 26.4336H34.7826L32 22.2598L29.2174 26.4336H26.4348L29.2174 31.9989L23.6521 29.2163V31.9989L20.8696 33.3901L26.4348 36.1728L25.0435 38.9554H30.6088V43.1293H33.3913V38.9554H38.9565L37.5653 36.1728Z" fill="#D80027"/>
</g>
<defs>
<clipPath id="clip0_979_9190">
<rect width="64" height="64" fill="white"/>
</clipPath>
</defs>
</svg>
