<svg width="29" height="29" viewBox="0 0 29 29" fill="none" xmlns="http://www.w3.org/2000/svg">
<path d="M14.5 0C6.49237 0 0 6.49237 0 14.5C0 22.5076 6.49237 29 14.5 29C22.5076 29 29 22.5076 29 14.5C29 6.49237 22.5076 0 14.5 0ZM21.2171 10.4889L14.2716 21.1047C14.2698 21.1066 14.2662 21.1084 14.2662 21.1102C14.2299 21.1646 14.21 21.2262 14.1647 21.2769C14.1012 21.3458 14.0197 21.3821 13.9472 21.4346C13.9291 21.4473 13.9109 21.4618 13.891 21.4745C13.7786 21.5452 13.6626 21.5923 13.5358 21.6231C13.4941 21.634 13.456 21.6449 13.4125 21.6521C13.3115 21.666 13.2093 21.6672 13.108 21.6558C13.0365 21.6512 12.9655 21.6403 12.8959 21.6231C12.8242 21.6015 12.7544 21.5736 12.6875 21.5397C12.6295 21.5126 12.5679 21.5053 12.5135 21.4709C12.4736 21.4455 12.4519 21.4056 12.4174 21.3748C12.4029 21.3621 12.3848 21.3585 12.3703 21.3458L8.32663 17.6066C8.08694 17.3765 7.94711 17.0615 7.93719 16.7293C7.92727 16.3972 8.04805 16.0744 8.27358 15.8304C8.4991 15.5863 8.81137 15.4405 9.14327 15.4242C9.47516 15.408 9.80019 15.5226 10.0485 15.7434L12.9757 18.4513L19.0929 9.10056C19.277 8.81887 19.5655 8.62185 19.8948 8.55285C20.2242 8.48385 20.5675 8.54851 20.8492 8.73263C21.1309 8.91673 21.3279 9.20521 21.3969 9.53458C21.4659 9.86395 21.4012 10.2072 21.2171 10.4889Z" fill="#2579FA"/>
</svg>
