<svg width="131" height="26" viewBox="0 0 131 26" fill="none" xmlns="http://www.w3.org/2000/svg">
<g clip-path="url(#clip0_914_10438)">
<path d="M18.4005 19.7076C19.9625 19.7605 21.4877 19.2286 22.6746 18.2169L21.1094 16.0555C20.7906 16.3603 20.4132 16.5978 19.9997 16.7536C19.5862 16.9094 19.1453 16.9803 18.7036 16.9621C16.8581 16.9621 15.5042 15.6844 15.5042 13.4764C15.468 13.033 15.5257 12.5869 15.6735 12.167C15.8213 11.7472 16.0559 11.3628 16.3623 11.0387C16.6686 10.7147 17.0398 10.4581 17.452 10.2856C17.8642 10.1131 18.3081 10.0285 18.7552 10.0373C19.609 10.0094 20.4396 10.317 21.0673 10.8935L22.6785 8.66262C21.5062 7.6829 19.9989 7.19174 18.4712 7.29175C17.6374 7.26023 16.8061 7.40166 16.0302 7.70704C15.2542 8.01242 14.5506 8.47507 13.9641 9.06559C13.3776 9.6561 12.921 10.3616 12.6233 11.1371C12.3256 11.9127 12.1934 12.7414 12.2349 13.5706C12.1802 14.3903 12.3021 15.2123 12.5925 15.9814C12.8829 16.7505 13.3352 17.449 13.919 18.0301C14.5027 18.6112 15.2046 19.0615 15.9775 19.3508C16.7504 19.6401 17.5765 19.7618 18.4005 19.7076ZM30.2649 19.7076C31.106 19.7465 31.9462 19.6134 32.7336 19.3167C33.521 19.0199 34.2389 18.5657 34.843 17.9821C35.4471 17.3986 35.9245 16.698 36.2459 15.9237C36.5673 15.1494 36.7258 14.3178 36.7115 13.4802C36.7115 9.73858 34.0256 7.2965 30.2649 7.2965C29.4267 7.25441 28.5887 7.38378 27.8028 7.67664C27.0168 7.96949 26.2996 8.4196 25.6954 8.99915C25.0912 9.5787 24.6129 10.2754 24.29 11.0461C23.9672 11.8168 23.8066 12.6453 23.8182 13.4802C23.8173 17.2446 26.5051 19.7076 30.2658 19.7076H30.2649ZM30.2419 16.9659C28.3496 16.9659 27.0425 15.595 27.0425 13.4802C27.0034 13.0404 27.0572 12.5974 27.2007 12.1796C27.3442 11.7618 27.574 11.3785 27.8754 11.0545C28.1769 10.7305 28.5432 10.4729 28.9508 10.2984C29.3584 10.1238 29.7982 10.0362 30.2419 10.0411C30.689 10.0323 31.133 10.1169 31.5451 10.2894C31.9573 10.4619 32.3285 10.7185 32.6349 11.0425C32.9412 11.3666 33.1759 11.751 33.3237 12.1708C33.4715 12.5907 33.5292 13.0368 33.493 13.4802C33.5337 13.9268 33.4795 14.3769 33.3339 14.8012C33.1884 15.2256 32.9547 15.6148 32.6481 15.9434C32.3415 16.2721 31.9688 16.5329 31.5542 16.7089C31.1397 16.8849 30.6926 16.9721 30.2419 16.9649V16.9659ZM39.1164 5.50895H42.4793V2.34861H39.1164V5.50895ZM39.1632 19.3119H42.4334V7.69321H39.1632V19.3119ZM52.9448 7.37166C51.6117 7.42333 50.3356 7.92301 49.3247 8.78915L48.6706 9.23057V7.69702H45.564V19.3119H48.8341V11.783L49.5819 11.295C50.1944 10.7916 50.941 10.4766 51.7304 10.3883C52.7344 10.3883 53.3187 10.9924 53.3187 12.1778V19.3128H56.5888V11.2265C56.5879 8.55322 55.0226 7.37166 52.9448 7.37166ZM66.1642 7.30221C65.4935 7.27553 64.8243 7.38548 64.1979 7.6253C63.5714 7.86513 63.0008 8.22977 62.5211 8.69687V7.69797H59.6248V23.9658H62.8949V18.8476C63.8111 19.4578 64.9005 19.758 66.0016 19.7038C69.2249 19.7038 71.7474 17.1248 71.7474 13.4069C71.7454 9.59874 69.4573 7.29841 66.1642 7.29841V7.30221ZM65.23 17.0154C64.8002 17.0388 64.3703 16.9723 63.9679 16.8202C63.5656 16.6682 63.1997 16.4339 62.894 16.1325V10.8535C63.5446 10.2687 64.3998 9.9613 65.2758 9.99735C67.1213 9.99735 68.4753 11.3216 68.4753 13.483C68.4714 15.6178 67.1911 17.0115 65.23 17.0115V17.0154ZM80.8312 7.37166C80.242 7.37217 79.6623 7.51905 79.1447 7.79899C78.627 8.07892 78.1878 8.48304 77.867 8.97466L77.3296 9.71861V7.69702H74.222V19.3119H77.4912V12.8057L78.2619 11.9495C78.5047 11.5958 78.828 11.3041 79.2055 11.0981C79.583 10.8921 80.004 10.7777 80.4344 10.7641C80.8392 10.7474 81.2415 10.8356 81.6019 11.02L82.7225 7.88063C82.1564 7.52881 81.4983 7.3517 80.8312 7.37166ZM89.4962 19.7105C90.3375 19.7494 91.1779 19.6162 91.9655 19.3193C92.7531 19.0223 93.4712 18.5679 94.0753 17.984C94.6795 17.4001 95.1569 16.6992 95.4781 15.9246C95.7993 15.15 95.9575 14.318 95.9428 13.4802C95.9428 9.73858 93.2569 7.2965 89.4962 7.2965C88.658 7.25441 87.82 7.38378 87.0341 7.67664C86.2481 7.96949 85.5309 8.4196 84.9267 8.99915C84.3225 9.5787 83.8442 10.2754 83.5213 11.0461C83.1984 11.8168 83.0379 12.6453 83.0495 13.4802C83.0505 17.2446 85.7364 19.7076 89.4962 19.7076V19.7105ZM89.4732 16.9687C87.5809 16.9687 86.2738 15.5979 86.2738 13.483C86.2347 13.0433 86.2885 12.6002 86.432 12.1824C86.5755 11.7646 86.8053 11.3814 87.1067 11.0574C87.4082 10.7334 87.7745 10.4758 88.1821 10.3012C88.5897 10.1267 89.0295 10.0391 89.4732 10.044C89.9203 10.0352 90.3643 10.1198 90.7764 10.2923C91.1886 10.4648 91.5598 10.7213 91.8662 11.0454C92.1725 11.3694 92.4072 11.7538 92.555 12.1737C92.7028 12.5936 92.7605 13.0396 92.7243 13.483C92.7646 13.9294 92.7101 14.3792 92.5643 14.8032C92.4185 15.2273 92.1848 15.6161 91.8782 15.9444C91.5716 16.2727 91.1991 16.5333 90.7848 16.7091C90.3705 16.8849 89.9236 16.9721 89.4732 16.9649V16.9687ZM104.467 1.72168C101.758 1.72168 99.1423 3.25523 99.1423 7.22896V7.67038H97.2968V10.2495H99.1423V19.3119H102.416V10.2495H105.125V7.69321H102.416V7.0425C102.416 5.2302 103.327 4.62611 104.542 4.62611C104.991 4.60002 105.436 4.71955 105.811 4.96674C106.186 5.21393 106.47 5.57544 106.621 5.99698L109.166 4.41681C108.298 2.58169 106.803 1.72168 104.467 1.72168ZM106.667 7.69321V19.3119H109.937V7.69321H106.667ZM112.993 19.3119H116.263V2.04418H112.993V19.3119ZM121.844 14.1261H130.088C130.111 13.894 130.135 13.5449 130.135 13.1272C130.135 9.5721 128.01 7.2946 124.577 7.2946C123.763 7.28055 122.954 7.43416 122.202 7.74579C121.45 8.05741 120.771 8.52032 120.208 9.10545C119.644 9.69058 119.208 10.3853 118.928 11.146C118.647 11.9067 118.527 12.7169 118.576 13.5259C118.576 17.4996 121.168 19.7095 124.812 19.7095C126.65 19.747 128.438 19.11 129.834 17.9201L128.385 15.85C127.484 16.667 126.31 17.1223 125.091 17.1276C124.677 17.1575 124.26 17.1021 123.868 16.9649C123.476 16.8277 123.116 16.6115 122.811 16.3299C122.507 16.0483 122.264 15.7073 122.097 15.3282C121.931 14.949 121.845 14.5399 121.844 14.1261ZM121.914 12.1512C121.955 11.4868 122.257 10.8653 122.756 10.4216C123.254 9.9779 123.909 9.74783 124.577 9.78139C124.9 9.7724 125.222 9.82761 125.523 9.94378C125.825 10.06 126.1 10.2348 126.333 10.458C126.565 10.6812 126.751 10.9484 126.879 11.2438C127.006 11.5393 127.074 11.8571 127.076 12.1788L121.914 12.1512Z" fill="#F6F7F8"/>
<path d="M3.68586 16.5337C2.86701 16.5327 2.07367 16.2502 1.4401 15.7341C0.806518 15.218 0.371609 14.5 0.208966 13.7015C0.0463221 12.9031 0.165932 12.0732 0.547556 11.3524C0.929179 10.6316 1.54938 10.0641 2.3032 9.74596C3.16696 9.4022 4.13179 9.40928 4.99035 9.76568C5.84892 10.1221 6.53269 10.7994 6.89474 11.652C7.25678 12.5046 7.2682 13.4645 6.92654 14.3254C6.58487 15.1862 5.9174 15.8794 5.06755 16.2559C4.63046 16.4401 4.16051 16.5346 3.68586 16.5337ZM3.67916 11.5773C3.34951 11.5772 3.03005 11.6909 2.77522 11.899C2.52038 12.107 2.34595 12.3966 2.28164 12.7182C2.21733 13.0399 2.26713 13.3738 2.42255 13.6631C2.57796 13.9523 2.82938 14.179 3.13395 14.3044C3.43853 14.4299 3.77741 14.4464 4.09284 14.3511C4.40828 14.2559 4.68075 14.0547 4.86382 13.782C5.04689 13.5092 5.12923 13.1818 5.09681 12.8554C5.06439 12.529 4.91922 12.2239 4.68603 11.9921C4.55409 11.8602 4.39716 11.7556 4.22434 11.6844C4.05151 11.6132 3.86622 11.5768 3.67916 11.5773Z" fill="#F6F7F8"/>
<path d="M3.68586 26.0005C2.86701 25.9995 2.07367 25.717 1.4401 25.2009C0.806518 24.6848 0.371609 23.9668 0.208966 23.1683C0.0463221 22.3699 0.165932 21.54 0.547556 20.8192C0.929179 20.0984 1.54938 19.5309 2.3032 19.2128C3.16696 18.869 4.13179 18.8761 4.99035 19.2325C5.84892 19.5889 6.53269 20.2662 6.89474 21.1188C7.25678 21.9714 7.2682 22.9313 6.92654 23.7922C6.58487 24.653 5.9174 25.3462 5.06755 25.7227C4.63046 25.9069 4.16051 26.0013 3.68586 26.0005ZM3.67916 21.0441C3.34951 21.044 3.03005 21.1577 2.77522 21.3658C2.52038 21.5738 2.34595 21.8634 2.28164 22.185C2.21733 22.5067 2.26713 22.8406 2.42255 23.1299C2.57796 23.4191 2.82938 23.6458 3.13395 23.7712C3.43853 23.8967 3.77741 23.9132 4.09284 23.8179C4.40828 23.7227 4.68075 23.5215 4.86382 23.2488C5.04689 22.976 5.12923 22.6486 5.09681 22.3222C5.06439 21.9958 4.91922 21.6907 4.68603 21.4589C4.55409 21.3269 4.39716 21.2224 4.22434 21.1512C4.05151 21.08 3.86622 21.0436 3.67916 21.0441Z" fill="#F6F7F8"/>
<path d="M3.68586 7.06597C2.86701 7.06492 2.07367 6.78244 1.4401 6.26633C0.806518 5.75023 0.371609 5.0322 0.208966 4.23374C0.0463221 3.43528 0.165932 2.60544 0.547556 1.88464C0.929179 1.16384 1.54938 0.596342 2.3032 0.278187C3.16696 -0.065574 4.13179 -0.0584931 4.99035 0.297908C5.84892 0.65431 6.53269 1.33159 6.89474 2.18419C7.25678 3.0368 7.2682 3.99669 6.92654 4.85758C6.58487 5.71847 5.9174 6.41166 5.06755 6.78818C4.63046 6.9723 4.16051 7.06678 3.68586 7.06597ZM3.67916 2.10951C3.34951 2.10947 3.03005 2.22316 2.77522 2.43121C2.52038 2.63926 2.34595 2.9288 2.28164 3.25047C2.21733 3.57214 2.26713 3.90605 2.42255 4.19529C2.57796 4.48452 2.82938 4.71119 3.13395 4.83666C3.43853 4.96213 3.77741 4.97864 4.09284 4.88337C4.40828 4.7881 4.68075 4.58695 4.86382 4.3142C5.04689 4.04146 5.12923 3.71398 5.09681 3.3876C5.06439 3.06121 4.91922 2.75611 4.68603 2.52429C4.55409 2.39238 4.39716 2.2878 4.22434 2.21661C4.05151 2.14541 3.86622 2.10901 3.67916 2.10951Z" fill="#F6F7F8"/>
</g>
<defs>
<clipPath id="clip0_914_10438">
<rect width="130" height="26" fill="white" transform="translate(0.135254)"/>
</clipPath>
</defs>
</svg>
