<svg width="708" height="355" viewBox="0 0 708 355" fill="none" xmlns="http://www.w3.org/2000/svg">
<g clip-path="url(#clip0_697_10148)">
<path d="M323.485 117.754L320.51 121.72L318.527 123.703L314.562 125.884L313.966 127.669C313.966 127.669 312.379 129.256 312.578 130.248C312.778 131.24 312.778 133.024 312.778 133.024C312.778 133.024 310.001 135.602 308.811 136.395C307.621 137.188 306.034 138.973 306.034 138.973C306.034 138.973 305.043 140.163 304.448 140.56C303.853 140.955 302.862 142.146 302.068 143.336C301.274 144.526 300.481 145.318 300.085 145.913C299.688 146.508 298.498 147.896 297.903 150.078C297.309 152.26 295.722 154.838 295.722 154.838L295.324 155.829C295.524 159.201 295.523 159.795 295.92 160.986C296.317 162.175 296.714 161.778 296.317 164.357C295.92 166.934 295.92 167.926 295.524 169.116C295.127 170.305 293.937 172.486 293.541 173.479C293.144 174.47 294.334 176.255 294.334 176.255C294.334 176.255 294.93 178.833 294.532 179.428C294.136 180.024 294.731 181.213 294.731 181.213C294.731 181.213 297.11 182.601 297.904 183.395C298.697 184.188 300.086 185.378 300.284 185.973C300.483 186.568 302.069 189.345 302.267 189.939C302.466 190.534 304.052 192.715 304.449 193.31C304.845 193.906 306.829 196.087 306.829 196.087C306.829 196.087 309.407 198.069 310.002 198.863C310.597 199.656 312.382 200.052 312.976 200.647C313.571 201.242 314.959 201.043 315.752 201.639C316.546 202.234 318.132 201.242 318.926 201.639C319.719 202.036 321.901 201.243 322.496 200.846C323.09 200.45 324.478 199.062 325.47 199.656C326.461 200.25 327.056 199.656 327.85 199.854C328.642 200.052 329.832 199.062 330.625 199.062C331.419 199.062 333.402 198.268 333.996 198.268C334.592 198.268 336.575 197.077 337.369 197.077C338.161 197.077 339.153 196.286 340.144 196.681C341.136 197.077 340.739 195.889 342.524 196.483C344.309 197.077 344.904 196.483 345.499 197.077C346.094 197.673 346.888 197.079 347.483 197.872C348.078 198.664 349.069 199.258 349.267 200.052C349.464 200.846 350.655 201.64 350.655 201.64L351.845 201.837C351.845 201.837 353.433 200.648 353.828 201.442C354.225 202.235 356.01 202.037 356.01 202.037L357.794 204.02L358.39 204.813C358.39 204.813 359.58 207.986 359.381 209.176C359.183 210.365 359.183 212.943 358.588 213.538C357.993 214.134 357.597 216.712 357.597 216.712C357.597 216.712 356.803 217.505 358.588 219.091C360.373 220.679 361.563 222.066 362.158 222.858C362.754 223.652 364.34 225.834 364.537 227.222C364.736 228.61 365.133 229.403 365.926 231.188C366.719 232.973 367.711 233.171 367.909 235.155C368.108 237.137 368.504 237.138 368.305 238.525C368.107 239.914 367.512 240.112 368.107 241.103C368.702 242.095 369.494 243.88 369.297 244.475C369.099 245.07 368.702 247.648 368.702 247.648L368.305 248.838L366.521 252.211L365.331 253.994C364.934 255.382 364.141 256.77 364.34 258.754C364.537 260.737 363.348 260.736 364.934 262.718C366.521 264.703 367.313 266.884 368.305 268.669C369.297 270.453 369.892 272.238 370.089 273.428C370.289 274.618 371.082 275.016 371.478 276.601C371.874 278.188 372.073 278.98 372.073 279.972C372.073 280.964 371.874 283.543 372.272 284.137C372.667 284.732 372.867 286.518 373.065 287.311C373.263 288.105 372.469 288.303 373.66 289.692C374.85 291.079 375.643 291.872 376.436 292.864C377.229 293.856 377.031 293.459 377.626 294.848C378.221 296.235 379.014 297.03 379.213 298.219C379.411 299.408 379.609 302.382 380.204 303.771C380.799 305.16 381.592 306.548 381.592 306.548C381.592 306.548 383.774 307.936 384.567 307.738C385.359 307.539 386.947 305.756 388.137 306.35C389.328 306.945 390.319 306.35 391.31 306.35C392.301 306.35 393.293 305.16 394.285 305.16C395.277 305.16 396.664 303.573 397.459 303.97C398.252 304.366 399.242 303.572 400.234 302.581C401.226 301.59 401.821 300.797 403.605 299.211C405.39 297.624 405.192 297.623 406.382 296.632C407.572 295.64 408.762 293.458 410.15 293.062C411.538 292.665 411.934 291.278 412.331 290.286C412.728 289.294 412.925 288.699 413.521 287.906C414.117 287.113 413.719 288.106 414.711 285.527C415.703 282.948 416.895 281.957 417.886 281.362C418.877 280.767 419.472 279.578 420.066 279.379C420.661 279.179 421.653 279.973 421.257 278.188C420.861 276.404 421.257 273.826 420.861 273.231C420.464 272.635 419.868 274.618 420.067 271.643C420.267 268.669 422.447 265.694 422.447 265.694C422.447 265.694 425.422 261.926 426.414 261.332C427.406 260.737 427.603 260.142 428.993 259.348C430.379 258.556 433.355 256.573 433.355 255.581C433.355 254.589 434.545 252.011 434.545 251.415C434.545 250.82 434.545 250.226 434.149 246.854C433.752 243.484 434.545 244.276 433.356 241.103C432.166 237.93 431.966 233.964 431.174 232.973C430.38 231.981 430.777 229.402 430.777 228.61C430.777 227.817 432.166 225.833 432.761 225.04C433.356 224.246 435.934 221.073 435.934 221.073C435.934 221.073 439.899 216.512 441.288 214.332C442.676 212.149 444.064 210.167 445.055 209.374C446.047 208.581 448.427 206.794 449.815 204.812C451.203 202.829 453.98 199.062 454.179 198.465C454.376 197.872 455.962 195.888 455.962 195.888C455.962 195.888 458.144 193.309 458.541 191.922C458.937 190.533 460.919 182.799 460.523 183.196C460.128 183.593 457.747 183.989 456.953 184.187C456.161 184.386 458.145 185.178 452.392 184.782C446.642 184.385 443.668 185.377 443.668 185.377C441.882 184.98 440.494 186.963 439.898 184.187C439.304 181.411 438.906 179.825 437.718 177.841C436.527 175.858 435.734 175.065 433.95 172.486C432.166 169.909 432.363 171.098 430.776 169.116C429.19 167.133 428.793 167.727 427.801 165.15C426.81 162.572 426.017 163.564 424.827 159.994C423.636 156.423 422.844 156.026 422.249 154.044C421.653 152.061 420.861 151.465 420.464 149.681C420.067 147.896 415.507 138.774 414.911 138.178C414.316 137.584 413.324 134.41 413.523 135.006C413.722 135.6 416.498 137.584 416.498 137.584C416.498 137.584 418.084 136.988 418.68 136.988C419.274 136.988 421.654 139.17 421.654 139.962C421.654 140.756 425.821 144.525 426.811 147.301C427.802 150.077 428.994 152.06 429.191 152.853C429.387 153.646 431.372 156.82 432.166 158.01C432.958 159.201 435.536 161.579 435.933 162.77C436.329 163.96 440.098 167.926 440.098 170.504C440.098 173.082 441.882 176.453 442.081 177.246C442.28 178.039 445.848 179.032 445.848 179.032L450.609 177.841C450.609 177.841 457.747 173.279 458.541 173.279C459.333 173.279 465.681 170.305 465.681 170.305C465.681 170.305 468.258 167.926 470.042 166.538C471.828 165.15 473.811 162.572 474.208 161.381C474.604 160.191 475.398 159.994 476.984 158.208C478.57 156.423 480.752 154.638 479.364 153.448C477.976 152.259 477.182 152.655 475.199 150.672C473.216 148.689 473.414 149.086 472.026 146.507C470.637 143.93 472.224 140.954 469.249 143.93C466.275 146.904 467.464 147.697 464.489 148.294C461.515 148.888 460.324 150.871 458.937 148.888C457.549 146.904 456.161 148.095 455.366 145.119C454.574 142.145 453.978 141.946 453.781 140.757C453.583 139.567 453.781 139.567 452.194 136.591C450.608 133.617 451.797 129.056 452.788 131.634C453.781 134.212 455.366 134.608 457.945 136.393C460.522 138.177 461.714 139.567 464.093 139.765C466.472 139.962 468.456 139.765 468.852 140.161C469.249 140.558 469.645 139.963 470.637 140.359C471.629 140.756 472.024 139.765 472.421 141.35C472.818 142.937 474.999 143.135 475.991 144.126C476.983 145.118 476.983 144.722 479.562 145.118C482.14 145.515 485.711 145.515 485.711 145.515L489.477 145.316L493.84 145.711C493.84 145.711 497.015 147.496 497.807 147.496C498.6 147.496 498.798 149.679 500.781 150.868C502.765 152.059 503.161 152.256 504.35 153.645C505.543 155.033 505.343 155.628 506.928 157.016C508.516 158.405 511.095 156.818 511.492 156.224C511.886 155.629 513.87 154.638 513.475 156.224C513.077 157.81 515.456 157.215 514.862 160.984C514.267 164.75 513.87 163.759 514.862 166.338C515.853 168.916 520.216 176.848 520.415 179.228C520.614 181.608 521.803 180.815 522.001 182.997C522.2 185.178 523.389 185.971 523.389 187.558C523.389 189.145 524.778 189.54 524.975 190.731C525.175 191.922 527.356 190.929 527.951 190.731C528.546 190.532 531.322 187.954 531.322 187.954C531.322 187.954 532.514 187.559 532.314 185.575C532.115 183.593 532.314 183.989 532.314 181.014C532.314 178.04 531.124 178.04 531.719 175.066C532.314 172.092 533.9 170.306 534.297 168.918C534.694 167.53 536.28 165.15 537.073 164.951C537.866 164.753 542.229 162.572 543.222 161.183C544.213 159.795 545.8 158.208 547.386 156.623C548.972 155.037 551.749 153.053 552.344 153.648C552.939 154.243 552.741 154.045 553.733 154.045C554.724 154.045 556.509 154.838 557.897 155.037C559.285 155.235 562.062 158.606 562.657 160.391C563.252 162.176 562.855 161.779 565.037 164.357C567.218 166.935 569.202 165.348 569.202 168.521C569.202 171.695 569.202 171.496 570.194 172.686C571.185 173.877 572.374 170.505 573.564 170.902C574.753 171.299 574.952 170.506 575.943 173.678C576.934 176.852 577.529 176.852 577.729 180.025C577.926 183.197 577.53 180.223 577.53 182.8C577.53 185.379 577.33 185.577 577.729 187.956C578.124 190.338 579.511 191.131 579.315 191.527C579.315 191.527 580.504 188.156 580.107 185.775C579.712 183.397 580.107 180.026 581.099 179.034C582.09 178.041 583.083 177.051 583.875 179.629C584.669 182.206 585.065 180.224 586.849 183.198C588.635 186.174 590.221 185.577 590.42 186.966C590.618 188.354 591.612 188.553 592.998 189.742C594.386 190.932 595.576 189.545 597.162 188.354C598.75 187.164 603.111 182.801 603.311 181.016C603.509 179.232 605.294 179.627 602.12 175.068C598.947 170.506 598.947 168.92 595.576 166.143C592.206 163.367 590.222 163.169 592.801 159.599C595.379 156.029 596.569 153.65 598.155 154.642C599.742 155.633 602.517 155.434 602.517 159.401C602.517 163.367 601.724 167.73 604.5 162.971C607.276 158.211 608.666 155.435 607.871 156.23C607.079 157.023 609.656 154.643 609.656 154.643C609.656 154.643 609.855 152.858 613.227 152.065C616.597 151.27 617.588 150.874 618.78 150.28C619.969 149.684 623.341 145.718 623.936 143.933C624.53 142.148 626.117 138.976 625.721 137.588C625.324 136.198 623.34 129.457 622.943 129.655C622.548 129.854 622.746 129.854 620.169 127.078C617.589 124.301 615.805 122.318 615.409 121.128C615.012 119.937 614.02 119.739 615.209 118.153C616.401 116.567 616.995 116.766 617.194 115.377C617.391 113.989 618.977 112.799 616.002 113.791C613.029 114.782 615.209 114.188 612.631 113.99C610.053 113.791 603.311 115.378 606.683 111.214C610.053 107.049 611.044 104.472 611.639 104.472C612.236 104.472 615.21 101.1 615.408 104.273C615.607 107.446 616.795 106.652 616.994 108.635C617.194 110.618 621.159 106.454 621.159 106.454C621.159 106.454 622.547 106.851 623.538 107.842C624.53 108.833 624.53 112.007 624.53 112.007C624.53 112.007 623.737 111.015 625.919 112.602C628.101 114.189 630.479 113.395 630.479 116.766C630.479 120.137 630.479 120.337 631.868 121.13C633.257 121.922 634.643 121.527 635.835 120.535C637.025 119.544 639.007 115.973 639.007 115.973C639.007 115.973 639.205 114.585 636.033 112.602C632.86 110.619 630.877 109.232 629.688 108.239C628.497 107.248 628.894 104.274 630.083 103.083C631.275 101.892 631.868 101.298 631.471 99.7116C631.074 98.1239 632.067 96.9344 635.041 97.1327C638.016 97.3318 638.611 96.9353 638.611 96.9353C638.611 96.9353 639.207 97.3309 639.207 96.1415C639.207 94.952 642.974 89.3986 641.982 89.3986C640.99 89.3986 642.182 88.011 641.585 85.8294C640.99 83.647 643.568 80.2769 641.388 78.6901C639.206 77.1033 638.611 76.3095 637.223 73.9306C635.835 71.5499 636.032 71.1543 630.877 70.5587C625.721 69.964 623.341 71.749 622.151 70.1631C620.96 68.5763 620.366 72.542 619.573 67.7825C618.78 63.0229 620.764 59.8493 620.764 59.8493C620.764 59.8493 623.936 57.8669 624.728 56.4783C625.521 55.0898 628.694 54.495 631.275 55.4871C633.853 56.4783 637.619 56.2801 640.794 56.8766C643.967 57.4704 643.768 59.4537 645.355 56.8766C646.941 54.2968 645.355 53.1082 646.545 51.7197C647.736 50.3311 649.123 48.1496 650.114 49.5373C651.105 50.9267 653.091 52.3135 654.678 50.5285C656.264 48.7443 656.859 48.5461 656.859 48.5461L657.65 49.3399C657.65 49.3399 659.435 48.3469 659.435 50.1311C659.435 51.917 661.221 53.9003 660.229 55.288C659.236 56.6774 657.85 56.4783 657.85 59.8493C657.85 63.222 657.85 62.6264 660.029 65.4036C662.212 68.1789 663.6 65.7992 663.996 68.7745C664.393 71.749 664.788 71.1552 666.971 73.1376C669.153 75.12 668.755 75.12 670.342 76.3103C671.929 77.5007 672.723 78.691 672.723 76.7077C672.723 74.7244 672.921 73.7332 672.723 71.9482C672.523 70.164 674.31 68.7745 673.118 65.8001C671.928 62.8256 672.92 63.0238 670.541 60.8423C668.16 58.6616 666.573 61.2396 665.782 58.066C664.988 54.8933 669.549 53.5047 670.74 53.1082C671.929 52.7126 673.712 50.332 674.109 51.9188C674.506 53.5047 671.135 59.2563 676.887 53.1082C682.637 46.961 680.06 49.539 680.06 49.539C680.06 49.539 683.034 49.1425 683.629 49.539C684.223 49.9364 685.812 47.754 685.215 47.9531C684.62 48.1522 678.871 44.7795 678.871 44.7795L674.705 42.4006C674.705 42.4006 676.094 41.4085 677.085 41.6076C678.077 41.8059 678.276 39.6243 679.269 39.4252C680.26 39.227 687.002 40.8147 688.391 41.6076C689.779 42.4006 694.736 42.5988 694.14 42.2023C693.545 41.805 690.374 39.4261 690.174 38.6322C689.977 37.8393 683.035 36.2525 680.854 36.4507C678.672 36.6481 676.691 37.2428 674.905 36.6481C673.12 36.0534 670.542 34.4665 669.154 34.4665C667.766 34.4665 650.315 31.0956 649.522 31.2938C648.729 31.492 647.538 35.2595 646.943 34.6648C646.348 34.0701 645.357 34.0692 642.579 33.2762C639.805 32.4833 636.035 31.8876 631.077 31.492C626.12 31.0956 622.75 31.8885 621.361 30.3017C619.973 28.7158 616.999 29.3105 613.627 29.1114C610.256 28.914 606.289 29.1114 604.504 29.1114C602.719 29.1114 598.556 28.914 597.564 28.7149C596.572 28.5158 595.383 27.1281 594.193 26.9307C593.002 26.7316 593.2 26.336 590.821 25.9395C588.442 25.5422 588.64 22.965 587.847 25.1457C587.054 27.3281 587.45 26.7325 586.26 27.5255C585.07 28.3193 583.88 29.9052 583.086 29.9052C582.294 29.9052 579.122 30.1035 578.525 29.707C577.93 29.3105 576.938 28.914 574.955 28.914C572.972 28.914 572.972 29.1114 570.394 28.7149C567.816 28.3184 565.832 28.5158 563.453 27.3272C561.073 26.1369 561.073 25.3439 559.09 25.5422C557.108 25.7413 557.108 25.1457 554.33 25.1457C551.555 25.1457 548.184 26.7325 546.398 26.9307C544.615 27.129 540.648 26.7316 539.259 26.1369C537.87 25.5422 537.474 24.1545 532.317 24.7483C527.161 25.3439 524.187 25.3439 525.178 23.7571C526.17 22.1712 527.36 20.5844 527.954 20.3862C528.55 20.1879 529.937 19.1967 528.945 18.8002C527.954 18.4029 526.962 17.809 524.583 17.6099C522.203 17.4117 522.4 18.4029 518.832 18.0064C515.263 17.6099 520.815 16.6187 513.478 16.8169C506.141 17.0161 504.356 17.6099 503.563 17.6099C502.769 17.6099 501.777 16.024 499.794 18.4029C497.811 20.7826 495.033 22.1703 491.068 22.3686C487.103 22.5677 486.904 21.9721 483.137 23.3598C479.369 24.7475 476.988 22.9633 477.782 26.136C478.574 29.3088 479.567 30.4991 479.567 31.0938C479.567 31.6885 477.782 35.6551 475.601 33.2753C473.418 30.8956 469.452 21.5747 471.237 27.9211C473.021 34.2665 476.987 36.4489 473.22 37.4402C469.453 38.4314 469.848 37.0437 469.253 36.6463C468.659 36.2498 469.253 33.4736 469.055 31.8868C468.856 30.3008 468.46 29.3088 467.667 28.5158C466.875 27.7219 467.072 26.5325 465.486 26.136C463.899 25.7395 465.287 24.9457 462.709 24.9457C460.131 24.9457 457.951 23.3589 458.545 26.929C459.139 30.4982 459.734 28.1193 461.32 31.4903C462.906 34.8613 465.881 32.4815 463.701 34.8613C461.519 37.241 455.768 36.4481 454.38 35.4569C452.991 34.4648 453.388 35.8533 450.809 34.0683C448.231 32.2832 449.025 30.8947 446.051 32.2833C443.076 33.6718 442.084 36.2498 440.894 35.2577C439.704 34.2657 436.928 36.6454 435.936 35.4569C434.944 34.2665 430.978 34.2665 430.185 35.4569C429.392 36.6463 427.012 36.4481 423.641 38.0349C420.27 39.6208 421.26 38.2322 417.096 41.6041C412.931 44.9751 410.551 47.7513 409.164 45.5698C407.775 43.3891 400.239 39.6208 403.214 39.0252C406.19 38.4305 407.577 37.241 409.164 38.6287C410.751 40.0164 413.33 39.6208 413.724 38.6287C414.121 37.6366 415.907 36.6454 413.526 35.456C411.146 34.2657 410.948 35.0586 407.181 33.6709C403.412 32.2824 407.181 32.6797 402.024 31.8859C396.868 31.0929 394.685 30.6964 393.298 30.3C391.911 29.9035 389.927 30.3 387.944 30.1017C385.96 29.9035 384.573 29.507 382.787 29.7052C381.003 29.9035 380.012 29.507 377.631 31.292C375.251 33.0771 373.466 33.8701 371.88 35.2577C370.294 36.6454 366.13 39.4226 364.94 40.4147C363.749 41.4059 359.584 44.5786 359.188 45.7689C358.791 46.9592 359.584 47.9504 357.998 48.7434C356.411 49.5364 354.825 49.5364 353.635 49.7346C352.444 49.9329 353.635 47.9496 352.444 49.9329C351.255 51.9161 351.651 59.0555 352.642 58.0634C353.634 57.0713 353.039 53.8994 357.402 56.8748C361.765 59.8484 364.542 59.4519 364.343 62.2282C364.145 65.0044 367.318 64.8062 367.714 65.4018C368.111 65.9956 370.094 64.608 370.094 64.608C370.094 64.608 374.457 61.8317 374.457 60.444C374.457 59.0555 377.233 55.8827 377.233 55.8827C377.233 55.8827 375.249 54.8915 375.249 52.9082C375.249 50.9258 375.845 50.3293 376.241 48.346C376.638 46.3636 374.06 48.3469 380.009 44.5777C385.958 40.8103 386.355 43.3891 386.355 43.3891C386.355 43.3891 387.147 44.1821 386.156 45.3716C385.165 46.5619 383.379 49.7355 382.983 50.1311C382.586 50.5285 384.768 53.7012 385.758 53.7012C386.75 53.7012 388.734 52.9073 389.924 53.1056C391.114 53.3047 393.097 52.5117 393.692 52.9082C394.287 53.3047 395.675 54.4942 394.683 55.4862C393.692 56.4774 391.509 57.6669 389.924 57.2713C388.336 56.8757 385.957 54.0977 387.345 58.0643C388.734 62.0308 387.147 63.022 385.957 62.8238C384.768 62.6256 382.189 60.6431 382.586 63.6176C382.983 66.5913 380.009 68.5745 379.413 68.5745C378.817 68.5745 377.629 68.3763 377.629 68.3763C377.629 68.3763 375.843 68.1772 374.853 68.1772C373.86 68.1772 371.877 69.1684 371.282 69.9622C370.687 70.7552 369.894 70.1614 368.903 70.1614C367.911 70.1614 368.903 68.971 366.919 68.5745C364.937 68.1781 363.747 67.7816 362.557 68.5745C361.367 69.3675 359.583 69.764 358.789 69.1693C357.996 68.5745 359.186 67.1851 357.598 67.9798C356.013 68.7728 354.822 70.9543 354.228 71.1534C353.633 71.3508 356.013 71.1534 353.633 71.3508C351.253 71.5499 350.262 72.1455 349.072 72.5411C347.881 72.9385 349.468 75.3174 347.286 76.1103C345.105 76.9033 346.693 75.1191 344.51 76.9033C342.329 78.6892 341.931 80.2752 341.139 80.4734C340.345 80.6725 340.544 81.0681 338.759 81.2664C336.974 81.4646 337.174 81.6628 336.181 81.8611C335.189 82.0593 336.38 82.4567 334.198 82.0593C332.016 81.6628 330.43 82.4567 330.826 83.2497C331.223 84.0426 338.56 86.2242 333.008 86.0259C327.455 85.8277 329.24 86.8189 330.43 87.6118C331.62 88.4048 332.214 89.1978 332.81 89.3969C333.405 89.5951 334.396 91.9758 334.396 91.9758C334.396 91.9758 335.982 91.7767 334.991 93.1652C334 94.5538 335.388 94.9503 334.396 96.7353C333.404 98.5204 333.404 97.33 332.611 97.7265C331.818 98.1221 330.628 99.5116 328.446 98.3212C326.264 97.1309 324.679 96.5362 322.1 96.3388C319.522 96.1397 321.306 95.7441 319.522 97.1309C317.737 98.5204 317.341 100.106 317.54 101.89C317.738 103.675 317.936 106.055 317.341 107.246C316.746 108.435 316.746 109.625 317.141 111.41C317.539 113.195 318.729 113.989 318.729 113.989C318.729 113.989 321.505 114.385 322.1 114.584C322.695 114.782 323.885 114.188 325.471 115.178C327.058 116.17 328.645 116.567 329.636 115.377C330.627 114.188 334.594 112.799 335.785 111.61C336.974 110.419 337.767 110.024 337.173 108.833C336.578 107.643 338.363 104.668 339.354 104.074C340.345 103.479 342.527 102.883 342.527 102.883L344.907 99.3142C344.907 99.3142 346.89 97.1318 347.881 97.3309C348.872 97.5292 354.425 99.5133 354.029 96.9353C353.633 94.3564 354.426 93.5635 355.02 94.5547C355.615 95.5459 357.202 95.1494 357.202 95.1494C357.202 95.1494 357.995 94.7538 358.59 95.3485C359.184 95.9424 359.977 98.5221 361.168 99.116C362.358 99.7116 363.349 100.306 364.143 100.702C364.936 101.099 365.73 100.702 367.317 102.09C368.903 103.479 370.489 104.273 370.687 104.867C370.887 105.461 372.274 106.85 372.274 106.85C372.274 106.85 373.662 107.246 373.266 108.04C372.869 108.833 370.887 111.214 369.895 111.61C368.903 112.006 366.325 111.212 367.317 112.006C368.307 112.799 369.696 113.791 370.291 113.195C370.887 112.601 374.653 108.634 374.653 108.634C374.653 108.634 374.455 108.832 374.653 107.642C374.853 106.454 374.653 105.065 375.645 105.66C376.637 106.255 377.232 107.048 377.629 106.255C378.025 105.461 378.422 105.859 377.43 105.264C376.438 104.668 374.059 101.298 372.868 101.099C371.678 100.9 368.703 98.9169 368.703 98.9169C368.703 98.9169 368.109 98.3221 366.72 96.7362C365.332 95.1494 364.936 95.5459 364.538 94.1573C364.142 92.7696 362.951 90.9846 365.133 91.3811C367.316 91.7775 368.703 93.1652 370.686 94.3556C372.669 95.5459 372.274 95.9415 374.058 97.1318C375.842 98.3221 376.042 99.5125 377.429 99.3142C378.816 99.116 380.404 100.107 380.404 101.892C380.404 103.677 380.8 105.66 381.196 106.057C381.594 106.454 382.782 107.247 383.179 108.04C383.576 108.833 384.37 110.817 384.964 111.61C385.559 112.403 386.154 112.998 386.749 113.99C387.343 114.981 387.542 113.791 388.136 114.188C388.732 114.585 389.525 114.386 389.525 113.593C389.525 112.8 389.722 111.411 389.722 111.411C389.722 111.411 392.5 110.618 391.707 110.221C390.914 109.825 388.533 107.445 388.732 106.652C388.93 105.859 388.732 104.273 389.722 104.471C390.714 104.668 391.707 106.454 393.888 104.867C396.07 103.28 398.648 102.487 397.854 104.867C397.062 107.246 398.054 107.642 397.854 110.221C397.656 112.8 398.648 112.006 400.037 113.395C401.425 114.783 402.416 114.982 403.407 115.378C404.399 115.775 405.985 115.577 407.573 115.775C409.16 115.973 410.151 115.18 411.539 115.577C412.926 115.973 416.1 115.378 416.695 115.775C417.291 116.172 419.671 114.982 419.868 116.37C420.066 117.759 420.86 116.172 420.266 119.344C419.671 122.517 418.877 124.699 418.877 124.699C416.695 128.864 415.902 129.856 414.91 130.054C413.92 130.252 413.324 130.847 411.54 130.649C409.755 130.449 407.574 130.649 404.996 130.054C402.418 129.458 397.657 130.649 395.675 129.458C393.692 128.269 390.915 129.26 389.724 127.872C388.535 126.484 386.552 126.682 385.758 125.889C384.965 125.096 384.569 122.915 384.569 126.088C384.569 129.262 382.784 129.459 382.387 131.046C381.99 132.632 382.981 131.839 380.8 131.641C378.618 131.442 378.023 132.632 374.851 130.253C371.677 127.873 370.091 127.873 368.505 126.881C366.918 125.889 365.332 128.665 363.746 125.493C362.159 122.32 359.977 124.898 359.779 122.32C359.581 119.741 359.779 119.941 359.977 118.354C360.177 116.767 362.357 115.38 361.366 114.785C360.374 114.19 361.167 113.198 359.779 113.794C358.391 114.388 356.408 114.587 354.821 115.181C353.235 115.777 358.391 115.181 350.657 115.777C342.922 116.372 340.74 117.165 340.74 117.165C340.74 117.165 340.145 116.768 339.153 117.561C338.162 118.354 336.774 119.544 335.386 118.95C333.998 118.354 333.204 118.552 332.015 118.752C330.825 118.95 330.032 117.76 328.644 118.752C327.255 119.742 325.669 120.139 325.074 119.742C324.457 119.337 323.461 117.751 323.461 117.751L323.485 117.754Z" fill="#689BFF" fill-opacity="0.13"/>
<path d="M456.157 248.241C455.562 250.423 453.38 253.595 453.38 253.595L449.413 255.578C449.413 255.578 448.027 256.769 447.232 256.967C446.439 257.164 444.456 258.157 444.456 258.157C444.456 258.157 442.672 257.76 443.266 259.544C443.86 261.329 444.059 263.511 443.86 264.105C443.663 264.701 443.663 265.891 443.663 267.478C443.663 269.064 443.068 271.046 442.076 271.443C441.085 271.84 440.093 272.237 440.291 273.625C440.49 275.014 440.49 279.178 440.49 279.178L443.069 283.144C443.069 283.144 443.862 282.55 445.449 282.55C447.034 282.55 448.622 281.163 448.622 281.163C448.622 281.163 450.408 281.558 450.208 279.378C450.009 277.195 451.002 274.618 450.802 274.023C450.605 273.428 452.588 270.849 452.588 270.255C452.588 269.66 454.572 266.885 454.572 265.892C454.572 264.901 455.959 263.314 456.157 262.126C456.356 260.934 456.554 258.159 456.95 257.366C457.348 256.573 457.546 255.779 457.546 254.986C457.546 254.193 457.546 252.606 457.546 252.606L456.136 248.236L456.157 248.241Z" fill="white"/>
<path d="M611.437 275.017C610.842 275.809 610.445 284.338 610.049 285.329C609.652 286.32 608.859 291.477 609.257 292.666C609.652 293.857 610.247 298.219 609.852 299.608C609.454 300.995 610.05 305.358 609.057 305.16C608.066 304.961 607.671 305.359 607.671 305.953C607.671 306.549 609.057 307.737 609.057 307.737C609.057 307.737 611.438 307.738 612.43 307.539C613.421 307.341 615.404 306.349 616.991 306.349C618.578 306.349 619.57 305.158 620.957 305.158C622.345 305.158 625.321 304.168 626.113 304.564C626.906 304.959 628.096 302.184 629.484 302.78C630.873 303.374 633.848 301.391 635.236 301.391C636.623 301.391 637.219 299.209 638.806 299.607C640.392 300.003 643.367 298.814 644.756 299.407C646.142 300.003 648.325 297.424 649.316 299.407C650.309 301.391 653.284 302.184 653.284 303.175C653.284 304.166 653.083 306.349 653.083 306.349L655.464 306.15C655.464 306.15 659.23 303.77 659.827 303.77C660.421 303.77 661.81 301.787 661.81 302.78C661.81 303.77 660.619 305.953 660.223 306.943C659.827 307.936 660.619 309.126 660.619 309.126C660.619 309.126 662.604 310.117 661.81 311.901C661.016 313.686 662.007 313.291 661.81 314.677C661.611 316.066 661.81 315.47 662.601 316.263C663.396 317.057 664.785 318.448 665.974 318.248C667.165 318.048 667.56 316.86 668.552 317.455C669.543 318.049 671.526 317.653 672.12 318.447C672.718 319.239 668.354 321.222 675.89 317.852C683.425 314.479 684.217 313.686 685.209 312.496C686.203 311.306 687.393 310.117 688.184 309.323C688.978 308.53 688.384 308.728 690.762 306.943C693.142 305.159 693.142 305.952 695.325 302.58C697.507 299.21 699.092 298.02 699.49 297.424C699.886 296.829 700.679 296.631 700.878 294.25C701.076 291.871 702.662 289.689 702.662 288.896C702.662 288.104 703.256 286.915 703.058 285.526C702.86 284.137 703.852 282.155 702.662 280.172C701.471 278.188 703.257 277.397 701.471 276.601C699.686 275.808 698.497 276.206 698.1 274.817C697.703 273.428 696.116 273.627 695.522 269.859C694.927 266.092 692.547 265.693 692.547 265.693C692.547 265.693 690.167 264.702 690.762 264.307C691.359 263.909 691.556 261.132 691.359 260.339C691.159 259.546 691.159 257.761 690.566 256.573C689.971 255.381 689.573 253.796 688.979 252.407C688.384 251.019 687.393 250.622 686.995 249.036C686.598 247.45 686.003 246.854 685.806 246.458C685.606 246.061 685.209 244.079 684.814 246.259C684.417 248.44 683.623 252.604 683.623 252.604C683.623 252.604 682.036 255.977 681.441 256.968C680.846 257.959 680.252 260.537 679.261 260.338C678.268 260.14 677.672 261.331 676.881 261.131C676.087 260.932 674.897 261.33 674.303 260.736C673.708 260.14 672.121 258.554 671.327 258.355C670.534 258.158 669.94 256.572 669.344 256.572C668.748 256.572 667.757 255.182 667.956 254.389C668.154 253.596 668.352 251.812 668.551 251.018C668.748 250.225 669.94 248.439 669.94 248.439C669.94 248.439 669.94 247.25 668.948 247.25C667.956 247.25 667.757 247.25 665.576 247.051C663.395 246.852 662.801 246.654 662.006 246.654C661.214 246.654 662.8 246.258 660.618 246.853C658.437 247.449 657.445 249.035 656.057 250.424C654.671 251.811 655.859 251.414 654.671 251.811C653.479 252.209 653.679 250.819 652.885 253.002C652.091 255.183 653.282 255.777 652.685 256.174C652.09 256.572 647.927 254.787 647.927 254.787C647.927 254.787 648.918 254.588 648.124 253.596C647.332 252.604 646.538 251.217 645.35 251.812C644.158 252.407 643.166 252.804 642.375 253.796C641.581 254.787 641.581 255.58 640.986 256.373C640.391 257.166 638.805 257.166 638.606 257.959C638.408 258.753 638.408 260.736 637.814 260.934C637.219 261.133 637.021 260.143 636.426 259.944C635.832 259.745 636.029 258.159 635.633 259.151C635.237 260.142 634.84 259.943 634.246 261.53C633.649 263.116 633.452 264.505 632.857 264.703C632.262 264.902 632.857 265.1 631.071 266.092C629.288 267.083 628.891 267.083 626.313 268.273C623.736 269.464 624.331 269.464 622.546 269.661C620.762 269.86 620.364 270.455 619.174 270.653C617.983 270.851 617.192 271.049 616.001 272.239C614.811 273.429 613.82 273.825 613.027 274.024C612.234 274.223 611.476 275.002 611.476 275.002L611.437 275.017Z" fill="white"/>
<path d="M623.138 196.681C622.346 197.872 619.768 201.44 618.777 201.639C617.784 201.837 616.792 202.829 615.999 202.63C615.206 202.431 613.421 202.63 612.827 205.208C612.232 207.786 611.24 209.175 610.643 208.976C610.049 208.778 611.635 212.743 608.265 211.158C604.894 209.571 606.084 212.547 605.686 213.341C605.29 214.133 606.281 216.315 606.479 217.108C606.679 217.901 607.272 219.29 608.066 220.478C608.859 221.669 609.454 223.056 610.842 222.662C612.231 222.263 616.592 222.662 616.592 222.662C616.592 222.662 618.181 223.256 619.171 223.256C620.162 223.256 620.362 222.86 620.955 222.86C621.549 222.86 622.74 220.876 622.542 220.678C622.344 220.478 621.75 219.884 622.939 218.694C624.129 217.504 625.517 217.108 625.716 215.72C625.914 214.332 625.319 214.332 625.914 213.537C626.509 212.744 627.896 212.944 627.501 212.149C627.104 211.356 627.896 211.555 627.104 209.967C626.311 208.381 625.318 207.786 626.111 205.802C626.905 203.82 627.7 203.422 627.501 202.233C627.302 201.042 628.492 200.646 627.104 199.258C625.717 197.871 625.121 197.473 624.129 197.075L623.151 196.67L623.138 196.681Z" fill="white"/>
<path d="M662.01 216.514C662.805 216.316 665.58 214.333 665.779 217.903C665.978 221.472 666.174 220.48 667.366 222.463C668.556 224.447 669.347 225.043 670.735 224.051C672.123 223.058 673.71 223.058 674.106 221.275C674.504 219.49 674.504 219.49 675.693 219.49C676.885 219.49 677.28 219.291 677.877 220.086C678.471 220.877 678.866 220.084 681.446 221.473C684.024 222.862 686.204 222.463 687.793 223.853C689.38 225.24 690.173 225.044 692.353 225.836C694.535 226.629 693.543 225.44 695.526 227.621C697.51 229.802 696.718 230.396 697.708 231.389C698.699 232.38 699.494 230.595 699.096 232.975C698.699 235.354 695.923 232.974 700.088 236.345C704.252 239.717 704.848 240.313 706.235 241.303C707.624 242.295 708.615 243.486 707.427 243.486C706.235 243.486 702.468 243.486 702.072 242.89C701.675 242.295 699.891 241.898 698.7 240.51C697.511 239.123 694.933 238.131 694.339 236.941C693.743 235.75 692.95 235.354 691.959 235.354C690.967 235.354 689.976 236.544 688.587 237.932C687.198 239.32 687.796 237.14 686.009 237.734C684.223 238.33 682.242 237.535 681.249 236.742C680.257 235.949 680.457 234.76 678.871 235.354C677.283 235.949 676.293 235.553 676.888 234.363C677.483 233.172 677.085 231.586 677.085 231.586C677.085 231.586 677.682 229.603 676.294 229.207C674.905 228.811 674.905 227.423 673.517 227.025C672.127 226.629 669.948 225.637 669.948 225.637C669.948 225.637 669.749 225.637 669.154 225.439C668.559 225.24 668.559 225.24 666.972 224.844C665.386 224.447 664.195 224.842 663.403 223.852C662.608 222.861 663.006 221.472 663.006 221.472C663.006 221.472 666.178 221.869 663.006 219.489L659.833 217.11C659.833 217.11 660.228 216.911 660.03 216.514C659.828 216.109 662.013 216.506 662.013 216.506L662.01 216.514Z" fill="white"/>
<path d="M572.767 200.047C572.767 200.047 573.758 201.04 575.345 200.841C576.931 200.642 578.119 204.013 579.113 205.203C580.103 206.393 580.7 206.988 582.88 208.377C585.061 209.764 584.863 207.186 587.838 211.351C590.813 215.515 589.424 212.938 590.813 215.515C592.2 218.096 592.994 219.482 593.787 220.079C594.579 220.674 595.176 222.259 595.375 222.854C595.572 223.449 596.96 225.233 596.96 225.829C596.96 226.423 597.357 228.01 596.168 229.398C594.978 230.787 593.985 230.985 593.985 230.985C593.985 230.985 591.606 229.794 590.813 228.605C590.019 227.416 589.029 226.423 587.639 224.045C586.251 221.664 584.665 219.086 583.872 217.896C583.079 216.705 581.888 215.515 581.294 214.326C580.699 213.135 579.112 209.567 578.319 209.169C577.526 208.772 577.327 207.584 575.938 206.195C574.552 204.806 574.749 203.617 574.154 202.824C573.56 202.031 572.172 200.244 572.172 200.244L572.753 200.05L572.767 200.047Z" fill="white"/>
<path d="M187.052 354.736C185.663 353.943 182.689 352.555 181.698 351.762C180.707 350.969 177.732 346.604 177.732 346.604L175.55 342.439C175.55 342.439 172.973 339.266 173.567 338.077C174.162 336.886 175.352 336.094 175.352 335.499C175.352 334.904 176.542 333.316 175.55 332.723C174.558 332.127 174.558 331.93 173.963 330.145C173.368 328.36 173.368 326.772 172.575 326.376C171.781 325.981 171.187 323.402 170.394 323.203C169.601 323.004 168.807 321.617 168.807 321.617L167.617 305.553C167.617 305.553 167.219 298.216 166.824 296.629C166.426 295.043 167.418 291.672 166.426 288.696C165.435 285.722 166.625 282.153 166.03 280.962C165.435 279.772 166.426 276.402 165.831 273.229C165.237 270.056 168.211 266.09 165.831 264.9C163.452 263.709 165.237 261.925 163.253 261.925C161.271 261.925 159.882 260.933 158.097 259.546C156.312 258.158 152.941 255.579 151.949 254.587C150.958 253.596 147.784 251.017 146.793 250.224C145.802 249.431 144.81 246.06 144.017 245.067C143.224 244.077 142.828 241.103 141.637 239.318C140.447 237.533 138.861 234.559 138.464 233.963C138.067 233.369 133.704 228.213 133.704 228.213L134.101 225.04C134.101 225.04 137.075 223.255 136.679 222.66C136.282 222.065 136.878 221.469 135.488 220.28C134.1 219.089 134.298 216.908 135.488 215.917C136.679 214.924 138.463 211.752 138.463 211.752L141.437 206.795C141.437 206.795 143.818 204.215 143.818 202.431C143.818 200.647 147.189 199.457 145.206 197.87C143.222 196.283 144.214 194.895 143.619 193.705C143.023 192.515 143.421 191.722 145.206 190.532C146.991 189.342 150.163 184.979 150.163 184.979C150.163 184.979 152.543 184.384 153.138 184.384C153.733 184.384 154.725 178.037 156.51 182.201C158.295 186.366 158.89 184.185 158.295 187.159C157.699 190.134 159.088 189.54 159.881 188.747C160.674 187.952 159.483 189.342 161.07 185.771C162.656 182.201 162.062 181.012 163.053 182.004C164.045 182.996 164.441 183.194 166.226 183.789C168.01 184.384 168.606 184.185 169.2 185.375C169.795 186.565 169.597 184.978 172.968 185.574C176.339 186.17 181.099 184.384 180.504 186.366C179.909 188.349 178.719 186.168 181.495 188.349C184.271 190.532 184.669 190.927 186.255 191.325C187.841 191.721 189.229 191.523 191.61 193.903C193.99 196.282 194.584 196.481 195.179 197.669C195.774 198.861 196.765 198.067 197.757 199.256C198.748 200.447 200.137 200.447 201.525 200.447C202.912 200.447 201.525 199.256 203.706 200.844C205.888 202.43 207.474 202.627 208.466 205.801C209.457 208.976 211.44 208.776 209.853 211.95C208.267 215.123 205.095 216.511 206.482 216.313C207.87 216.114 210.449 214.923 211.242 215.123C212.035 215.32 212.431 214.528 213.622 215.123C214.812 215.717 215.01 214.33 214.812 215.717C214.613 217.106 214.613 215.717 214.613 217.106C214.613 218.494 214.216 215.717 216.596 216.313C218.976 216.908 217.587 215.122 220.364 217.701C223.141 220.279 223.141 219.486 224.131 220.874C225.123 222.261 226.114 220.082 226.71 220.676C227.306 221.27 229.09 220.873 230.875 221.271C232.66 221.666 231.469 220.081 234.247 221.865C237.022 223.65 239.799 223.055 240.394 224.642C240.989 226.228 242.576 225.633 243.368 226.625C244.16 227.617 244.558 226.228 245.352 227.617C246.145 229.004 248.525 228.607 248.128 229.995C247.73 231.384 248.722 230.591 248.325 232.573C247.93 234.558 246.54 237.731 245.352 238.523C244.161 239.317 244.162 240.308 243.368 241.299C242.575 242.292 242.774 240.308 241.781 243.084C240.79 245.861 240.989 246.258 240.196 248.835C239.403 251.412 239.997 248.835 239.403 251.413C238.808 253.991 239.204 255.578 238.61 258.553C238.015 261.527 238.213 261.528 237.817 263.709C237.42 265.891 238.808 262.719 237.023 267.278C235.239 271.841 235.04 271.641 234.446 273.625C233.85 275.609 234.644 274.021 232.462 275.212C230.281 276.403 231.471 276.005 228.892 276.798C226.315 277.591 223.142 278.386 222.15 278.583C221.159 278.781 217.193 279.971 218.383 282.35C219.573 284.731 219.573 285.127 218.383 288.102C217.193 291.076 215.408 292.069 215.408 293.456C215.408 294.844 214.615 296.231 214.417 297.223C214.218 298.215 216.201 296.231 213.822 299.207C211.443 302.181 211.244 301.388 210.451 303.173C209.658 304.957 210.451 303.569 209.658 304.957C208.865 306.345 206.881 306.94 206.881 306.94C206.881 306.94 207.079 307.932 206.286 307.535C205.492 307.14 205.691 307.734 202.716 306.94C199.741 306.147 199.345 304.165 198.948 305.552C198.552 306.94 199.146 307.735 200.932 309.122C202.716 310.511 205.691 310.906 204.897 312.296C204.104 313.684 204.104 313.684 203.51 314.477C202.914 315.271 204.303 314.676 202.914 315.271C201.526 315.866 200.732 318.445 200.138 318.445C199.543 318.445 199.146 319.436 198.353 319.04C197.56 318.642 195.577 317.254 195.18 318.047C194.783 318.84 193.99 317.055 194.188 319.832C194.387 322.608 194.783 324.195 193.791 324.79C192.8 325.385 190.419 324.79 190.419 324.79L190.023 323.798L188.635 324.195C188.635 324.195 188.041 326.574 189.032 326.971C190.023 327.367 189.825 327.763 190.816 328.953C191.808 330.144 191.213 332.325 191.213 332.325C191.213 332.325 191.213 332.921 190.222 333.912C189.231 334.903 188.834 335.697 188.635 336.292C188.436 336.886 187.247 339.465 189.032 339.266C190.816 339.067 192.205 338.076 192.205 341.25C192.205 344.422 192.998 343.63 192.007 345.811C191.015 347.992 190.222 348.191 190.024 350.173C189.827 352.156 190.223 352.355 190.619 353.545C191.016 354.735 192.008 354.14 191.016 354.735C190.029 355.299 187.06 354.709 187.06 354.709L187.052 354.736Z" fill="white"/>
<path d="M135.888 193.306L134.5 191.324C134.5 191.324 133.905 190.133 132.913 189.935C131.921 189.738 129.74 187.159 129.74 187.159C129.74 187.159 128.748 186.366 128.748 184.979C128.748 183.59 127.955 181.409 128.549 179.03C129.145 176.651 129.343 173.675 129.145 172.881C128.946 172.088 130.136 171.89 128.748 171.096C127.36 170.303 124.584 170.105 122.799 170.105C121.014 170.105 118.832 170.701 118.436 170.898C118.039 171.096 120.617 164.949 121.014 163.958C121.41 162.967 123.195 158.603 123.195 158.009C123.195 157.413 123.79 157.215 122.6 156.423C121.411 155.629 119.428 155.233 118.237 155.827C117.048 156.423 117.246 155.034 116.255 157.413C115.264 159.794 114.272 162.372 113.081 162.769C111.892 163.166 109.512 164.355 109.512 164.355C109.512 164.355 106.538 164.157 105.545 163.959C104.554 163.761 100.389 161.579 99.5965 160.191C98.8035 158.803 98.407 155.827 98.407 154.441C98.407 153.052 100.588 148.888 100.389 147.896C100.191 146.905 102.572 142.938 102.373 142.343C102.174 141.748 102.769 139.765 103.364 138.972C103.959 138.179 106.934 137.187 107.727 136.394C108.52 135.6 109.909 134.61 111.296 134.212C112.684 133.815 113.875 133.419 114.866 133.419C115.858 133.419 118.436 131.238 118.832 133.419C119.229 135.6 121.014 134.807 122.006 135.005C122.997 135.204 123.196 136.195 124.782 133.617C126.369 131.039 127.955 130.246 127.955 130.84C127.955 131.436 130.533 130.643 130.929 131.238C131.326 131.832 132.119 130.84 133.507 132.031C134.896 133.221 136.878 133.419 136.68 134.013C136.482 134.608 137.473 134.608 137.473 135.203C137.473 135.798 138.267 133.815 138.267 137.384C138.267 140.954 139.258 143.136 139.258 143.136C139.258 143.136 140.646 146.111 141.24 145.515C141.835 144.921 143.024 143.335 143.024 143.335C143.024 143.335 145.008 142.144 143.62 137.98C142.231 133.816 143.224 132.625 142.827 131.237C142.43 129.848 142.43 129.054 144.809 127.27C147.189 125.486 152.94 121.519 154.329 120.726C155.716 119.934 158.889 117.752 158.889 117.752C158.889 117.752 160.078 117.157 160.278 115.57C160.476 113.985 164.243 111.207 164.442 110.414C164.642 109.621 167.22 107.639 167.22 107.639C167.22 107.639 169.995 106.051 169.797 105.061C169.598 104.07 173.367 102.286 173.961 102.286C174.556 102.286 177.73 103.276 177.73 101.491C177.73 99.7068 177.73 99.3094 179.713 97.7235C181.696 96.1376 184.274 93.7569 185.266 93.7569C186.257 93.7569 189.629 91.9736 191.016 91.5763C192.405 91.1789 196.768 89.1956 192.801 91.5763C188.835 93.9552 191.413 92.5675 190.62 94.5508C189.828 96.5332 189.231 99.1121 193 96.1367C196.768 93.1622 196.569 92.5666 197.957 92.3692C199.346 92.171 198.354 92.9639 201.328 91.9719C204.304 90.9807 204.502 90.5842 204.502 90.5842C204.502 90.5842 205.891 89.3938 205.097 88.8C204.304 88.2044 205.891 87.4114 202.915 88.6009C199.941 89.7912 200.139 89.9895 198.156 89.3939C196.173 88.7991 193.198 88.9965 195.379 87.0132C197.561 85.0308 200.337 84.4352 198.552 83.6422C196.768 82.8493 192.207 83.8413 191.612 84.0387C191.016 84.2369 189.629 83.8405 188.438 84.0387C187.249 84.2369 187.645 82.4537 188.438 82.0563C189.232 81.6589 191.81 80.4686 194.983 79.6756C198.156 78.8827 205.891 78.6844 207.675 78.6844C209.459 78.6844 211.839 79.0818 213.227 78.0897C214.615 77.0985 217.392 75.5126 217.789 74.7179C218.186 73.9249 219.772 72.7355 219.772 72.7355C219.772 72.7355 221.556 70.9504 220.565 70.1574C219.574 69.3645 218.582 67.5794 217.789 67.9759C216.996 68.3724 217.591 70.753 216.004 68.1742C214.418 65.597 214.616 65.1997 213.823 64.6049C213.03 64.0102 212.236 64.4058 212.832 61.6304C213.426 58.8542 213.228 57.6639 213.228 57.6639C213.228 57.6639 213.823 55.285 213.228 55.0867C212.633 54.8876 212.237 54.2938 211.246 54.8876C210.254 55.4823 204.701 58.2595 203.512 58.8542C202.321 59.4489 200.735 56.4744 201.329 55.0867C201.925 53.6973 201.528 54.4911 200.735 52.5087C199.942 50.5254 196.769 50.1281 195.579 50.1281C194.388 50.1281 191.613 48.343 190.819 49.5333C190.026 50.7228 185.862 54.4902 185.067 54.8876C184.274 55.285 183.085 51.5166 182.49 57.6639C181.895 63.8129 184.672 65.597 181.499 65.9935C178.326 66.39 175.549 68.1742 175.549 68.1742C175.549 68.1742 172.972 68.3733 172.972 69.9592C172.972 71.5469 171.981 75.3135 170.79 75.71C169.6 76.1073 166.625 75.5126 165.634 74.3223C164.642 73.1319 165.832 68.7698 165.832 68.7698L167.617 66.9847C167.617 66.9847 154.925 65.0023 155.122 64.2085C155.322 63.4155 151.355 62.0278 150.958 60.8375C150.562 59.6472 150.363 57.0691 150.76 56.0779C151.157 55.0867 156.511 50.3272 159.287 49.336C162.064 48.3439 166.823 46.1632 168.212 45.7659C169.6 45.3694 171.979 45.5676 172.773 44.5764C173.566 43.5844 173.764 41.8002 173.764 41.8002C173.764 41.8002 173.368 39.0231 174.161 39.4195C174.954 39.8169 176.342 40.4116 176.54 41.0063C176.739 41.6011 176.739 42.9896 178.127 41.4019C179.516 39.816 181.301 39.2204 182.887 38.4283C184.474 37.6345 186.852 37.8336 188.242 37.0406C189.63 36.2477 192.009 35.4538 192.208 33.4706C192.406 31.4881 191.613 32.0829 190.621 31.8837C189.63 31.6864 191.017 32.0829 187.646 33.6688C184.274 35.2547 185.266 34.0653 182.887 35.2547C180.507 36.445 180.308 36.6433 180.11 35.6521C179.911 34.66 180.507 33.0741 180.507 33.0741C180.507 33.0741 180.706 32.8749 179.318 32.4793C177.929 32.0829 177.929 32.6776 177.731 30.8934C177.532 29.1084 178.722 26.5304 176.739 27.3233C174.756 28.1163 172.972 26.7286 171.583 30.6943C170.195 34.66 165.435 38.8257 164.245 37.8336C163.056 36.8424 162.857 36.6433 161.865 36.6433C160.873 36.6433 159.485 35.4538 157.7 35.2556C155.915 35.0574 150.56 35.0574 149.173 35.2556C147.785 35.4547 146.199 34.4626 145.008 35.653C143.818 36.8424 142.034 38.4292 142.034 39.0248C142.034 39.6195 140.249 36.8424 139.654 37.0415C139.06 37.2398 137.472 36.2486 135.689 36.2486C133.904 36.2486 132.713 35.2565 132.119 35.2565C131.525 35.2565 132.713 33.6697 132.119 33.4714C131.525 33.2741 118.633 32.8767 118.633 32.8767C118.633 32.8767 114.469 31.2908 112.883 31.489C111.296 31.6873 106.934 31.8846 103.561 32.4802C100.189 33.075 95.2317 35.0582 93.6457 35.2565C92.0589 35.4556 88.4897 35.4556 87.895 34.4635C87.2994 33.4723 88.0932 33.6706 87.2994 33.4723C86.5064 33.275 87.102 32.8776 85.317 31.4899C83.5319 30.1013 86.1108 28.9119 82.5407 28.9119C78.9715 28.9119 76.79 28.7128 73.6172 28.9119C70.4436 29.1101 63.8999 30.6961 63.1069 30.4978C62.314 30.2996 55.9676 31.4899 54.9755 30.8952C53.9843 30.2996 49.0257 33.0758 48.0354 32.8776C47.0442 32.6794 43.2758 33.0767 42.2846 33.6714C41.2925 34.267 36.533 35.4556 38.1198 36.4477C39.7057 37.4389 39.5075 38.4301 39.7057 39.0257C39.9048 39.6204 38.1198 41.0081 38.1198 41.0081C38.1198 41.0081 37.7224 41.0081 35.5418 40.2151C33.3602 39.4213 30.9805 39.0257 29.9884 39.6204C28.9972 40.2151 27.2121 41.4064 27.6086 42.1993C28.006 42.9923 30.7814 44.7773 31.1787 44.1817C31.5752 43.587 32.5673 42.3976 33.7567 42.5958C34.9471 42.7949 36.7321 41.8028 35.1453 43.7861C33.5585 45.7685 32.1699 46.7606 31.1787 46.9597C30.1875 47.1571 27.8077 47.3553 25.6262 47.5545C23.4438 47.7536 23.642 46.7615 21.6596 48.7448C19.6772 50.7272 18.8834 49.5378 18.4869 51.7193C18.0904 53.8999 17.6939 53.8999 18.4869 54.4955C19.2799 55.0903 16.9001 55.2885 18.6851 55.8832C20.4693 56.4788 22.6508 57.0735 22.4526 57.6674C22.2535 58.263 24.4359 56.8753 23.2456 58.4604C22.0552 60.048 21.2631 61.4348 23.642 59.8489C26.0218 58.263 27.4095 59.4516 29.3928 58.4604C31.3761 57.4691 33.3594 57.2709 34.5488 56.4779C35.7391 55.6841 36.3339 54.4955 38.1189 53.899C39.904 53.3043 38.7136 54.0982 38.9119 55.0894C39.1101 56.0806 38.9119 56.2788 40.1022 55.485C41.2916 54.692 41.2916 55.2876 42.8785 54.2955C44.4644 53.3043 46.2494 52.3122 47.4398 52.907C48.6292 53.5026 49.0257 53.5026 49.8195 53.5026C50.6125 53.5026 48.8283 53.3034 50.6125 53.5026C52.3975 53.6999 49.8195 52.907 55.7685 54.2955C61.7184 55.6832 63.3052 54.692 63.7008 56.8735C64.0982 59.0551 64.8911 56.6744 65.8823 58.063C66.8735 59.4507 67.4691 58.2621 68.0639 60.641C68.6586 63.0217 68.0639 69.5654 67.6674 70.3583C67.2709 71.1513 67.0726 71.1513 67.2709 72.9363C67.4691 74.7205 69.8489 83.2493 69.0559 83.8431C68.263 84.4369 66.4779 84.6361 66.4779 84.6361L65.4867 88.2053C65.4867 88.2053 63.9008 91.1798 62.5122 92.7666C61.1237 94.3525 59.3395 96.3367 58.3474 97.7235C57.3562 99.1121 56.5624 101.493 55.1747 102.88C53.787 104.268 52.5967 103.673 52.9931 106.648C53.3896 109.622 52.9931 112.795 53.3896 114.977C53.787 117.159 54.7782 120.134 55.5712 121.324C56.3641 122.513 56.9597 122.513 58.3474 123.504C59.736 124.496 61.521 125.687 61.3219 126.678C61.1237 127.669 61.5201 133.818 61.5201 133.818C61.5201 133.818 62.7105 135.801 62.9078 137.982C63.107 140.165 64.4946 142.345 64.4946 142.345L65.685 144.924C65.685 144.924 66.2797 145.123 67.0735 146.708C67.8665 148.295 67.8665 148.295 68.0647 149.087C68.2639 149.882 68.2639 149.683 68.2639 149.882C68.2639 150.079 68.0647 146.51 67.6683 145.518C67.2718 144.527 67.2718 143.337 66.8753 142.147C66.4788 140.957 67.0735 139.568 65.8841 137.784C64.6946 136 64.6946 135.801 64.0999 134.016C63.5052 132.231 62.7113 130.248 63.5052 129.851C64.2982 129.455 64.8929 126.877 66.4797 129.851C68.0656 132.825 68.2647 132.033 68.463 134.413C68.6603 136.793 69.2559 137.587 69.8507 138.577C70.4454 139.568 71.8331 142.941 72.6269 144.328C73.4199 145.716 72.6269 143.535 74.4111 146.311C76.1961 149.087 76.3953 149.682 77.3865 151.864C78.3777 154.045 78.9733 154.045 79.568 155.631C80.1627 157.219 79.7662 156.821 79.3689 158.605C78.9724 160.39 79.7653 162.374 79.7653 162.374C79.7653 162.374 82.5416 163.365 82.7398 163.96C82.9381 164.554 85.7143 165.546 86.1117 166.339C86.5082 167.133 89.0862 168.124 89.0862 168.124C89.0862 168.124 91.2677 169.512 92.0598 169.909C92.8537 170.305 95.2343 170.703 95.2343 170.703C95.2343 170.703 96.8202 171.1 97.415 171.297C98.0097 171.496 99.7947 171.496 99.7947 171.496C99.7947 171.496 101.382 170.306 101.976 170.703C102.571 171.098 103.96 169.909 104.554 170.9C105.149 171.892 106.339 171.892 106.934 172.686C107.529 173.479 108.123 173.479 109.116 174.47C110.108 175.461 111.099 175.263 112.09 176.056C113.081 176.849 113.874 176.849 115.065 176.849C116.254 176.849 116.254 176.849 117.048 177.048C117.84 177.246 118.237 176.452 119.03 177.445C119.823 178.437 120.418 179.031 121.013 180.023C121.607 181.014 122.996 181.014 123.194 182.601C123.392 184.186 123.789 183.99 123.789 185.377C123.789 186.765 124.582 187.36 125.177 187.757C125.771 188.153 127.953 190.135 127.953 190.135L130.927 190.731L133.307 192.516L135.818 193.309L135.888 193.306Z" fill="#E8F0FF" fill-opacity="0.95"/>
<path d="M199.449 9.07481L211.348 7.58756C211.348 7.58756 215.511 7.58756 217.594 6.10031C219.676 4.61307 217.594 4.61307 223.841 3.42362C230.088 2.2333 228.304 1.63857 231.576 2.2333C234.847 2.8289 235.74 2.8289 239.31 3.42362C242.879 4.01834 243.772 3.1267 247.043 4.01834C250.315 4.91087 251.803 4.61307 254.48 4.61307H262.809C266.974 4.61307 270.841 2.2333 272.328 3.72054C273.815 5.20779 274.708 4.61307 279.765 5.20779C284.822 5.80251 286.905 4.61219 288.987 5.20779C291.069 5.80251 294.639 4.91087 298.803 5.20779C302.967 5.50471 305.05 4.91087 306.537 4.91087C308.025 4.91087 309.511 2.82802 311.594 4.61307C313.677 6.39812 316.353 4.01834 316.65 6.39812C316.948 8.77789 320.815 6.99284 316.948 8.77789C313.081 10.5629 313.676 10.2651 310.998 12.6449C308.322 15.0247 312.783 17.1066 307.131 19.1895C301.479 21.2715 300.587 17.9992 299.099 21.5693C297.612 25.1385 299.099 26.031 298.803 27.8161C298.505 29.6002 297.91 29.898 296.125 31.3853C294.341 32.8725 294.341 31.3853 290.176 32.2778C286.011 33.1703 283.037 34.0628 281.253 34.0628C279.467 34.0628 275.6 35.5501 274.41 36.1448C273.22 36.7404 276.493 37.6321 270.245 39.4171C263.999 41.2022 262.51 40.9052 260.726 43.2841C258.941 45.6648 259.536 45.9626 258.346 47.4498C257.156 48.9371 253.587 54.887 251.802 53.3997C250.018 51.9125 249.124 52.2094 247.637 50.7221C246.15 49.2349 245.257 47.1529 244.365 45.9626C243.472 44.7723 243.174 41.7978 242.877 40.0127C242.581 38.2277 239.902 34.0637 242.877 34.6585C245.852 35.2532 247.637 34.9563 248.53 34.3615C249.422 33.7659 250.315 31.684 250.315 31.684C250.315 31.684 250.018 28.4117 249.124 26.6266C248.232 24.8416 248.827 23.3543 247.34 21.5702C245.853 19.7851 245.853 20.0829 243.77 18.2979C241.688 16.5128 242.283 15.6203 239.01 15.3234C235.738 15.0264 234.846 14.133 233.655 14.4308C232.466 14.7278 228.599 12.348 232.763 12.0511C236.928 11.7533 240.795 12.348 240.795 12.348C240.795 12.348 246.149 9.96821 244.365 9.67129C242.581 9.37349 247.041 6.69592 242.877 7.58844C238.713 8.48097 233.954 9.67129 232.764 9.96821C231.574 10.2651 228.599 10.5629 225.624 11.4555C222.651 12.348 219.08 12.0511 217.296 14.133C215.511 16.215 217.296 16.5128 215.511 16.215C213.726 15.9181 216.998 14.133 212.834 16.215C208.669 18.2979 209.859 18.0001 207.777 17.4053C205.695 16.8106 204.207 15.9181 204.207 15.9181C204.207 15.9181 206.886 15.6203 203.018 15.3234C199.151 15.0264 199.151 15.0264 197.664 13.2405C196.176 11.4555 197.069 11.4555 197.961 10.8607C198.842 10.2651 199.441 9.07481 199.441 9.07481H199.449Z" fill="white"/>
<path d="M192.902 22.4609C191.415 23.9482 187.845 26.031 188.738 26.9236C189.63 27.8161 190.225 31.0884 192.01 30.1959C193.794 29.3033 191.712 26.3288 198.554 28.7086C205.396 31.0884 204.801 28.4117 206.288 31.9809C207.775 35.5501 208.965 38.2268 208.072 39.1202C207.181 40.0127 206.883 40.9053 203.907 41.7978C200.933 42.6903 199.743 43.8806 201.825 45.367C203.907 46.8543 207.775 48.3415 209.559 49.2349C211.344 50.1265 216.699 50.4252 214.021 47.4507C211.344 44.4762 214.616 43.5828 214.616 43.5828C214.616 43.5828 219.673 47.4507 217.889 42.9881C216.104 38.5264 214.914 38.5264 216.104 38.5264C217.294 38.5264 219.673 40.0136 219.673 40.0136L220.864 37.6339L219.673 33.7668L215.806 29.8998C215.806 29.8998 219.078 26.9253 214.616 26.3306C210.154 25.7359 210.451 25.7359 208.071 24.2477C205.692 22.7605 205.395 22.1658 200.932 23.0583C196.47 23.9508 194.983 24.5456 194.983 24.5456L192.912 22.4609H192.902Z" fill="white"/>
<path d="M126.566 26.0314C128.351 24.2464 133.111 20.0824 134.896 21.2719C136.68 22.4613 139.357 20.3793 141.44 22.1644C143.522 23.9494 145.901 26.0314 147.687 26.6261C149.472 27.2209 151.554 25.1389 153.339 26.0314C155.123 26.9239 161.37 21.5697 160.18 25.7345C158.99 29.8993 161.667 31.0888 158.395 31.3866C155.123 31.6844 151.554 34.0641 150.065 33.1716C148.578 32.2791 147.388 31.3866 145.008 32.5769C142.628 33.7663 143.819 33.7663 141.141 33.1716C138.464 32.5769 137.87 33.7663 137.275 32.8738C136.679 31.9822 134.895 32.2791 135.192 29.6015C135.489 26.9248 136.382 27.2217 134.596 27.2217C132.812 27.2217 131.325 27.5195 130.135 26.627C128.954 25.7345 126.575 26.0314 126.575 26.0314H126.566Z" fill="white"/>
</g>
<rect x="1.38455" y="93.3846" width="238.231" height="207.231" rx="9.61545" fill="#05162F" stroke="#EDEDED" stroke-width="1.23089"/>
<path d="M22.5174 122.179H34.0508M27.07 118.537L25.856 122.179L28.2841 129.16L30.7122 122.179L29.4981 118.537M28.6571 129.016L34.0952 122.49C34.1874 122.38 34.2335 122.324 34.2511 122.263C34.2666 122.208 34.2666 122.15 34.2511 122.096C34.2335 122.034 34.1874 121.979 34.0952 121.868L31.4648 118.712C31.4113 118.648 31.3845 118.616 31.3517 118.592C31.3226 118.572 31.2902 118.557 31.2559 118.548C31.2171 118.537 31.1753 118.537 31.0917 118.537H25.4764C25.3928 118.537 25.351 118.537 25.3123 118.548C25.2779 118.557 25.2455 118.572 25.2164 118.592C25.1836 118.616 25.1569 118.648 25.1033 118.712L22.4729 121.868C22.3808 121.979 22.3347 122.034 22.3171 122.096C22.3015 122.15 22.3015 122.208 22.3171 122.263C22.3347 122.324 22.3808 122.38 22.4729 122.49L27.911 129.016C28.0391 129.17 28.1032 129.246 28.1799 129.274C28.2472 129.299 28.321 129.299 28.3883 129.274C28.465 129.246 28.529 129.17 28.6571 129.016Z" stroke="#568AD9" stroke-width="1.21404" stroke-linecap="round" stroke-linejoin="round"/>
<path d="M41.4926 128H43.2326V121.976L45.6206 128H46.2566L48.6326 121.976V128H50.5646V119.42H48.0446L46.0646 124.76L44.0606 119.42H41.4926V128ZM53.0036 130.136H54.6836L58.0796 121.724H56.4116L55.0076 125.492L53.4836 121.724H51.6116L54.1076 127.364L53.0036 130.136ZM61.8364 128H65.3644C67.3444 128 68.3764 127.172 68.3764 125.6V125.552C68.3764 124.4 67.7764 123.764 66.6604 123.536C67.6204 123.26 68.0524 122.6 68.0524 121.7V121.652C68.0524 120.188 67.0804 119.42 65.2084 119.42H61.8364V128ZM63.7324 126.656V124.196H64.9684C66.0244 124.196 66.4564 124.604 66.4564 125.396V125.444C66.4564 126.224 66.0244 126.656 65.0644 126.656H63.7324ZM63.7324 122.948V120.752H64.8844C65.7964 120.752 66.2044 121.076 66.2044 121.796V121.844C66.2044 122.612 65.8324 122.948 64.8964 122.948H63.7324ZM71.6785 128.132C72.7105 128.132 73.3465 127.652 73.6705 127.016V128H75.3985V121.724H73.6705V125.408C73.6705 126.332 73.0945 126.788 72.3625 126.788C71.6185 126.788 71.2705 126.38 71.2705 125.528V121.724H69.5425V125.768C69.5425 127.412 70.4545 128.132 71.6785 128.132ZM79.2182 128.132C80.8742 128.132 81.8582 127.424 81.8582 126.068C81.8582 124.724 80.9942 124.328 79.4222 124.1C78.5102 123.968 78.2102 123.812 78.2102 123.416C78.2102 123.032 78.5342 122.768 79.0982 122.768C79.6982 122.768 79.9862 123.008 80.0822 123.524H81.6782C81.5222 122.084 80.4782 121.58 79.0862 121.58C77.8022 121.58 76.6022 122.228 76.6022 123.536C76.6022 124.76 77.2502 125.24 78.9182 125.492C79.8182 125.624 80.1902 125.804 80.1902 126.236C80.1902 126.668 79.8782 126.92 79.2062 126.92C78.4502 126.92 78.1742 126.596 78.1022 126.032H76.4822C76.5422 127.388 77.5262 128.132 79.2182 128.132ZM83.0096 128H84.7376V121.724H83.0096V128ZM83.8616 120.872C84.4256 120.872 84.8576 120.464 84.8576 119.924C84.8576 119.384 84.4256 118.976 83.8616 118.976C83.3096 118.976 82.8776 119.384 82.8776 119.924C82.8776 120.464 83.3096 120.872 83.8616 120.872ZM86.3366 128H88.0766V124.376C88.0766 123.452 88.6406 122.996 89.3846 122.996C90.1526 122.996 90.4886 123.404 90.4886 124.256V128H92.2286V124.004C92.2286 122.324 91.3526 121.58 90.1166 121.58C89.0726 121.58 88.3886 122.096 88.0766 122.72V121.724H86.3366V128ZM96.6114 128.132C98.3274 128.132 99.4074 127.376 99.6114 126.02H97.9674C97.8594 126.548 97.4634 126.896 96.6594 126.896C95.7114 126.896 95.1474 126.296 95.0994 125.252H99.6234V124.772C99.6234 122.528 98.1834 121.58 96.5634 121.58C94.7394 121.58 93.3354 122.864 93.3354 124.844V124.94C93.3354 126.944 94.7154 128.132 96.6114 128.132ZM95.1234 124.184C95.2554 123.296 95.7834 122.78 96.5634 122.78C97.3914 122.78 97.8714 123.236 97.9314 124.184H95.1234ZM103.101 128.132C104.757 128.132 105.741 127.424 105.741 126.068C105.741 124.724 104.877 124.328 103.305 124.1C102.393 123.968 102.093 123.812 102.093 123.416C102.093 123.032 102.417 122.768 102.981 122.768C103.581 122.768 103.869 123.008 103.965 123.524H105.561C105.405 122.084 104.361 121.58 102.969 121.58C101.685 121.58 100.485 122.228 100.485 123.536C100.485 124.76 101.133 125.24 102.801 125.492C103.701 125.624 104.073 125.804 104.073 126.236C104.073 126.668 103.761 126.92 103.089 126.92C102.333 126.92 102.057 126.596 101.985 126.032H100.365C100.425 127.388 101.409 128.132 103.101 128.132ZM109.124 128.132C110.78 128.132 111.764 127.424 111.764 126.068C111.764 124.724 110.9 124.328 109.328 124.1C108.416 123.968 108.116 123.812 108.116 123.416C108.116 123.032 108.44 122.768 109.004 122.768C109.604 122.768 109.892 123.008 109.988 123.524H111.584C111.428 122.084 110.384 121.58 108.992 121.58C107.708 121.58 106.508 122.228 106.508 123.536C106.508 124.76 107.156 125.24 108.824 125.492C109.724 125.624 110.096 125.804 110.096 126.236C110.096 126.668 109.784 126.92 109.112 126.92C108.356 126.92 108.08 126.596 108.008 126.032H106.388C106.448 127.388 107.432 128.132 109.124 128.132Z" fill="white"/>
<g clip-path="url(#clip1_697_10148)">
<path d="M29.4102 177.41C34.055 177.41 37.8202 173.645 37.8202 169C37.8202 164.355 34.055 160.59 29.4102 160.59C24.7655 160.59 21.0002 164.355 21.0002 169C21.0002 173.645 24.7655 177.41 29.4102 177.41Z" fill="#F0F0F0"/>
<path d="M21 169C21 172.616 23.2823 175.699 26.4848 176.887V161.113C23.2823 162.302 21 165.384 21 169Z" fill="#6DA544"/>
<path d="M37.82 169C37.82 165.384 35.5377 162.302 32.3352 161.113V176.887C35.5377 175.699 37.82 172.616 37.82 169Z" fill="#6DA544"/>
</g>
<path d="M47.6401 172H48.8501V166.52L52.0701 172H53.4501V164.85H52.2401V170.02L49.2301 164.85H47.6401V172ZM55.0212 172H56.2312V166.77H55.0212V172ZM55.6112 165.91C56.0112 165.91 56.3312 165.61 56.3312 165.22C56.3312 164.82 56.0112 164.52 55.6112 164.52C55.2112 164.52 54.8912 164.82 54.8912 165.22C54.8912 165.61 55.2112 165.91 55.6112 165.91ZM59.9361 173.92C61.5561 173.92 62.5861 173.15 62.5961 171.61V166.77H61.3861V167.57C61.0861 167.05 60.5661 166.66 59.7061 166.66C58.3561 166.66 57.3561 167.76 57.3561 169.23V169.3C57.3561 170.81 58.3661 171.79 59.6761 171.79C60.4461 171.79 61.0961 171.32 61.3861 170.82V171.59C61.3861 172.53 60.8661 173 59.9261 173C59.1361 173 58.7361 172.7 58.6361 172.18H57.4161C57.5561 173.18 58.2961 173.92 59.9361 173.92ZM59.9761 170.86C59.1961 170.86 58.5961 170.26 58.5961 169.29V169.21C58.5961 168.26 59.1161 167.61 60.0161 167.61C60.8861 167.61 61.4261 168.2 61.4261 169.19V169.26C61.4261 170.26 60.8161 170.86 59.9761 170.86ZM66.3342 172.1C67.6742 172.1 68.5642 171.5 68.7342 170.4H67.5642C67.4742 170.91 67.0942 171.2 66.3642 171.2C65.4642 171.2 64.9642 170.64 64.9242 169.65H68.7542V169.3C68.7542 167.43 67.5842 166.66 66.2842 166.66C64.7942 166.66 63.6842 167.74 63.6842 169.36V169.44C63.6842 171.09 64.7942 172.1 66.3342 172.1ZM64.9442 168.84C65.0642 168.03 65.5542 167.54 66.2842 167.54C67.0342 167.54 67.4942 167.94 67.5542 168.84H64.9442ZM69.835 172H71.045V169.28C71.045 168.17 71.685 167.83 72.745 167.82V166.69C71.865 166.7 71.375 167.09 71.045 167.75V166.77H69.835V172ZM73.8396 172H75.0496V166.77H73.8396V172ZM74.4296 165.91C74.8296 165.91 75.1496 165.61 75.1496 165.22C75.1496 164.82 74.8296 164.52 74.4296 164.52C74.0296 164.52 73.7096 164.82 73.7096 165.22C73.7096 165.61 74.0296 165.91 74.4296 165.91ZM77.8944 172.1C78.6944 172.1 79.1544 171.81 79.4944 171.36V172H80.6844V168.57C80.6844 167.14 79.7644 166.66 78.5944 166.66C77.4244 166.66 76.4544 167.17 76.3544 168.39H77.5244C77.5844 167.87 77.8944 167.57 78.5244 167.57C79.2344 167.57 79.4744 167.92 79.4744 168.62V168.89H78.8244C77.3244 168.89 76.1444 169.33 76.1444 170.55C76.1444 171.64 76.9344 172.1 77.8944 172.1ZM78.1844 171.23C77.5844 171.23 77.3444 170.94 77.3444 170.5C77.3444 169.86 77.9344 169.65 78.8544 169.65H79.4744V170.17C79.4744 170.84 78.9244 171.23 78.1844 171.23Z" fill="white"/>
<g clip-path="url(#clip2_697_10148)">
<path d="M21 204C21 205.029 21.1851 206.014 21.5231 206.925L29.41 207.291L37.2969 206.925C37.635 206.014 37.82 205.029 37.82 204C37.82 202.971 37.635 201.986 37.2969 201.075L29.41 200.709L21.5231 201.075C21.1851 201.986 21 202.971 21 204V204Z" fill="#FFDA44"/>
<path d="M29.4101 195.59C25.7941 195.59 22.7115 197.872 21.5232 201.075H37.297C36.1087 197.872 33.0261 195.59 29.4101 195.59Z" fill="#D80027"/>
<path d="M37.297 206.925H21.5232C22.7115 210.127 25.7941 212.41 29.4101 212.41C33.0261 212.41 36.1087 210.127 37.297 206.925Z" fill="#496E2D"/>
<path d="M29.4099 201.074L30.1359 203.309H32.4857L30.5849 204.69L31.3109 206.925L29.4099 205.544L27.509 206.925L28.2351 204.69L26.3342 203.309H28.6839L29.4099 201.074Z" fill="black"/>
</g>
<path d="M50.8501 207.1C52.8701 207.1 54.1101 205.9 54.1101 203.92V203.26H51.0001V204.26H52.8001C52.7601 205.25 52.2101 206.06 50.8701 206.06C49.3701 206.06 48.6601 205.01 48.6601 203.48V203.4C48.6601 201.83 49.4701 200.79 50.8701 200.79C51.8001 200.79 52.4401 201.2 52.6001 202.15H53.9301C53.7401 200.44 52.3801 199.74 50.8501 199.74C48.7601 199.74 47.2801 201.26 47.2801 203.39V203.47C47.2801 205.58 48.5601 207.1 50.8501 207.1ZM55.294 207H56.504V203.92C56.504 203.09 57.054 202.67 57.734 202.67C58.454 202.67 58.774 203.03 58.774 203.82V207H59.984V203.71C59.984 202.27 59.244 201.66 58.194 201.66C57.334 201.66 56.754 202.09 56.504 202.6V199.35H55.294V207ZM62.748 207.1C63.548 207.1 64.008 206.81 64.348 206.36V207H65.538V203.57C65.538 202.14 64.618 201.66 63.448 201.66C62.278 201.66 61.308 202.17 61.208 203.39H62.378C62.438 202.87 62.748 202.57 63.378 202.57C64.088 202.57 64.328 202.92 64.328 203.62V203.89H63.678C62.178 203.89 60.998 204.33 60.998 205.55C60.998 206.64 61.788 207.1 62.748 207.1ZM63.038 206.23C62.438 206.23 62.198 205.94 62.198 205.5C62.198 204.86 62.788 204.65 63.708 204.65H64.328V205.17C64.328 205.84 63.778 206.23 63.038 206.23ZM66.9248 207H68.1348V203.92C68.1348 203.09 68.6848 202.67 69.3648 202.67C70.0848 202.67 70.4048 203.03 70.4048 203.82V207H71.6148V203.71C71.6148 202.27 70.8748 201.66 69.8248 201.66C68.9648 201.66 68.3848 202.09 68.1348 202.6V201.77H66.9248V207ZM74.3788 207.1C75.1788 207.1 75.6388 206.81 75.9788 206.36V207H77.1688V203.57C77.1688 202.14 76.2488 201.66 75.0788 201.66C73.9088 201.66 72.9388 202.17 72.8388 203.39H74.0088C74.0688 202.87 74.3788 202.57 75.0088 202.57C75.7188 202.57 75.9588 202.92 75.9588 203.62V203.89H75.3088C73.8088 203.89 72.6288 204.33 72.6288 205.55C72.6288 206.64 73.4188 207.1 74.3788 207.1ZM74.6688 206.23C74.0688 206.23 73.8288 205.94 73.8288 205.5C73.8288 204.86 74.4188 204.65 75.3388 204.65H75.9588V205.17C75.9588 205.84 75.4088 206.23 74.6688 206.23Z" fill="white"/>
<g clip-path="url(#clip3_697_10148)">
<path d="M29.4098 247.41C34.0545 247.41 37.8198 243.645 37.8198 239C37.8198 234.355 34.0545 230.59 29.4098 230.59C24.765 230.59 20.9998 234.355 20.9998 239C20.9998 243.645 24.765 247.41 29.4098 247.41Z" fill="#F0F0F0"/>
<path d="M29.0444 239H37.8201C37.8201 238.241 37.7189 237.505 37.5304 236.806H29.0444V239Z" fill="#D80027"/>
<path d="M29.0444 234.612H36.5857C36.0709 233.772 35.4126 233.029 34.6452 232.418H29.0444V234.612Z" fill="#D80027"/>
<path d="M29.4101 247.409C31.3894 247.409 33.2086 246.725 34.6452 245.581H24.175C25.6116 246.725 27.4309 247.409 29.4101 247.409Z" fill="#D80027"/>
<path d="M22.2344 243.387H36.5857C36.999 242.713 37.3195 241.976 37.5304 241.193H21.2898C21.5006 241.976 21.8211 242.713 22.2344 243.387Z" fill="#D80027"/>
<path d="M24.8954 231.903H25.6618L24.9489 232.421L25.2212 233.259L24.5084 232.741L23.7956 233.259L24.0308 232.535C23.4031 233.058 22.853 233.671 22.3996 234.353H22.6452L22.1914 234.683C22.1207 234.801 22.0529 234.92 21.9879 235.042L22.2046 235.709L21.8003 235.415C21.6999 235.628 21.6079 235.846 21.5253 236.068L21.764 236.803H22.6452L21.9323 237.321L22.2046 238.159L21.4918 237.641L21.0648 237.951C21.022 238.295 20.9998 238.645 20.9998 239H29.4098C29.4098 234.355 29.4098 233.808 29.4098 230.59C27.7484 230.59 26.1997 231.072 24.8954 231.903ZM25.2212 238.159L24.5084 237.641L23.7956 238.159L24.0679 237.321L23.355 236.803H24.2361L24.5084 235.965L24.7807 236.803H25.6618L24.9489 237.321L25.2212 238.159ZM24.9489 234.871L25.2212 235.709L24.5084 235.191L23.7956 235.709L24.0679 234.871L23.355 234.353H24.2361L24.5084 233.515L24.7807 234.353H25.6618L24.9489 234.871ZM28.2379 238.159L27.525 237.641L26.8122 238.159L27.0845 237.321L26.3716 236.803H27.2528L27.525 235.965L27.7973 236.803H28.6784L27.9656 237.321L28.2379 238.159ZM27.9656 234.871L28.2379 235.709L27.525 235.191L26.8122 235.709L27.0845 234.871L26.3716 234.353H27.2528L27.525 233.515L27.7973 234.353H28.6784L27.9656 234.871ZM27.9656 232.421L28.2379 233.259L27.525 232.741L26.8122 233.259L27.0845 232.421L26.3716 231.903H27.2528L27.525 231.065L27.7973 231.903H28.6784L27.9656 232.421Z" fill="#0052B4"/>
</g>
<path d="M50.3901 242.1C52.2801 242.1 53.2901 241.07 53.2901 239.2V234.85H51.9501V239.09C51.9501 240.57 51.4301 241.03 50.4001 241.03C49.3401 241.03 48.9201 240.49 48.9201 239.18V234.85H47.5801V239.28C47.5801 241.12 48.6001 242.1 50.3901 242.1ZM54.7178 242H55.9278V238.92C55.9278 238.09 56.4778 237.67 57.1578 237.67C57.8778 237.67 58.1978 238.03 58.1978 238.82V242H59.4078V238.71C59.4078 237.27 58.6678 236.66 57.6178 236.66C56.7578 236.66 56.1778 237.09 55.9278 237.6V236.77H54.7178V242ZM60.8318 242H62.0418V236.77H60.8318V242ZM61.4218 235.91C61.8218 235.91 62.1418 235.61 62.1418 235.22C62.1418 234.82 61.8218 234.52 61.4218 234.52C61.0218 234.52 60.7018 234.82 60.7018 235.22C60.7018 235.61 61.0218 235.91 61.4218 235.91ZM65.2966 242.09C65.6666 242.09 65.9266 242.03 66.1166 241.96V241C65.9466 241.07 65.7666 241.1 65.5266 241.1C65.1466 241.1 64.9266 240.89 64.9266 240.43V237.68H66.0766V236.77H64.9266V235.62H63.7166V236.77H63.0166V237.68H63.7166V240.54C63.7166 241.53 64.2566 242.09 65.2966 242.09ZM69.508 242.1C70.848 242.1 71.738 241.5 71.908 240.4H70.738C70.648 240.91 70.268 241.2 69.538 241.2C68.638 241.2 68.138 240.64 68.098 239.65H71.928V239.3C71.928 237.43 70.758 236.66 69.458 236.66C67.968 236.66 66.858 237.74 66.858 239.36V239.44C66.858 241.09 67.968 242.1 69.508 242.1ZM68.118 238.84C68.238 238.03 68.728 237.54 69.458 237.54C70.208 237.54 70.668 237.94 70.728 238.84H68.118ZM74.9688 242.1C75.7388 242.1 76.4088 241.64 76.6888 241.12V242H77.8988V234.35H76.6888V237.57C76.3988 237.05 75.8688 236.66 75.0188 236.66C73.6588 236.66 72.6688 237.72 72.6688 239.39V239.47C72.6688 241.17 73.6588 242.1 74.9688 242.1ZM75.2688 241.14C74.4888 241.14 73.9088 240.59 73.9088 239.44V239.36C73.9088 238.23 74.4288 237.61 75.3188 237.61C76.1988 237.61 76.7288 238.18 76.7288 239.33V239.41C76.7288 240.58 76.1088 241.14 75.2688 241.14ZM84.2498 242.1C85.8298 242.1 86.8798 241.13 86.8798 239.89C86.8798 238.46 86.0098 237.98 84.3298 237.75C83.0898 237.57 82.8498 237.28 82.8498 236.7C82.8498 236.15 83.2698 235.76 84.0798 235.76C84.8998 235.76 85.3298 236.08 85.4598 236.83H86.6798C86.5398 235.46 85.6198 234.76 84.0798 234.76C82.5898 234.76 81.5898 235.64 81.5898 236.81C81.5898 238.15 82.3998 238.67 84.1098 238.9C85.2698 239.09 85.5998 239.34 85.5998 240C85.5998 240.66 85.0398 241.1 84.2498 241.1C83.0398 241.1 82.7498 240.5 82.6598 239.78H81.3798C81.4798 241.13 82.2998 242.1 84.2498 242.1ZM89.8474 242.09C90.2174 242.09 90.4774 242.03 90.6674 241.96V241C90.4974 241.07 90.3174 241.1 90.0774 241.1C89.6974 241.1 89.4774 240.89 89.4774 240.43V237.68H90.6274V236.77H89.4774V235.62H88.2674V236.77H87.5674V237.68H88.2674V240.54C88.2674 241.53 88.8074 242.09 89.8474 242.09ZM93.1776 242.1C93.9776 242.1 94.4376 241.81 94.7776 241.36V242H95.9676V238.57C95.9676 237.14 95.0476 236.66 93.8776 236.66C92.7076 236.66 91.7376 237.17 91.6376 238.39H92.8076C92.8676 237.87 93.1776 237.57 93.8076 237.57C94.5176 237.57 94.7576 237.92 94.7576 238.62V238.89H94.1076C92.6076 238.89 91.4276 239.33 91.4276 240.55C91.4276 241.64 92.2176 242.1 93.1776 242.1ZM93.4676 241.23C92.8676 241.23 92.6276 240.94 92.6276 240.5C92.6276 239.86 93.2176 239.65 94.1376 239.65H94.7576V240.17C94.7576 240.84 94.2076 241.23 93.4676 241.23ZM99.1345 242.09C99.5045 242.09 99.7645 242.03 99.9545 241.96V241C99.7845 241.07 99.6045 241.1 99.3645 241.1C98.9845 241.1 98.7645 240.89 98.7645 240.43V237.68H99.9145V236.77H98.7645V235.62H97.5545V236.77H96.8545V237.68H97.5545V240.54C97.5545 241.53 98.0945 242.09 99.1345 242.09ZM103.346 242.1C104.686 242.1 105.576 241.5 105.746 240.4H104.576C104.486 240.91 104.106 241.2 103.376 241.2C102.476 241.2 101.976 240.64 101.936 239.65H105.766V239.3C105.766 237.43 104.596 236.66 103.296 236.66C101.806 236.66 100.696 237.74 100.696 239.36V239.44C100.696 241.09 101.806 242.1 103.346 242.1ZM101.956 238.84C102.076 238.03 102.566 237.54 103.296 237.54C104.046 237.54 104.506 237.94 104.566 238.84H101.956ZM108.686 242.1C110.026 242.1 110.776 241.49 110.776 240.43C110.776 239.32 110.046 239.02 108.816 238.83C107.986 238.69 107.736 238.54 107.736 238.16C107.736 237.79 108.046 237.54 108.566 237.54C109.126 237.54 109.396 237.76 109.496 238.24H110.616C110.486 237.06 109.636 236.66 108.566 236.66C107.586 236.66 106.606 237.18 106.606 238.23C106.606 239.21 107.116 239.6 108.496 239.82C109.266 239.95 109.616 240.11 109.616 240.54C109.616 240.98 109.326 241.21 108.676 241.21C107.966 241.21 107.696 240.9 107.636 240.37H106.496C106.546 241.48 107.336 242.1 108.686 242.1ZM116.56 241.16C115.64 241.16 115.11 240.49 115.11 239.42V239.34C115.11 238.26 115.66 237.61 116.56 237.61C117.46 237.61 118 238.27 118 239.35V239.42C118 240.49 117.46 241.16 116.56 241.16ZM116.55 242.1C118.09 242.1 119.24 241.04 119.24 239.41V239.33C119.24 237.73 118.09 236.66 116.56 236.66C115.02 236.66 113.87 237.74 113.87 239.36V239.44C113.87 241.03 115.01 242.1 116.55 242.1ZM120.543 242H121.753V237.68H122.943V236.77H121.753V236.02C121.753 235.57 121.953 235.25 122.443 235.25C122.663 235.25 122.853 235.29 122.993 235.34V234.4C122.773 234.33 122.593 234.3 122.303 234.3C121.183 234.3 120.543 234.92 120.543 236.07V236.77H119.833V237.68H120.543V242ZM125.889 242H127.139L127.699 240.23H130.429L130.999 242H132.379L130.019 234.85H128.279L125.889 242ZM129.069 235.94L130.119 239.26H128.009L129.069 235.94ZM133.37 242H134.58V238.87C134.58 238.07 135.13 237.67 135.73 237.67C136.32 237.67 136.66 238 136.66 238.77V242H137.87V238.87C137.87 238.07 138.42 237.67 139.02 237.67C139.62 237.67 139.95 238 139.95 238.77V242H141.16V238.69C141.16 237.25 140.38 236.66 139.42 236.66C138.77 236.66 138.05 236.95 137.65 237.6C137.39 236.95 136.85 236.66 136.17 236.66C135.4 236.66 134.83 237.08 134.58 237.57V236.77H133.37V242ZM144.85 242.1C146.19 242.1 147.08 241.5 147.25 240.4H146.08C145.99 240.91 145.61 241.2 144.88 241.2C143.98 241.2 143.48 240.64 143.44 239.65H147.27V239.3C147.27 237.43 146.1 236.66 144.8 236.66C143.31 236.66 142.2 237.74 142.2 239.36V239.44C142.2 241.09 143.31 242.1 144.85 242.1ZM143.46 238.84C143.58 238.03 144.07 237.54 144.8 237.54C145.55 237.54 146.01 237.94 146.07 238.84H143.46ZM148.351 242H149.561V239.28C149.561 238.17 150.201 237.83 151.261 237.82V236.69C150.381 236.7 149.891 237.09 149.561 237.75V236.77H148.351V242ZM152.355 242H153.565V236.77H152.355V242ZM152.945 235.91C153.345 235.91 153.665 235.61 153.665 235.22C153.665 234.82 153.345 234.52 152.945 234.52C152.545 234.52 152.225 234.82 152.225 235.22C152.225 235.61 152.545 235.91 152.945 235.91ZM157.33 242.1C158.75 242.1 159.66 241.25 159.75 240.05H158.64C158.57 240.79 158.02 241.17 157.38 241.17C156.49 241.17 155.93 240.57 155.93 239.43V239.35C155.93 238.27 156.52 237.63 157.35 237.63C157.99 237.63 158.45 237.92 158.55 238.62H159.72C159.58 237.18 158.49 236.66 157.33 236.66C155.87 236.66 154.69 237.71 154.69 239.37V239.45C154.69 241.12 155.83 242.1 157.33 242.1ZM162.162 242.1C162.962 242.1 163.422 241.81 163.762 241.36V242H164.952V238.57C164.952 237.14 164.032 236.66 162.862 236.66C161.692 236.66 160.722 237.17 160.622 238.39H161.792C161.852 237.87 162.162 237.57 162.792 237.57C163.502 237.57 163.742 237.92 163.742 238.62V238.89H163.092C161.592 238.89 160.412 239.33 160.412 240.55C160.412 241.64 161.202 242.1 162.162 242.1ZM162.452 241.23C161.852 241.23 161.612 240.94 161.612 240.5C161.612 239.86 162.202 239.65 163.122 239.65H163.742V240.17C163.742 240.84 163.192 241.23 162.452 241.23Z" fill="white"/>
<g clip-path="url(#clip4_697_10148)">
<path d="M29.4102 282.41C34.055 282.41 37.8202 278.645 37.8202 274C37.8202 269.355 34.055 265.59 29.4102 265.59C24.7655 265.59 21.0002 269.355 21.0002 274C21.0002 278.645 24.7655 282.41 29.4102 282.41Z" fill="#F0F0F0"/>
<path d="M22.7386 268.88C22.078 269.739 21.5798 270.73 21.2898 271.806H25.6649L22.7386 268.88Z" fill="#0052B4"/>
<path d="M37.5303 271.806C37.2403 270.73 36.7421 269.739 36.0815 268.88L33.1553 271.806H37.5303Z" fill="#0052B4"/>
<path d="M21.2898 276.194C21.5799 277.27 22.078 278.261 22.7386 279.121L25.6648 276.194H21.2898Z" fill="#0052B4"/>
<path d="M34.5303 267.329C33.6708 266.668 32.6802 266.17 31.604 265.88V270.255L34.5303 267.329Z" fill="#0052B4"/>
<path d="M24.2898 280.671C25.1493 281.332 26.1399 281.83 27.2161 282.12V277.745L24.2898 280.671Z" fill="#0052B4"/>
<path d="M27.216 265.88C26.1399 266.17 25.1493 266.668 24.2898 267.329L27.216 270.255V265.88Z" fill="#0052B4"/>
<path d="M31.604 282.12C32.6802 281.83 33.6708 281.332 34.5303 280.671L31.604 277.745V282.12Z" fill="#0052B4"/>
<path d="M33.1553 276.194L36.0815 279.121C36.7421 278.261 37.2403 277.27 37.5303 276.194H33.1553Z" fill="#0052B4"/>
<path d="M37.7491 272.903H30.5073H30.5072V265.661C30.1481 265.614 29.782 265.59 29.4102 265.59C29.0384 265.59 28.6724 265.614 28.3133 265.661V272.903V272.903H21.0714C21.0247 273.262 21.0002 273.628 21.0002 274C21.0002 274.372 21.0247 274.738 21.0714 275.097H28.3132H28.3133V282.339C28.6724 282.385 29.0384 282.41 29.4102 282.41C29.782 282.41 30.1481 282.385 30.5072 282.339V275.097V275.097H37.7491C37.7958 274.738 37.8202 274.372 37.8202 274C37.8202 273.628 37.7958 273.262 37.7491 272.903Z" fill="#D80027"/>
<path d="M31.604 276.193L35.3568 279.946C35.5294 279.774 35.6941 279.593 35.8512 279.406L32.6382 276.193H31.604V276.193Z" fill="#D80027"/>
<path d="M27.216 276.193H27.2159L23.4631 279.946C23.6357 280.119 23.8161 280.283 24.003 280.441L27.216 277.227V276.193Z" fill="#D80027"/>
<path d="M27.2162 271.806V271.806L23.4633 268.053C23.2907 268.225 23.1261 268.406 22.969 268.593L26.182 271.806H27.2162V271.806Z" fill="#D80027"/>
<path d="M31.604 271.806L35.3569 268.053C35.1843 267.88 35.0039 267.716 34.817 267.559L31.604 270.772V271.806Z" fill="#D80027"/>
</g>
<path d="M50.3901 277.1C52.2801 277.1 53.2901 276.07 53.2901 274.2V269.85H51.9501V274.09C51.9501 275.57 51.4301 276.03 50.4001 276.03C49.3401 276.03 48.9201 275.49 48.9201 274.18V269.85H47.5801V274.28C47.5801 276.12 48.6001 277.1 50.3901 277.1ZM54.7178 277H55.9278V273.92C55.9278 273.09 56.4778 272.67 57.1578 272.67C57.8778 272.67 58.1978 273.03 58.1978 273.82V277H59.4078V273.71C59.4078 272.27 58.6678 271.66 57.6178 271.66C56.7578 271.66 56.1778 272.09 55.9278 272.6V271.77H54.7178V277ZM60.8318 277H62.0418V271.77H60.8318V277ZM61.4218 270.91C61.8218 270.91 62.1418 270.61 62.1418 270.22C62.1418 269.82 61.8218 269.52 61.4218 269.52C61.0218 269.52 60.7018 269.82 60.7018 270.22C60.7018 270.61 61.0218 270.91 61.4218 270.91ZM65.2966 277.09C65.6666 277.09 65.9266 277.03 66.1166 276.96V276C65.9466 276.07 65.7666 276.1 65.5266 276.1C65.1466 276.1 64.9266 275.89 64.9266 275.43V272.68H66.0766V271.77H64.9266V270.62H63.7166V271.77H63.0166V272.68H63.7166V275.54C63.7166 276.53 64.2566 277.09 65.2966 277.09ZM69.508 277.1C70.848 277.1 71.738 276.5 71.908 275.4H70.738C70.648 275.91 70.268 276.2 69.538 276.2C68.638 276.2 68.138 275.64 68.098 274.65H71.928V274.3C71.928 272.43 70.758 271.66 69.458 271.66C67.968 271.66 66.858 272.74 66.858 274.36V274.44C66.858 276.09 67.968 277.1 69.508 277.1ZM68.118 273.84C68.238 273.03 68.728 272.54 69.458 272.54C70.208 272.54 70.668 272.94 70.728 273.84H68.118ZM74.9688 277.1C75.7388 277.1 76.4088 276.64 76.6888 276.12V277H77.8988V269.35H76.6888V272.57C76.3988 272.05 75.8688 271.66 75.0188 271.66C73.6588 271.66 72.6688 272.72 72.6688 274.39V274.47C72.6688 276.17 73.6588 277.1 74.9688 277.1ZM75.2688 276.14C74.4888 276.14 73.9088 275.59 73.9088 274.44V274.36C73.9088 273.23 74.4288 272.61 75.3188 272.61C76.1988 272.61 76.7288 273.18 76.7288 274.33V274.41C76.7288 275.58 76.1088 276.14 75.2688 276.14ZM81.8198 277H83.1498V273.66L85.8998 277H87.4698L84.3598 273.26L87.3198 269.84H85.8898L83.1498 273.09V269.85H81.8198V277ZM88.2927 277H89.5027V271.77H88.2927V277ZM88.8827 270.91C89.2827 270.91 89.6027 270.61 89.6027 270.22C89.6027 269.82 89.2827 269.52 88.8827 269.52C88.4827 269.52 88.1627 269.82 88.1627 270.22C88.1627 270.61 88.4827 270.91 88.8827 270.91ZM90.9776 277H92.1876V273.92C92.1876 273.09 92.7376 272.67 93.4176 272.67C94.1376 272.67 94.4576 273.03 94.4576 273.82V277H95.6676V273.71C95.6676 272.27 94.9276 271.66 93.8776 271.66C93.0176 271.66 92.4376 272.09 92.1876 272.6V271.77H90.9776V277ZM99.2916 278.92C100.912 278.92 101.942 278.15 101.952 276.61V271.77H100.742V272.57C100.442 272.05 99.9216 271.66 99.0616 271.66C97.7116 271.66 96.7116 272.76 96.7116 274.23V274.3C96.7116 275.81 97.7216 276.79 99.0316 276.79C99.8016 276.79 100.452 276.32 100.742 275.82V276.59C100.742 277.53 100.222 278 99.2816 278C98.4916 278 98.0916 277.7 97.9916 277.18H96.7716C96.9116 278.18 97.6516 278.92 99.2916 278.92ZM99.3316 275.86C98.5516 275.86 97.9516 275.26 97.9516 274.29V274.21C97.9516 273.26 98.4716 272.61 99.3716 272.61C100.242 272.61 100.782 273.2 100.782 274.19V274.26C100.782 275.26 100.172 275.86 99.3316 275.86ZM105.35 277.1C106.12 277.1 106.79 276.64 107.07 276.12V277H108.28V269.35H107.07V272.57C106.78 272.05 106.25 271.66 105.4 271.66C104.04 271.66 103.05 272.72 103.05 274.39V274.47C103.05 276.17 104.04 277.1 105.35 277.1ZM105.65 276.14C104.87 276.14 104.29 275.59 104.29 274.44V274.36C104.29 273.23 104.81 272.61 105.7 272.61C106.58 272.61 107.11 273.18 107.11 274.33V274.41C107.11 275.58 106.49 276.14 105.65 276.14ZM112.058 276.16C111.138 276.16 110.608 275.49 110.608 274.42V274.34C110.608 273.26 111.158 272.61 112.058 272.61C112.958 272.61 113.498 273.27 113.498 274.35V274.42C113.498 275.49 112.958 276.16 112.058 276.16ZM112.048 277.1C113.588 277.1 114.738 276.04 114.738 274.41V274.33C114.738 272.73 113.588 271.66 112.058 271.66C110.518 271.66 109.368 272.74 109.368 274.36V274.44C109.368 276.03 110.508 277.1 112.048 277.1ZM115.831 277H117.041V273.87C117.041 273.07 117.591 272.67 118.191 272.67C118.781 272.67 119.121 273 119.121 273.77V277H120.331V273.87C120.331 273.07 120.881 272.67 121.481 272.67C122.081 272.67 122.411 273 122.411 273.77V277H123.621V273.69C123.621 272.25 122.841 271.66 121.881 271.66C121.231 271.66 120.511 271.95 120.111 272.6C119.851 271.95 119.311 271.66 118.631 271.66C117.861 271.66 117.291 272.08 117.041 272.57V271.77H115.831V277Z" fill="white"/>
<line opacity="0.5" x1="2" y1="139.85" x2="238" y2="139.85" stroke="#D0D5DD" stroke-width="0.3"/>
<g filter="url(#filter0_d_697_10148)">
<rect x="200" y="161" width="16" height="16" rx="3.33333" fill="#EBF5FF"/>
<rect x="200.333" y="161.333" width="15.3333" height="15.3333" rx="3" stroke="#8EC7FF" stroke-width="0.666667"/>
</g>
<path d="M211.111 166.666L206.834 170.944L204.889 168.999" stroke="#4176C6" stroke-width="1.33333" stroke-linecap="round" stroke-linejoin="round"/>
<g filter="url(#filter1_d_697_10148)">
<rect x="200" y="196" width="16" height="16" rx="3.33333" fill="#EBF5FF"/>
<rect x="200.333" y="196.333" width="15.3333" height="15.3333" rx="3" stroke="#8EC7FF" stroke-width="0.666667"/>
</g>
<path d="M211.111 201.666L206.834 205.944L204.889 203.999" stroke="#4176C6" stroke-width="1.33333" stroke-linecap="round" stroke-linejoin="round"/>
<g filter="url(#filter2_d_697_10148)">
<rect x="200" y="231" width="16" height="16" rx="3.33333" fill="#EBF5FF"/>
<rect x="200.333" y="231.333" width="15.3333" height="15.3333" rx="3" stroke="#8EC7FF" stroke-width="0.666667"/>
</g>
<path d="M211.111 236.666L206.834 240.944L204.889 238.999" stroke="#4176C6" stroke-width="1.33333" stroke-linecap="round" stroke-linejoin="round"/>
<g filter="url(#filter3_d_697_10148)">
<rect x="200" y="266" width="16" height="16" rx="3.33333" fill="#EBF5FF"/>
<rect x="200.333" y="266.333" width="15.3333" height="15.3333" rx="3" stroke="#8EC7FF" stroke-width="0.666667"/>
</g>
<path d="M211.111 271.667L206.834 275.945L204.889 274" stroke="#4176C6" stroke-width="1.33333" stroke-linecap="round" stroke-linejoin="round"/>
<g filter="url(#filter4_d_697_10148)">
<rect x="438" y="5" width="96" height="32" rx="9" fill="white" shape-rendering="crispEdges"/>
<circle cx="453" cy="21" r="7" fill="#12B76A"/>
<path d="M455.667 19L452 22.6667L450.333 21" stroke="#F9FAFB" stroke-width="0.666667" stroke-linecap="round" stroke-linejoin="round"/>
<path d="M468.19 23.04H469.2V21.06H471.03V20.12H469.2V18.14H468.19V20.12H466.37V21.06H468.19V23.04ZM472.211 24H473.541V20.66L476.291 24H477.861L474.751 20.26L477.711 16.84H476.281L473.541 20.09V16.85H472.211V24ZM478.802 24H483.442V22.95H480.132V20.86H482.652V19.86H480.132V17.9H483.272V16.85H478.802V24ZM487.072 24.1C488.652 24.1 489.702 23.13 489.702 21.89C489.702 20.46 488.832 19.98 487.152 19.75C485.912 19.57 485.672 19.28 485.672 18.7C485.672 18.15 486.092 17.76 486.902 17.76C487.722 17.76 488.152 18.08 488.282 18.83H489.502C489.362 17.46 488.442 16.76 486.902 16.76C485.412 16.76 484.412 17.64 484.412 18.81C484.412 20.15 485.222 20.67 486.932 20.9C488.092 21.09 488.422 21.34 488.422 22C488.422 22.66 487.862 23.1 487.072 23.1C485.862 23.1 485.572 22.5 485.482 21.78H484.202C484.302 23.13 485.122 24.1 487.072 24.1Z" fill="#667085"/>
<path d="M492.703 24H497.873V22.97H494.833L496.423 21.42C497.273 20.6 497.823 19.79 497.823 18.86C497.823 17.6 496.943 16.75 495.463 16.75C493.953 16.75 493.013 17.65 492.923 19.21H494.143C494.263 18.2 494.713 17.79 495.423 17.79C496.113 17.79 496.493 18.21 496.493 18.88C496.493 19.56 496.083 20.19 495.403 20.91L492.703 23.76V24ZM501.374 24.1C503.014 24.1 504.054 23.28 504.054 21.96C504.054 21.01 503.504 20.42 502.674 20.23C503.364 19.97 503.834 19.48 503.834 18.67C503.834 17.61 502.964 16.75 501.474 16.75C499.944 16.75 499.014 17.7 498.944 18.94H500.124C500.204 18.22 500.694 17.76 501.454 17.76C502.194 17.76 502.564 18.19 502.564 18.77C502.564 19.44 502.194 19.82 501.374 19.82H500.864V20.77H501.414C502.284 20.77 502.704 21.16 502.704 21.94C502.704 22.65 502.274 23.1 501.344 23.1C500.384 23.1 499.964 22.54 499.894 21.79H498.684C498.744 23.16 499.674 24.1 501.374 24.1ZM508.366 24H509.656V22.55H510.616V21.56H509.656V16.85H507.986L504.826 22.08V22.55H508.366V24ZM506.246 21.56L508.386 17.86V21.56H506.246ZM512.264 24.07C512.714 24.07 513.064 23.73 513.064 23.29C513.064 22.85 512.714 22.5 512.264 22.5C511.824 22.5 511.474 22.85 511.474 23.29C511.474 23.73 511.824 24.07 512.264 24.07ZM513.816 24H518.986V22.97H515.946L517.536 21.42C518.386 20.6 518.936 19.79 518.936 18.86C518.936 17.6 518.056 16.75 516.576 16.75C515.066 16.75 514.126 17.65 514.036 19.21H515.256C515.376 18.2 515.826 17.79 516.536 17.79C517.226 17.79 517.606 18.21 517.606 18.88C517.606 19.56 517.196 20.19 516.516 20.91L513.816 23.76V24ZM522.467 24.09C524.307 24.09 525.347 22.78 525.347 20.43V20.06C525.347 18 524.427 16.74 522.557 16.74C520.927 16.74 519.907 17.73 519.907 19.19C519.907 20.6 520.897 21.51 522.277 21.51C523.127 21.51 523.707 21.15 524.037 20.61C524.017 22.24 523.467 23.06 522.447 23.06C521.677 23.06 521.347 22.7 521.217 22.14H519.967C520.137 23.37 521.007 24.09 522.467 24.09ZM522.557 20.58C521.737 20.58 521.217 20.01 521.217 19.15C521.217 18.3 521.747 17.73 522.547 17.73C523.367 17.73 523.937 18.29 523.937 19.25C523.937 20.04 523.367 20.58 522.557 20.58Z" fill="#344054"/>
<rect x="438.25" y="5.25" width="95.5" height="31.5" rx="8.75" stroke="#F4F4F4" stroke-width="0.5" shape-rendering="crispEdges"/>
</g>
<g filter="url(#filter5_d_697_10148)">
<rect x="572" y="252" width="102" height="32" rx="9" fill="white" shape-rendering="crispEdges"/>
<circle cx="587" cy="268" r="7" fill="#12B76A"/>
<path d="M589.667 266L586 269.667L584.333 268" stroke="#F9FAFB" stroke-width="0.666667" stroke-linecap="round" stroke-linejoin="round"/>
<path d="M602.19 270.04H603.2V268.06H605.03V267.12H603.2V265.14H602.19V267.12H600.37V268.06H602.19V270.04ZM608.961 271.1C610.851 271.1 611.861 270.07 611.861 268.2V263.85H610.521V268.09C610.521 269.57 610.001 270.03 608.971 270.03C607.911 270.03 607.491 269.49 607.491 268.18V263.85H606.151V268.28C606.151 270.12 607.171 271.1 608.961 271.1ZM615.867 271.1C617.447 271.1 618.497 270.13 618.497 268.89C618.497 267.46 617.627 266.98 615.947 266.75C614.707 266.57 614.467 266.28 614.467 265.7C614.467 265.15 614.887 264.76 615.697 264.76C616.517 264.76 616.947 265.08 617.077 265.83H618.297C618.157 264.46 617.237 263.76 615.697 263.76C614.207 263.76 613.207 264.64 613.207 265.81C613.207 267.15 614.017 267.67 615.727 267.9C616.887 268.09 617.217 268.34 617.217 269C617.217 269.66 616.657 270.1 615.867 270.1C614.657 270.1 614.367 269.5 614.277 268.78H612.997C613.097 270.13 613.917 271.1 615.867 271.1ZM621.115 269.95V264.9H621.885C623.565 264.9 624.265 265.83 624.265 267.37V267.45C624.265 269.03 623.495 269.95 621.895 269.95H621.115ZM619.785 271H621.935C624.445 271 625.655 269.52 625.655 267.44V267.35C625.655 265.27 624.445 263.85 621.955 263.85H619.785V271Z" fill="#667085"/>
<path d="M631.506 271.09C633.346 271.09 634.386 269.78 634.386 267.43V267.06C634.386 265 633.466 263.74 631.596 263.74C629.966 263.74 628.946 264.73 628.946 266.19C628.946 267.6 629.936 268.51 631.316 268.51C632.166 268.51 632.746 268.15 633.076 267.61C633.056 269.24 632.506 270.06 631.486 270.06C630.716 270.06 630.386 269.7 630.256 269.14H629.006C629.176 270.37 630.046 271.09 631.506 271.09ZM631.596 267.58C630.776 267.58 630.256 267.01 630.256 266.15C630.256 265.3 630.786 264.73 631.586 264.73C632.406 264.73 632.976 265.29 632.976 266.25C632.976 267.04 632.406 267.58 631.596 267.58ZM635.385 272.23L636.695 269.99L635.545 269.53L634.635 271.9L635.385 272.23ZM640.061 271.1C641.701 271.1 642.741 270.28 642.741 268.96C642.741 268.01 642.191 267.42 641.361 267.23C642.051 266.97 642.521 266.48 642.521 265.67C642.521 264.61 641.651 263.75 640.161 263.75C638.631 263.75 637.701 264.7 637.631 265.94H638.811C638.891 265.22 639.381 264.76 640.141 264.76C640.881 264.76 641.251 265.19 641.251 265.77C641.251 266.44 640.881 266.82 640.061 266.82H639.551V267.77H640.101C640.971 267.77 641.391 268.16 641.391 268.94C641.391 269.65 640.961 270.1 640.031 270.1C639.071 270.1 638.651 269.54 638.581 268.79H637.371C637.431 270.16 638.361 271.1 640.061 271.1ZM647.053 271H648.343V269.55H649.303V268.56H648.343V263.85H646.673L643.513 269.08V269.55H647.053V271ZM644.933 268.56L647.073 264.86V268.56H644.933ZM649.759 271H654.929V269.97H651.889L653.479 268.42C654.329 267.6 654.879 266.79 654.879 265.86C654.879 264.6 653.999 263.75 652.519 263.75C651.009 263.75 650.069 264.65 649.979 266.21H651.199C651.319 265.2 651.769 264.79 652.479 264.79C653.169 264.79 653.549 265.21 653.549 265.88C653.549 266.56 653.139 267.19 652.459 267.91L649.759 270.76V271ZM656.782 271.07C657.232 271.07 657.582 270.73 657.582 270.29C657.582 269.85 657.232 269.5 656.782 269.5C656.342 269.5 655.992 269.85 655.992 270.29C655.992 270.73 656.342 271.07 656.782 271.07ZM659.31 271H660.65V263.85H659.46L657.8 265.03V266.2L659.31 265.17V271ZM663.451 271H664.791V263.85H663.601L661.941 265.03V266.2L663.451 265.17V271Z" fill="#344054"/>
<rect x="572.25" y="252.25" width="101.5" height="31.5" rx="8.75" stroke="#F4F4F4" stroke-width="0.5" shape-rendering="crispEdges"/>
</g>
<path d="M437.5 20C309.5 -21.5 222 8.4998 108.5 86.5" stroke="#001B3A" stroke-dasharray="2 2"/>
<circle cx="107" cy="87" r="3.5" fill="#8EC7FF" stroke="#568AD9"/>
<path d="M111.5 86.9995C184.5 73.6662 353.8 80.7995 439 208" stroke="#001B3A" stroke-dasharray="2 2"/>
<path d="M395.612 154.662H390.662V159.612" stroke="#667085" stroke-linecap="round" stroke-linejoin="round"/>
<path d="M277.164 93.648L272.573 95.4967L274.421 100.088" stroke="#667085" stroke-linecap="round" stroke-linejoin="round"/>
<path d="M620.5 250C571.5 130.5 403.7 -35.5005 120.5 82.4995" stroke="#001B3A" stroke-dasharray="2 2"/>
<path d="M533.612 124.662H528.662V129.612" stroke="#667085" stroke-linecap="round" stroke-linejoin="round"/>
<path d="M395.612 154.662H390.662V159.612" stroke="#667085" stroke-linecap="round" stroke-linejoin="round"/>
<path d="M332.047 39.6132L328.12 42.6257L331.133 46.5532" stroke="#667085" stroke-linecap="round" stroke-linejoin="round"/>
<path d="M229.423 16.1555L227.419 20.6812L231.944 22.6857" stroke="#667085" stroke-linecap="round" stroke-linejoin="round"/>
<path d="M401.851 6.34412L397.665 8.98566L400.306 13.1716" stroke="#667085" stroke-linecap="round" stroke-linejoin="round"/>
<circle cx="435" cy="202" r="3.5" fill="#8EC7FF" stroke="#568AD9"/>
<g filter="url(#filter6_d_697_10148)">
<rect x="401.835" y="208" width="112.551" height="30" rx="7.89796" fill="white" shape-rendering="crispEdges"/>
<circle cx="415.978" cy="223" r="6.14286" fill="#12B76A"/>
<path d="M418.318 221.245L415.1 224.463L413.638 223" stroke="#F9FAFB" stroke-width="0.585034" stroke-linecap="round" stroke-linejoin="round"/>
<path d="M429.576 225.04H430.586V223.06H432.416V222.12H430.586V220.14H429.576V222.12H427.756V223.06H429.576V225.04ZM433.596 226H434.806V220.52L438.026 226H439.406V218.85H438.196V224.02L435.186 218.85H433.596V226ZM444.258 226.1C446.278 226.1 447.518 224.9 447.518 222.92V222.26H444.408V223.26H446.208C446.168 224.25 445.618 225.06 444.278 225.06C442.778 225.06 442.068 224.01 442.068 222.48V222.4C442.068 220.83 442.878 219.79 444.278 219.79C445.208 219.79 445.848 220.2 446.008 221.15H447.338C447.148 219.44 445.788 218.74 444.258 218.74C442.168 218.74 440.688 220.26 440.688 222.39V222.47C440.688 224.58 441.968 226.1 444.258 226.1ZM448.801 226H450.011V220.52L453.231 226H454.611V218.85H453.401V224.02L450.391 218.85H448.801V226Z" fill="#667085"/>
<path d="M457.965 226H463.135V224.97H460.095L461.685 223.42C462.535 222.6 463.085 221.79 463.085 220.86C463.085 219.6 462.205 218.75 460.725 218.75C459.215 218.75 458.275 219.65 458.185 221.21H459.405C459.525 220.2 459.975 219.79 460.685 219.79C461.375 219.79 461.755 220.21 461.755 220.88C461.755 221.56 461.345 222.19 460.665 222.91L457.965 225.76V226ZM467.088 225.04C466.018 225.04 465.398 224.22 465.398 222.6V222.24C465.398 220.65 465.988 219.79 467.068 219.79C468.138 219.79 468.718 220.71 468.718 222.23V222.58C468.718 224.2 468.188 225.04 467.088 225.04ZM467.058 226.1C468.928 226.1 470.048 224.73 470.048 222.58V222.22C470.048 220.07 468.868 218.75 467.058 218.75C465.258 218.75 464.058 220.08 464.058 222.25V222.61C464.058 224.76 465.238 226.1 467.058 226.1ZM474.1 225.04C473.03 225.04 472.41 224.22 472.41 222.6V222.24C472.41 220.65 473 219.79 474.08 219.79C475.15 219.79 475.73 220.71 475.73 222.23V222.58C475.73 224.2 475.2 225.04 474.1 225.04ZM474.07 226.1C475.94 226.1 477.06 224.73 477.06 222.58V222.22C477.06 220.07 475.88 218.75 474.07 218.75C472.27 218.75 471.07 220.08 471.07 222.25V222.61C471.07 224.76 472.25 226.1 474.07 226.1ZM478.103 227.23L479.413 224.99L478.263 224.53L477.353 226.9L478.103 227.23ZM483.035 225.04C481.965 225.04 481.345 224.22 481.345 222.6V222.24C481.345 220.65 481.935 219.79 483.015 219.79C484.085 219.79 484.665 220.71 484.665 222.23V222.58C484.665 224.2 484.135 225.04 483.035 225.04ZM483.005 226.1C484.875 226.1 485.995 224.73 485.995 222.58V222.22C485.995 220.07 484.815 218.75 483.005 218.75C481.205 218.75 480.005 220.08 480.005 222.25V222.61C480.005 224.76 481.185 226.1 483.005 226.1ZM490.047 225.04C488.977 225.04 488.357 224.22 488.357 222.6V222.24C488.357 220.65 488.947 219.79 490.027 219.79C491.097 219.79 491.677 220.71 491.677 222.23V222.58C491.677 224.2 491.147 225.04 490.047 225.04ZM490.017 226.1C491.887 226.1 493.007 224.73 493.007 222.58V222.22C493.007 220.07 491.827 218.75 490.017 218.75C488.217 218.75 487.017 220.08 487.017 222.25V222.61C487.017 224.76 488.197 226.1 490.017 226.1ZM494.461 226.07C494.911 226.07 495.261 225.73 495.261 225.29C495.261 224.85 494.911 224.5 494.461 224.5C494.021 224.5 493.671 224.85 493.671 225.29C493.671 225.73 494.021 226.07 494.461 226.07ZM496.989 226H498.329V218.85H497.139L495.479 220.03V221.2L496.989 220.17V226ZM502.32 226.09C504.16 226.09 505.2 224.78 505.2 222.43V222.06C505.2 220 504.28 218.74 502.41 218.74C500.78 218.74 499.76 219.73 499.76 221.19C499.76 222.6 500.75 223.51 502.13 223.51C502.98 223.51 503.56 223.15 503.89 222.61C503.87 224.24 503.32 225.06 502.3 225.06C501.53 225.06 501.2 224.7 501.07 224.14H499.82C499.99 225.37 500.86 226.09 502.32 226.09ZM502.41 222.58C501.59 222.58 501.07 222.01 501.07 221.15C501.07 220.3 501.6 219.73 502.4 219.73C503.22 219.73 503.79 220.29 503.79 221.25C503.79 222.04 503.22 222.58 502.41 222.58Z" fill="#344054"/>
<rect x="402.054" y="208.219" width="112.112" height="29.5612" rx="7.67857" stroke="#F4F4F4" stroke-width="0.438776" shape-rendering="crispEdges"/>
</g>
<defs>
<filter id="filter0_d_697_10148" x="196.667" y="159" width="22.6667" height="22.6667" filterUnits="userSpaceOnUse" color-interpolation-filters="sRGB">
<feFlood flood-opacity="0" result="BackgroundImageFix"/>
<feColorMatrix in="SourceAlpha" type="matrix" values="0 0 0 0 0 0 0 0 0 0 0 0 0 0 0 0 0 0 127 0" result="hardAlpha"/>
<feOffset dy="1.33333"/>
<feGaussianBlur stdDeviation="1.66667"/>
<feComposite in2="hardAlpha" operator="out"/>
<feColorMatrix type="matrix" values="0 0 0 0 0.0627451 0 0 0 0 0.0941176 0 0 0 0 0.156863 0 0 0 0.05 0"/>
<feBlend mode="normal" in2="BackgroundImageFix" result="effect1_dropShadow_697_10148"/>
<feBlend mode="normal" in="SourceGraphic" in2="effect1_dropShadow_697_10148" result="shape"/>
</filter>
<filter id="filter1_d_697_10148" x="196.667" y="194" width="22.6667" height="22.6667" filterUnits="userSpaceOnUse" color-interpolation-filters="sRGB">
<feFlood flood-opacity="0" result="BackgroundImageFix"/>
<feColorMatrix in="SourceAlpha" type="matrix" values="0 0 0 0 0 0 0 0 0 0 0 0 0 0 0 0 0 0 127 0" result="hardAlpha"/>
<feOffset dy="1.33333"/>
<feGaussianBlur stdDeviation="1.66667"/>
<feComposite in2="hardAlpha" operator="out"/>
<feColorMatrix type="matrix" values="0 0 0 0 0.0627451 0 0 0 0 0.0941176 0 0 0 0 0.156863 0 0 0 0.05 0"/>
<feBlend mode="normal" in2="BackgroundImageFix" result="effect1_dropShadow_697_10148"/>
<feBlend mode="normal" in="SourceGraphic" in2="effect1_dropShadow_697_10148" result="shape"/>
</filter>
<filter id="filter2_d_697_10148" x="196.667" y="229" width="22.6667" height="22.6667" filterUnits="userSpaceOnUse" color-interpolation-filters="sRGB">
<feFlood flood-opacity="0" result="BackgroundImageFix"/>
<feColorMatrix in="SourceAlpha" type="matrix" values="0 0 0 0 0 0 0 0 0 0 0 0 0 0 0 0 0 0 127 0" result="hardAlpha"/>
<feOffset dy="1.33333"/>
<feGaussianBlur stdDeviation="1.66667"/>
<feComposite in2="hardAlpha" operator="out"/>
<feColorMatrix type="matrix" values="0 0 0 0 0.0627451 0 0 0 0 0.0941176 0 0 0 0 0.156863 0 0 0 0.05 0"/>
<feBlend mode="normal" in2="BackgroundImageFix" result="effect1_dropShadow_697_10148"/>
<feBlend mode="normal" in="SourceGraphic" in2="effect1_dropShadow_697_10148" result="shape"/>
</filter>
<filter id="filter3_d_697_10148" x="196.667" y="264" width="22.6667" height="22.6667" filterUnits="userSpaceOnUse" color-interpolation-filters="sRGB">
<feFlood flood-opacity="0" result="BackgroundImageFix"/>
<feColorMatrix in="SourceAlpha" type="matrix" values="0 0 0 0 0 0 0 0 0 0 0 0 0 0 0 0 0 0 127 0" result="hardAlpha"/>
<feOffset dy="1.33333"/>
<feGaussianBlur stdDeviation="1.66667"/>
<feComposite in2="hardAlpha" operator="out"/>
<feColorMatrix type="matrix" values="0 0 0 0 0.0627451 0 0 0 0 0.0941176 0 0 0 0 0.156863 0 0 0 0.05 0"/>
<feBlend mode="normal" in2="BackgroundImageFix" result="effect1_dropShadow_697_10148"/>
<feBlend mode="normal" in="SourceGraphic" in2="effect1_dropShadow_697_10148" result="shape"/>
</filter>
<filter id="filter4_d_697_10148" x="429.384" y="1.30732" width="113.232" height="49.2325" filterUnits="userSpaceOnUse" color-interpolation-filters="sRGB">
<feFlood flood-opacity="0" result="BackgroundImageFix"/>
<feColorMatrix in="SourceAlpha" type="matrix" values="0 0 0 0 0 0 0 0 0 0 0 0 0 0 0 0 0 0 127 0" result="hardAlpha"/>
<feOffset dy="4.92357"/>
<feGaussianBlur stdDeviation="4.30812"/>
<feComposite in2="hardAlpha" operator="out"/>
<feColorMatrix type="matrix" values="0 0 0 0 0 0 0 0 0 0 0 0 0 0 0 0 0 0 0.1 0"/>
<feBlend mode="normal" in2="BackgroundImageFix" result="effect1_dropShadow_697_10148"/>
<feBlend mode="normal" in="SourceGraphic" in2="effect1_dropShadow_697_10148" result="shape"/>
</filter>
<filter id="filter5_d_697_10148" x="563.384" y="248.307" width="119.232" height="49.2325" filterUnits="userSpaceOnUse" color-interpolation-filters="sRGB">
<feFlood flood-opacity="0" result="BackgroundImageFix"/>
<feColorMatrix in="SourceAlpha" type="matrix" values="0 0 0 0 0 0 0 0 0 0 0 0 0 0 0 0 0 0 127 0" result="hardAlpha"/>
<feOffset dy="4.92357"/>
<feGaussianBlur stdDeviation="4.30812"/>
<feComposite in2="hardAlpha" operator="out"/>
<feColorMatrix type="matrix" values="0 0 0 0 0 0 0 0 0 0 0 0 0 0 0 0 0 0 0.1 0"/>
<feBlend mode="normal" in2="BackgroundImageFix" result="effect1_dropShadow_697_10148"/>
<feBlend mode="normal" in="SourceGraphic" in2="effect1_dropShadow_697_10148" result="shape"/>
</filter>
<filter id="filter6_d_697_10148" x="394.274" y="204.759" width="127.673" height="45.1224" filterUnits="userSpaceOnUse" color-interpolation-filters="sRGB">
<feFlood flood-opacity="0" result="BackgroundImageFix"/>
<feColorMatrix in="SourceAlpha" type="matrix" values="0 0 0 0 0 0 0 0 0 0 0 0 0 0 0 0 0 0 127 0" result="hardAlpha"/>
<feOffset dy="4.32068"/>
<feGaussianBlur stdDeviation="3.7806"/>
<feComposite in2="hardAlpha" operator="out"/>
<feColorMatrix type="matrix" values="0 0 0 0 0 0 0 0 0 0 0 0 0 0 0 0 0 0 0.1 0"/>
<feBlend mode="normal" in2="BackgroundImageFix" result="effect1_dropShadow_697_10148"/>
<feBlend mode="normal" in="SourceGraphic" in2="effect1_dropShadow_697_10148" result="shape"/>
</filter>
<clipPath id="clip0_697_10148">
<rect width="689.954" height="353" fill="white" transform="translate(18 2)"/>
</clipPath>
<clipPath id="clip1_697_10148">
<rect width="16.82" height="16.82" fill="white" transform="translate(21 160.59)"/>
</clipPath>
<clipPath id="clip2_697_10148">
<rect width="16.82" height="16.82" fill="white" transform="translate(21 195.59)"/>
</clipPath>
<clipPath id="clip3_697_10148">
<rect width="16.82" height="16.82" fill="white" transform="translate(21 230.59)"/>
</clipPath>
<clipPath id="clip4_697_10148">
<rect width="16.82" height="16.82" fill="white" transform="translate(21 265.59)"/>
</clipPath>
</defs>
</svg>
