<svg width="68" height="68" viewBox="0 0 68 68" fill="none" xmlns="http://www.w3.org/2000/svg">
<circle cx="34" cy="34" r="34" fill="#F4F3FF"/>
<path d="M41.4375 32.9385C39.7564 32.9385 38.113 33.437 36.7152 34.371C35.3173 35.305 34.2279 36.6325 33.5845 38.1857C32.9412 39.7388 32.7729 41.4479 33.1008 43.0967C33.4288 44.7456 34.2383 46.2601 35.4271 47.4489C36.6158 48.6376 38.1304 49.4472 39.7792 49.7752C41.4281 50.1031 43.1371 49.9348 44.6903 49.2915C46.2435 48.6481 47.571 47.5586 48.505 46.1608C49.439 44.763 49.9375 43.1196 49.9375 41.4385C49.9345 39.185 49.0381 37.0248 47.4446 35.4313C45.8512 33.8379 43.6909 32.9414 41.4375 32.9385ZM42.5 45.1572H41.9688V45.6885C41.9688 45.8294 41.9128 45.9645 41.8132 46.0641C41.7135 46.1638 41.5784 46.2197 41.4375 46.2197C41.2966 46.2197 41.1615 46.1638 41.0618 46.0641C40.9622 45.9645 40.9062 45.8294 40.9062 45.6885V45.1572H38.7812C38.6404 45.1572 38.5052 45.1013 38.4056 45.0016C38.306 44.902 38.25 44.7669 38.25 44.626C38.25 44.4851 38.306 44.35 38.4056 44.2503C38.5052 44.1507 38.6404 44.0947 38.7812 44.0947H42.5C42.7818 44.0947 43.052 43.9828 43.2513 43.7835C43.4506 43.5843 43.5625 43.314 43.5625 43.0322C43.5625 42.7504 43.4506 42.4802 43.2513 42.2809C43.052 42.0817 42.7818 41.9697 42.5 41.9697H40.375C39.8114 41.9697 39.2709 41.7458 38.8724 41.3473C38.4739 40.9488 38.25 40.4083 38.25 39.8447C38.25 39.2811 38.4739 38.7406 38.8724 38.3421C39.2709 37.9436 39.8114 37.7197 40.375 37.7197H40.9062V37.1885C40.9062 37.0476 40.9622 36.9125 41.0618 36.8128C41.1615 36.7132 41.2966 36.6572 41.4375 36.6572C41.5784 36.6572 41.7135 36.7132 41.8132 36.8128C41.9128 36.9125 41.9688 37.0476 41.9688 37.1885V37.7197H43.5625C43.7034 37.7197 43.8385 37.7757 43.9382 37.8753C44.0378 37.975 44.0938 38.1101 44.0938 38.251C44.0938 38.3919 44.0378 38.527 43.9382 38.6266C43.8385 38.7263 43.7034 38.7822 43.5625 38.7822H40.375C40.0932 38.7822 39.823 38.8942 39.6237 39.0934C39.4244 39.2927 39.3125 39.5629 39.3125 39.8447C39.3125 40.1265 39.4244 40.3968 39.6237 40.596C39.823 40.7953 40.0932 40.9072 40.375 40.9072H42.5C43.0636 40.9072 43.6041 41.1311 44.0026 41.5296C44.4011 41.9281 44.625 42.4686 44.625 43.0322C44.625 43.5958 44.4011 44.1363 44.0026 44.5348C43.6041 44.9333 43.0636 45.1572 42.5 45.1572ZM26.5625 35.0635C28.2436 35.0635 29.887 34.565 31.2848 33.631C32.6827 32.697 33.7721 31.3695 34.4155 29.8163C35.0588 28.2631 35.2271 26.5541 34.8992 24.9052C34.5712 23.2564 33.7617 21.7418 32.5729 20.5531C31.3842 19.3643 29.8696 18.5548 28.2208 18.2268C26.5719 17.8988 24.8629 18.0672 23.3097 18.7105C21.7565 19.3538 20.429 20.4433 19.495 21.8411C18.561 23.239 18.0625 24.8823 18.0625 26.5635C18.0655 28.8169 18.9619 30.9772 20.5554 32.5706C22.1488 34.164 24.3091 35.0605 26.5625 35.0635ZM23.375 23.9072C23.2341 23.9072 23.099 23.8513 22.9993 23.7516C22.8997 23.652 22.8438 23.5169 22.8438 23.376C22.8438 23.2351 22.8997 23.1 22.9993 23.0003C23.099 22.9007 23.2341 22.8447 23.375 22.8447H24.9688V22.3135C24.9688 22.1726 25.0247 22.0375 25.1243 21.9378C25.224 21.8382 25.3591 21.7822 25.5 21.7822C25.6409 21.7822 25.776 21.8382 25.8757 21.9378C25.9753 22.0375 26.0312 22.1726 26.0312 22.3135V22.8447H27.0938V22.3135C27.0938 22.1726 27.1497 22.0375 27.2493 21.9378C27.349 21.8382 27.4841 21.7822 27.625 21.7822C27.7659 21.7822 27.901 21.8382 28.0007 21.9378C28.1003 22.0375 28.1562 22.1726 28.1562 22.3135V22.8447C28.5887 22.8432 29.0113 22.9741 29.3671 23.2199C29.7229 23.4657 29.9949 23.8146 30.1465 24.2197C30.2981 24.6247 30.322 25.0664 30.2151 25.4855C30.1081 25.9045 29.8753 26.2807 29.5481 26.5635C29.8753 26.8463 30.1081 27.2225 30.2151 27.6415C30.322 28.0605 30.2981 28.5023 30.1465 28.9073C29.9949 29.3123 29.7229 29.6612 29.3671 29.907C29.0113 30.1528 28.5887 30.2838 28.1562 30.2822V30.8135C28.1562 30.9544 28.1003 31.0895 28.0007 31.1891C27.901 31.2888 27.7659 31.3447 27.625 31.3447C27.4841 31.3447 27.349 31.2888 27.2493 31.1891C27.1497 31.0895 27.0938 30.9544 27.0938 30.8135V30.2822H26.0312V30.8135C26.0312 30.9544 25.9753 31.0895 25.8757 31.1891C25.776 31.2888 25.6409 31.3447 25.5 31.3447C25.3591 31.3447 25.224 31.2888 25.1243 31.1891C25.0247 31.0895 24.9688 30.9544 24.9688 30.8135V30.2822H23.375C23.2341 30.2822 23.099 30.2263 22.9993 30.1266C22.8997 30.027 22.8438 29.8919 22.8438 29.751C22.8438 29.6101 22.8997 29.475 22.9993 29.3753C23.099 29.2757 23.2341 29.2197 23.375 29.2197H23.9062V23.9072H23.375Z" fill="#62008F"/>
<path d="M29.2186 28.1571C29.2177 27.8755 29.1055 27.6058 28.9064 27.4067C28.7074 27.2076 28.4376 27.0954 28.1561 27.0946H24.9686V29.2196H28.1561C28.4376 29.2187 28.7074 29.1065 28.9064 28.9074C29.1055 28.7084 29.2177 28.4386 29.2186 28.1571ZM29.2186 24.9696C29.2177 24.688 29.1055 24.4183 28.9064 24.2192C28.7074 24.0201 28.4376 23.9079 28.1561 23.9071H24.9686V26.0321H28.1561C28.4376 26.0312 28.7074 25.919 28.9064 25.7199C29.1055 25.5209 29.2177 25.2511 29.2186 24.9696ZM41.8304 19.3436V18.9664C41.8302 18.7622 41.7711 18.5625 41.6602 18.391C41.5494 18.2195 41.3915 18.0836 41.2054 17.9995C41.0193 17.9154 40.813 17.8868 40.611 17.9169C40.4091 17.9471 40.2201 18.0348 40.0667 18.1696L37.1554 20.7196C37.0424 20.8193 36.9518 20.9419 36.8898 21.0793C36.8278 21.2167 36.7957 21.3657 36.7957 21.5164C36.7957 21.6672 36.8278 21.8162 36.8898 21.9536C36.9518 22.091 37.0424 22.2136 37.1554 22.3133L40.0667 24.8633C40.2187 24.997 40.4058 25.0844 40.6058 25.1153C40.8059 25.1462 41.0106 25.1194 41.1959 25.0379C41.3812 24.9564 41.5393 24.8237 41.6518 24.6554C41.7642 24.487 41.8262 24.2901 41.8304 24.0877C43.6637 25.1976 45.0906 26.8686 45.8998 28.853C46.0476 29.2241 46.3298 29.5259 46.6901 29.6982C47.0505 29.8705 47.4626 29.9007 47.8442 29.7827L48.8589 29.4639C49.068 29.3979 49.2613 29.2897 49.427 29.1461C49.5927 29.0024 49.7272 28.8264 49.8223 28.6288C49.9173 28.4312 49.9709 28.2162 49.9798 27.9971C49.9886 27.7781 49.9524 27.5595 49.8736 27.3549C49.142 25.5464 48.0523 23.9045 46.6702 22.5278C45.288 21.1511 43.6418 20.068 41.8304 19.3436ZM26.1692 48.658V49.0352C26.1721 49.2382 26.2327 49.4362 26.3441 49.606C26.4554 49.7758 26.6128 49.9104 26.7979 49.994C26.9829 50.0776 27.1879 50.1068 27.3889 50.0781C27.59 50.0494 27.7787 49.9641 27.9329 49.8321L30.8442 47.2821C30.9572 47.1823 31.0478 47.0597 31.1098 46.9223C31.1718 46.7849 31.2039 46.6359 31.2039 46.4852C31.2039 46.3344 31.1718 46.1854 31.1098 46.048C31.0478 45.9106 30.9572 45.788 30.8442 45.6883L27.9329 43.1383C27.7809 43.0047 27.5938 42.9172 27.3938 42.8863C27.1938 42.8554 26.989 42.8822 26.8037 42.9637C26.6184 43.0452 26.4603 43.1779 26.3479 43.3463C26.2354 43.5146 26.1734 43.7115 26.1692 43.9139C24.3359 42.804 22.909 41.1331 22.0998 39.1486C21.953 38.7768 21.6709 38.4743 21.3102 38.3018C20.9496 38.1294 20.537 38.0998 20.1554 38.2189L19.1407 38.5377C18.9317 38.6037 18.7383 38.7119 18.5726 38.8555C18.4069 38.9992 18.2724 39.1752 18.1773 39.3728C18.0823 39.5704 18.0287 39.7854 18.0199 40.0045C18.011 40.2236 18.0472 40.4421 18.1261 40.6467C18.8577 42.4552 19.9473 44.0971 21.3295 45.4738C22.7116 46.8505 24.3578 47.9336 26.1692 48.658Z" fill="#62008F"/>
</svg>
