<svg width="152" height="104" viewBox="0 0 152 104" fill="none" xmlns="http://www.w3.org/2000/svg">
<g filter="url(#filter0_d_1254_7677)">
<rect x="6.41455" width="139.107" height="97" rx="3.48534" fill="white" shape-rendering="crispEdges"/>
<g clip-path="url(#clip0_1254_7677)">
<path d="M22.7576 22.143C26.5425 22.143 29.6108 19.0747 29.6108 15.2898C29.6108 11.5048 26.5425 8.43652 22.7576 8.43652C18.9726 8.43652 15.9043 11.5048 15.9043 15.2898C15.9043 19.0747 18.9726 22.143 22.7576 22.143Z" fill="#F0F0F0"/>
<path d="M15.9038 15.2902C15.9038 18.2369 17.7636 20.7489 20.3733 21.7173V8.86328C17.7636 9.83157 15.9038 12.3436 15.9038 15.2902Z" fill="#6DA544"/>
<path d="M29.6102 15.2902C29.6102 12.3436 27.7504 9.83157 25.1406 8.86328V21.7173C27.7504 20.7489 29.6102 18.2369 29.6102 15.2902Z" fill="#6DA544"/>
</g>
<rect x="37.978" y="8.43652" width="97" height="10.5435" rx="1.0251" fill="#D9DDFF"/>
<rect opacity="0.2" x="37.978" y="21.8506" width="40.7989" height="5.74056" rx="1.0251" fill="#B1C7DC"/>
<g clip-path="url(#clip1_1254_7677)">
<path d="M15.9038 46.5687C15.9038 47.4714 16.0662 48.3362 16.3629 49.1358L23.2842 49.4567L30.2056 49.1358C30.5023 48.3362 30.6647 47.4714 30.6647 46.5687C30.6647 45.6659 30.5023 44.8011 30.2056 44.0016L23.2842 43.6807L16.3629 44.0015C16.0662 44.8011 15.9038 45.6659 15.9038 46.5687V46.5687Z" fill="#FFDA44"/>
<path d="M23.2842 39.1885C20.1108 39.1885 17.4056 41.1913 16.3628 44.0018H30.2056C29.1627 41.1913 26.4575 39.1885 23.2842 39.1885Z" fill="#D80027"/>
<path d="M30.2056 49.1357H16.3628C17.4056 51.9462 20.1108 53.9491 23.2842 53.9491C26.4575 53.9491 29.1627 51.9462 30.2056 49.1357Z" fill="#496E2D"/>
<path d="M23.2841 44.002L23.9213 45.963H25.9834L24.3152 47.175L24.9524 49.1361L23.2841 47.9241L21.6159 49.1361L22.2531 47.175L20.585 45.963H22.647L23.2841 44.002Z" fill="black"/>
</g>
<rect x="39.0322" y="39.1885" width="97" height="10.5435" rx="1.0251" fill="#D9DDFF"/>
<rect opacity="0.2" x="39.0322" y="52.6025" width="40.7989" height="5.74056" rx="1.0251" fill="#B1C7DC"/>
<g clip-path="url(#clip2_1254_7677)">
<path d="M22.7571 83.647C26.542 83.647 29.6103 80.5786 29.6103 76.7937C29.6103 73.0087 26.542 69.9404 22.7571 69.9404C18.9721 69.9404 15.9038 73.0087 15.9038 76.7937C15.9038 80.5786 18.9721 83.647 22.7571 83.647Z" fill="#F0F0F0"/>
<path d="M22.7572 69.9404C20.0402 69.9404 17.6925 71.5216 16.584 73.814H28.9304C27.8219 71.5216 25.4742 69.9404 22.7572 69.9404Z" fill="black"/>
<path d="M22.7572 83.647C20.0402 83.647 17.6925 82.0658 16.584 79.7734H28.9304C27.8219 82.0658 25.4742 83.647 22.7572 83.647Z" fill="#496E2D"/>
<path d="M29.2867 74.708H16.2274C16.0175 75.3657 15.9038 76.0665 15.9038 76.7938C15.9038 77.5211 16.0175 78.2218 16.2274 78.8796H29.2867C29.4966 78.2218 29.6103 77.5211 29.6103 76.7938C29.6103 76.0665 29.4966 75.3657 29.2867 74.708Z" fill="#A2001D"/>
<path d="M24.8911 73.107L24.0795 72.7324L22.7571 75.7267L21.4346 72.7324L20.623 73.107L22.2648 76.7933L20.623 80.4796L21.4346 80.8542L22.7571 77.8599L24.0795 80.8542L24.8911 80.4796L23.2493 76.7933L24.8911 73.107Z" fill="#F0F0F0"/>
<path d="M23.3085 73.4603C22.9943 73.1172 22.7573 72.9199 22.7573 72.9199C22.7573 72.9199 22.5202 73.1171 22.2061 73.4603V80.1267C22.5202 80.4699 22.7573 80.6671 22.7573 80.6671C22.7573 80.6671 22.9943 80.4699 23.3085 80.1267V73.4603Z" fill="#F0F0F0"/>
<path d="M21.2671 74.7388V78.8484C21.5991 79.4367 22.0054 79.9188 22.31 80.2385V73.3486C22.0054 73.6683 21.5991 74.1505 21.2671 74.7388Z" fill="#A2001D"/>
<path d="M24.2465 74.7388C23.9145 74.1505 23.5082 73.6683 23.2036 73.3486V80.2385C23.5081 79.9188 23.9145 79.4367 24.2465 78.8484V74.7388Z" fill="#A2001D"/>
<path d="M24.2471 74.7393V78.8489C24.5832 78.2532 24.843 77.5489 24.843 76.7941C24.843 76.0392 24.5832 75.3349 24.2471 74.7393Z" fill="black"/>
<path d="M21.2673 74.7393V78.8489C20.9312 78.2532 20.6714 77.5489 20.6714 76.7941C20.6714 76.0392 20.9312 75.3349 21.2673 74.7393Z" fill="black"/>
</g>
<rect x="37.978" y="69.9404" width="97" height="10.5435" rx="1.0251" fill="#D9DDFF"/>
<rect opacity="0.2" x="37.978" y="83.3545" width="40.7989" height="5.74056" rx="1.0251" fill="#B1C7DC"/>
<rect x="6.51706" y="0.10251" width="138.902" height="96.795" rx="3.38283" stroke="#DDDDDD" stroke-width="0.20502" shape-rendering="crispEdges"/>
</g>
<defs>
<filter id="filter0_d_1254_7677" x="0.320909" y="-6.09364" width="151.294" height="109.187" filterUnits="userSpaceOnUse" color-interpolation-filters="sRGB">
<feFlood flood-opacity="0" result="BackgroundImageFix"/>
<feColorMatrix in="SourceAlpha" type="matrix" values="0 0 0 0 0 0 0 0 0 0 0 0 0 0 0 0 0 0 127 0" result="hardAlpha"/>
<feOffset/>
<feGaussianBlur stdDeviation="3.04682"/>
<feComposite in2="hardAlpha" operator="out"/>
<feColorMatrix type="matrix" values="0 0 0 0 0 0 0 0 0 0 0 0 0 0 0 0 0 0 0.1 0"/>
<feBlend mode="normal" in2="BackgroundImageFix" result="effect1_dropShadow_1254_7677"/>
<feBlend mode="normal" in="SourceGraphic" in2="effect1_dropShadow_1254_7677" result="shape"/>
</filter>
<clipPath id="clip0_1254_7677">
<rect width="13.7065" height="13.7065" fill="white" transform="translate(15.9038 8.43652)"/>
</clipPath>
<clipPath id="clip1_1254_7677">
<rect width="14.7609" height="14.7609" fill="white" transform="translate(15.9038 39.1885)"/>
</clipPath>
<clipPath id="clip2_1254_7677">
<rect width="13.7065" height="13.7065" fill="white" transform="translate(15.9038 69.9404)"/>
</clipPath>
</defs>
</svg>
