<svg width="64" height="64" viewBox="0 0 64 64" fill="none" xmlns="http://www.w3.org/2000/svg">
<g clip-path="url(#clip0_979_9268)">
<g clip-path="url(#clip1_979_9268)">
<mask id="mask0_979_9268" style="mask-type:alpha" maskUnits="userSpaceOnUse" x="0" y="0" width="64" height="64">
<path d="M32 64C49.6731 64 64 49.6731 64 32C64 14.3269 49.6731 0 32 0C14.3269 0 0 14.3269 0 32C0 49.6731 14.3269 64 32 64Z" fill="#F0F0F0"/>
</mask>
<g mask="url(#mask0_979_9268)">
<path d="M0 0H64V64H0V0Z" fill="#0052B4"/>
<path d="M32.25 17L33.0613 19.4964H35.686L33.5625 21.0393L34.3736 23.5357L32.25 21.9929L30.1264 23.5357L30.9375 21.0393L28.814 19.4964H31.4387L32.25 17ZM21.4667 21.4667L23.8055 22.6582L25.6615 20.8023L25.2507 23.3948L27.5895 24.5866L24.997 24.9972L24.5864 27.5899L23.3947 25.251L20.8023 25.6615L22.6584 23.8055L21.4667 21.4667ZM17 32.25L19.4964 31.4389L19.4966 28.8141L21.0392 30.9377L23.5357 30.1266L21.9928 32.25L23.5357 34.3736L21.0392 33.5626L19.4966 35.686V33.0613L17 32.25ZM21.4667 43.0335L22.6581 40.6945L20.8023 38.8386L23.395 39.2493L24.5864 36.9105L24.997 39.5031L27.5895 39.9136L25.2509 41.1053L25.6615 43.6977L23.8055 41.8418L21.4667 43.0335ZM32.25 47.5L31.4387 45.0036H28.814L30.9377 43.4608L30.1264 40.9644L32.25 42.5072L34.3736 40.9644L33.5625 43.4608L35.686 45.0036H33.0611L32.25 47.5ZM43.0333 43.0335L40.6945 41.8419L38.8385 43.698L39.2493 41.1052L36.9105 39.9136L39.5028 39.5031L39.9136 36.9105L41.1053 39.2493L43.6977 38.8386L41.8416 40.6947L43.0333 43.0335ZM47.5 32.25L45.0036 33.0613V35.686L43.4608 33.5623L40.9643 34.3736L42.5072 32.25L40.9643 30.1266L43.4608 30.9375L45.0034 28.8141L45.0036 31.4391L47.5 32.25ZM43.0333 21.4667L41.8418 23.8055L43.6978 25.6615L41.105 25.2507L39.9136 27.5897L39.5028 24.9972L36.9105 24.5866L39.2493 23.3948L38.8385 20.8023L40.6945 22.6584L43.0333 21.4667Z" fill="#FFDA44"/>
</g>
</g>
</g>
<defs>
<clipPath id="clip0_979_9268">
<rect width="64" height="64" fill="white"/>
</clipPath>
<clipPath id="clip1_979_9268">
<rect width="64" height="64" fill="white"/>
</clipPath>
</defs>
</svg>
