<svg width="146" height="146" viewBox="0 0 146 146" fill="none" xmlns="http://www.w3.org/2000/svg">
<circle cx="73" cy="73" r="73" fill="#D2D9FF"/>
<line y1="72.5" x2="146" y2="72.5" stroke="white"/>
<circle cx="74.5" cy="71" r="49.024" stroke="white" stroke-width="0.951923"/>
<path d="M52.6065 21.5L48.7988 29.1154L56.4142 30.5433" stroke="white" stroke-width="0.951923"/>
<path d="M108.294 116.217V106.698H98.2988" stroke="white" stroke-width="0.951923"/>
<line x1="74.5" y1="2.18557e-08" x2="74.5" y2="146" stroke="white"/>
<circle cx="27.9697" cy="71.4697" r="18.9697" fill="white"/>
<path d="M26.9816 82.6798H28.4669V80.0648C31.7722 79.8347 33.5295 77.8264 33.5295 75.316C33.5295 72.4081 31.6049 71.3621 28.4669 70.8809V67.1362C29.5756 67.3454 30.0986 68.0149 30.2869 69.1027H33.2785C33.0274 66.4041 31.312 64.9815 28.4669 64.7305V62.8477H26.9816V64.7095C23.99 64.9187 22.0654 66.6969 22.0654 69.1027C22.0654 71.8642 23.6553 73.0775 26.9816 73.6005V77.6381C25.3289 77.387 24.8896 76.4038 24.7431 75.1904H21.647C21.8143 77.8264 23.3624 79.8137 26.9816 80.0648V82.6798ZM30.4334 75.6716C30.4334 76.6967 29.6802 77.4289 28.4669 77.6381V73.8306C30.015 74.1654 30.4334 74.6674 30.4334 75.6716ZM25.0778 68.8308C25.0778 67.9521 25.7473 67.2618 26.9816 67.0944V70.6299C25.4335 70.3161 25.0778 69.7931 25.0778 68.8308Z" fill="#1A0765"/>
<circle cx="74" cy="23" r="16" fill="white"/>
<path d="M67.9395 21.7873C67.9395 21.7873 68.013 21.2727 70.1431 19.1425C72.2732 17.0124 75.7269 17.0124 77.857 19.1425C78.6117 19.8972 79.099 20.8181 79.319 21.7873M67.9395 21.7873V18.151M67.9395 21.7873H71.5758M80.0607 24.2116C80.0607 24.2116 79.9871 24.7263 77.857 26.8564C75.7269 28.9865 72.2732 28.9865 70.1431 26.8564C69.3884 26.1017 68.9011 25.1809 68.6812 24.2116M80.0607 24.2116V27.848M80.0607 24.2116H76.4243" stroke="#1A0765" stroke-width="1.21212" stroke-linecap="round" stroke-linejoin="round"/>
<circle cx="74.4849" cy="120.485" r="16.4849" fill="white"/>
<g clip-path="url(#clip0_950_8905)">
<path d="M68.2402 119.235C68.2402 119.235 68.316 118.705 70.5107 116.51C72.7054 114.316 76.2636 114.316 78.4583 116.51C79.2359 117.288 79.738 118.237 79.9646 119.235M68.2402 119.235V115.489M68.2402 119.235H71.9868M80.7288 121.733C80.7288 121.733 80.653 122.263 78.4583 124.458C76.2636 126.653 72.7054 126.653 70.5107 124.458C69.7331 123.68 69.231 122.732 69.0044 121.733M80.7288 121.733V125.48M80.7288 121.733H76.9822" stroke="#1A0765" stroke-width="1.24885" stroke-linecap="round" stroke-linejoin="round"/>
</g>
<circle cx="119.409" cy="71.4697" r="19.4697" fill="white"/>
<path d="M112.469 68.8568V75.5434H115.335V68.8568H112.469ZM118.2 68.8568V75.5434H121.066V68.8568H118.2ZM110.559 80.3195H128.708V77.4538H110.559V80.3195ZM123.932 68.8568V75.5434H126.797V68.8568H123.932ZM119.633 60.2598L110.559 65.0359V66.9463H128.708V65.0359L119.633 60.2598Z" fill="#1A0765"/>
<rect x="0.5" y="0.5" width="145" height="145" stroke="white"/>
<defs>
<clipPath id="clip0_950_8905">
<rect width="14.9862" height="14.9862" fill="white" transform="translate(66.9912 112.991)"/>
</clipPath>
</defs>
</svg>
