<svg width="64" height="64" viewBox="0 0 64 64" fill="none" xmlns="http://www.w3.org/2000/svg">
<g clip-path="url(#clip0_1018_8629)">
<path d="M0 32.0012C0 35.9155 0.704125 39.665 1.99038 43.1316L32 44.523L62.0096 43.1317C63.296 39.665 64 35.9155 64 32.0012C64 28.087 63.296 24.3375 62.0096 20.8709L32 19.4795L1.99038 20.8707C0.704125 24.3375 0 28.087 0 32.0012H0Z" fill="#FFDA44"/>
<path d="M31.9989 0C18.24 0 6.51063 8.684 1.98926 20.8696H62.0086C57.4871 8.684 45.7577 0 31.9989 0Z" fill="#D80027"/>
<path d="M62.0085 43.1299H1.98926C6.51063 55.3154 18.24 63.9995 31.9989 63.9995C45.7578 63.9995 57.4871 55.3154 62.0085 43.1299Z" fill="#496E2D"/>
<path d="M31.9999 20.8701L34.7624 29.3726H43.7034L36.4705 34.628L39.233 43.1309L31.9999 37.8759L24.7667 43.1309L27.5298 34.628L20.2969 29.3726H29.2374L31.9999 20.8701Z" fill="black"/>
</g>
<defs>
<clipPath id="clip0_1018_8629">
<rect width="64" height="64" fill="white"/>
</clipPath>
</defs>
</svg>
