<svg width="881" height="527" viewBox="0 0 881 527" fill="none" xmlns="http://www.w3.org/2000/svg">
<g clip-path="url(#clip0_721_7849)">
<path d="M-20.7464 490.246L-20.7464 491.281L-19.7112 491.281L219.942 491.281C348.297 491.281 452.349 387.229 452.349 258.874C452.349 130.52 348.297 26.4675 219.942 26.4675L-19.7111 26.4674L-20.7463 26.4674L-20.7463 27.5027L-20.7464 490.246Z" fill="url(#paint0_linear_721_7849)" stroke="url(#paint1_linear_721_7849)" stroke-width="2.07044"/>
<g clip-path="url(#clip1_721_7849)">
<line opacity="0.3" x1="389.172" y1="50.6859" x2="0.415833" y2="50.6859" stroke="url(#paint2_linear_721_7849)" stroke-width="0.932269"/>
<line opacity="0.3" x1="378.66" y1="90.7728" x2="-148.072" y2="90.7728" stroke="url(#paint3_linear_721_7849)" stroke-width="0.932269"/>
<line opacity="0.3" x1="39.1466" y1="-6.11261e-08" x2="39.1466" y2="526.732" stroke="url(#paint4_linear_721_7849)" stroke-width="0.932269"/>
<line opacity="0.3" x1="414.496" y1="133.079" x2="-112.236" y2="133.079" stroke="url(#paint5_linear_721_7849)" stroke-width="0.932269"/>
<line opacity="0.3" x1="81.4522" y1="-6.11261e-08" x2="81.4523" y2="526.732" stroke="url(#paint6_linear_721_7849)" stroke-width="0.932269"/>
<line opacity="0.3" x1="432.831" y1="170.582" x2="-93.9007" y2="170.582" stroke="url(#paint7_linear_721_7849)" stroke-width="0.932269"/>
<line opacity="0.3" x1="118.956" y1="-6.11261e-08" x2="118.956" y2="526.732" stroke="url(#paint8_linear_721_7849)" stroke-width="0.932269"/>
<line opacity="0.3" x1="443.851" y1="211.036" x2="-82.8812" y2="211.036" stroke="url(#paint9_linear_721_7849)" stroke-width="0.932269"/>
<line opacity="0.3" x1="159.409" y1="-6.11261e-08" x2="159.409" y2="526.732" stroke="url(#paint10_linear_721_7849)" stroke-width="0.932269"/>
<line opacity="0.3" x1="451.352" y1="251.124" x2="-75.3802" y2="251.124" stroke="url(#paint11_linear_721_7849)" stroke-width="0.932269"/>
<line opacity="0.3" x1="199.496" y1="-6.11261e-08" x2="199.496" y2="526.732" stroke="url(#paint12_linear_721_7849)" stroke-width="0.932269"/>
<line opacity="0.3" x1="448.851" y1="291.211" x2="-77.8812" y2="291.211" stroke="url(#paint13_linear_721_7849)" stroke-width="0.932269"/>
<line opacity="0.3" x1="239.583" y1="-6.11261e-08" x2="239.583" y2="526.732" stroke="url(#paint14_linear_721_7849)" stroke-width="0.932269"/>
<line opacity="0.3" x1="439.684" y1="331.299" x2="-87.0482" y2="331.299" stroke="url(#paint15_linear_721_7849)" stroke-width="0.932269"/>
<line opacity="0.3" x1="279.672" y1="-6.11261e-08" x2="279.672" y2="526.732" stroke="url(#paint16_linear_721_7849)" stroke-width="0.932269"/>
<line opacity="0.3" x1="421.996" y1="371.386" x2="-104.736" y2="371.386" stroke="url(#paint17_linear_721_7849)" stroke-width="0.932269"/>
<line opacity="0.3" x1="319.759" y1="-6.11261e-08" x2="319.759" y2="526.732" stroke="url(#paint18_linear_721_7849)" stroke-width="0.932269"/>
<line opacity="0.3" x1="389.494" y1="411.474" x2="-137.238" y2="411.474" stroke="url(#paint19_linear_721_7849)" stroke-width="0.932269"/>
<line opacity="0.3" x1="359.847" y1="-6.11261e-08" x2="359.847" y2="526.732" stroke="url(#paint20_linear_721_7849)" stroke-width="0.932269"/>
<line opacity="0.3" x1="339.49" y1="453.939" x2="-187.242" y2="453.939" stroke="url(#paint21_linear_721_7849)" stroke-width="0.932269"/>
<line opacity="0.3" x1="402.312" y1="-6.11261e-08" x2="402.312" y2="526.732" stroke="url(#paint22_linear_721_7849)" stroke-width="0.932269"/>
</g>
<path d="M-217.76 311.691L-217.76 312.108L-217.344 312.108L248.11 312.108C332.801 312.108 401.456 243.453 401.456 158.762C401.456 74.0719 332.801 5.4167 248.11 5.41669L-217.344 5.41663L-217.76 5.41663L-217.76 5.83331L-217.76 311.691Z" stroke="url(#paint23_linear_721_7849)" stroke-width="0.833401"/>
<path d="M998.172 215.018L998.172 214.601L997.755 214.601L532.301 214.601C447.61 214.601 378.955 283.256 378.955 367.946C378.955 452.637 447.61 521.292 532.301 521.292L997.755 521.292L998.172 521.292L998.172 520.876L998.172 215.018Z" stroke="url(#paint24_linear_721_7849)" stroke-width="0.833401"/>
<path d="M848.16 327.526L848.16 327.943L847.743 327.943L547.594 327.943C452.156 327.943 374.788 250.575 374.788 155.138C374.788 69.2274 444.432 -0.41674 530.343 -0.416729L847.743 -0.416687L848.16 -0.416687L848.16 5.46436e-08L848.16 327.526Z" stroke="url(#paint25_linear_721_7849)" stroke-width="0.833401"/>
<path d="M-67.7468 199.183L-67.7468 198.766L-67.3301 198.766L232.82 198.766C328.257 198.766 405.625 276.134 405.625 371.571C405.625 457.482 335.981 527.126 250.07 527.126L-67.3301 527.126L-67.7469 527.126L-67.7468 526.709L-67.7468 199.183Z" stroke="url(#paint26_linear_721_7849)" stroke-width="0.833401"/>
<rect x="-25" y="64" width="222" height="43" rx="21.5" fill="url(#paint27_linear_721_7849)"/>
<circle cx="12.5" cy="85.5" r="11.5" fill="white"/>
<path d="M34.312 90.5H36.44V86.148H38.04C40.488 86.148 42.232 85.076 42.232 82.66V82.596C42.232 80.196 40.552 79.06 37.992 79.06H34.312V90.5ZM36.44 84.612V80.708H37.992C39.352 80.708 40.152 81.236 40.152 82.596V82.66C40.152 83.924 39.4 84.612 37.992 84.612H36.44ZM45.9378 90.66C47.2178 90.66 47.9538 90.196 48.4978 89.476V90.5H50.4018V85.012C50.4018 82.724 48.9298 81.956 47.0578 81.956C45.1858 81.956 43.6338 82.772 43.4738 84.724H45.3458C45.4418 83.892 45.9378 83.412 46.9458 83.412C48.0818 83.412 48.4658 83.972 48.4658 85.092V85.524H47.4258C45.0258 85.524 43.1378 86.228 43.1378 88.18C43.1378 89.924 44.4018 90.66 45.9378 90.66ZM46.4018 89.268C45.4418 89.268 45.0578 88.804 45.0578 88.1C45.0578 87.076 46.0018 86.74 47.4738 86.74H48.4658V87.572C48.4658 88.644 47.5858 89.268 46.4018 89.268ZM53.3144 93.364H55.2184L59.7784 82.132H57.8904L55.8424 87.524L53.6184 82.132H51.5224L54.8344 89.652L53.3144 93.364ZM61.2301 90.5H63.1661V85.492C63.1661 84.212 64.0461 83.572 65.0061 83.572C65.9501 83.572 66.4941 84.1 66.4941 85.332V90.5H68.4301V85.492C68.4301 84.212 69.3101 83.572 70.2701 83.572C71.2301 83.572 71.7581 84.1 71.7581 85.332V90.5H73.6941V85.204C73.6941 82.9 72.4461 81.956 70.9101 81.956C69.8701 81.956 68.7181 82.42 68.0781 83.46C67.6621 82.42 66.7981 81.956 65.7101 81.956C64.4781 81.956 63.5661 82.628 63.1661 83.412V82.132H61.2301V90.5ZM79.5976 90.66C81.7416 90.66 83.1656 89.7 83.4376 87.94H81.5656C81.4216 88.756 80.8136 89.22 79.6456 89.22C78.2056 89.22 77.4056 88.324 77.3416 86.74H83.4696V86.18C83.4696 83.188 81.5976 81.956 79.5176 81.956C77.1336 81.956 75.3576 83.684 75.3576 86.276V86.404C75.3576 89.044 77.1336 90.66 79.5976 90.66ZM77.3736 85.444C77.5656 84.148 78.3496 83.364 79.5176 83.364C80.7176 83.364 81.4536 84.004 81.5496 85.444H77.3736ZM85.1989 90.5H87.1349V85.572C87.1349 84.244 88.0149 83.572 89.1029 83.572C90.2549 83.572 90.7669 84.148 90.7669 85.412V90.5H92.7029V85.236C92.7029 82.932 91.5189 81.956 89.8389 81.956C88.4629 81.956 87.5349 82.644 87.1349 83.46V82.132H85.1989V90.5ZM97.7812 90.644C98.3733 90.644 98.7893 90.548 99.0933 90.436V88.9C98.8213 89.012 98.5333 89.06 98.1493 89.06C97.5413 89.06 97.1893 88.724 97.1893 87.988V83.588H99.0293V82.132H97.1893V80.292H95.2533V82.132H94.1333V83.588H95.2533V88.164C95.2533 89.748 96.1173 90.644 97.7812 90.644ZM109.948 90.66C113.18 90.66 115.164 88.74 115.164 85.572V84.516H110.188V86.116H113.068C113.004 87.7 112.124 88.996 109.98 88.996C107.58 88.996 106.444 87.316 106.444 84.868V84.74C106.444 82.228 107.74 80.564 109.98 80.564C111.468 80.564 112.492 81.22 112.748 82.74H114.876C114.572 80.004 112.396 78.884 109.948 78.884C106.604 78.884 104.236 81.316 104.236 84.724V84.852C104.236 88.228 106.284 90.66 109.948 90.66ZM119.25 90.66C120.53 90.66 121.266 90.196 121.81 89.476V90.5H123.714V85.012C123.714 82.724 122.242 81.956 120.37 81.956C118.498 81.956 116.946 82.772 116.786 84.724H118.658C118.754 83.892 119.25 83.412 120.258 83.412C121.394 83.412 121.778 83.972 121.778 85.092V85.524H120.738C118.338 85.524 116.45 86.228 116.45 88.18C116.45 89.924 117.714 90.66 119.25 90.66ZM119.714 89.268C118.754 89.268 118.37 88.804 118.37 88.1C118.37 87.076 119.314 86.74 120.786 86.74H121.778V87.572C121.778 88.644 120.898 89.268 119.714 89.268ZM128.781 90.644C129.373 90.644 129.789 90.548 130.093 90.436V88.9C129.821 89.012 129.533 89.06 129.149 89.06C128.541 89.06 128.189 88.724 128.189 87.988V83.588H130.029V82.132H128.189V80.292H126.253V82.132H125.133V83.588H126.253V88.164C126.253 89.748 127.117 90.644 128.781 90.644ZM135.52 90.66C137.664 90.66 139.088 89.7 139.36 87.94H137.488C137.344 88.756 136.736 89.22 135.568 89.22C134.128 89.22 133.328 88.324 133.264 86.74H139.392V86.18C139.392 83.188 137.52 81.956 135.44 81.956C133.056 81.956 131.28 83.684 131.28 86.276V86.404C131.28 89.044 133.056 90.66 135.52 90.66ZM133.296 85.444C133.488 84.148 134.272 83.364 135.44 83.364C136.64 83.364 137.376 84.004 137.472 85.444H133.296ZM142.693 90.5H144.677L146.373 84.868L147.925 90.5H149.893L152.517 82.132H150.629L148.885 88.18L147.253 82.132H145.637L143.861 88.18L142.197 82.132H140.133L142.693 90.5ZM155.953 90.66C157.233 90.66 157.969 90.196 158.513 89.476V90.5H160.417V85.012C160.417 82.724 158.945 81.956 157.073 81.956C155.201 81.956 153.649 82.772 153.489 84.724H155.361C155.457 83.892 155.953 83.412 156.961 83.412C158.097 83.412 158.481 83.972 158.481 85.092V85.524H157.441C155.041 85.524 153.153 86.228 153.153 88.18C153.153 89.924 154.417 90.66 155.953 90.66ZM156.417 89.268C155.457 89.268 155.073 88.804 155.073 88.1C155.073 87.076 156.017 86.74 157.489 86.74H158.481V87.572C158.481 88.644 157.601 89.268 156.417 89.268ZM163.33 93.364H165.234L169.794 82.132H167.906L165.858 87.524L163.634 82.132H161.538L164.85 89.652L163.33 93.364Z" fill="white"/>
<rect x="131" y="138" width="159" height="43" rx="21.5" fill="url(#paint28_linear_721_7849)"/>
<circle cx="168.5" cy="159.5" r="11.5" fill="white"/>
<path d="M190.312 164.5H192.44V160.148H194.04C196.488 160.148 198.232 159.076 198.232 156.66V156.596C198.232 154.196 196.552 153.06 193.992 153.06H190.312V164.5ZM192.44 158.612V154.708H193.992C195.352 154.708 196.152 155.236 196.152 156.596V156.66C196.152 157.924 195.4 158.612 193.992 158.612H192.44ZM201.938 164.66C203.218 164.66 203.954 164.196 204.498 163.476V164.5H206.402V159.012C206.402 156.724 204.93 155.956 203.058 155.956C201.186 155.956 199.634 156.772 199.474 158.724H201.346C201.442 157.892 201.938 157.412 202.946 157.412C204.082 157.412 204.466 157.972 204.466 159.092V159.524H203.426C201.026 159.524 199.138 160.228 199.138 162.18C199.138 163.924 200.402 164.66 201.938 164.66ZM202.402 163.268C201.442 163.268 201.058 162.804 201.058 162.1C201.058 161.076 202.002 160.74 203.474 160.74H204.466V161.572C204.466 162.644 203.586 163.268 202.402 163.268ZM209.314 167.364H211.218L215.778 156.132H213.89L211.842 161.524L209.618 156.132H207.522L210.834 163.652L209.314 167.364ZM217.23 164.5H219.166V159.492C219.166 158.212 220.046 157.572 221.006 157.572C221.95 157.572 222.494 158.1 222.494 159.332V164.5H224.43V159.492C224.43 158.212 225.31 157.572 226.27 157.572C227.23 157.572 227.758 158.1 227.758 159.332V164.5H229.694V159.204C229.694 156.9 228.446 155.956 226.91 155.956C225.87 155.956 224.718 156.42 224.078 157.46C223.662 156.42 222.798 155.956 221.71 155.956C220.478 155.956 219.566 156.628 219.166 157.412V156.132H217.23V164.5ZM235.598 164.66C237.742 164.66 239.166 163.7 239.438 161.94H237.566C237.422 162.756 236.814 163.22 235.646 163.22C234.206 163.22 233.406 162.324 233.342 160.74H239.47V160.18C239.47 157.188 237.598 155.956 235.518 155.956C233.134 155.956 231.358 157.684 231.358 160.276V160.404C231.358 163.044 233.134 164.66 235.598 164.66ZM233.374 159.444C233.566 158.148 234.35 157.364 235.518 157.364C236.718 157.364 237.454 158.004 237.55 159.444H233.374ZM241.199 164.5H243.135V159.572C243.135 158.244 244.015 157.572 245.103 157.572C246.255 157.572 246.767 158.148 246.767 159.412V164.5H248.703V159.236C248.703 156.932 247.519 155.956 245.839 155.956C244.463 155.956 243.535 156.644 243.135 157.46V156.132H241.199V164.5ZM253.781 164.644C254.373 164.644 254.789 164.548 255.093 164.436V162.9C254.821 163.012 254.533 163.06 254.149 163.06C253.541 163.06 253.189 162.724 253.189 161.988V157.588H255.029V156.132H253.189V154.292H251.253V156.132H250.133V157.588H251.253V162.164C251.253 163.748 252.117 164.644 253.781 164.644ZM259.782 164.66C261.926 164.66 263.126 163.684 263.126 161.988C263.126 160.212 261.958 159.732 259.99 159.428C258.662 159.204 258.262 158.964 258.262 158.356C258.262 157.764 258.758 157.364 259.59 157.364C260.486 157.364 260.918 157.716 261.078 158.484H262.87C262.662 156.596 261.302 155.956 259.59 155.956C258.022 155.956 256.454 156.788 256.454 158.468C256.454 160.036 257.27 160.66 259.478 161.012C260.71 161.22 261.27 161.476 261.27 162.164C261.27 162.868 260.806 163.236 259.766 163.236C258.63 163.236 258.198 162.74 258.102 161.892H256.278C256.358 163.668 257.622 164.66 259.782 164.66Z" fill="white"/>
<rect x="21" y="215" width="105" height="43" rx="21.5" fill="url(#paint29_linear_721_7849)"/>
<circle cx="58.5" cy="236.5" r="11.5" fill="white"/>
<path d="M80.312 241.5H82.44V236.812H86.344V235.164H82.44V231.756H87.4V230.06H80.312V241.5ZM88.5135 241.5H90.6895L93.3775 237.036L96.0655 241.5H98.4975L94.8335 235.58L98.2095 230.06H96.0175L93.6015 234.124L91.1695 230.06H88.7695L92.1935 235.628L88.5135 241.5Z" fill="white"/>
<rect x="58" y="302" width="221" height="43" rx="21.5" fill="url(#paint30_linear_721_7849)"/>
<circle cx="95.5" cy="323.5" r="11.5" fill="white"/>
<path d="M122.448 328.66C125.68 328.66 127.664 326.74 127.664 323.572V322.516H122.688V324.116H125.568C125.504 325.7 124.624 326.996 122.48 326.996C120.08 326.996 118.944 325.316 118.944 322.868V322.74C118.944 320.228 120.24 318.564 122.48 318.564C123.968 318.564 124.992 319.22 125.248 320.74H127.376C127.072 318.004 124.896 316.884 122.448 316.884C119.104 316.884 116.736 319.316 116.736 322.724V322.852C116.736 326.228 118.784 328.66 122.448 328.66ZM129.606 328.5H131.542V316.26H129.606V328.5ZM137.646 327.156C136.174 327.156 135.326 326.084 135.326 324.372V324.244C135.326 322.516 136.206 321.476 137.646 321.476C139.086 321.476 139.95 322.532 139.95 324.26V324.372C139.95 326.084 139.086 327.156 137.646 327.156ZM137.63 328.66C140.094 328.66 141.934 326.964 141.934 324.356V324.228C141.934 321.668 140.094 319.956 137.646 319.956C135.182 319.956 133.342 321.684 133.342 324.276V324.404C133.342 326.948 135.166 328.66 137.63 328.66ZM148.355 328.66C150.515 328.66 152.067 327.028 152.067 324.34V324.212C152.067 321.508 150.451 319.956 148.355 319.956C147.123 319.956 146.083 320.676 145.619 321.476V316.26H143.683V328.5H145.619V327.156C146.067 328.004 147.027 328.66 148.355 328.66ZM147.875 327.124C146.467 327.124 145.555 326.244 145.555 324.372V324.244C145.555 322.388 146.515 321.476 147.859 321.476C149.123 321.476 150.083 322.388 150.083 324.244V324.372C150.083 326.164 149.299 327.124 147.875 327.124ZM156 328.66C157.28 328.66 158.016 328.196 158.56 327.476V328.5H160.464V323.012C160.464 320.724 158.992 319.956 157.12 319.956C155.248 319.956 153.696 320.772 153.536 322.724H155.408C155.504 321.892 156 321.412 157.008 321.412C158.144 321.412 158.528 321.972 158.528 323.092V323.524H157.488C155.088 323.524 153.2 324.228 153.2 326.18C153.2 327.924 154.464 328.66 156 328.66ZM156.464 327.268C155.504 327.268 155.12 326.804 155.12 326.1C155.12 325.076 156.064 324.74 157.536 324.74H158.528V325.572C158.528 326.644 157.648 327.268 156.464 327.268ZM162.731 328.5H164.667V316.26H162.731V328.5ZM171 328.5H178.424V326.82H173.128V323.476H177.16V321.876H173.128V318.74H178.152V317.06H171V328.5ZM179.445 328.5H181.461L183.461 325.476L185.413 328.5H187.669L184.677 324.068L187.381 320.132H185.349L183.621 322.836L181.877 320.132H179.637L182.357 324.212L179.445 328.5ZM192.254 328.66C194.526 328.66 195.982 327.3 196.126 325.38H194.35C194.238 326.564 193.358 327.172 192.334 327.172C190.91 327.172 190.014 326.212 190.014 324.388V324.26C190.014 322.532 190.958 321.508 192.286 321.508C193.31 321.508 194.046 321.972 194.206 323.092H196.078C195.854 320.788 194.11 319.956 192.254 319.956C189.918 319.956 188.03 321.636 188.03 324.292V324.42C188.03 327.092 189.854 328.66 192.254 328.66ZM197.793 328.5H199.729V323.572C199.729 322.244 200.609 321.572 201.697 321.572C202.849 321.572 203.361 322.148 203.361 323.412V328.5H205.297V323.236C205.297 320.932 204.113 319.956 202.433 319.956C201.057 319.956 200.129 320.644 199.729 321.46V316.26H197.793V328.5ZM209.719 328.66C210.999 328.66 211.735 328.196 212.279 327.476V328.5H214.183V323.012C214.183 320.724 212.711 319.956 210.839 319.956C208.967 319.956 207.415 320.772 207.255 322.724H209.127C209.223 321.892 209.719 321.412 210.727 321.412C211.863 321.412 212.247 321.972 212.247 323.092V323.524H211.207C208.807 323.524 206.919 324.228 206.919 326.18C206.919 327.924 208.183 328.66 209.719 328.66ZM210.183 327.268C209.223 327.268 208.839 326.804 208.839 326.1C208.839 325.076 209.783 324.74 211.255 324.74H212.247V325.572C212.247 326.644 211.367 327.268 210.183 327.268ZM216.402 328.5H218.338V323.572C218.338 322.244 219.218 321.572 220.306 321.572C221.458 321.572 221.97 322.148 221.97 323.412V328.5H223.906V323.236C223.906 320.932 222.722 319.956 221.042 319.956C219.666 319.956 218.738 320.644 218.338 321.46V320.132H216.402V328.5ZM229.704 331.572C232.296 331.572 233.944 330.34 233.96 327.876V320.132H232.024V321.412C231.544 320.58 230.712 319.956 229.336 319.956C227.176 319.956 225.576 321.716 225.576 324.068V324.18C225.576 326.596 227.192 328.164 229.288 328.164C230.52 328.164 231.56 327.412 232.024 326.612V327.844C232.024 329.348 231.192 330.1 229.688 330.1C228.424 330.1 227.784 329.62 227.624 328.788H225.672C225.896 330.388 227.08 331.572 229.704 331.572ZM229.768 326.676C228.52 326.676 227.56 325.716 227.56 324.164V324.036C227.56 322.516 228.392 321.476 229.832 321.476C231.224 321.476 232.088 322.42 232.088 324.004V324.116C232.088 325.716 231.112 326.676 229.768 326.676ZM239.941 328.66C242.085 328.66 243.509 327.7 243.781 325.94H241.909C241.765 326.756 241.157 327.22 239.989 327.22C238.549 327.22 237.749 326.324 237.685 324.74H243.813V324.18C243.813 321.188 241.941 319.956 239.861 319.956C237.477 319.956 235.701 321.684 235.701 324.276V324.404C235.701 327.044 237.477 328.66 239.941 328.66ZM237.717 323.444C237.909 322.148 238.693 321.364 239.861 321.364C241.061 321.364 241.797 322.004 241.893 323.444H237.717ZM248.485 328.66C250.629 328.66 251.829 327.684 251.829 325.988C251.829 324.212 250.661 323.732 248.693 323.428C247.365 323.204 246.965 322.964 246.965 322.356C246.965 321.764 247.461 321.364 248.293 321.364C249.189 321.364 249.621 321.716 249.781 322.484H251.573C251.365 320.596 250.005 319.956 248.293 319.956C246.725 319.956 245.157 320.788 245.157 322.468C245.157 324.036 245.973 324.66 248.181 325.012C249.413 325.22 249.973 325.476 249.973 326.164C249.973 326.868 249.509 327.236 248.469 327.236C247.333 327.236 246.901 326.74 246.805 325.892H244.981C245.061 327.668 246.325 328.66 248.485 328.66Z" fill="white"/>
<rect x="16" y="405" width="172" height="43" rx="21.5" fill="url(#paint31_linear_721_7849)"/>
<circle cx="53.5" cy="426.5" r="11.5" fill="white"/>
<path d="M75.312 431.5H77.44V426.876H78.8L81.792 431.5H84.096L80.88 426.556C82.304 426.188 83.424 425.276 83.424 423.484V423.42C83.424 421.084 81.664 420.06 79.152 420.06H75.312V431.5ZM77.44 425.356V421.708H79.152C80.512 421.708 81.328 422.156 81.328 423.468V423.532C81.328 424.748 80.576 425.356 79.152 425.356H77.44ZM89.0039 431.66C91.1479 431.66 92.5719 430.7 92.8439 428.94H90.9719C90.8279 429.756 90.2199 430.22 89.0519 430.22C87.6119 430.22 86.8119 429.324 86.7479 427.74H92.8759V427.18C92.8759 424.188 91.0039 422.956 88.9239 422.956C86.5399 422.956 84.7639 424.684 84.7639 427.276V427.404C84.7639 430.044 86.5399 431.66 89.0039 431.66ZM86.7799 426.444C86.9719 425.148 87.7559 424.364 88.9239 424.364C90.1239 424.364 90.8599 425.004 90.9559 426.444H86.7799ZM94.6051 431.5H96.5411V426.492C96.5411 425.212 97.4211 424.572 98.3811 424.572C99.3251 424.572 99.8691 425.1 99.8691 426.332V431.5H101.805V426.492C101.805 425.212 102.685 424.572 103.645 424.572C104.605 424.572 105.133 425.1 105.133 426.332V431.5H107.069V426.204C107.069 423.9 105.821 422.956 104.285 422.956C103.245 422.956 102.093 423.42 101.453 424.46C101.037 423.42 100.173 422.956 99.0851 422.956C97.8531 422.956 96.9411 423.628 96.5411 424.412V423.132H94.6051V431.5ZM109.341 431.5H111.277V423.132H109.341V431.5ZM110.285 421.756C110.925 421.756 111.437 421.276 111.437 420.652C111.437 420.012 110.925 419.532 110.285 419.532C109.645 419.532 109.133 420.012 109.133 420.652C109.133 421.276 109.645 421.756 110.285 421.756ZM116.484 431.644C117.076 431.644 117.492 431.548 117.796 431.436V429.9C117.524 430.012 117.236 430.06 116.852 430.06C116.244 430.06 115.892 429.724 115.892 428.988V424.588H117.732V423.132H115.892V421.292H113.956V423.132H112.836V424.588H113.956V429.164C113.956 430.748 114.82 431.644 116.484 431.644ZM122.391 431.644C122.983 431.644 123.399 431.548 123.703 431.436V429.9C123.431 430.012 123.143 430.06 122.759 430.06C122.151 430.06 121.799 429.724 121.799 428.988V424.588H123.639V423.132H121.799V421.292H119.863V423.132H118.743V424.588H119.863V429.164C119.863 430.748 120.727 431.644 122.391 431.644ZM127.719 431.66C128.999 431.66 129.735 431.196 130.279 430.476V431.5H132.183V426.012C132.183 423.724 130.711 422.956 128.839 422.956C126.967 422.956 125.415 423.772 125.255 425.724H127.127C127.223 424.892 127.719 424.412 128.727 424.412C129.863 424.412 130.247 424.972 130.247 426.092V426.524H129.207C126.807 426.524 124.919 427.228 124.919 429.18C124.919 430.924 126.183 431.66 127.719 431.66ZM128.183 430.268C127.223 430.268 126.839 429.804 126.839 429.1C126.839 428.076 127.783 427.74 129.255 427.74H130.247V428.572C130.247 429.644 129.367 430.268 128.183 430.268ZM134.402 431.5H136.338V426.572C136.338 425.244 137.218 424.572 138.306 424.572C139.458 424.572 139.97 425.148 139.97 426.412V431.5H141.906V426.236C141.906 423.932 140.722 422.956 139.042 422.956C137.666 422.956 136.738 423.644 136.338 424.46V423.132H134.402V431.5ZM147.8 431.66C150.072 431.66 151.528 430.3 151.672 428.38H149.896C149.784 429.564 148.904 430.172 147.88 430.172C146.456 430.172 145.56 429.212 145.56 427.388V427.26C145.56 425.532 146.504 424.508 147.832 424.508C148.856 424.508 149.592 424.972 149.752 426.092H151.624C151.4 423.788 149.656 422.956 147.8 422.956C145.464 422.956 143.576 424.636 143.576 427.292V427.42C143.576 430.092 145.4 431.66 147.8 431.66ZM157.02 431.66C159.164 431.66 160.588 430.7 160.86 428.94H158.988C158.844 429.756 158.236 430.22 157.068 430.22C155.628 430.22 154.828 429.324 154.764 427.74H160.892V427.18C160.892 424.188 159.02 422.956 156.94 422.956C154.556 422.956 152.78 424.684 152.78 427.276V427.404C152.78 430.044 154.556 431.66 157.02 431.66ZM154.796 426.444C154.988 425.148 155.772 424.364 156.94 424.364C158.14 424.364 158.876 425.004 158.972 426.444H154.796Z" fill="white"/>
<path d="M898.035 27L898.035 25.9648L897 25.9648L569.372 25.9647C441.016 25.9647 336.965 130.146 336.965 258.5C336.965 386.854 441.016 491.035 569.372 491.035L897 491.035L898.035 491.035L898.035 490L898.035 27Z" fill="url(#paint32_linear_721_7849)" stroke="url(#paint33_linear_721_7849)" stroke-width="2.07044"/>
<g clip-path="url(#clip2_721_7849)">
<line opacity="0.3" x1="364.311" y1="93.0703" x2="364.311" y2="481.826" stroke="url(#paint34_linear_721_7849)" stroke-width="0.932269"/>
<line opacity="0.3" x1="404.398" y1="93.0703" x2="404.398" y2="481.826" stroke="url(#paint35_linear_721_7849)" stroke-width="0.932269"/>
<line opacity="0.3" x1="444.486" y1="23.8975" x2="444.486" y2="550.629" stroke="url(#paint36_linear_721_7849)" stroke-width="0.932269"/>
<line opacity="0.3" x1="486.792" y1="23.8975" x2="486.792" y2="550.629" stroke="url(#paint37_linear_721_7849)" stroke-width="0.932269"/>
<line opacity="0.3" x1="524.295" y1="23.8975" x2="524.295" y2="550.629" stroke="url(#paint38_linear_721_7849)" stroke-width="0.932269"/>
<line opacity="0.3" x1="564.749" y1="23.8975" x2="564.749" y2="550.629" stroke="url(#paint39_linear_721_7849)" stroke-width="0.932269"/>
<line opacity="0.3" x1="604.835" y1="23.8975" x2="604.835" y2="550.629" stroke="url(#paint40_linear_721_7849)" stroke-width="0.932269"/>
<line opacity="0.3" x1="644.923" y1="23.8975" x2="644.923" y2="550.629" stroke="url(#paint41_linear_721_7849)" stroke-width="0.932269"/>
<line opacity="0.3" x1="685.012" y1="23.8975" x2="685.012" y2="550.629" stroke="url(#paint42_linear_721_7849)" stroke-width="0.932269"/>
<line opacity="0.3" x1="725.099" y1="23.8975" x2="725.099" y2="550.629" stroke="url(#paint43_linear_721_7849)" stroke-width="0.932269"/>
<line opacity="0.3" x1="765.186" y1="23.8975" x2="765.186" y2="550.629" stroke="url(#paint44_linear_721_7849)" stroke-width="0.932269"/>
<line opacity="0.3" x1="807.652" y1="23.8975" x2="807.652" y2="550.629" stroke="url(#paint45_linear_721_7849)" stroke-width="0.932269"/>
<line opacity="0.3" x1="812.236" y1="51.0345" x2="423.48" y2="51.0345" stroke="url(#paint46_linear_721_7849)" stroke-width="0.932269"/>
<line opacity="0.3" x1="812.236" y1="91.1214" x2="423.48" y2="91.1214" stroke="url(#paint47_linear_721_7849)" stroke-width="0.932269"/>
<line opacity="0.3" x1="881.408" y1="131.209" x2="354.676" y2="131.209" stroke="url(#paint48_linear_721_7849)" stroke-width="0.932269"/>
<line opacity="0.3" x1="881.408" y1="173.516" x2="354.676" y2="173.516" stroke="url(#paint49_linear_721_7849)" stroke-width="0.932269"/>
<line opacity="0.3" x1="881.408" y1="211.019" x2="354.676" y2="211.019" stroke="url(#paint50_linear_721_7849)" stroke-width="0.932269"/>
<line opacity="0.3" x1="881.408" y1="251.473" x2="354.676" y2="251.473" stroke="url(#paint51_linear_721_7849)" stroke-width="0.932269"/>
<line opacity="0.3" x1="881.408" y1="291.559" x2="354.676" y2="291.559" stroke="url(#paint52_linear_721_7849)" stroke-width="0.932269"/>
<line opacity="0.3" x1="881.408" y1="331.647" x2="354.676" y2="331.647" stroke="url(#paint53_linear_721_7849)" stroke-width="0.932269"/>
<line opacity="0.3" x1="881.408" y1="371.735" x2="354.676" y2="371.735" stroke="url(#paint54_linear_721_7849)" stroke-width="0.932269"/>
<line opacity="0.3" x1="881.408" y1="411.823" x2="354.676" y2="411.823" stroke="url(#paint55_linear_721_7849)" stroke-width="0.932269"/>
<line opacity="0.3" x1="881.408" y1="451.909" x2="354.676" y2="451.909" stroke="url(#paint56_linear_721_7849)" stroke-width="0.932269"/>
<rect x="486" y="69" width="221" height="43" rx="21.5" fill="url(#paint57_linear_721_7849)"/>
<circle cx="523.5" cy="90.5" r="11.5" fill="white"/>
<path d="M545.312 95.5H547.44V90.812H551.344V89.164H547.44V85.756H552.4V84.06H545.312V95.5ZM557.427 94.156C555.955 94.156 555.107 93.084 555.107 91.372V91.244C555.107 89.516 555.987 88.476 557.427 88.476C558.867 88.476 559.731 89.532 559.731 91.26V91.372C559.731 93.084 558.867 94.156 557.427 94.156ZM557.411 95.66C559.875 95.66 561.715 93.964 561.715 91.356V91.228C561.715 88.668 559.875 86.956 557.427 86.956C554.963 86.956 553.123 88.684 553.123 91.276V91.404C553.123 93.948 554.947 95.66 557.411 95.66ZM563.465 95.5H565.401V91.148C565.401 89.372 566.424 88.828 568.121 88.812V87.004C566.713 87.02 565.929 87.644 565.401 88.7V87.132H563.465V95.5ZM573.348 95.66C575.492 95.66 576.916 94.7 577.188 92.94H575.316C575.172 93.756 574.564 94.22 573.396 94.22C571.956 94.22 571.156 93.324 571.092 91.74H577.22V91.18C577.22 88.188 575.348 86.956 573.268 86.956C570.884 86.956 569.108 88.684 569.108 91.276V91.404C569.108 94.044 570.884 95.66 573.348 95.66ZM571.124 90.444C571.316 89.148 572.1 88.364 573.268 88.364C574.468 88.364 575.204 89.004 575.3 90.444H571.124ZM578.997 95.5H580.933V87.132H578.997V95.5ZM579.941 85.756C580.581 85.756 581.093 85.276 581.093 84.652C581.093 84.012 580.581 83.532 579.941 83.532C579.301 83.532 578.789 84.012 578.789 84.652C578.789 85.276 579.301 85.756 579.941 85.756ZM586.861 98.572C589.453 98.572 591.101 97.34 591.117 94.876V87.132H589.181V88.412C588.701 87.58 587.869 86.956 586.493 86.956C584.333 86.956 582.733 88.716 582.733 91.068V91.18C582.733 93.596 584.349 95.164 586.445 95.164C587.677 95.164 588.717 94.412 589.181 93.612V94.844C589.181 96.348 588.349 97.1 586.845 97.1C585.581 97.1 584.941 96.62 584.781 95.788H582.829C583.053 97.388 584.237 98.572 586.861 98.572ZM586.925 93.676C585.677 93.676 584.717 92.716 584.717 91.164V91.036C584.717 89.516 585.549 88.476 586.989 88.476C588.381 88.476 589.245 89.42 589.245 91.004V91.116C589.245 92.716 588.269 93.676 586.925 93.676ZM593.418 95.5H595.354V90.572C595.354 89.244 596.234 88.572 597.322 88.572C598.474 88.572 598.986 89.148 598.986 90.412V95.5H600.922V90.236C600.922 87.932 599.738 86.956 598.058 86.956C596.682 86.956 595.754 87.644 595.354 88.46V87.132H593.418V95.5ZM607.125 95.5H614.549V93.82H609.253V90.476H613.285V88.876H609.253V85.74H614.277V84.06H607.125V95.5ZM615.57 95.5H617.586L619.586 92.476L621.538 95.5H623.794L620.802 91.068L623.506 87.132H621.474L619.746 89.836L618.002 87.132H615.762L618.482 91.212L615.57 95.5ZM628.379 95.66C630.651 95.66 632.107 94.3 632.251 92.38H630.475C630.363 93.564 629.483 94.172 628.459 94.172C627.035 94.172 626.139 93.212 626.139 91.388V91.26C626.139 89.532 627.083 88.508 628.411 88.508C629.435 88.508 630.171 88.972 630.331 90.092H632.203C631.979 87.788 630.235 86.956 628.379 86.956C626.043 86.956 624.155 88.636 624.155 91.292V91.42C624.155 94.092 625.979 95.66 628.379 95.66ZM633.918 95.5H635.854V90.572C635.854 89.244 636.734 88.572 637.822 88.572C638.974 88.572 639.486 89.148 639.486 90.412V95.5H641.422V90.236C641.422 87.932 640.238 86.956 638.558 86.956C637.182 86.956 636.254 87.644 635.854 88.46V83.26H633.918V95.5ZM645.844 95.66C647.124 95.66 647.86 95.196 648.404 94.476V95.5H650.308V90.012C650.308 87.724 648.836 86.956 646.964 86.956C645.092 86.956 643.54 87.772 643.38 89.724H645.252C645.348 88.892 645.844 88.412 646.852 88.412C647.988 88.412 648.372 88.972 648.372 90.092V90.524H647.332C644.932 90.524 643.044 91.228 643.044 93.18C643.044 94.924 644.308 95.66 645.844 95.66ZM646.308 94.268C645.348 94.268 644.964 93.804 644.964 93.1C644.964 92.076 645.908 91.74 647.38 91.74H648.372V92.572C648.372 93.644 647.492 94.268 646.308 94.268ZM652.527 95.5H654.463V90.572C654.463 89.244 655.343 88.572 656.431 88.572C657.583 88.572 658.095 89.148 658.095 90.412V95.5H660.031V90.236C660.031 87.932 658.847 86.956 657.167 86.956C655.791 86.956 654.863 87.644 654.463 88.46V87.132H652.527V95.5ZM665.829 98.572C668.421 98.572 670.069 97.34 670.085 94.876V87.132H668.149V88.412C667.669 87.58 666.837 86.956 665.461 86.956C663.301 86.956 661.701 88.716 661.701 91.068V91.18C661.701 93.596 663.317 95.164 665.413 95.164C666.645 95.164 667.685 94.412 668.149 93.612V94.844C668.149 96.348 667.317 97.1 665.813 97.1C664.549 97.1 663.909 96.62 663.749 95.788H661.797C662.021 97.388 663.205 98.572 665.829 98.572ZM665.893 93.676C664.645 93.676 663.685 92.716 663.685 91.164V91.036C663.685 89.516 664.517 88.476 665.957 88.476C667.349 88.476 668.213 89.42 668.213 91.004V91.116C668.213 92.716 667.237 93.676 665.893 93.676ZM676.066 95.66C678.21 95.66 679.634 94.7 679.906 92.94H678.034C677.89 93.756 677.282 94.22 676.114 94.22C674.674 94.22 673.874 93.324 673.81 91.74H679.938V91.18C679.938 88.188 678.066 86.956 675.986 86.956C673.602 86.956 671.826 88.684 671.826 91.276V91.404C671.826 94.044 673.602 95.66 676.066 95.66ZM673.842 90.444C674.034 89.148 674.818 88.364 675.986 88.364C677.186 88.364 677.922 89.004 678.018 90.444H673.842Z" fill="white"/>
<rect x="564" y="161" width="181" height="44" rx="22" fill="url(#paint58_linear_721_7849)"/>
<circle cx="601.5" cy="183.5" r="11.5" fill="white"/>
<path d="M631.013 188.66C633.541 188.66 635.22 187.108 635.22 185.124C635.22 182.836 633.829 182.068 631.141 181.7C629.157 181.412 628.773 180.948 628.773 180.02C628.773 179.14 629.445 178.516 630.741 178.516C632.053 178.516 632.741 179.028 632.949 180.228H634.901C634.677 178.036 633.205 176.916 630.741 176.916C628.357 176.916 626.757 178.324 626.757 180.196C626.757 182.34 628.053 183.172 630.789 183.54C632.645 183.844 633.173 184.244 633.173 185.3C633.173 186.356 632.277 187.06 631.013 187.06C629.077 187.06 628.613 186.1 628.469 184.948H626.421C626.581 187.108 627.893 188.66 631.013 188.66ZM640.801 188.66C642.945 188.66 644.369 187.7 644.641 185.94H642.769C642.625 186.756 642.017 187.22 640.849 187.22C639.409 187.22 638.609 186.324 638.545 184.74H644.673V184.18C644.673 181.188 642.801 179.956 640.721 179.956C638.337 179.956 636.561 181.684 636.561 184.276V184.404C636.561 187.044 638.337 188.66 640.801 188.66ZM638.577 183.444C638.769 182.148 639.553 181.364 640.721 181.364C641.921 181.364 642.657 182.004 642.753 183.444H638.577ZM649.25 188.644C649.842 188.644 650.258 188.548 650.562 188.436V186.9C650.29 187.012 650.002 187.06 649.618 187.06C649.01 187.06 648.658 186.724 648.658 185.988V181.588H650.498V180.132H648.658V178.292H646.722V180.132H645.602V181.588H646.722V186.164C646.722 187.748 647.586 188.644 649.25 188.644ZM655.156 188.644C655.748 188.644 656.164 188.548 656.468 188.436V186.9C656.196 187.012 655.908 187.06 655.524 187.06C654.916 187.06 654.564 186.724 654.564 185.988V181.588H656.404V180.132H654.564V178.292H652.628V180.132H651.508V181.588H652.628V186.164C652.628 187.748 653.492 188.644 655.156 188.644ZM658.263 188.5H660.199V176.26H658.263V188.5ZM666.238 188.66C668.382 188.66 669.806 187.7 670.078 185.94H668.206C668.062 186.756 667.454 187.22 666.286 187.22C664.846 187.22 664.046 186.324 663.982 184.74H670.11V184.18C670.11 181.188 668.238 179.956 666.158 179.956C663.774 179.956 661.998 181.684 661.998 184.276V184.404C661.998 187.044 663.774 188.66 666.238 188.66ZM664.014 183.444C664.206 182.148 664.99 181.364 666.158 181.364C667.358 181.364 668.094 182.004 668.19 183.444H664.014ZM671.84 188.5H673.776V183.492C673.776 182.212 674.656 181.572 675.616 181.572C676.56 181.572 677.104 182.1 677.104 183.332V188.5H679.04V183.492C679.04 182.212 679.92 181.572 680.88 181.572C681.84 181.572 682.368 182.1 682.368 183.332V188.5H684.304V183.204C684.304 180.9 683.056 179.956 681.52 179.956C680.48 179.956 679.328 180.42 678.688 181.46C678.272 180.42 677.408 179.956 676.32 179.956C675.088 179.956 674.176 180.628 673.776 181.412V180.132H671.84V188.5ZM690.207 188.66C692.351 188.66 693.775 187.7 694.047 185.94H692.175C692.031 186.756 691.423 187.22 690.255 187.22C688.815 187.22 688.015 186.324 687.951 184.74H694.079V184.18C694.079 181.188 692.207 179.956 690.127 179.956C687.743 179.956 685.967 181.684 685.967 184.276V184.404C685.967 187.044 687.743 188.66 690.207 188.66ZM687.983 183.444C688.175 182.148 688.959 181.364 690.127 181.364C691.327 181.364 692.063 182.004 692.159 183.444H687.983ZM695.808 188.5H697.744V183.572C697.744 182.244 698.624 181.572 699.712 181.572C700.864 181.572 701.376 182.148 701.376 183.412V188.5H703.312V183.236C703.312 180.932 702.128 179.956 700.448 179.956C699.072 179.956 698.144 180.644 697.744 181.46V180.132H695.808V188.5ZM708.391 188.644C708.983 188.644 709.399 188.548 709.703 188.436V186.9C709.431 187.012 709.143 187.06 708.759 187.06C708.151 187.06 707.799 186.724 707.799 185.988V181.588H709.639V180.132H707.799V178.292H705.863V180.132H704.743V181.588H705.863V186.164C705.863 187.748 706.727 188.644 708.391 188.644ZM714.391 188.66C716.535 188.66 717.735 187.684 717.735 185.988C717.735 184.212 716.567 183.732 714.599 183.428C713.271 183.204 712.871 182.964 712.871 182.356C712.871 181.764 713.367 181.364 714.199 181.364C715.095 181.364 715.527 181.716 715.687 182.484H717.479C717.271 180.596 715.911 179.956 714.199 179.956C712.631 179.956 711.063 180.788 711.063 182.468C711.063 184.036 711.879 184.66 714.087 185.012C715.319 185.22 715.879 185.476 715.879 186.164C715.879 186.868 715.415 187.236 714.375 187.236C713.239 187.236 712.807 186.74 712.711 185.892H710.887C710.967 187.668 712.231 188.66 714.391 188.66Z" fill="white"/>
<rect x="535" y="254" width="110" height="43" rx="21.5" fill="url(#paint59_linear_721_7849)"/>
<circle cx="572.5" cy="275.5" r="11.5" fill="white"/>
<path d="M593.432 280.5H595.432L596.328 277.668H600.696L601.608 280.5H603.816L600.04 269.06H597.256L593.432 280.5ZM598.52 270.804L600.2 276.116H596.824L598.52 270.804ZM605.562 280.5H607.69V276.148H609.29C611.738 276.148 613.482 275.076 613.482 272.66V272.596C613.482 270.196 611.802 269.06 609.242 269.06H605.562V280.5ZM607.69 274.612V270.708H609.242C610.602 270.708 611.402 271.236 611.402 272.596V272.66C611.402 273.924 610.65 274.612 609.242 274.612H607.69ZM615.376 280.5H617.52V269.06H615.376V280.5Z" fill="white"/>
<rect x="481" y="341" width="151" height="43" rx="21.5" fill="url(#paint60_linear_721_7849)"/>
<circle cx="518.5" cy="362.5" r="11.5" fill="white"/>
<path d="M542.6 367.5H544.744V357.74H547.928V356.06H539.416V357.74H542.6V367.5ZM548.918 367.5H550.854V363.148C550.854 361.372 551.878 360.828 553.574 360.812V359.004C552.166 359.02 551.382 359.644 550.854 360.7V359.132H548.918V367.5ZM558.801 367.66C560.945 367.66 562.369 366.7 562.641 364.94H560.769C560.625 365.756 560.017 366.22 558.849 366.22C557.409 366.22 556.609 365.324 556.545 363.74H562.673V363.18C562.673 360.188 560.801 358.956 558.721 358.956C556.337 358.956 554.561 360.684 554.561 363.276V363.404C554.561 366.044 556.337 367.66 558.801 367.66ZM556.577 362.444C556.769 361.148 557.553 360.364 558.721 360.364C559.921 360.364 560.657 361.004 560.753 362.444H556.577ZM566.672 367.66C567.952 367.66 568.688 367.196 569.232 366.476V367.5H571.136V362.012C571.136 359.724 569.664 358.956 567.792 358.956C565.92 358.956 564.368 359.772 564.208 361.724H566.08C566.176 360.892 566.672 360.412 567.68 360.412C568.816 360.412 569.2 360.972 569.2 362.092V362.524H568.16C565.76 362.524 563.872 363.228 563.872 365.18C563.872 366.924 565.136 367.66 566.672 367.66ZM567.136 366.268C566.176 366.268 565.792 365.804 565.792 365.1C565.792 364.076 566.736 363.74 568.208 363.74H569.2V364.572C569.2 365.644 568.32 366.268 567.136 366.268ZM576.219 367.66C578.363 367.66 579.563 366.684 579.563 364.988C579.563 363.212 578.395 362.732 576.427 362.428C575.099 362.204 574.699 361.964 574.699 361.356C574.699 360.764 575.195 360.364 576.027 360.364C576.923 360.364 577.355 360.716 577.515 361.484H579.307C579.099 359.596 577.739 358.956 576.027 358.956C574.459 358.956 572.891 359.788 572.891 361.468C572.891 363.036 573.707 363.66 575.915 364.012C577.147 364.22 577.707 364.476 577.707 365.164C577.707 365.868 577.243 366.236 576.203 366.236C575.067 366.236 574.635 365.74 574.539 364.892H572.715C572.795 366.668 574.059 367.66 576.219 367.66ZM584.061 367.66C585.421 367.66 586.301 367.004 586.717 366.188V367.5H588.653V359.132H586.717V364.108C586.717 365.436 585.805 366.108 584.765 366.108C583.645 366.108 583.117 365.532 583.117 364.268V359.132H581.181V364.492C581.181 366.716 582.413 367.66 584.061 367.66ZM590.949 367.5H592.885V363.148C592.885 361.372 593.909 360.828 595.605 360.812V359.004C594.197 359.02 593.413 359.644 592.885 360.7V359.132H590.949V367.5ZM598.314 370.364H600.218L604.778 359.132H602.89L600.842 364.524L598.618 359.132H596.522L599.834 366.652L598.314 370.364Z" fill="white"/>
<rect x="634" y="399" width="167" height="43" rx="21.5" fill="url(#paint61_linear_721_7849)"/>
<circle cx="671.5" cy="420.5" r="11.5" fill="white"/>
<path d="M692.432 425.5H694.432L695.328 422.668H699.696L700.608 425.5H702.816L699.04 414.06H696.256L692.432 425.5ZM697.52 415.804L699.2 421.116H695.824L697.52 415.804ZM706.968 425.66C708.328 425.66 709.208 425.004 709.624 424.188V425.5H711.56V417.132H709.624V422.108C709.624 423.436 708.712 424.108 707.672 424.108C706.552 424.108 706.024 423.532 706.024 422.268V417.132H704.088V422.492C704.088 424.716 705.32 425.66 706.968 425.66ZM716.991 425.66C718.223 425.66 719.295 424.924 719.743 424.092V425.5H721.679V413.26H719.743V418.412C719.279 417.58 718.431 416.956 717.071 416.956C714.895 416.956 713.311 418.652 713.311 421.324V421.452C713.311 424.172 714.895 425.66 716.991 425.66ZM717.471 424.124C716.223 424.124 715.295 423.244 715.295 421.404V421.276C715.295 419.468 716.127 418.476 717.551 418.476C718.959 418.476 719.807 419.388 719.807 421.228V421.356C719.807 423.228 718.815 424.124 717.471 424.124ZM724.028 425.5H725.964V417.132H724.028V425.5ZM724.972 415.756C725.612 415.756 726.124 415.276 726.124 414.652C726.124 414.012 725.612 413.532 724.972 413.532C724.332 413.532 723.82 414.012 723.82 414.652C723.82 415.276 724.332 415.756 724.972 415.756ZM731.172 425.644C731.764 425.644 732.18 425.548 732.484 425.436V423.9C732.212 424.012 731.924 424.06 731.54 424.06C730.932 424.06 730.58 423.724 730.58 422.988V418.588H732.42V417.132H730.58V415.292H728.644V417.132H727.524V418.588H728.644V423.164C728.644 424.748 729.508 425.644 731.172 425.644ZM740.891 425.644C741.483 425.644 741.899 425.548 742.203 425.436V423.9C741.931 424.012 741.643 424.06 741.259 424.06C740.651 424.06 740.299 423.724 740.299 422.988V418.588H742.139V417.132H740.299V415.292H738.363V417.132H737.243V418.588H738.363V423.164C738.363 424.748 739.227 425.644 740.891 425.644ZM743.949 425.5H745.885V421.148C745.885 419.372 746.909 418.828 748.605 418.812V417.004C747.197 417.02 746.413 417.644 745.885 418.7V417.132H743.949V425.5ZM752.344 425.66C753.624 425.66 754.36 425.196 754.904 424.476V425.5H756.808V420.012C756.808 417.724 755.336 416.956 753.464 416.956C751.592 416.956 750.04 417.772 749.88 419.724H751.752C751.848 418.892 752.344 418.412 753.352 418.412C754.488 418.412 754.872 418.972 754.872 420.092V420.524H753.832C751.432 420.524 749.544 421.228 749.544 423.18C749.544 424.924 750.808 425.66 752.344 425.66ZM752.808 424.268C751.848 424.268 751.464 423.804 751.464 423.1C751.464 422.076 752.408 421.74 753.88 421.74H754.872V422.572C754.872 423.644 753.992 424.268 752.808 424.268ZM759.075 425.5H761.011V417.132H759.075V425.5ZM760.019 415.756C760.659 415.756 761.171 415.276 761.171 414.652C761.171 414.012 760.659 413.532 760.019 413.532C759.379 413.532 758.867 414.012 758.867 414.652C758.867 415.276 759.379 415.756 760.019 415.756ZM763.419 425.5H765.355V413.26H763.419V425.5ZM770.579 425.66C772.723 425.66 773.923 424.684 773.923 422.988C773.923 421.212 772.755 420.732 770.786 420.428C769.459 420.204 769.059 419.964 769.059 419.356C769.059 418.764 769.555 418.364 770.387 418.364C771.283 418.364 771.715 418.716 771.875 419.484H773.667C773.459 417.596 772.099 416.956 770.387 416.956C768.819 416.956 767.251 417.788 767.251 419.468C767.251 421.036 768.067 421.66 770.275 422.012C771.507 422.22 772.067 422.476 772.067 423.164C772.067 423.868 771.603 424.236 770.562 424.236C769.427 424.236 768.995 423.74 768.899 422.892H767.075C767.155 424.668 768.419 425.66 770.579 425.66Z" fill="white"/>
</g>
<circle cx="395.5" cy="240.5" r="90.5" fill="url(#paint62_linear_721_7849)"/>
<circle cx="395.5" cy="240.5" r="68.5" fill="white"/>
<path d="M419.09 211.19C416.101 216.408 413.224 221.436 410.185 226.746C411.101 226.825 411.693 226.922 412.285 226.922C417.054 226.936 421.823 226.926 426.592 226.945C428.169 226.95 428.317 227.19 427.55 228.518C421.902 238.3 416.226 248.069 410.602 257.866C410.061 258.81 409.371 258.995 408.414 258.995C403.331 258.976 398.247 259.027 393.164 258.967C391.943 258.953 391.24 259.397 390.661 260.415C388.205 264.735 385.707 269.028 383.21 273.32C382.965 273.746 382.622 274.111 382.164 274.722C380.809 272.427 379.588 270.374 378.385 268.311C376.887 265.734 375.457 263.116 373.894 260.581C373.177 259.416 373.163 258.495 373.885 257.297C376.503 252.954 379.01 248.541 381.549 244.152C381.697 243.897 381.757 243.592 381.956 243.051C375.948 243.051 370.115 243.051 364 243.051C364.25 242.399 364.338 242.015 364.527 241.686C370.198 231.857 375.86 222.023 381.595 212.231C381.938 211.648 382.863 211.061 383.52 211.056C394.889 210.982 406.263 211.001 417.637 211.005C417.989 211.005 418.345 211.093 419.09 211.19ZM409.677 227.347C408.96 227.25 408.469 227.125 407.979 227.125C402.997 227.111 398.016 227.148 393.034 227.098C391.882 227.084 391.226 227.505 390.671 228.485C388.483 232.357 386.216 236.182 383.996 240.035C383.515 240.872 383.094 241.746 382.539 242.81C383.325 242.857 383.834 242.907 384.338 242.907C388.27 242.917 392.225 242.658 396.129 242.991C399.575 243.282 401.878 242.357 402.951 238.967C403.011 238.777 403.187 238.624 403.294 238.444C405.38 234.827 407.456 231.205 409.677 227.347Z" fill="url(#paint63_linear_721_7849)"/>
<g filter="url(#filter0_d_721_7849)">
<ellipse cx="110" cy="27" rx="123" ry="1" fill="url(#paint64_linear_721_7849)" shape-rendering="crispEdges"/>
</g>
<g filter="url(#filter1_d_721_7849)">
<ellipse cx="116" cy="491" rx="123" ry="1" fill="url(#paint65_linear_721_7849)" shape-rendering="crispEdges"/>
</g>
<g filter="url(#filter2_d_721_7849)">
<ellipse cx="735" cy="26" rx="104" ry="1.00001" transform="rotate(180 735 26)" fill="url(#paint66_linear_721_7849)" shape-rendering="crispEdges"/>
</g>
</g>
<defs>
<filter id="filter0_d_721_7849" x="-24" y="15" width="268" height="24" filterUnits="userSpaceOnUse" color-interpolation-filters="sRGB">
<feFlood flood-opacity="0" result="BackgroundImageFix"/>
<feColorMatrix in="SourceAlpha" type="matrix" values="0 0 0 0 0 0 0 0 0 0 0 0 0 0 0 0 0 0 127 0" result="hardAlpha"/>
<feMorphology radius="1" operator="dilate" in="SourceAlpha" result="effect1_dropShadow_721_7849"/>
<feOffset/>
<feGaussianBlur stdDeviation="5"/>
<feComposite in2="hardAlpha" operator="out"/>
<feColorMatrix type="matrix" values="0 0 0 0 0 0 0 0 0 0.28 0 0 0 0 1 0 0 0 0.2 0"/>
<feBlend mode="normal" in2="BackgroundImageFix" result="effect1_dropShadow_721_7849"/>
<feBlend mode="normal" in="SourceGraphic" in2="effect1_dropShadow_721_7849" result="shape"/>
</filter>
<filter id="filter1_d_721_7849" x="-12" y="485" width="256" height="12" filterUnits="userSpaceOnUse" color-interpolation-filters="sRGB">
<feFlood flood-opacity="0" result="BackgroundImageFix"/>
<feColorMatrix in="SourceAlpha" type="matrix" values="0 0 0 0 0 0 0 0 0 0 0 0 0 0 0 0 0 0 127 0" result="hardAlpha"/>
<feOffset/>
<feGaussianBlur stdDeviation="2.5"/>
<feComposite in2="hardAlpha" operator="out"/>
<feColorMatrix type="matrix" values="0 0 0 0 0 0 0 0 0 0.28 0 0 0 0 1 0 0 0 0.3 0"/>
<feBlend mode="normal" in2="BackgroundImageFix" result="effect1_dropShadow_721_7849"/>
<feBlend mode="normal" in="SourceGraphic" in2="effect1_dropShadow_721_7849" result="shape"/>
</filter>
<filter id="filter2_d_721_7849" x="620" y="14" width="230" height="24" filterUnits="userSpaceOnUse" color-interpolation-filters="sRGB">
<feFlood flood-opacity="0" result="BackgroundImageFix"/>
<feColorMatrix in="SourceAlpha" type="matrix" values="0 0 0 0 0 0 0 0 0 0 0 0 0 0 0 0 0 0 127 0" result="hardAlpha"/>
<feMorphology radius="1" operator="dilate" in="SourceAlpha" result="effect1_dropShadow_721_7849"/>
<feOffset/>
<feGaussianBlur stdDeviation="5"/>
<feComposite in2="hardAlpha" operator="out"/>
<feColorMatrix type="matrix" values="0 0 0 0 0 0 0 0 0 0.28 0 0 0 0 1 0 0 0 0.67 0"/>
<feBlend mode="normal" in2="BackgroundImageFix" result="effect1_dropShadow_721_7849"/>
<feBlend mode="normal" in="SourceGraphic" in2="effect1_dropShadow_721_7849" result="shape"/>
</filter>
<linearGradient id="paint0_linear_721_7849" x1="451.314" y1="234.269" x2="-71.0002" y2="231" gradientUnits="userSpaceOnUse">
<stop stop-color="#2964BB" stop-opacity="0.91"/>
<stop offset="0.944269" stop-color="#4F4F4F" stop-opacity="0"/>
</linearGradient>
<linearGradient id="paint1_linear_721_7849" x1="487.029" y1="231.441" x2="-42.2914" y2="236.382" gradientUnits="userSpaceOnUse">
<stop stop-color="#00349A"/>
<stop offset="0.411458" stop-color="#AFC1FF" stop-opacity="0.59"/>
<stop offset="1" stop-color="#708AE6" stop-opacity="0"/>
</linearGradient>
<linearGradient id="paint2_linear_721_7849" x1="339.933" y1="49.8282" x2="4.64647" y2="49.8277" gradientUnits="userSpaceOnUse">
<stop stop-color="#689BFF" stop-opacity="0.33"/>
<stop offset="0.649746" stop-color="#759CE8" stop-opacity="0.115584"/>
<stop offset="1" stop-color="#7C9CDB" stop-opacity="0"/>
</linearGradient>
<linearGradient id="paint3_linear_721_7849" x1="311.946" y1="89.9151" x2="-142.339" y2="89.9142" gradientUnits="userSpaceOnUse">
<stop stop-color="#689BFF" stop-opacity="0.33"/>
<stop offset="0.649746" stop-color="#759CE8" stop-opacity="0.115584"/>
<stop offset="1" stop-color="#7C9CDB" stop-opacity="0"/>
</linearGradient>
<linearGradient id="paint4_linear_721_7849" x1="38.2889" y1="66.7142" x2="38.288" y2="521" gradientUnits="userSpaceOnUse">
<stop stop-color="#689BFF" stop-opacity="0.33"/>
<stop offset="0.649746" stop-color="#759CE8" stop-opacity="0.115584"/>
<stop offset="1" stop-color="#7C9CDB" stop-opacity="0"/>
</linearGradient>
<linearGradient id="paint5_linear_721_7849" x1="347.782" y1="132.222" x2="-106.504" y2="132.221" gradientUnits="userSpaceOnUse">
<stop stop-color="#689BFF" stop-opacity="0.33"/>
<stop offset="0.649746" stop-color="#759CE8" stop-opacity="0.115584"/>
<stop offset="1" stop-color="#7C9CDB" stop-opacity="0"/>
</linearGradient>
<linearGradient id="paint6_linear_721_7849" x1="80.5946" y1="66.7142" x2="80.5937" y2="521" gradientUnits="userSpaceOnUse">
<stop stop-color="#689BFF" stop-opacity="0.33"/>
<stop offset="0.649746" stop-color="#759CE8" stop-opacity="0.115584"/>
<stop offset="1" stop-color="#7C9CDB" stop-opacity="0"/>
</linearGradient>
<linearGradient id="paint7_linear_721_7849" x1="366.117" y1="169.725" x2="-88.1685" y2="169.724" gradientUnits="userSpaceOnUse">
<stop stop-color="#689BFF" stop-opacity="0.33"/>
<stop offset="0.649746" stop-color="#759CE8" stop-opacity="0.115584"/>
<stop offset="1" stop-color="#7C9CDB" stop-opacity="0"/>
</linearGradient>
<linearGradient id="paint8_linear_721_7849" x1="118.098" y1="66.7142" x2="118.098" y2="521" gradientUnits="userSpaceOnUse">
<stop stop-color="#689BFF" stop-opacity="0.33"/>
<stop offset="0.649746" stop-color="#759CE8" stop-opacity="0.115584"/>
<stop offset="1" stop-color="#7C9CDB" stop-opacity="0"/>
</linearGradient>
<linearGradient id="paint9_linear_721_7849" x1="377.136" y1="210.179" x2="-77.149" y2="210.178" gradientUnits="userSpaceOnUse">
<stop stop-color="#689BFF" stop-opacity="0.33"/>
<stop offset="0.649746" stop-color="#759CE8" stop-opacity="0.115584"/>
<stop offset="1" stop-color="#7C9CDB" stop-opacity="0"/>
</linearGradient>
<linearGradient id="paint10_linear_721_7849" x1="158.552" y1="66.7142" x2="158.551" y2="521" gradientUnits="userSpaceOnUse">
<stop stop-color="#689BFF" stop-opacity="0.33"/>
<stop offset="0.649746" stop-color="#759CE8" stop-opacity="0.115584"/>
<stop offset="1" stop-color="#7C9CDB" stop-opacity="0"/>
</linearGradient>
<linearGradient id="paint11_linear_721_7849" x1="384.637" y1="250.267" x2="-69.648" y2="250.266" gradientUnits="userSpaceOnUse">
<stop stop-color="#689BFF" stop-opacity="0.33"/>
<stop offset="0.649746" stop-color="#759CE8" stop-opacity="0.115584"/>
<stop offset="1" stop-color="#7C9CDB" stop-opacity="0"/>
</linearGradient>
<linearGradient id="paint12_linear_721_7849" x1="198.639" y1="66.7142" x2="198.638" y2="521" gradientUnits="userSpaceOnUse">
<stop stop-color="#689BFF" stop-opacity="0.33"/>
<stop offset="0.649746" stop-color="#759CE8" stop-opacity="0.115584"/>
<stop offset="1" stop-color="#7C9CDB" stop-opacity="0"/>
</linearGradient>
<linearGradient id="paint13_linear_721_7849" x1="382.136" y1="290.354" x2="-72.149" y2="290.353" gradientUnits="userSpaceOnUse">
<stop stop-color="#689BFF" stop-opacity="0.33"/>
<stop offset="0.649746" stop-color="#759CE8" stop-opacity="0.115584"/>
<stop offset="1" stop-color="#7C9CDB" stop-opacity="0"/>
</linearGradient>
<linearGradient id="paint14_linear_721_7849" x1="238.726" y1="66.7142" x2="238.725" y2="521" gradientUnits="userSpaceOnUse">
<stop stop-color="#689BFF" stop-opacity="0.33"/>
<stop offset="0.649746" stop-color="#759CE8" stop-opacity="0.115584"/>
<stop offset="1" stop-color="#7C9CDB" stop-opacity="0"/>
</linearGradient>
<linearGradient id="paint15_linear_721_7849" x1="372.969" y1="330.441" x2="-81.316" y2="330.441" gradientUnits="userSpaceOnUse">
<stop stop-color="#689BFF" stop-opacity="0.33"/>
<stop offset="0.649746" stop-color="#759CE8" stop-opacity="0.115584"/>
<stop offset="1" stop-color="#7C9CDB" stop-opacity="0"/>
</linearGradient>
<linearGradient id="paint16_linear_721_7849" x1="278.815" y1="66.7142" x2="278.814" y2="521" gradientUnits="userSpaceOnUse">
<stop stop-color="#689BFF" stop-opacity="0.33"/>
<stop offset="0.649746" stop-color="#759CE8" stop-opacity="0.115584"/>
<stop offset="1" stop-color="#7C9CDB" stop-opacity="0"/>
</linearGradient>
<linearGradient id="paint17_linear_721_7849" x1="355.282" y1="370.528" x2="-99.0035" y2="370.528" gradientUnits="userSpaceOnUse">
<stop stop-color="#689BFF" stop-opacity="0.33"/>
<stop offset="0.649746" stop-color="#759CE8" stop-opacity="0.115584"/>
<stop offset="1" stop-color="#7C9CDB" stop-opacity="0"/>
</linearGradient>
<linearGradient id="paint18_linear_721_7849" x1="318.901" y1="66.7142" x2="318.901" y2="521" gradientUnits="userSpaceOnUse">
<stop stop-color="#689BFF" stop-opacity="0.33"/>
<stop offset="0.649746" stop-color="#759CE8" stop-opacity="0.115584"/>
<stop offset="1" stop-color="#7C9CDB" stop-opacity="0"/>
</linearGradient>
<linearGradient id="paint19_linear_721_7849" x1="322.78" y1="410.616" x2="-131.505" y2="410.615" gradientUnits="userSpaceOnUse">
<stop stop-color="#689BFF" stop-opacity="0.33"/>
<stop offset="0.649746" stop-color="#759CE8" stop-opacity="0.115584"/>
<stop offset="1" stop-color="#7C9CDB" stop-opacity="0"/>
</linearGradient>
<linearGradient id="paint20_linear_721_7849" x1="358.989" y1="66.7142" x2="358.988" y2="521" gradientUnits="userSpaceOnUse">
<stop stop-color="#689BFF" stop-opacity="0.33"/>
<stop offset="0.649746" stop-color="#759CE8" stop-opacity="0.115584"/>
<stop offset="1" stop-color="#7C9CDB" stop-opacity="0"/>
</linearGradient>
<linearGradient id="paint21_linear_721_7849" x1="272.776" y1="453.081" x2="-181.509" y2="453.08" gradientUnits="userSpaceOnUse">
<stop stop-color="#689BFF" stop-opacity="0.33"/>
<stop offset="0.649746" stop-color="#759CE8" stop-opacity="0.115584"/>
<stop offset="1" stop-color="#7C9CDB" stop-opacity="0"/>
</linearGradient>
<linearGradient id="paint22_linear_721_7849" x1="401.454" y1="66.7142" x2="401.453" y2="521" gradientUnits="userSpaceOnUse">
<stop stop-color="#689BFF" stop-opacity="0.33"/>
<stop offset="0.649746" stop-color="#759CE8" stop-opacity="0.115584"/>
<stop offset="1" stop-color="#7C9CDB" stop-opacity="0"/>
</linearGradient>
<linearGradient id="paint23_linear_721_7849" x1="284.537" y1="15.5426" x2="270.165" y2="64.1057" gradientUnits="userSpaceOnUse">
<stop stop-color="#BCDBFF"/>
<stop offset="0.411458" stop-color="#AFC1FF" stop-opacity="0.59"/>
<stop offset="1" stop-color="#708AE6" stop-opacity="0"/>
</linearGradient>
<linearGradient id="paint24_linear_721_7849" x1="495.874" y1="511.166" x2="510.246" y2="462.603" gradientUnits="userSpaceOnUse">
<stop stop-color="#BCDBFF"/>
<stop offset="0.411458" stop-color="#AFC1FF" stop-opacity="0.59"/>
<stop offset="1" stop-color="#708AE6" stop-opacity="0"/>
</linearGradient>
<linearGradient id="paint25_linear_721_7849" x1="464.23" y1="10.397" x2="476.129" y2="58.7455" gradientUnits="userSpaceOnUse">
<stop stop-color="#00349A"/>
<stop offset="0.411458" stop-color="#AFC1FF" stop-opacity="0.59"/>
<stop offset="1" stop-color="#708AE6" stop-opacity="0"/>
</linearGradient>
<linearGradient id="paint26_linear_721_7849" x1="316.183" y1="516.312" x2="304.284" y2="467.963" gradientUnits="userSpaceOnUse">
<stop stop-color="#00349A"/>
<stop offset="0.411458" stop-color="#AFC1FF" stop-opacity="0.59"/>
<stop offset="1" stop-color="#708AE6" stop-opacity="0"/>
</linearGradient>
<linearGradient id="paint27_linear_721_7849" x1="86" y1="85.5" x2="-16.8382" y2="85.5" gradientUnits="userSpaceOnUse">
<stop stop-color="#445266"/>
<stop offset="1" stop-color="#445266" stop-opacity="0"/>
</linearGradient>
<linearGradient id="paint28_linear_721_7849" x1="210.5" y1="159.5" x2="136.846" y2="159.5" gradientUnits="userSpaceOnUse">
<stop stop-color="#445266"/>
<stop offset="1" stop-color="#445266" stop-opacity="0"/>
</linearGradient>
<linearGradient id="paint29_linear_721_7849" x1="73.5" y1="236.5" x2="24.8603" y2="236.5" gradientUnits="userSpaceOnUse">
<stop stop-color="#445266"/>
<stop offset="1" stop-color="#445266" stop-opacity="0"/>
</linearGradient>
<linearGradient id="paint30_linear_721_7849" x1="168.5" y1="323.5" x2="66.125" y2="323.5" gradientUnits="userSpaceOnUse">
<stop stop-color="#445266"/>
<stop offset="1" stop-color="#445266" stop-opacity="0"/>
</linearGradient>
<linearGradient id="paint31_linear_721_7849" x1="102" y1="426.5" x2="22.3235" y2="426.5" gradientUnits="userSpaceOnUse">
<stop stop-color="#445266"/>
<stop offset="1" stop-color="#445266" stop-opacity="0"/>
</linearGradient>
<linearGradient id="paint32_linear_721_7849" x1="444.5" y1="278" x2="897" y2="283.119" gradientUnits="userSpaceOnUse">
<stop stop-color="#2964BB" stop-opacity="0.6"/>
<stop offset="0.944269" stop-color="#4F4F4F" stop-opacity="0"/>
</linearGradient>
<linearGradient id="paint33_linear_721_7849" x1="295.614" y1="285.949" x2="923.775" y2="278.993" gradientUnits="userSpaceOnUse">
<stop stop-color="#00349A"/>
<stop offset="0.411458" stop-color="#AFC1FF" stop-opacity="0.59"/>
<stop offset="1" stop-color="#708AE6" stop-opacity="0"/>
</linearGradient>
<linearGradient id="paint34_linear_721_7849" x1="363.453" y1="142.309" x2="363.453" y2="477.596" gradientUnits="userSpaceOnUse">
<stop stop-color="#689BFF" stop-opacity="0.33"/>
<stop offset="0.649746" stop-color="#759CE8" stop-opacity="0.115584"/>
<stop offset="1" stop-color="#7C9CDB" stop-opacity="0"/>
</linearGradient>
<linearGradient id="paint35_linear_721_7849" x1="403.54" y1="142.309" x2="403.54" y2="477.596" gradientUnits="userSpaceOnUse">
<stop stop-color="#689BFF" stop-opacity="0.33"/>
<stop offset="0.649746" stop-color="#759CE8" stop-opacity="0.115584"/>
<stop offset="1" stop-color="#7C9CDB" stop-opacity="0"/>
</linearGradient>
<linearGradient id="paint36_linear_721_7849" x1="443.628" y1="90.6116" x2="443.627" y2="544.897" gradientUnits="userSpaceOnUse">
<stop stop-color="#689BFF" stop-opacity="0.33"/>
<stop offset="0.649746" stop-color="#759CE8" stop-opacity="0.115584"/>
<stop offset="1" stop-color="#7C9CDB" stop-opacity="0"/>
</linearGradient>
<linearGradient id="paint37_linear_721_7849" x1="485.935" y1="90.6116" x2="485.934" y2="544.897" gradientUnits="userSpaceOnUse">
<stop stop-color="#689BFF" stop-opacity="0.33"/>
<stop offset="0.649746" stop-color="#759CE8" stop-opacity="0.115584"/>
<stop offset="1" stop-color="#7C9CDB" stop-opacity="0"/>
</linearGradient>
<linearGradient id="paint38_linear_721_7849" x1="523.438" y1="90.6116" x2="523.437" y2="544.897" gradientUnits="userSpaceOnUse">
<stop stop-color="#689BFF" stop-opacity="0.33"/>
<stop offset="0.649746" stop-color="#759CE8" stop-opacity="0.115584"/>
<stop offset="1" stop-color="#7C9CDB" stop-opacity="0"/>
</linearGradient>
<linearGradient id="paint39_linear_721_7849" x1="563.892" y1="90.6116" x2="563.891" y2="544.897" gradientUnits="userSpaceOnUse">
<stop stop-color="#689BFF" stop-opacity="0.33"/>
<stop offset="0.649746" stop-color="#759CE8" stop-opacity="0.115584"/>
<stop offset="1" stop-color="#7C9CDB" stop-opacity="0"/>
</linearGradient>
<linearGradient id="paint40_linear_721_7849" x1="603.978" y1="90.6116" x2="603.977" y2="544.897" gradientUnits="userSpaceOnUse">
<stop stop-color="#689BFF" stop-opacity="0.33"/>
<stop offset="0.649746" stop-color="#759CE8" stop-opacity="0.115584"/>
<stop offset="1" stop-color="#7C9CDB" stop-opacity="0"/>
</linearGradient>
<linearGradient id="paint41_linear_721_7849" x1="644.065" y1="90.6116" x2="644.065" y2="544.897" gradientUnits="userSpaceOnUse">
<stop stop-color="#689BFF" stop-opacity="0.33"/>
<stop offset="0.649746" stop-color="#759CE8" stop-opacity="0.115584"/>
<stop offset="1" stop-color="#7C9CDB" stop-opacity="0"/>
</linearGradient>
<linearGradient id="paint42_linear_721_7849" x1="684.154" y1="90.6116" x2="684.153" y2="544.897" gradientUnits="userSpaceOnUse">
<stop stop-color="#689BFF" stop-opacity="0.33"/>
<stop offset="0.649746" stop-color="#759CE8" stop-opacity="0.115584"/>
<stop offset="1" stop-color="#7C9CDB" stop-opacity="0"/>
</linearGradient>
<linearGradient id="paint43_linear_721_7849" x1="724.241" y1="90.6116" x2="724.24" y2="544.897" gradientUnits="userSpaceOnUse">
<stop stop-color="#689BFF" stop-opacity="0.33"/>
<stop offset="0.649746" stop-color="#759CE8" stop-opacity="0.115584"/>
<stop offset="1" stop-color="#7C9CDB" stop-opacity="0"/>
</linearGradient>
<linearGradient id="paint44_linear_721_7849" x1="764.328" y1="90.6116" x2="764.327" y2="544.897" gradientUnits="userSpaceOnUse">
<stop stop-color="#689BFF" stop-opacity="0.33"/>
<stop offset="0.649746" stop-color="#759CE8" stop-opacity="0.115584"/>
<stop offset="1" stop-color="#7C9CDB" stop-opacity="0"/>
</linearGradient>
<linearGradient id="paint45_linear_721_7849" x1="806.794" y1="90.6116" x2="806.793" y2="544.897" gradientUnits="userSpaceOnUse">
<stop stop-color="#689BFF" stop-opacity="0.33"/>
<stop offset="0.649746" stop-color="#759CE8" stop-opacity="0.115584"/>
<stop offset="1" stop-color="#7C9CDB" stop-opacity="0"/>
</linearGradient>
<linearGradient id="paint46_linear_721_7849" x1="762.998" y1="50.1768" x2="427.711" y2="50.1763" gradientUnits="userSpaceOnUse">
<stop stop-color="#689BFF" stop-opacity="0.33"/>
<stop offset="0.649746" stop-color="#759CE8" stop-opacity="0.115584"/>
<stop offset="1" stop-color="#7C9CDB" stop-opacity="0"/>
</linearGradient>
<linearGradient id="paint47_linear_721_7849" x1="762.998" y1="90.2637" x2="427.711" y2="90.2632" gradientUnits="userSpaceOnUse">
<stop stop-color="#689BFF" stop-opacity="0.33"/>
<stop offset="0.649746" stop-color="#759CE8" stop-opacity="0.115584"/>
<stop offset="1" stop-color="#7C9CDB" stop-opacity="0"/>
</linearGradient>
<linearGradient id="paint48_linear_721_7849" x1="814.694" y1="130.352" x2="360.409" y2="130.351" gradientUnits="userSpaceOnUse">
<stop stop-color="#689BFF" stop-opacity="0.33"/>
<stop offset="0.649746" stop-color="#759CE8" stop-opacity="0.115584"/>
<stop offset="1" stop-color="#7C9CDB" stop-opacity="0"/>
</linearGradient>
<linearGradient id="paint49_linear_721_7849" x1="814.694" y1="172.658" x2="360.409" y2="172.657" gradientUnits="userSpaceOnUse">
<stop stop-color="#689BFF" stop-opacity="0.33"/>
<stop offset="0.649746" stop-color="#759CE8" stop-opacity="0.115584"/>
<stop offset="1" stop-color="#7C9CDB" stop-opacity="0"/>
</linearGradient>
<linearGradient id="paint50_linear_721_7849" x1="814.694" y1="210.161" x2="360.409" y2="210.16" gradientUnits="userSpaceOnUse">
<stop stop-color="#689BFF" stop-opacity="0.33"/>
<stop offset="0.649746" stop-color="#759CE8" stop-opacity="0.115584"/>
<stop offset="1" stop-color="#7C9CDB" stop-opacity="0"/>
</linearGradient>
<linearGradient id="paint51_linear_721_7849" x1="814.694" y1="250.615" x2="360.409" y2="250.614" gradientUnits="userSpaceOnUse">
<stop stop-color="#689BFF" stop-opacity="0.33"/>
<stop offset="0.649746" stop-color="#759CE8" stop-opacity="0.115584"/>
<stop offset="1" stop-color="#7C9CDB" stop-opacity="0"/>
</linearGradient>
<linearGradient id="paint52_linear_721_7849" x1="814.694" y1="290.701" x2="360.409" y2="290.7" gradientUnits="userSpaceOnUse">
<stop stop-color="#689BFF" stop-opacity="0.33"/>
<stop offset="0.649746" stop-color="#759CE8" stop-opacity="0.115584"/>
<stop offset="1" stop-color="#7C9CDB" stop-opacity="0"/>
</linearGradient>
<linearGradient id="paint53_linear_721_7849" x1="814.694" y1="330.789" x2="360.409" y2="330.788" gradientUnits="userSpaceOnUse">
<stop stop-color="#689BFF" stop-opacity="0.33"/>
<stop offset="0.649746" stop-color="#759CE8" stop-opacity="0.115584"/>
<stop offset="1" stop-color="#7C9CDB" stop-opacity="0"/>
</linearGradient>
<linearGradient id="paint54_linear_721_7849" x1="814.694" y1="370.877" x2="360.409" y2="370.876" gradientUnits="userSpaceOnUse">
<stop stop-color="#689BFF" stop-opacity="0.33"/>
<stop offset="0.649746" stop-color="#759CE8" stop-opacity="0.115584"/>
<stop offset="1" stop-color="#7C9CDB" stop-opacity="0"/>
</linearGradient>
<linearGradient id="paint55_linear_721_7849" x1="814.694" y1="410.965" x2="360.409" y2="410.964" gradientUnits="userSpaceOnUse">
<stop stop-color="#689BFF" stop-opacity="0.33"/>
<stop offset="0.649746" stop-color="#759CE8" stop-opacity="0.115584"/>
<stop offset="1" stop-color="#7C9CDB" stop-opacity="0"/>
</linearGradient>
<linearGradient id="paint56_linear_721_7849" x1="814.694" y1="451.052" x2="360.409" y2="451.051" gradientUnits="userSpaceOnUse">
<stop stop-color="#689BFF" stop-opacity="0.33"/>
<stop offset="0.649746" stop-color="#759CE8" stop-opacity="0.115584"/>
<stop offset="1" stop-color="#7C9CDB" stop-opacity="0"/>
</linearGradient>
<linearGradient id="paint57_linear_721_7849" x1="486" y1="90" x2="696.5" y2="90" gradientUnits="userSpaceOnUse">
<stop stop-color="#445266"/>
<stop offset="1" stop-color="#445266" stop-opacity="0"/>
</linearGradient>
<linearGradient id="paint58_linear_721_7849" x1="564" y1="182.488" x2="736.4" y2="182.488" gradientUnits="userSpaceOnUse">
<stop stop-color="#445266"/>
<stop offset="1" stop-color="#445266" stop-opacity="0"/>
</linearGradient>
<linearGradient id="paint59_linear_721_7849" x1="535" y1="275" x2="639.774" y2="275" gradientUnits="userSpaceOnUse">
<stop stop-color="#445266"/>
<stop offset="1" stop-color="#445266" stop-opacity="0"/>
</linearGradient>
<linearGradient id="paint60_linear_721_7849" x1="481" y1="362" x2="624.826" y2="362" gradientUnits="userSpaceOnUse">
<stop stop-color="#445266"/>
<stop offset="1" stop-color="#445266" stop-opacity="0"/>
</linearGradient>
<linearGradient id="paint61_linear_721_7849" x1="634" y1="420" x2="793.066" y2="420" gradientUnits="userSpaceOnUse">
<stop stop-color="#445266"/>
<stop offset="1" stop-color="#445266" stop-opacity="0"/>
</linearGradient>
<linearGradient id="paint62_linear_721_7849" x1="305" y1="240.5" x2="486" y2="240.5" gradientUnits="userSpaceOnUse">
<stop stop-color="#ACB6E5"/>
<stop offset="1" stop-color="#86A7FD"/>
</linearGradient>
<linearGradient id="paint63_linear_721_7849" x1="364" y1="242.861" x2="428" y2="242.861" gradientUnits="userSpaceOnUse">
<stop stop-color="#0052D4"/>
<stop offset="0.5" stop-color="#4364F7"/>
<stop offset="1" stop-color="#6FB1FC"/>
</linearGradient>
<linearGradient id="paint64_linear_721_7849" x1="223.538" y1="26" x2="81.8302" y2="40.0726" gradientUnits="userSpaceOnUse">
<stop stop-color="#689BFF"/>
<stop offset="1" stop-opacity="0"/>
</linearGradient>
<linearGradient id="paint65_linear_721_7849" x1="229.538" y1="490" x2="87.8302" y2="504.073" gradientUnits="userSpaceOnUse">
<stop stop-color="#689BFF"/>
<stop offset="1" stop-opacity="0"/>
</linearGradient>
<linearGradient id="paint66_linear_721_7849" x1="831" y1="25" x2="710.847" y2="35.0887" gradientUnits="userSpaceOnUse">
<stop stop-color="#689BFF"/>
<stop offset="1" stop-opacity="0"/>
</linearGradient>
<clipPath id="clip0_721_7849">
<rect width="881" height="527" fill="white"/>
</clipPath>
<clipPath id="clip1_721_7849">
<path d="M-69.8313 33.4395H226.859C353.895 33.4395 456.878 136.422 456.878 263.458V263.458C456.878 390.494 353.895 493.477 226.859 493.477H-69.8313V33.4395Z" fill="white"/>
</clipPath>
<clipPath id="clip2_721_7849">
<path d="M858.71 484.037L562.019 484.037C434.984 484.037 332.001 381.054 332.001 254.018C332.001 126.983 434.984 23.9999 562.019 23.9999L858.71 24L858.71 484.037Z" fill="white"/>
</clipPath>
</defs>
</svg>
