<svg width="146" height="146" viewBox="0 0 146 146" fill="none" xmlns="http://www.w3.org/2000/svg">
<circle cx="73" cy="73" r="73" fill="#FFE8D2"/>
<mask id="mask0_950_8800" style="mask-type:alpha" maskUnits="userSpaceOnUse" x="0" y="0" width="146" height="146">
<circle cx="73" cy="73" r="73" fill="#FFE8D2"/>
</mask>
<g mask="url(#mask0_950_8800)">
<line x1="154" y1="7.5" x2="-3" y2="7.5" stroke="white"/>
<line x1="154" y1="20.5" x2="-3" y2="20.5" stroke="white"/>
<line x1="164" y1="33.5" x2="-13" y2="33.5" stroke="white"/>
<line x1="174" y1="46.5" x2="-23" y2="46.5" stroke="white"/>
<line x1="182" y1="59.5" x2="-31" y2="59.5" stroke="white"/>
</g>
<line x1="73.5" y1="37" x2="73.5" y2="-2.18557e-08" stroke="white"/>
<line x1="113" y1="98.5" x2="38" y2="98.5" stroke="white"/>
<line x1="61.4474" y1="46.2233" x2="39.4475" y2="90.3063" stroke="white"/>
<line x1="108.561" y1="90.2394" x2="84.5611" y2="46.2394" stroke="white"/>
<circle cx="39" cy="87" r="22" fill="white"/>
<circle cx="108" cy="87" r="22" fill="white"/>
<circle cx="73" cy="34" r="19" fill="white"/>
<path d="M81 28L70 39L65 34" stroke="#673B01" stroke-width="2" stroke-linecap="round" stroke-linejoin="round"/>
<path d="M37.1868 98.0002H38.9093V94.9674C42.7427 94.7006 44.7807 92.3714 44.7807 89.46C44.7807 86.0876 42.5486 84.8745 38.9093 84.3165V79.9737C40.1952 80.2163 40.8018 80.9927 41.0201 82.2543H44.4895C44.1984 79.1245 42.2089 77.4747 38.9093 77.1836V75H37.1868V77.1593C33.7173 77.4019 31.4852 79.4642 31.4852 82.2543C31.4852 85.4568 33.3291 86.864 37.1868 87.4706V92.1531C35.2701 91.8619 34.7606 90.7216 34.5907 89.3144H31C31.1941 92.3714 32.9895 94.6763 37.1868 94.9674V98.0002ZM41.1899 89.8725C41.1899 91.0613 40.3165 91.9105 38.9093 92.1531V87.7374C40.7047 88.1256 41.1899 88.7079 41.1899 89.8725ZM34.9789 81.9389C34.9789 80.9199 35.7553 80.1192 37.1868 79.9251V84.0254C35.3914 83.6615 34.9789 83.0549 34.9789 81.9389Z" fill="#673B01"/>
<path d="M102.44 94.7292V88.596H101V86.7585H102.44V84.9707H101V83.1332H102.44V77H106.339L108.275 83.1332H110.535V77H113.291V83.1332H114.707V84.9707H113.291V86.7585H114.707V88.596H113.291V94.7292H109.368L107.382 88.596H105.196V94.7292H102.44ZM105.196 86.7585H106.835L106.289 84.9707H105.147L105.196 86.7585ZM110.61 90.8556H110.734L110.634 88.596H109.964L110.61 90.8556ZM105.097 83.1332H105.792L105.072 80.7495H104.973L105.097 83.1332ZM109.442 86.7585H110.585L110.535 84.9707H108.871L109.442 86.7585Z" fill="#673B01"/>
<line x1="37.5" y1="138" x2="37.5" y2="100" stroke="white"/>
<line x1="107.5" y1="138" x2="107.5" y2="100" stroke="white"/>
</svg>
