<svg width="64" height="64" viewBox="0 0 64 64" fill="none" xmlns="http://www.w3.org/2000/svg">
<g clip-path="url(#clip0_1018_8084)">
<path d="M32 64C49.6731 64 64 49.6731 64 32C64 14.3269 49.6731 0 32 0C14.3269 0 0 14.3269 0 32C0 49.6731 14.3269 64 32 64Z" fill="#F0F0F0"/>
<path d="M31.9995 0C19.3128 0 8.3508 7.38312 3.1748 18.087H60.8242C55.6483 7.38312 44.6862 0 31.9995 0Z" fill="black"/>
<path d="M31.9995 64.0011C19.3128 64.0011 8.3508 56.6179 3.1748 45.9141H60.8242C55.6483 56.6179 44.6862 64.0011 31.9995 64.0011Z" fill="#496E2D"/>
<path d="M62.4889 22.2607H1.51112C0.530875 25.3319 0 28.6037 0 31.9999C0 35.396 0.530875 38.6679 1.51112 41.739H62.4887C63.4691 38.6679 64 35.396 64 31.9999C64 28.6037 63.4691 25.3319 62.4889 22.2607Z" fill="#A2001D"/>
<path d="M41.9659 14.7882L38.1762 13.0391L32.0015 27.0204L25.8267 13.0391L22.0371 14.7882L29.7031 32.0006L22.0371 49.2129L25.8267 50.9621L32.0015 36.9807L38.1762 50.9621L41.9659 49.2129L34.2999 32.0006L41.9659 14.7882Z" fill="#F0F0F0"/>
<path d="M34.5755 16.4372C33.1085 14.8351 32.0016 13.9141 32.0016 13.9141C32.0016 13.9141 30.8947 14.8349 29.4277 16.4372V47.5647C30.8947 49.1671 32.0016 50.0881 32.0016 50.0881C32.0016 50.0881 33.1085 49.1672 34.5755 47.5648V16.4372Z" fill="#F0F0F0"/>
<path d="M25.0449 22.4051V41.5941C26.5952 44.3409 28.4925 46.5924 29.9145 48.0852V15.9141C28.4925 17.4067 26.595 19.6583 25.0449 22.4051Z" fill="#A2001D"/>
<path d="M38.9585 22.4051C37.4081 19.6582 35.5109 17.4067 34.0889 15.9141V48.0852C35.5107 46.5924 37.4081 44.3409 38.9585 41.5941V22.4051Z" fill="#A2001D"/>
<path d="M38.9561 22.4062V41.5953C40.5254 38.8141 41.7387 35.5255 41.7387 32.0009C41.7387 28.4763 40.5254 25.1875 38.9561 22.4062Z" fill="black"/>
<path d="M25.0434 22.4062V41.5953C23.474 38.8141 22.2607 35.5255 22.2607 32.0009C22.2607 28.4763 23.474 25.1875 25.0434 22.4062Z" fill="black"/>
</g>
<defs>
<clipPath id="clip0_1018_8084">
<rect width="64" height="64" fill="white"/>
</clipPath>
</defs>
</svg>
