<svg width="123" height="29" viewBox="0 0 123 29" fill="none" xmlns="http://www.w3.org/2000/svg">
<g clip-path="url(#clip0_1222_7576)">
<path d="M96.1311 14.0092C96.1311 13.2951 96.1311 12.6234 96.108 12.003C96.0923 11.4177 96.0343 10.8344 95.9346 10.2575C95.8414 9.7307 95.6767 9.21908 95.4453 8.73676C95.2009 8.23947 94.8744 7.787 94.4794 7.39841C93.9192 6.82444 93.2526 6.36507 92.5168 6.04593C91.7208 5.7235 90.8684 5.56367 90.0097 5.57584C89.1477 5.5647 88.2921 5.72448 87.4922 6.04593C86.7522 6.36071 86.0814 6.81809 85.5181 7.39199C85.1239 7.78034 84.7986 8.23291 84.5561 8.73034C84.3266 9.21276 84.1645 9.72447 84.0744 10.2511C83.977 10.8281 83.9212 11.4115 83.9075 11.9966C83.892 12.6169 83.8843 13.2887 83.8882 14.0028C83.892 14.7169 83.8882 15.3835 83.9075 16.0078C83.9212 16.5929 83.977 17.1762 84.0744 17.7533C84.1645 18.2799 84.3266 18.7916 84.5561 19.274C84.7995 19.7709 85.1247 20.2233 85.5181 20.6124C86.0805 21.1867 86.7516 21.6434 87.4922 21.9558C88.2915 22.2794 89.1474 22.4401 90.0097 22.4285C90.8687 22.4412 91.7214 22.2804 92.5168 21.9558C93.2527 21.641 93.9196 21.1845 94.4794 20.6124C94.8735 20.223 95.1999 19.7707 95.4453 19.274C95.6767 18.7917 95.8414 18.2801 95.9346 17.7533C96.0332 17.178 96.0903 16.5964 96.1054 16.0129C96.1247 15.3887 96.1337 14.7208 96.1286 14.008L96.1311 14.0092ZM92.8944 14.0092C92.8944 14.8004 92.8829 15.4593 92.8559 15.9834C92.8407 16.4138 92.7978 16.8428 92.7275 17.2678C92.6793 17.5509 92.5929 17.8261 92.4706 18.0859C92.3713 18.2953 92.2414 18.4888 92.0853 18.6601C91.8442 18.9361 91.545 19.1554 91.2093 19.3023C90.8315 19.4639 90.4244 19.5461 90.0135 19.5438C89.6006 19.5456 89.1915 19.4634 88.8113 19.3023C88.4674 19.1581 88.1601 18.9386 87.9122 18.6601C87.7551 18.4896 87.6251 18.296 87.5269 18.0859C87.408 17.8259 87.3259 17.5505 87.2829 17.2678C87.2143 16.8426 87.1714 16.4137 87.1544 15.9834C87.1313 15.4593 87.1197 14.8013 87.1197 14.0092C87.1197 13.218 87.1313 12.5579 87.1544 12.0338C87.1715 11.6035 87.2144 11.1746 87.2829 10.7494C87.3259 10.4667 87.408 10.1913 87.5269 9.93125C87.6254 9.7214 87.7553 9.5278 87.9122 9.35713C88.1605 9.07893 88.4676 8.85955 88.8113 8.71493C89.191 8.55196 89.6004 8.46973 90.0135 8.47346C90.4246 8.46919 90.832 8.55146 91.2093 8.71493C91.5448 8.86227 91.8438 9.0815 92.0853 9.35713C92.2411 9.52858 92.371 9.72202 92.4706 9.93125C92.5929 10.1911 92.6793 10.4663 92.7275 10.7494C92.7978 11.1744 92.8407 11.6034 92.8559 12.0338C92.8842 12.5566 92.8944 13.2168 92.8944 14.0092Z" fill="white"/>
<path d="M121.922 6.00456C121.921 5.84837 121.794 5.7221 121.638 5.7207H118.968C118.811 5.72141 118.685 5.84808 118.684 6.00456V15.8688L112.172 5.80034C112.128 5.73226 112.09 5.7207 111.994 5.7207H109.517C109.361 5.72278 109.235 5.84866 109.233 6.00456V22.0108C109.235 22.1665 109.362 22.292 109.517 22.2934H112.186C112.342 22.2927 112.468 22.1666 112.469 22.0108V12.1209L118.982 22.2124C119.027 22.2805 119.063 22.2921 119.161 22.2921H121.636C121.792 22.2914 121.918 22.1655 121.919 22.0095L121.922 6.00456Z" fill="white"/>
<path d="M104.023 6.00456C104.022 5.84808 103.895 5.72141 103.739 5.7207H101.071C100.914 5.72141 100.788 5.84808 100.787 6.00456V22.0095C100.788 22.166 100.914 22.2927 101.071 22.2934H103.739C103.895 22.2927 104.022 22.166 104.023 22.0095V6.00456Z" fill="white"/>
<path d="M72.0872 14.0092C72.0872 13.2128 72.0962 12.5501 72.1193 12.0222C72.135 11.5918 72.1779 11.1628 72.2478 10.7378C72.4944 9.3121 73.5861 8.47082 74.9797 8.47082C75.889 8.47852 76.7136 8.81504 77.2402 9.58054C77.4787 9.93792 77.6526 10.3344 77.754 10.7519C77.7618 10.7959 77.802 10.8266 77.8465 10.8226H80.9868C81.0318 10.8226 81.0485 10.7917 81.0408 10.7481C80.6978 8.80476 79.6613 7.05926 77.8298 6.19485C76.9296 5.77808 75.9471 5.56955 74.9553 5.58476C73.1871 5.58476 71.6976 6.19014 70.4868 7.40091C69.7956 8.07461 69.3237 8.94127 69.1331 9.88751C68.9481 10.8191 68.8548 12.1926 68.853 14.0079C68.8514 15.8232 68.9447 17.1962 69.1331 18.127C69.3222 19.0744 69.7926 19.9428 70.483 20.6187C71.6929 21.8286 73.1824 22.4336 74.9514 22.4336C75.9431 22.4486 76.9255 22.2405 77.8259 21.8248C79.6575 20.9604 80.694 19.2149 81.0369 17.2716C81.0446 17.2266 81.0279 17.1971 80.983 17.1971H77.8413C77.7967 17.1924 77.7561 17.2234 77.7489 17.2677C77.6472 17.6847 77.4733 18.0807 77.2351 18.4378C76.7085 19.2084 75.8839 19.5411 74.9745 19.5475C73.581 19.5475 72.4892 18.7075 72.2426 17.2818C72.1728 16.8568 72.1299 16.4278 72.1142 15.9974C72.0962 15.467 72.0872 14.8029 72.0872 14.0092Z" fill="white"/>
<path d="M38.919 6.00456C38.9183 5.84808 38.7916 5.72141 38.6352 5.7207H35.9674C35.811 5.72141 35.6843 5.84808 35.6836 6.00456V22.0108C35.685 22.1668 35.8115 22.2927 35.9674 22.2935H38.6352C38.7911 22.2927 38.9176 22.1668 38.919 22.0108V17.3124L41.0601 14.7526L45.4579 22.2086C45.4918 22.2636 45.5527 22.296 45.6172 22.2935H48.859C49.008 22.2935 49.035 22.2009 48.9605 22.0737L43.2025 12.3123L48.4852 5.97501C48.5919 5.84657 48.5469 5.72456 48.3799 5.72456H44.8363C44.7931 5.72202 44.7516 5.74132 44.7258 5.77593L38.919 12.74V6.00456Z" fill="white"/>
<path d="M58.3542 19.5473C56.8527 19.5473 55.4913 18.1576 55.4913 16.4981V6.00456C55.4906 5.84808 55.3639 5.72141 55.2074 5.7207H52.5397C52.3832 5.72141 52.2566 5.84808 52.2559 6.00456V16.457C52.2559 20.1112 54.9891 22.4334 58.3542 22.4334C61.7193 22.4334 64.4526 20.1112 64.4526 16.457V6.00456C64.4512 5.84837 64.3249 5.7221 64.1687 5.7207H61.4997C61.3437 5.72211 61.2178 5.84858 61.2171 6.00456V16.4981C61.2171 18.1563 59.8544 19.5473 58.3542 19.5473Z" fill="white"/>
<path fill-rule="evenodd" clip-rule="evenodd" d="M8.86758 14.0094L17.1494 22.2925L22.3769 17.065C23.3117 16.2233 24.7418 16.2608 25.6312 17.1502C26.5206 18.0396 26.5581 19.4697 25.7164 20.4044L18.8179 27.3043C17.8912 28.2156 16.405 28.2156 15.4784 27.3043L5.52556 17.3488V23.2661C5.52556 24.572 4.4669 25.6307 3.16097 25.6307C1.85505 25.6307 0.796387 24.572 0.796387 23.2661V4.74499C0.796387 3.43906 1.85505 2.3804 3.16097 2.3804C4.4669 2.3804 5.52556 3.43906 5.52556 4.74499V10.6622L15.4771 0.70939C16.4035 -0.202609 17.8902 -0.202609 18.8166 0.70939L25.7202 7.60792C26.5619 8.54267 26.5245 9.97274 25.635 10.8622C24.7456 11.7516 23.3155 11.789 22.3808 10.9474L17.1533 5.71985L8.86758 14.0094ZM17.1533 11.6422C16.1957 11.6417 15.3322 12.2181 14.9654 13.1026C14.5986 13.9871 14.8008 15.0055 15.4777 15.6828C16.1546 16.36 17.1729 16.5628 18.0576 16.1965C18.9423 15.8302 19.5191 14.9669 19.5191 14.0094C19.5195 13.3816 19.2704 12.7794 18.8267 12.3352C18.383 11.891 17.7811 11.6413 17.1533 11.6409V11.6422Z" fill="white"/>
</g>
<defs>
<clipPath id="clip0_1222_7576">
<rect width="122" height="28" fill="white" transform="translate(0.796387 0.0224609)"/>
</clipPath>
</defs>
</svg>
