<svg width="222" height="134" viewBox="0 0 222 134" fill="none" xmlns="http://www.w3.org/2000/svg">
<rect x="0.5" y="22" width="221" height="112" rx="6" fill="#EFF4FF"/>
<circle cx="27.0003" cy="67.7141" r="6.14286" fill="#B2CCFF"/>
<path d="M29.3404 65.959L26.1227 69.1767L24.6602 67.7141" stroke="#2970FF" stroke-linecap="round" stroke-linejoin="round"/>
<rect x="38.1436" y="61.5713" width="163" height="12" rx="3" fill="#D1E0FF"/>
<circle cx="27.0003" cy="88.0003" r="6.14286" fill="#B2CCFF"/>
<path d="M29.3404 86.2451L26.1227 89.4628L24.6602 88.0002" stroke="#2970FF" stroke-linecap="round" stroke-linejoin="round"/>
<rect x="38.1436" y="81.8574" width="163" height="12" rx="3" fill="#D1E0FF"/>
<circle cx="27.0003" cy="108.285" r="6.14286" fill="#B2CCFF"/>
<path d="M29.3404 106.53L26.1227 109.748L24.6602 108.285" stroke="#2970FF" stroke-linecap="round" stroke-linejoin="round"/>
<rect x="38.1436" y="102.143" width="163" height="12" rx="3" fill="#D1E0FF"/>
<rect x="38.5" width="149" height="43.5651" rx="3.84398" fill="#B7DCFF"/>
<g clip-path="url(#clip0_788_8774)">
<path d="M69.2506 10.9717C63.2894 10.9717 58.4395 15.8216 58.4395 21.7829C58.4395 27.7442 63.2894 32.5941 69.2506 32.5941C75.2119 32.5941 80.0618 27.7442 80.0618 21.7829C80.0618 15.8216 75.2119 10.9717 69.2506 10.9717ZM70.6921 21.0621C71.0907 21.0621 71.4129 21.385 71.4129 21.7829C71.4129 22.1807 71.0907 22.5036 70.6921 22.5036H67.8092V26.1074C67.8092 26.3603 67.7652 26.6025 67.6859 26.8281H71.4129C71.8107 26.8281 72.1336 26.5045 72.1336 26.1074C72.1336 25.7095 72.4558 25.3866 72.8544 25.3866C73.253 25.3866 73.5751 25.7095 73.5751 26.1074C73.5751 27.2995 72.605 28.2696 71.4129 28.2696H65.6469C65.2491 28.2696 64.9262 27.9467 64.9262 27.5488C64.9262 27.151 65.2491 26.8281 65.6469 26.8281C66.044 26.8281 66.3677 26.5045 66.3677 26.1074V22.5036H65.6469C65.2491 22.5036 64.9262 22.1807 64.9262 21.7829C64.9262 21.385 65.2491 21.0621 65.6469 21.0621H66.3677V17.4584C66.3677 16.2663 67.3378 15.2962 68.5299 15.2962H71.4129C72.605 15.2962 73.5751 16.2663 73.5751 17.4584C73.5751 17.8562 73.253 18.1791 72.8544 18.1791C72.4558 18.1791 72.1336 17.8562 72.1336 17.4584C72.1336 17.0613 71.8107 16.7377 71.4129 16.7377H68.5299C68.1328 16.7377 67.8092 17.0613 67.8092 17.4584V21.0621H70.6921Z" fill="#053F75"/>
</g>
<path d="M88.712 19.2207H111.536L110.231 24.346H87.1904L88.712 19.2207Z" fill="#84ADFF"/>
<path d="M119.384 19.2207H141.006L139.771 24.346H117.942L119.384 19.2207Z" fill="#84ADFF"/>
<path d="M149.61 20.1355V27.8235H152.904V20.1355H149.61ZM156.199 20.1355V27.8235H159.494V20.1355H156.199ZM147.413 33.3149H168.28V30.02H147.413V33.3149ZM162.789 20.1355V27.8235H166.084V20.1355H162.789ZM157.847 10.251L147.413 15.7424V17.9389H168.28V15.7424L157.847 10.251Z" fill="#053F75"/>
<defs>
<clipPath id="clip0_788_8774">
<rect width="23.0639" height="23.0639" fill="white" transform="translate(57.7197 10.251)"/>
</clipPath>
</defs>
</svg>
