<svg width="258" height="150" viewBox="0 0 258 150" fill="none" xmlns="http://www.w3.org/2000/svg">
<g filter="url(#filter0_d_788_8706)">
<rect x="36" y="10" width="212" height="128" rx="5.91118" fill="#F6FEF9"/>
<path d="M36 15.8204C36 12.5557 38.6465 9.90918 41.9112 9.90918H241.906C245.171 9.90918 247.817 12.5557 247.817 15.8204V28.6279H36V15.8204Z" fill="#1C4300"/>
<rect x="51.7617" y="36.5098" width="179.306" height="18.7187" rx="3.94079" fill="white"/>
<rect x="59.6445" y="42.4209" width="8.86677" height="5.91118" fill="#32D583"/>
<rect x="71.4668" y="42.4209" width="60.097" height="5.91118" rx="0.985197" fill="#D1FADF"/>
<rect x="205.453" y="42.4209" width="17.7335" height="5.91118" rx="0.985197" fill="#FEDF89"/>
<rect x="51.7617" y="60.1543" width="179.306" height="18.7187" rx="3.94079" fill="white"/>
<rect x="59.6445" y="66.0664" width="8.86677" height="5.91118" fill="#32D583"/>
<rect x="71.4668" y="66.0664" width="60.097" height="5.91118" rx="0.985197" fill="#D1FADF"/>
<rect x="205.453" y="66.0664" width="17.7335" height="5.91118" rx="0.985197" fill="#FEDF89"/>
<rect x="51.7617" y="83.7988" width="179.306" height="18.7187" rx="3.94079" fill="white"/>
<rect x="59.6445" y="89.709" width="8.86677" height="5.91118" fill="#32D583"/>
<rect x="71.4668" y="89.709" width="60.097" height="5.91118" rx="0.985197" fill="#D1FADF"/>
<rect x="205.453" y="89.709" width="17.7335" height="5.91118" rx="0.985197" fill="#8A93A5"/>
<rect x="51.7617" y="107.444" width="179.306" height="18.7187" rx="3.94079" fill="white"/>
<rect x="59.6445" y="113.354" width="8.86677" height="5.91118" fill="#32D583"/>
<rect x="71.4668" y="113.354" width="60.097" height="5.91118" rx="0.985197" fill="#D1FADF"/>
<rect x="205.453" y="113.354" width="17.7335" height="5.91118" rx="0.985197" fill="#8A93A5"/>
<circle cx="51.2696" cy="19.2687" r="2.46299" fill="#FDA29B"/>
<circle cx="58.1661" cy="19.2687" r="2.46299" fill="#FEDF89"/>
<circle cx="65.0626" cy="19.2687" r="2.46299" fill="#D1FADF"/>
<rect x="11.1707" y="85.1707" width="58.8142" height="51.5121" rx="5.85364" fill="#6DA544" stroke="white" stroke-width="2.34146"/>
<path d="M36.4205 100.899C36.2573 100.735 36.063 100.604 35.849 100.515C35.635 100.426 35.4055 100.38 35.1737 100.38C34.9419 100.38 34.7123 100.426 34.4983 100.515C34.2843 100.604 34.0901 100.735 33.9269 100.899L25.1464 109.68C24.9818 109.843 24.8512 110.037 24.762 110.251C24.6729 110.465 24.627 110.695 24.627 110.927C24.627 111.158 24.6729 111.388 24.762 111.602C24.8512 111.816 24.9818 112.01 25.1464 112.173L33.9269 120.954C34.0901 121.119 34.2843 121.249 34.4983 121.338C34.7123 121.427 34.9419 121.473 35.1737 121.473C35.4055 121.473 35.635 121.427 35.849 121.338C36.063 121.249 36.2573 121.119 36.4205 120.954C36.5851 120.791 36.7158 120.596 36.8049 120.382C36.8941 120.168 36.94 119.939 36.94 119.707C36.94 119.475 36.8941 119.246 36.8049 119.032C36.7158 118.818 36.5851 118.624 36.4205 118.46L28.8693 110.927L36.4205 103.393C36.5851 103.23 36.7158 103.036 36.8049 102.822C36.8941 102.608 36.94 102.378 36.94 102.146C36.94 101.914 36.8941 101.685 36.8049 101.471C36.7158 101.257 36.5851 101.063 36.4205 100.899ZM55.7375 109.68L46.9571 100.899C46.7933 100.736 46.599 100.606 46.385 100.517C46.1711 100.428 45.9418 100.383 45.7103 100.383C45.2426 100.383 44.7941 100.569 44.4634 100.899C44.2997 101.063 44.1698 101.257 44.0812 101.471C43.9926 101.685 43.947 101.915 43.947 102.146C43.947 102.614 44.1327 103.062 44.4634 103.393L52.0146 110.927L44.4634 118.46C44.2988 118.624 44.1682 118.818 44.079 119.032C43.9899 119.246 43.944 119.475 43.944 119.707C43.944 119.939 43.9899 120.168 44.079 120.382C44.1682 120.596 44.2988 120.791 44.4634 120.954C44.6267 121.119 44.8209 121.249 45.0349 121.338C45.2489 121.427 45.4784 121.473 45.7103 121.473C45.9421 121.473 46.1716 121.427 46.3856 121.338C46.5996 121.249 46.7938 121.119 46.9571 120.954L55.7375 112.173C55.9021 112.01 56.0328 111.816 56.1219 111.602C56.2111 111.388 56.257 111.158 56.257 110.927C56.257 110.695 56.2111 110.465 56.1219 110.251C56.0328 110.037 55.9021 109.843 55.7375 109.68Z" fill="white"/>
</g>
<defs>
<filter id="filter0_d_788_8706" x="0.148034" y="0.0572138" width="257.704" height="147.795" filterUnits="userSpaceOnUse" color-interpolation-filters="sRGB">
<feFlood flood-opacity="0" result="BackgroundImageFix"/>
<feColorMatrix in="SourceAlpha" type="matrix" values="0 0 0 0 0 0 0 0 0 0 0 0 0 0 0 0 0 0 127 0" result="hardAlpha"/>
<feOffset/>
<feGaussianBlur stdDeviation="4.92598"/>
<feComposite in2="hardAlpha" operator="out"/>
<feColorMatrix type="matrix" values="0 0 0 0 0.195833 0 0 0 0 0.195833 0 0 0 0 0.195833 0 0 0 0.1 0"/>
<feBlend mode="normal" in2="BackgroundImageFix" result="effect1_dropShadow_788_8706"/>
<feBlend mode="normal" in="SourceGraphic" in2="effect1_dropShadow_788_8706" result="shape"/>
</filter>
</defs>
</svg>
