<svg width="126" height="22" viewBox="0 0 126 22" fill="none" xmlns="http://www.w3.org/2000/svg">
<g clip-path="url(#clip0_914_10444)">
<path d="M26.5431 0H23.3159V17.1875H34.989V14.0718H26.5431V0Z" fill="#F6F7F8"/>
<path d="M44.8458 5.83195C44.6258 5.61733 44.3889 5.42064 44.1377 5.24373C43.7505 4.98154 43.3348 4.76433 42.8987 4.59627C42.3455 4.38582 41.7574 4.28278 41.1658 4.29264C40.3596 4.28632 39.5607 4.4477 38.8199 4.7666C38.1062 5.07738 37.4633 5.53099 36.9307 6.09961C36.376 6.6996 35.9455 7.40406 35.6644 8.17213C35.0565 9.91137 35.0565 11.8061 35.6644 13.5455C35.9457 14.3138 36.3761 15.0185 36.9307 15.619C37.4635 16.1872 38.1063 16.6404 38.8199 16.951C39.5606 17.2704 40.3595 17.4317 41.1658 17.4249C41.7597 17.4345 42.3496 17.3267 42.9019 17.1076C43.3428 16.9307 43.7604 16.7001 44.145 16.421C44.3958 16.2327 44.6303 16.0235 44.8458 15.7957V17.1858H47.8356V4.53068H44.8458V5.83195ZM43.9487 13.7084C43.3494 14.3537 42.5948 14.6669 41.6418 14.6669C40.6244 14.6669 39.835 14.3495 39.2272 13.7073C38.6193 13.0651 38.3186 12.1077 38.3186 10.8593C38.3186 9.61093 38.6245 8.65138 39.2272 8.01027C39.8298 7.36916 40.6244 7.05071 41.6418 7.05071C42.5916 7.05071 43.3494 7.36809 43.9487 8.01027C44.5482 8.65244 44.8458 9.60987 44.8458 10.8593C44.8458 12.1088 44.544 13.0672 43.9487 13.7084Z" fill="#F6F7F8"/>
<path d="M59.61 7.13698V4.53125H49.4841V7.28932H55.699L49.2456 14.5818V17.1874H59.8486V14.4294H53.1577L59.61 7.13698Z" fill="#F6F7F8"/>
<path d="M71.5407 6.1908C70.9507 5.602 70.2546 5.13097 69.4892 4.80279C68.6941 4.46695 67.8401 4.29395 66.9774 4.29395C66.1147 4.29395 65.2608 4.46695 64.4657 4.80279C63.7005 5.13072 63.0046 5.6018 62.4152 6.1908C61.8249 6.7873 61.3585 7.49536 61.0433 8.27391C60.3834 9.93453 60.3834 11.7856 61.0433 13.4462C61.3585 14.2248 61.8249 14.9328 62.4152 15.5293C63.0049 16.1184 63.7012 16.5895 64.4668 16.9173C65.2589 17.2568 66.1119 17.4299 66.9732 17.4262C67.5351 17.4303 68.0956 17.3725 68.6448 17.2537C69.1225 17.1501 69.588 16.9965 70.0337 16.7957C70.4239 16.6189 70.7919 16.3966 71.1302 16.1334C71.4225 15.9029 71.7012 15.6557 71.9649 15.3928C72.5264 14.7958 72.9707 14.0981 73.2746 13.3362L73.4119 12.9977H70.2944L70.2216 13.1098C70.0235 13.4113 69.7733 13.675 69.4828 13.8884C69.181 14.1229 68.8431 14.3066 68.4823 14.4322C67.9974 14.6003 67.4863 14.6802 66.9732 14.6682C66.568 14.6694 66.1655 14.6018 65.7828 14.4682C65.0132 14.1964 64.3701 13.6504 63.9761 12.9342C63.8042 12.6217 63.6747 12.2876 63.5909 11.9407H73.4055V10.8606C73.412 9.97422 73.2441 9.09525 72.9116 8.27391C72.5966 7.49545 72.1307 6.7874 71.5407 6.1908ZM63.7249 9.41755C63.8106 9.12632 63.9344 8.84777 64.0932 8.58918C64.2931 8.26467 64.5511 7.9799 64.8541 7.74917C65.1555 7.52037 65.4929 7.34372 65.8525 7.22654C66.2146 7.10968 66.5928 7.05077 66.9732 7.05198C67.8285 7.03016 68.6615 7.32722 69.3108 7.88565C69.5819 8.12218 69.8042 8.40972 69.9651 8.73201C70.0766 8.95424 70.1668 9.18663 70.2342 9.42602L63.7249 9.41755Z" fill="#F6F7F8"/>
<path d="M79.597 4.68259C79.2136 4.89454 78.8527 5.14478 78.5195 5.4295C78.3487 5.58292 78.1912 5.75068 78.0489 5.93097V4.53131H75.0591V17.1875H78.0489V10.3034C78.0427 9.85645 78.1215 9.41229 78.281 8.99479C78.4232 8.62706 78.6428 8.29435 78.9248 8.01936C79.2078 7.74945 79.5405 7.53712 79.9042 7.39411C80.2962 7.2426 80.7134 7.16685 81.1336 7.17089H82.9276V4.29327H81.2529C80.6766 4.2773 80.1061 4.41145 79.597 4.68259Z" fill="#F6F7F8"/>
<path d="M95.2412 6.09884C94.7096 5.5316 94.0688 5.07845 93.3574 4.76689C92.6161 4.44791 91.8169 4.28652 91.0103 4.29293C90.4143 4.28092 89.8216 4.38437 89.2647 4.59762C88.833 4.76714 88.4213 4.98429 88.0374 5.24508C87.7872 5.42249 87.5507 5.61877 87.3304 5.83224V4.53096H84.3374V21.7184H87.3262V15.8996C87.5442 16.1196 87.7813 16.3199 88.0343 16.4984C88.4175 16.758 88.8303 16.9711 89.2637 17.1333C89.8215 17.3374 90.4124 17.436 91.0061 17.4242C91.8127 17.4311 92.6121 17.2697 93.3531 16.9502C94.0662 16.6394 94.7086 16.1862 95.2412 15.6182C95.7963 15.0183 96.2267 14.3134 96.5079 13.5447C97.1153 11.8055 97.1153 9.91068 96.5079 8.17136C96.2257 7.40346 95.7953 6.69907 95.2412 6.09884ZM92.9448 13.7076C92.3379 14.353 91.5475 14.6672 90.5312 14.6672C89.5813 14.6672 88.8236 14.3498 88.2242 13.7086C87.6248 13.0676 87.3262 12.108 87.3262 10.8596C87.3262 9.61119 87.629 8.65167 88.2242 8.01056C88.8194 7.36944 89.5782 7.051 90.5312 7.051C91.5475 7.051 92.3379 7.36838 92.9448 8.01161C93.5516 8.65484 93.8534 9.61014 93.8534 10.8596C93.8534 12.109 93.5484 13.0665 92.9448 13.7076Z" fill="#F6F7F8"/>
<path d="M107.533 5.83195C107.313 5.61732 107.075 5.42062 106.824 5.24372C106.437 4.9815 106.021 4.76429 105.585 4.59626C105.032 4.38592 104.445 4.28288 103.854 4.29262C103.047 4.28622 102.248 4.4476 101.507 4.76659C100.793 5.07789 100.15 5.53143 99.6175 6.09961C99.0617 6.69928 98.6313 7.40384 98.351 8.17212C97.7417 9.91118 97.7417 11.8064 98.351 13.5455C98.6322 14.314 99.0627 15.0188 99.6175 15.619C100.15 16.187 100.793 16.6401 101.507 16.951C102.248 17.2705 103.047 17.4318 103.854 17.4249C104.447 17.4344 105.036 17.3266 105.588 17.1076C106.029 16.9303 106.447 16.6997 106.832 16.421C107.082 16.2327 107.317 16.0236 107.533 15.7957V17.1858H110.522V4.53066H107.533V5.83195ZM106.635 13.7084C106.036 14.3538 105.281 14.6669 104.328 14.6669C103.311 14.6669 102.521 14.3494 101.914 13.7073C101.306 13.0651 101.006 12.1076 101.006 10.8593C101.006 9.61093 101.311 8.65137 101.915 8.01131C102.519 7.37126 103.311 7.0507 104.328 7.0507C105.278 7.0507 106.036 7.36808 106.635 8.01026C107.235 8.65243 107.533 9.60988 107.533 10.8593C107.533 12.1088 107.23 13.0672 106.635 13.7084Z" fill="#F6F7F8"/>
<path d="M121.156 4.53125L118.301 14.3099H117.365L114.748 4.53125H111.621L115.086 17.1875H117.436L116.009 21.7187H119.144L124.287 4.53125H121.156Z" fill="#F6F7F8"/>
<path d="M124.173 20.1503V20.1312C124.367 20.0731 124.502 19.9366 124.502 19.761C124.505 19.6947 124.492 19.6288 124.465 19.5681C124.438 19.5075 124.398 19.4537 124.347 19.4108C124.231 19.342 124.096 19.2933 123.794 19.2933C123.59 19.2903 123.384 19.3066 123.182 19.342V20.9395H123.551V20.2963H123.725C123.93 20.2963 124.028 20.3746 124.056 20.5502C124.078 20.6856 124.121 20.8169 124.183 20.9395H124.581C124.519 20.8139 124.48 20.6786 124.465 20.5396C124.42 20.3259 124.333 20.2075 124.173 20.1503ZM123.735 20.0339H123.561V19.5726C123.628 19.5586 123.697 19.5521 123.765 19.5536C123.998 19.5536 124.104 19.651 124.104 19.7969C124.109 19.9652 123.944 20.0339 123.74 20.0339H123.735Z" fill="#F6F7F8"/>
<path d="M123.808 18.505C123.493 18.5107 123.185 18.61 122.924 18.7904C122.664 18.9708 122.463 19.2243 122.347 19.519C122.23 19.8137 122.203 20.1365 122.269 20.4466C122.335 20.7567 122.491 21.0403 122.717 21.2618C122.944 21.4832 123.231 21.6327 123.541 21.6912C123.852 21.7497 124.173 21.7147 124.464 21.5907C124.755 21.4667 125.003 21.259 125.177 20.9941C125.35 20.7291 125.442 20.4185 125.44 20.1015C125.438 19.8892 125.393 19.6794 125.31 19.4842C125.227 19.2891 125.106 19.1123 124.954 18.964C124.803 18.8157 124.624 18.6988 124.427 18.6201C124.23 18.5413 124.021 18.5022 123.808 18.505ZM123.818 21.3774C123.487 21.3691 123.172 21.2318 122.941 20.9945C122.708 20.7572 122.578 20.4387 122.577 20.1066C122.575 19.7745 122.703 19.455 122.934 19.216C123.164 18.9771 123.477 18.8373 123.808 18.8266C124.518 18.8266 125.032 19.4011 125.032 20.111C125.032 20.8209 124.518 21.3774 123.818 21.3774Z" fill="#F6F7F8"/>
<path d="M17.0755 10.6347L15.9009 7.79196L8.68032 10.7902L14.3717 5.08467L12.202 2.90952L6.51055 8.61397L9.50138 1.37656L6.66568 0.199056L3.20418 8.57589V0.0742188H0.135254V14.1037V17.1813H3.20418H17.2001V14.1037H8.71936L17.0755 10.6347Z" fill="#F6F7F8"/>
</g>
<defs>
<clipPath id="clip0_914_10444">
<rect width="125.304" height="22" fill="white" transform="translate(0.135254)"/>
</clipPath>
</defs>
</svg>
