<svg width="599" height="466" viewBox="0 0 599 466" fill="none" xmlns="http://www.w3.org/2000/svg">
<rect x="210" width="179" height="179" rx="10.9606" fill="url(#paint0_linear_1158_8181)"/>
<path d="M335.402 43.278C331.041 50.8929 326.842 58.231 322.407 65.9809C323.743 66.0956 324.607 66.2374 325.471 66.2374C332.432 66.2577 339.392 66.2442 346.352 66.2712C348.654 66.2779 348.87 66.6289 347.749 68.5664C339.506 82.8443 331.223 97.102 323.014 111.4C322.224 112.777 321.218 113.047 319.821 113.047C312.402 113.02 304.983 113.095 297.564 113.007C295.781 112.987 294.755 113.635 293.912 115.12C290.327 121.425 286.681 127.69 283.036 133.955C282.678 134.576 282.179 135.109 281.51 136C279.532 132.652 277.75 129.654 275.995 126.643C273.808 122.883 271.722 119.062 269.44 115.363C268.394 113.662 268.373 112.318 269.426 110.57C273.247 104.231 276.906 97.7906 280.612 91.3841C280.829 91.0128 280.916 90.5672 281.207 89.7774C272.437 89.7774 263.925 89.7774 255 89.7774C255.365 88.8255 255.493 88.2652 255.77 87.7859C264.046 73.4405 272.309 59.0883 280.68 44.7969C281.18 43.9463 282.53 43.089 283.488 43.0822C300.082 42.9742 316.682 43.0012 333.282 43.008C333.795 43.008 334.315 43.1362 335.402 43.278ZM321.664 66.8585C320.618 66.7167 319.902 66.5344 319.186 66.5344C311.916 66.5142 304.645 66.5682 297.375 66.4939C295.694 66.4737 294.735 67.088 293.925 68.5192C290.732 74.1696 287.424 79.7525 284.184 85.3759C283.482 86.5978 282.867 87.8737 282.057 89.4263C283.205 89.4939 283.947 89.5681 284.683 89.5681C290.421 89.5816 296.193 89.2036 301.891 89.6896C306.92 90.1149 310.282 88.7648 311.848 83.8164C311.936 83.5397 312.193 83.3169 312.348 83.0536C315.393 77.7745 318.424 72.4886 321.664 66.8585Z" fill="#032355"/>
<path d="M207 90.0001C207 90.0001 98.5002 89.9999 51.9997 90.0001L51.998 280M393 90.0001H538.5V286" stroke="url(#paint1_linear_1158_8181)"/>
<rect x="0.5" y="287.5" width="178" height="178" rx="6.5" fill="url(#paint2_linear_1158_8181)" stroke="url(#paint3_linear_1158_8181)"/>
<path d="M89.4997 333.083C95.8571 340.043 99.47 349.075 99.6663 358.5C99.47 367.924 95.8571 376.956 89.4997 383.916M89.4997 333.083C83.1423 340.043 79.5293 349.075 79.333 358.5C79.5293 367.924 83.1423 376.956 89.4997 383.916M89.4997 333.083C75.4624 333.083 64.083 344.462 64.083 358.5C64.083 372.537 75.4624 383.916 89.4997 383.916M89.4997 333.083C103.537 333.083 114.916 344.462 114.916 358.5C114.916 372.537 103.537 383.916 89.4997 383.916M65.3539 350.875H113.646M65.3538 366.125H113.646" stroke="#AFAFAF" stroke-width="5.08333" stroke-linecap="round" stroke-linejoin="round"/>
<path d="M45.438 437H53.5752V435.159H47.7705V431.493H52.1898V429.74H47.7705V426.302H53.2771V424.461H45.438V437ZM54.6952 437H56.9049L59.097 433.686L61.2365 437H63.7092L60.4298 432.142L63.3936 427.828H61.1664L59.2724 430.792L57.3609 427.828H54.9057L57.887 432.3L54.6952 437ZM68.7337 437.175C71.224 437.175 72.8198 435.685 72.9777 433.58H71.0311C70.9083 434.878 69.9438 435.544 68.8214 435.544C67.2606 435.544 66.2785 434.492 66.2785 432.493V432.353C66.2785 430.459 67.3132 429.336 68.7688 429.336C69.8912 429.336 70.6979 429.845 70.8732 431.072H72.9251C72.6795 428.547 70.768 427.635 68.7337 427.635C66.1733 427.635 64.104 429.477 64.104 432.388V432.528C64.104 435.457 66.1032 437.175 68.7337 437.175ZM74.8049 437H76.9269V431.599C76.9269 430.143 77.8915 429.406 79.084 429.406C80.3466 429.406 80.9078 430.038 80.9078 431.423V437H83.0298V431.23C83.0298 428.705 81.7321 427.635 79.8907 427.635C78.3825 427.635 77.3653 428.389 76.9269 429.284V423.584H74.8049V437ZM87.877 437.175C89.2799 437.175 90.0866 436.667 90.6829 435.878V437H92.7698V430.985C92.7698 428.477 91.1564 427.635 89.1046 427.635C87.0527 427.635 85.3517 428.53 85.1763 430.669H87.2281C87.3333 429.757 87.877 429.231 88.9818 429.231C90.2269 429.231 90.6478 429.845 90.6478 431.072V431.546H89.5079C86.8774 431.546 84.808 432.318 84.808 434.457C84.808 436.369 86.1934 437.175 87.877 437.175ZM88.3856 435.65C87.3333 435.65 86.9125 435.141 86.9125 434.369C86.9125 433.247 87.9471 432.879 89.5605 432.879H90.6478V433.791C90.6478 434.966 89.6833 435.65 88.3856 435.65ZM95.202 437H97.3239V431.599C97.3239 430.143 98.2885 429.406 99.481 429.406C100.744 429.406 101.305 430.038 101.305 431.423V437H103.427V431.23C103.427 428.705 102.129 427.635 100.288 427.635C98.7795 427.635 97.7624 428.389 97.3239 429.284V427.828H95.202V437ZM109.782 440.367C112.623 440.367 114.429 439.017 114.447 436.316V427.828H112.325V429.231C111.799 428.319 110.887 427.635 109.379 427.635C107.011 427.635 105.258 429.564 105.258 432.142V432.265C105.258 434.913 107.029 436.632 109.326 436.632C110.677 436.632 111.816 435.807 112.325 434.931V436.281C112.325 437.929 111.413 438.754 109.765 438.754C108.379 438.754 107.678 438.228 107.502 437.316H105.363C105.608 439.069 106.906 440.367 109.782 440.367ZM109.852 435.001C108.484 435.001 107.432 433.949 107.432 432.247V432.107C107.432 430.441 108.344 429.301 109.922 429.301C111.448 429.301 112.395 430.336 112.395 432.072V432.195C112.395 433.949 111.325 435.001 109.852 435.001ZM121.003 437.175C123.353 437.175 124.913 436.123 125.211 434.194H123.16C123.002 435.088 122.335 435.597 121.055 435.597C119.477 435.597 118.6 434.615 118.53 432.879H125.247V432.265C125.247 428.986 123.195 427.635 120.915 427.635C118.302 427.635 116.355 429.529 116.355 432.37V432.511C116.355 435.404 118.302 437.175 121.003 437.175ZM118.565 431.458C118.775 430.038 119.635 429.179 120.915 429.179C122.23 429.179 123.037 429.88 123.142 431.458H118.565ZM130.367 437.175C132.717 437.175 134.032 436.106 134.032 434.247C134.032 432.3 132.752 431.774 130.595 431.441C129.139 431.195 128.701 430.932 128.701 430.266C128.701 429.617 129.244 429.179 130.156 429.179C131.138 429.179 131.612 429.564 131.787 430.406H133.751C133.523 428.337 132.033 427.635 130.156 427.635C128.438 427.635 126.719 428.547 126.719 430.389C126.719 432.107 127.613 432.791 130.033 433.177C131.384 433.405 131.998 433.686 131.998 434.44C131.998 435.211 131.489 435.615 130.349 435.615C129.104 435.615 128.63 435.071 128.525 434.141H126.526C126.614 436.088 127.999 437.175 130.367 437.175Z" fill="white"/>
<rect x="210.5" y="287.5" width="178" height="178" rx="6.5" fill="url(#paint4_linear_1158_8181)" stroke="url(#paint5_linear_1158_8181)"/>
<path d="M255.438 437H257.77V431.932H259.261L262.541 437H265.066L261.541 431.581C263.102 431.178 264.329 430.178 264.329 428.214V428.144C264.329 425.583 262.4 424.461 259.647 424.461H255.438V437ZM257.77 430.266V426.267H259.647C261.138 426.267 262.032 426.758 262.032 428.196V428.267C262.032 429.599 261.208 430.266 259.647 430.266H257.77ZM270.445 437.175C272.795 437.175 274.356 436.123 274.654 434.194H272.602C272.444 435.088 271.778 435.597 270.498 435.597C268.919 435.597 268.043 434.615 267.972 432.879H274.689V432.265C274.689 428.986 272.637 427.635 270.357 427.635C267.744 427.635 265.798 429.529 265.798 432.37V432.511C265.798 435.404 267.744 437.175 270.445 437.175ZM268.008 431.458C268.218 430.038 269.077 429.179 270.357 429.179C271.673 429.179 272.479 429.88 272.585 431.458H268.008ZM276.584 437H278.706V431.511C278.706 430.108 279.671 429.406 280.723 429.406C281.758 429.406 282.354 429.985 282.354 431.336V437H284.476V431.511C284.476 430.108 285.441 429.406 286.493 429.406C287.545 429.406 288.124 429.985 288.124 431.336V437H290.246V431.195C290.246 428.67 288.878 427.635 287.194 427.635C286.054 427.635 284.792 428.144 284.09 429.284C283.634 428.144 282.687 427.635 281.495 427.635C280.144 427.635 279.145 428.372 278.706 429.231V427.828H276.584V437ZM292.736 437H294.857V427.828H292.736V437ZM293.77 426.32C294.472 426.32 295.033 425.794 295.033 425.11C295.033 424.408 294.472 423.882 293.77 423.882C293.069 423.882 292.508 424.408 292.508 425.11C292.508 425.794 293.069 426.32 293.77 426.32ZM300.565 437.158C301.214 437.158 301.67 437.053 302.004 436.93V435.246C301.705 435.369 301.39 435.422 300.969 435.422C300.302 435.422 299.917 435.053 299.917 434.247V429.424H301.933V427.828H299.917V425.811H297.795V427.828H296.567V429.424H297.795V434.44C297.795 436.176 298.742 437.158 300.565 437.158ZM307.039 437.158C307.688 437.158 308.144 437.053 308.477 436.93V435.246C308.179 435.369 307.863 435.422 307.442 435.422C306.776 435.422 306.39 435.053 306.39 434.247V429.424H308.407V427.828H306.39V425.811H304.268V427.828H303.041V429.424H304.268V434.44C304.268 436.176 305.215 437.158 307.039 437.158ZM312.879 437.175C314.282 437.175 315.089 436.667 315.685 435.878V437H317.772V430.985C317.772 428.477 316.159 427.635 314.107 427.635C312.055 427.635 310.354 428.53 310.179 430.669H312.23C312.336 429.757 312.879 429.231 313.984 429.231C315.229 429.231 315.65 429.845 315.65 431.072V431.546H314.51C311.88 431.546 309.81 432.318 309.81 434.457C309.81 436.369 311.196 437.175 312.879 437.175ZM313.388 435.65C312.336 435.65 311.915 435.141 311.915 434.369C311.915 433.247 312.949 432.879 314.563 432.879H315.65V433.791C315.65 434.966 314.686 435.65 313.388 435.65ZM320.204 437H322.326V431.599C322.326 430.143 323.291 429.406 324.483 429.406C325.746 429.406 326.307 430.038 326.307 431.423V437H328.429V431.23C328.429 428.705 327.131 427.635 325.29 427.635C323.782 427.635 322.765 428.389 322.326 429.284V427.828H320.204V437ZM334.89 437.175C337.38 437.175 338.976 435.685 339.134 433.58H337.187C337.064 434.878 336.1 435.544 334.977 435.544C333.417 435.544 332.435 434.492 332.435 432.493V432.353C332.435 430.459 333.469 429.336 334.925 429.336C336.047 429.336 336.854 429.845 337.029 431.072H339.081C338.836 428.547 336.924 427.635 334.89 427.635C332.329 427.635 330.26 429.477 330.26 432.388V432.528C330.26 435.457 332.259 437.175 334.89 437.175ZM344.994 437.175C347.344 437.175 348.905 436.123 349.203 434.194H347.152C346.994 435.088 346.327 435.597 345.047 435.597C343.469 435.597 342.592 434.615 342.522 432.879H349.238V432.265C349.238 428.986 347.187 427.635 344.907 427.635C342.294 427.635 340.347 429.529 340.347 432.37V432.511C340.347 435.404 342.294 437.175 344.994 437.175ZM342.557 431.458C342.767 430.038 343.627 429.179 344.907 429.179C346.222 429.179 347.029 429.88 347.134 431.458H342.557Z" fill="white"/>
<path d="M316.461 377.713C312.403 380.661 307.516 382.249 302.501 382.249C297.485 382.249 292.599 380.661 288.541 377.713M312.912 337.153C317.42 339.351 321.116 342.921 323.471 347.349C325.825 351.777 326.718 356.838 326.02 361.804M278.982 361.804C278.284 356.837 279.176 351.777 281.531 347.349C283.886 342.92 287.582 339.351 292.09 337.152M301.157 345.592L289.594 357.155C289.124 357.626 288.889 357.861 288.801 358.132C288.723 358.37 288.723 358.627 288.801 358.866C288.889 359.137 289.124 359.372 289.594 359.842L301.157 371.405C301.628 371.876 301.863 372.111 302.134 372.199C302.372 372.276 302.629 372.276 302.868 372.199C303.139 372.111 303.374 371.876 303.844 371.405L315.407 359.842C315.878 359.372 316.113 359.137 316.201 358.866C316.278 358.627 316.278 358.37 316.201 358.132C316.113 357.861 315.878 357.626 315.407 357.155L303.844 345.592C303.374 345.122 303.139 344.887 302.868 344.799C302.629 344.721 302.372 344.721 302.134 344.799C301.863 344.887 301.628 345.122 301.157 345.592Z" stroke="#AFAFAF" stroke-width="4.58333" stroke-linecap="round" stroke-linejoin="round"/>
<rect x="420.5" y="287.5" width="178" height="178" rx="6.5" fill="url(#paint6_linear_1158_8181)" stroke="url(#paint7_linear_1158_8181)"/>
<path d="M460.927 437.175C463.908 437.175 466.048 435.65 466.416 432.633H464.136C463.891 434.405 462.663 435.281 460.927 435.281C458.612 435.281 457.262 433.615 457.262 430.792V430.652C457.262 427.846 458.7 426.127 460.91 426.127C462.716 426.127 463.645 426.986 463.908 428.652H466.276C465.995 425.706 463.768 424.268 460.892 424.268C457.402 424.268 454.807 426.899 454.807 430.669V430.809C454.807 434.668 456.999 437.175 460.927 437.175ZM472.365 435.527C470.752 435.527 469.822 434.352 469.822 432.475V432.335C469.822 430.441 470.787 429.301 472.365 429.301C473.943 429.301 474.89 430.459 474.89 432.353V432.475C474.89 434.352 473.943 435.527 472.365 435.527ZM472.347 437.175C475.048 437.175 477.065 435.316 477.065 432.458V432.318C477.065 429.512 475.048 427.635 472.365 427.635C469.664 427.635 467.647 429.529 467.647 432.37V432.511C467.647 435.299 469.647 437.175 472.347 437.175ZM478.982 437H481.104V432.23C481.104 430.283 482.226 429.687 484.085 429.67V427.688C482.542 427.705 481.683 428.389 481.104 429.547V427.828H478.982V437ZM485.952 440.139H488.074V435.562C488.565 436.456 489.618 437.175 491.073 437.175C493.441 437.175 495.142 435.387 495.142 432.44V432.3C495.142 429.336 493.371 427.635 491.073 427.635C489.723 427.635 488.583 428.424 488.074 429.301V427.828H485.952V440.139ZM490.547 435.492C489.004 435.492 488.004 434.527 488.004 432.475V432.335C488.004 430.301 489.056 429.301 490.53 429.301C491.915 429.301 492.967 430.301 492.967 432.335V432.475C492.967 434.44 492.108 435.492 490.547 435.492ZM501.154 435.527C499.54 435.527 498.611 434.352 498.611 432.475V432.335C498.611 430.441 499.575 429.301 501.154 429.301C502.732 429.301 503.679 430.459 503.679 432.353V432.475C503.679 434.352 502.732 435.527 501.154 435.527ZM501.136 437.175C503.837 437.175 505.854 435.316 505.854 432.458V432.318C505.854 429.512 503.837 427.635 501.154 427.635C498.453 427.635 496.436 429.529 496.436 432.37V432.511C496.436 435.299 498.435 437.175 501.136 437.175ZM507.771 437H509.893V432.23C509.893 430.283 511.015 429.687 512.874 429.67V427.688C511.331 427.705 510.472 428.389 509.893 429.547V427.828H507.771V437ZM516.972 437.175C518.375 437.175 519.182 436.667 519.778 435.878V437H521.865V430.985C521.865 428.477 520.252 427.635 518.2 427.635C516.148 427.635 514.447 428.53 514.272 430.669H516.324C516.429 429.757 516.972 429.231 518.077 429.231C519.322 429.231 519.743 429.845 519.743 431.072V431.546H518.603C515.973 431.546 513.903 432.318 513.903 434.457C513.903 436.369 515.289 437.175 516.972 437.175ZM517.481 435.65C516.429 435.65 516.008 435.141 516.008 434.369C516.008 433.247 517.043 432.879 518.656 432.879H519.743V433.791C519.743 434.966 518.779 435.65 517.481 435.65ZM527.419 437.158C528.068 437.158 528.524 437.053 528.857 436.93V435.246C528.559 435.369 528.243 435.422 527.822 435.422C527.156 435.422 526.77 435.053 526.77 434.247V429.424H528.787V427.828H526.77V425.811H524.648V427.828H523.421V429.424H524.648V434.44C524.648 436.176 525.595 437.158 527.419 437.158ZM530.824 437H532.946V427.828H530.824V437ZM531.858 426.32C532.56 426.32 533.121 425.794 533.121 425.11C533.121 424.408 532.56 423.882 531.858 423.882C531.157 423.882 530.596 424.408 530.596 425.11C530.596 425.794 531.157 426.32 531.858 426.32ZM539.636 435.527C538.022 435.527 537.093 434.352 537.093 432.475V432.335C537.093 430.441 538.057 429.301 539.636 429.301C541.214 429.301 542.161 430.459 542.161 432.353V432.475C542.161 434.352 541.214 435.527 539.636 435.527ZM539.618 437.175C542.319 437.175 544.336 435.316 544.336 432.458V432.318C544.336 429.512 542.319 427.635 539.636 427.635C536.935 427.635 534.918 429.529 534.918 432.37V432.511C534.918 435.299 536.917 437.175 539.618 437.175ZM546.253 437H548.375V431.599C548.375 430.143 549.339 429.406 550.532 429.406C551.795 429.406 552.356 430.038 552.356 431.423V437H554.478V431.23C554.478 428.705 553.18 427.635 551.339 427.635C549.83 427.635 548.813 428.389 548.375 429.284V427.828H546.253V437ZM560.061 437.175C562.411 437.175 563.727 436.106 563.727 434.247C563.727 432.3 562.447 431.774 560.289 431.441C558.834 431.195 558.395 430.932 558.395 430.266C558.395 429.617 558.939 429.179 559.851 429.179C560.833 429.179 561.307 429.564 561.482 430.406H563.446C563.218 428.337 561.728 427.635 559.851 427.635C558.132 427.635 556.414 428.547 556.414 430.389C556.414 432.107 557.308 432.791 559.728 433.177C561.079 433.405 561.692 433.686 561.692 434.44C561.692 435.211 561.184 435.615 560.044 435.615C558.799 435.615 558.325 435.071 558.22 434.141H556.221C556.309 436.088 557.694 437.175 560.061 437.175Z" fill="white"/>
<path d="M523.461 377.713C519.403 380.661 514.516 382.249 509.501 382.249C504.485 382.249 499.599 380.661 495.541 377.713M519.912 337.153C524.42 339.351 528.116 342.921 530.471 347.349C532.825 351.777 533.718 356.838 533.02 361.804M485.982 361.804C485.284 356.837 486.176 351.777 488.531 347.349C490.886 342.92 494.582 339.351 499.09 337.152M522.563 358.499C522.563 365.713 516.715 371.561 509.501 371.561C502.287 371.561 496.438 365.713 496.438 358.499C496.438 351.285 502.287 345.436 509.501 345.436C516.715 345.436 522.563 351.285 522.563 358.499Z" stroke="#AFAFAF" stroke-width="4.58333" stroke-linecap="round" stroke-linejoin="round"/>
<defs>
<linearGradient id="paint0_linear_1158_8181" x1="307.039" y1="1.18464e-06" x2="327.791" y2="176.561" gradientUnits="userSpaceOnUse">
<stop stop-color="#4F7BBC"/>
<stop offset="1" stop-color="#BAD6FF"/>
</linearGradient>
<linearGradient id="paint1_linear_1158_8181" x1="295.25" y1="90" x2="295.25" y2="286" gradientUnits="userSpaceOnUse">
<stop stop-color="#77A5FF" stop-opacity="0.66"/>
<stop offset="1" stop-color="white" stop-opacity="0"/>
</linearGradient>
<linearGradient id="paint2_linear_1158_8181" x1="89.5" y1="287" x2="89.5" y2="466" gradientUnits="userSpaceOnUse">
<stop stop-color="#323232"/>
<stop offset="1" stop-color="#202020"/>
</linearGradient>
<linearGradient id="paint3_linear_1158_8181" x1="89.5" y1="287" x2="89.5" y2="466" gradientUnits="userSpaceOnUse">
<stop stop-color="#C4D1FF" stop-opacity="0.6"/>
<stop offset="0.515625" stop-color="#76D2CD" stop-opacity="0.713437"/>
<stop offset="1" stop-color="#2D48A8" stop-opacity="0.15"/>
</linearGradient>
<linearGradient id="paint4_linear_1158_8181" x1="299.5" y1="287" x2="299.5" y2="466" gradientUnits="userSpaceOnUse">
<stop stop-color="#323232"/>
<stop offset="1" stop-color="#202020"/>
</linearGradient>
<linearGradient id="paint5_linear_1158_8181" x1="299.5" y1="287" x2="299.5" y2="466" gradientUnits="userSpaceOnUse">
<stop stop-color="#C4D1FF" stop-opacity="0.6"/>
<stop offset="0.515625" stop-color="#76D2CD" stop-opacity="0.713437"/>
<stop offset="1" stop-color="#2D48A8" stop-opacity="0.15"/>
</linearGradient>
<linearGradient id="paint6_linear_1158_8181" x1="509.5" y1="287" x2="509.5" y2="466" gradientUnits="userSpaceOnUse">
<stop stop-color="#323232"/>
<stop offset="1" stop-color="#202020"/>
</linearGradient>
<linearGradient id="paint7_linear_1158_8181" x1="509.5" y1="287" x2="509.5" y2="466" gradientUnits="userSpaceOnUse">
<stop stop-color="#C4D1FF" stop-opacity="0.6"/>
<stop offset="0.515625" stop-color="#76D2CD" stop-opacity="0.713437"/>
<stop offset="1" stop-color="#2D48A8" stop-opacity="0.15"/>
</linearGradient>
</defs>
</svg>
