<svg width="143" height="40" viewBox="0 0 143 40" fill="none" xmlns="http://www.w3.org/2000/svg">
<g clip-path="url(#clip0_711_7634)">
<path d="M34.6555 0.302176C32.7951 3.55056 31.0039 6.68087 29.1119 9.98684C29.6821 10.0358 30.0507 10.0963 30.4193 10.0963C33.3884 10.1049 36.3574 10.0992 39.3265 10.1107C40.3085 10.1136 40.4006 10.2633 39.9226 11.0898C36.4064 17.1805 32.8729 23.2626 29.3711 29.3619C29.0342 29.9494 28.6051 30.0646 28.009 30.0646C24.8441 30.0531 21.6792 30.0848 18.5144 30.0473C17.7541 30.0387 17.3164 30.3151 16.9564 30.9487C15.4273 33.6384 13.8722 36.3108 12.3171 38.9832C12.1645 39.2482 11.9514 39.4757 11.6663 39.8558C10.8225 38.4274 10.0622 37.1488 9.31351 35.8644C8.38046 34.2604 7.49061 32.6305 6.51725 31.0524C6.07089 30.3267 6.06225 29.7536 6.51149 29.0077C8.14144 26.3036 9.70227 23.5563 11.2833 20.8234C11.3754 20.665 11.4129 20.475 11.5367 20.138C7.79587 20.138 4.16448 20.138 0.357422 20.138C0.512929 19.732 0.567645 19.493 0.685716 19.2885C4.21631 13.169 7.74115 7.0466 11.3121 0.950124C11.5252 0.587273 12.1011 0.221543 12.51 0.218663C19.5885 0.172587 26.6699 0.184106 33.7512 0.186985C33.9701 0.186985 34.1918 0.241701 34.6555 0.302176ZM28.7951 10.3612C28.3488 10.3007 28.0435 10.223 27.7383 10.223C24.6368 10.2143 21.5352 10.2374 18.4337 10.2057C17.7167 10.1971 17.3077 10.4591 16.9622 11.0696C15.6 13.48 14.189 15.8616 12.8067 18.2604C12.5072 18.7817 12.2451 19.3259 11.8995 19.9883C12.3891 20.0171 12.7059 20.0488 13.0198 20.0488C15.4676 20.0545 17.9298 19.8932 20.3603 20.1006C22.5057 20.282 23.9399 19.7061 24.608 17.5952C24.6454 17.4771 24.7548 17.3821 24.8211 17.2698C26.1198 15.0178 27.4129 12.7629 28.7951 10.3612Z" fill="white"/>
<path d="M52.4434 19.709C52.2447 19.7176 51.8962 19.7234 51.4009 19.7234C50.9056 19.7234 50.2173 19.6571 49.3419 19.5275V23.1935H48.1064V12.1294C49.5147 11.9998 50.9171 11.9336 52.3109 11.9336C53.483 11.9336 54.3037 12.1985 54.7731 12.7255C55.1705 13.1719 55.3692 13.9062 55.3692 14.9343V15.7925C55.3692 16.5873 55.2828 17.264 55.1072 17.8256C54.7357 18.9919 53.8458 19.6226 52.4434 19.709ZM52.3627 12.979C51.0352 12.979 50.0301 13.0049 49.3419 13.0596V18.5052C50.1885 18.6175 50.943 18.6723 51.6025 18.6723C52.262 18.6723 52.7371 18.6262 53.0251 18.5311C53.3131 18.4361 53.5377 18.2777 53.6961 18.056C53.9668 17.6787 54.1021 16.9271 54.1021 15.804V14.9026C54.1021 14.2115 53.9668 13.7162 53.6961 13.4224C53.4369 13.1258 52.9934 12.979 52.3627 12.979Z" fill="white"/>
<path d="M61.0195 15.6053C60.4003 15.6053 59.7668 15.9163 59.1246 16.5354V23.1935H57.918V14.5541H58.9777L59.0929 15.7003C59.3204 15.3461 59.5652 15.0696 59.8301 14.8738C60.0951 14.678 60.3111 14.5541 60.481 14.5109C60.7229 14.4447 60.9532 14.4102 61.1721 14.4102C61.391 14.4102 61.6646 14.4534 61.9928 14.5397L61.8834 15.6945C61.6358 15.6369 61.3478 15.6053 61.0195 15.6053Z" fill="white"/>
<path d="M64.9844 12.484C64.659 12.484 64.4516 12.438 64.3595 12.3458C64.2155 12.1961 64.1406 11.9887 64.1406 11.7238C64.1406 11.4589 64.155 11.2717 64.1867 11.1565C64.2184 11.0442 64.2645 10.9549 64.3278 10.8915C64.443 10.7763 64.6215 10.7188 64.8606 10.7188C65.0996 10.7188 65.2724 10.7303 65.376 10.7562C65.4797 10.7792 65.5661 10.8253 65.6352 10.8944C65.7504 11.0096 65.808 11.1997 65.808 11.4646C65.808 11.7295 65.7936 11.9167 65.7677 12.0319C65.7418 12.1471 65.6957 12.2364 65.6323 12.3055C65.5172 12.4236 65.2983 12.484 64.9844 12.484ZM64.3969 14.5546H65.5891V23.1968H64.4142L64.3969 14.5546Z" fill="white"/>
<path d="M72.8845 15.5428C72.0954 15.5428 71.2343 15.8222 70.2984 16.378V23.1973H69.0918V14.5551H70.1516L70.2667 15.4478C71.1134 14.7567 72.0637 14.4082 73.112 14.4082C73.7109 14.4082 74.1861 14.4946 74.5317 14.6674C74.8773 14.8402 75.1278 15.1224 75.2833 15.514C76.3517 14.7768 77.3711 14.4111 78.333 14.4111C79.243 14.4111 79.8737 14.6184 80.2279 15.036C80.5677 15.4392 80.7376 16.1533 80.7376 17.1785V23.2001H79.5166V17.4003C79.5166 16.7034 79.4475 16.2541 79.3121 16.0526C79.1768 15.851 79.0155 15.7156 78.8283 15.6465C78.6411 15.5774 78.4251 15.54 78.1746 15.54C77.924 15.54 77.6908 15.563 77.4691 15.6091C77.2473 15.6551 77.0256 15.7156 76.7981 15.7934C76.3373 15.9518 75.8967 16.1562 75.4762 16.4039C75.4993 16.6947 75.5137 16.951 75.5137 17.1728V23.1944H74.2927V17.4003C74.2927 16.7034 74.2235 16.2541 74.0882 16.0526C73.9528 15.851 73.7916 15.7156 73.6044 15.6465C73.4287 15.5774 73.1868 15.5428 72.8845 15.5428Z" fill="white"/>
<path d="M90.7124 22.7393C89.7102 23.1425 88.6044 23.3412 87.3949 23.3412C86.6922 23.3412 86.0961 23.2692 85.6094 23.1223C84.829 22.9006 84.3107 22.4398 84.0544 21.7429C83.8182 21.0892 83.6973 20.1216 83.6973 18.8372V18.4657C83.6973 16.9308 84.0169 15.8538 84.6562 15.2346C85.2322 14.6817 86.194 14.4053 87.5389 14.4053C88.8521 14.4053 89.7477 14.7307 90.2257 15.3786C90.459 15.6925 90.6116 16.0755 90.6865 16.5219C90.7613 16.9711 90.7988 17.3974 90.7988 17.8034C90.7988 18.437 90.7844 18.9294 90.7556 19.2778C90.0731 19.3066 89.4597 19.321 88.9183 19.321H87.7491C86.5281 19.321 85.5893 19.2692 84.9327 19.1627C84.9327 20.2771 85.0738 21.0518 85.3531 21.4953C85.6958 22.0338 86.3812 22.3016 87.4093 22.3016C88.4345 22.3016 89.4194 22.1 90.3582 21.6997L90.7124 22.7393ZM89.572 18.316V17.6191C89.572 16.8588 89.4251 16.3174 89.1285 15.992C88.8002 15.6292 88.23 15.4477 87.4208 15.4477C86.4532 15.4477 85.7909 15.658 85.4395 16.0784C85.0997 16.4816 84.9298 17.2246 84.9298 18.316H89.572Z" fill="white"/>
<path d="M93.8659 21.4832C94.8623 22.039 95.8644 22.3184 96.8724 22.3184C97.7104 22.3184 98.1999 22.0217 98.3468 21.4256C98.3957 21.2212 98.4188 20.9735 98.4188 20.6827C98.4188 20.3889 98.3842 20.1614 98.318 20.0002C98.2489 19.8389 98.1366 19.7179 97.9782 19.6373C97.8198 19.5567 97.6067 19.4991 97.3417 19.4588C97.0768 19.4213 96.7428 19.3666 96.3367 19.2946C95.9307 19.2226 95.5563 19.1449 95.2194 19.0585C94.8795 18.9721 94.5916 18.8454 94.3554 18.6812C93.8515 18.327 93.6096 17.7338 93.6297 16.8958V16.7143C93.6297 15.8331 93.9206 15.2053 94.5023 14.8338C95.0639 14.4652 95.9911 14.3414 97.2842 14.4566C98.1654 14.5401 98.868 14.6927 99.3893 14.9145L99.0495 16.0117C98.4677 15.764 97.7708 15.5855 96.9587 15.4732C96.7053 15.4386 96.4721 15.4213 96.2503 15.4213C96.0286 15.4213 95.8299 15.4386 95.6513 15.4732C95.4728 15.5077 95.323 15.5711 95.2021 15.6632C94.9688 15.8533 94.8479 16.2046 94.8392 16.7172C94.8248 17.322 94.9947 17.7079 95.3489 17.872C95.6888 18.0333 96.0891 18.1427 96.5556 18.2032C97.0192 18.2636 97.3993 18.3184 97.696 18.3616C97.9926 18.4076 98.2604 18.4681 98.5023 18.5459C98.7442 18.6236 98.9515 18.7475 99.1272 18.9174C99.4901 19.2601 99.6657 19.859 99.6571 20.7115C99.634 22.1974 99.012 23.0441 97.7968 23.2543C97.4281 23.3176 97.0595 23.3493 96.6938 23.3493C96.3281 23.3493 95.9883 23.3263 95.6801 23.2802C95.372 23.2341 95.0783 23.1708 94.7989 23.0873C94.2662 22.9375 93.7852 22.7388 93.3533 22.4912L93.8659 21.4832Z" fill="white"/>
<path d="M101.578 14.5547H102.871L104.7 20.9017L105.025 22.2897L105.264 21.1292L107.153 14.5576H108.346L110.206 20.9046L110.526 22.307L110.759 21.1234L112.559 14.5576H113.866L111.309 23.1998H109.719L108.063 17.6591L107.729 15.96L107.433 17.6591L105.785 23.1998H104.268L101.578 14.5547Z" fill="white"/>
<path d="M117.002 12.484C116.677 12.484 116.469 12.438 116.377 12.3458C116.233 12.1961 116.158 11.9887 116.158 11.7238C116.158 11.4589 116.173 11.2717 116.204 11.1565C116.236 11.0442 116.282 10.9549 116.345 10.8915C116.461 10.7763 116.639 10.7188 116.878 10.7188C117.117 10.7188 117.29 10.7303 117.394 10.7562C117.497 10.7792 117.584 10.8253 117.65 10.8944C117.765 11.0096 117.826 11.1997 117.826 11.4646C117.826 11.7295 117.811 11.9167 117.785 12.0319C117.759 12.1471 117.713 12.2364 117.65 12.3055C117.535 12.4236 117.316 12.484 117.002 12.484ZM116.415 14.5546H117.607V23.1968H116.429L116.415 14.5546Z" fill="white"/>
<path d="M125.353 22.7821C124.564 23.1536 123.836 23.3408 123.168 23.3408C121.958 23.3408 121.27 22.8224 121.106 21.7857C121.068 21.5381 121.048 21.181 121.048 20.7116V15.5625H120.003V14.6698L121.048 14.5546L121.238 12.5791H122.246V14.5546H124.766V15.5654H122.246V20.6914C122.246 21.2875 122.289 21.6677 122.376 21.8318C122.534 22.1313 122.857 22.281 123.335 22.281C123.813 22.281 124.348 22.1342 124.939 21.8376L125.353 22.7821Z" fill="white"/>
<path d="M133.304 22.8114C132.63 23.1656 131.709 23.3413 130.537 23.3413C129.846 23.3413 129.336 23.2894 129.014 23.1829C128.184 22.9035 127.643 22.4255 127.386 21.7516C127.208 21.2822 127.104 20.7754 127.075 20.234C127.047 19.6926 127.032 19.2347 127.032 18.8603C127.032 18.486 127.041 18.1231 127.061 17.766C127.081 17.4089 127.127 17.0691 127.202 16.7379C127.277 16.4096 127.392 16.1015 127.548 15.8193C127.703 15.5371 127.913 15.2894 128.178 15.0763C128.754 14.6299 129.584 14.4082 130.661 14.4082C131.456 14.4082 132.187 14.5234 132.855 14.7567C133.034 14.8143 133.169 14.8718 133.261 14.9237L132.898 15.9978C131.968 15.6407 131.208 15.4593 130.615 15.4593C130.021 15.4593 129.587 15.5284 129.307 15.6638C129.028 15.7991 128.812 16.0065 128.656 16.2801C128.394 16.7552 128.265 17.6249 128.265 18.8949C128.265 19.4046 128.282 19.8682 128.317 20.2858C128.351 20.7034 128.435 21.0634 128.57 21.3657C128.855 21.9849 129.445 22.2959 130.338 22.2959C131.231 22.2959 132.101 22.1404 132.942 21.8322L133.304 22.8114Z" fill="white"/>
<path d="M140.066 15.5338C139.101 15.5338 138.145 15.8131 137.198 16.3689V23.194H135.991V10.8369L137.169 10.7217V15.4503C137.667 15.0241 138.315 14.7159 139.116 14.5287C139.435 14.451 139.813 14.4135 140.248 14.4135C140.682 14.4135 141.065 14.4625 141.394 14.5633C141.722 14.6612 141.984 14.8225 142.177 15.0385C142.525 15.4301 142.701 16.1443 142.701 17.181V23.2026H141.48V17.3941C141.48 16.6972 141.411 16.248 141.276 16.0464C141.14 15.8448 140.979 15.7094 140.792 15.6403C140.61 15.5712 140.366 15.5338 140.066 15.5338Z" fill="white"/>
</g>
<defs>
<clipPath id="clip0_711_7634">
<rect width="142.854" height="40" fill="white"/>
</clipPath>
</defs>
</svg>
