<svg width="146" height="146" viewBox="0 0 146 146" fill="none" xmlns="http://www.w3.org/2000/svg">
<circle cx="73" cy="73" r="73" fill="#E0EEFF"/>
<line x1="114.413" y1="12.2821" x2="32.4128" y2="132.282" stroke="white"/>
<line x1="30.4064" y1="11.7087" x2="116.406" y2="131.709" stroke="white"/>
<line x1="146" y1="72.5" x2="-4.37114e-08" y2="72.5" stroke="white"/>
<circle cx="73" cy="72" r="36" fill="white"/>
<circle cx="73" cy="72" r="51.5" stroke="white"/>
<path d="M49.8247 72.4492H97.0747M49.8247 72.4492C49.8247 85.4969 60.402 96.0742 73.4497 96.0742M49.8247 72.4492C49.8247 59.4015 60.402 48.8242 73.4497 48.8242M97.0747 72.4492C97.0747 85.4969 86.4974 96.0742 73.4497 96.0742M97.0747 72.4492C97.0747 59.4015 86.4974 48.8242 73.4497 48.8242M73.4497 48.8242C79.359 55.2936 82.7172 63.6891 82.8997 72.4492C82.7172 81.2093 79.359 89.6049 73.4497 96.0742M73.4497 48.8242C67.5404 55.2936 64.1822 63.6891 63.9997 72.4492C64.1822 81.2093 67.5404 89.6049 73.4497 96.0742" stroke="#0D285B" stroke-width="4.725" stroke-linecap="round" stroke-linejoin="round"/>
</svg>
