<svg width="68" height="68" viewBox="0 0 68 68" fill="none" xmlns="http://www.w3.org/2000/svg">
<circle cx="34" cy="34" r="34" fill="#EFF4FF"/>
<path d="M40.7495 17.5H27.2495C26.2549 17.5 25.3011 17.8951 24.5979 18.5983C23.8946 19.3016 23.4995 20.2554 23.4995 21.25V46.75C23.4995 47.7446 23.8946 48.6984 24.5979 49.4016C25.3011 50.1049 26.2549 50.5 27.2495 50.5H40.7495C41.7441 50.5 42.6979 50.1049 43.4012 49.4016C44.1044 48.6984 44.4995 47.7446 44.4995 46.75V21.25C44.4995 20.2554 44.1044 19.3016 43.4012 18.5983C42.6979 17.8951 41.7441 17.5 40.7495 17.5ZM24.9995 43V23.5H42.9995V43H24.9995ZM36.2495 47.5H31.7495V46H36.2495V47.5ZM33.9995 26.5C32.6645 26.5 31.3594 26.8959 30.2494 27.6376C29.1394 28.3793 28.2742 29.4335 27.7633 30.6669C27.2524 31.9003 27.1188 33.2575 27.3792 34.5669C27.6397 35.8762 28.2825 37.079 29.2265 38.023C30.1705 38.967 31.3733 39.6099 32.6827 39.8703C33.992 40.1308 35.3492 39.9971 36.5826 39.4862C37.816 38.9753 38.8702 38.1101 39.6119 37.0001C40.3536 35.8901 40.7495 34.585 40.7495 33.25C40.7495 31.4598 40.0384 29.7429 38.7725 28.477C37.5066 27.2112 35.7897 26.5 33.9995 26.5ZM36.2495 31.75H33.2495V32.5H35.4995C35.6984 32.5 35.8892 32.579 36.0298 32.7197C36.1705 32.8603 36.2495 33.0511 36.2495 33.25V35.5C36.2495 35.6989 36.1705 35.8897 36.0298 36.0303C35.8892 36.171 35.6984 36.25 35.4995 36.25H34.7495V37H33.2495V36.25H31.7495V34.75H34.7495V34H32.4995C32.3006 34 32.1098 33.921 31.9692 33.7803C31.8285 33.6397 31.7495 33.4489 31.7495 33.25V31C31.7495 30.8011 31.8285 30.6103 31.9692 30.4697C32.1098 30.329 32.3006 30.25 32.4995 30.25H33.2495V29.5H34.7495V30.25H36.2495V31.75Z" fill="#00147D"/>
</svg>
