<svg width="64" height="64" viewBox="0 0 64 64" fill="none" xmlns="http://www.w3.org/2000/svg">
<g clip-path="url(#clip0_1018_8079)">
<path d="M32 64C49.6731 64 64 49.6731 64 32C64 14.3269 49.6731 0 32 0C14.3269 0 0 14.3269 0 32C0 49.6731 14.3269 64 32 64Z" fill="#F0F0F0"/>
<path d="M0 31.9997C0 45.7587 8.684 57.488 20.8696 62.0095V1.99023C8.684 6.51148 0 18.241 0 31.9997Z" fill="#6DA544"/>
<path d="M63.9995 31.9997C63.9995 18.241 55.3155 6.51148 43.1299 1.99023V62.0096C55.3155 57.488 63.9995 45.7587 63.9995 31.9997Z" fill="#6DA544"/>
</g>
<defs>
<clipPath id="clip0_1018_8079">
<rect width="64" height="64" fill="white"/>
</clipPath>
</defs>
</svg>
