<svg width="636" height="488" viewBox="0 0 636 488" fill="none" xmlns="http://www.w3.org/2000/svg">
<rect x="343.5" y="385.5" width="292" height="102" rx="11.4606" fill="url(#paint0_linear_1142_8115)"/>
<circle cx="370.278" cy="420.278" r="15.2777" fill="#12B76A"/>
<path d="M376.097 415.913L368.095 423.916L364.457 420.278" stroke="#F9FAFB" stroke-width="1.45502" stroke-linecap="round" stroke-linejoin="round"/>
<path d="M404.7 425.156C407.345 425.156 409.242 423.802 409.569 421.127H407.547C407.329 422.698 406.24 423.476 404.7 423.476C402.647 423.476 401.449 421.998 401.449 419.493V419.369C401.449 416.88 402.725 415.356 404.685 415.356C406.287 415.356 407.111 416.118 407.345 417.596H409.445C409.196 414.982 407.22 413.707 404.669 413.707C401.573 413.707 399.271 416.04 399.271 419.384V419.509C399.271 422.931 401.216 425.156 404.7 425.156ZM411.206 425H413.088V420.769C413.088 419.042 414.083 418.513 415.732 418.498V416.74C414.363 416.756 413.601 417.362 413.088 418.389V416.864H411.206V425ZM420.814 425.156C422.899 425.156 424.283 424.222 424.548 422.511H422.728C422.588 423.304 421.996 423.756 420.861 423.756C419.461 423.756 418.683 422.884 418.621 421.344H424.579V420.8C424.579 417.891 422.759 416.693 420.736 416.693C418.419 416.693 416.692 418.373 416.692 420.893V421.018C416.692 423.584 418.419 425.156 420.814 425.156ZM418.652 420.084C418.839 418.824 419.601 418.062 420.736 418.062C421.903 418.062 422.619 418.684 422.712 420.084H418.652ZM429.309 425.156C430.507 425.156 431.549 424.44 431.984 423.631V425H433.867V413.1H431.984V418.109C431.533 417.3 430.709 416.693 429.387 416.693C427.271 416.693 425.731 418.342 425.731 420.94V421.064C425.731 423.709 427.271 425.156 429.309 425.156ZM429.775 423.662C428.562 423.662 427.66 422.807 427.66 421.018V420.893C427.66 419.136 428.469 418.171 429.853 418.171C431.222 418.171 432.047 419.058 432.047 420.847V420.971C432.047 422.791 431.082 423.662 429.775 423.662ZM436.15 425H438.033V416.864H436.15V425ZM437.068 415.527C437.69 415.527 438.188 415.06 438.188 414.453C438.188 413.831 437.69 413.364 437.068 413.364C436.446 413.364 435.948 413.831 435.948 414.453C435.948 415.06 436.446 415.527 437.068 415.527ZM443.096 425.14C443.671 425.14 444.076 425.047 444.371 424.938V423.444C444.107 423.553 443.827 423.6 443.453 423.6C442.862 423.6 442.52 423.273 442.52 422.558V418.28H444.309V416.864H442.52V415.076H440.638V416.864H439.549V418.28H440.638V422.729C440.638 424.269 441.478 425.14 443.096 425.14ZM449.075 425H451.02L451.891 422.247H456.138L457.024 425H459.171L455.5 413.878H452.793L449.075 425ZM454.022 415.573L455.655 420.738H452.373L454.022 415.573ZM460.76 425H462.642V413.1H460.76V425ZM468.514 425.156C470.598 425.156 471.983 424.222 472.247 422.511H470.427C470.287 423.304 469.696 423.756 468.561 423.756C467.161 423.756 466.383 422.884 466.321 421.344H472.278V420.8C472.278 417.891 470.458 416.693 468.436 416.693C466.118 416.693 464.392 418.373 464.392 420.893V421.018C464.392 423.584 466.118 425.156 468.514 425.156ZM466.352 420.084C466.538 418.824 467.301 418.062 468.436 418.062C469.603 418.062 470.318 418.684 470.412 420.084H466.352ZM473.96 425H475.842V420.769C475.842 419.042 476.837 418.513 478.486 418.498V416.74C477.117 416.756 476.355 417.362 475.842 418.389V416.864H473.96V425ZM482.987 425.14C483.563 425.14 483.967 425.047 484.263 424.938V423.444C483.998 423.553 483.718 423.6 483.345 423.6C482.754 423.6 482.412 423.273 482.412 422.558V418.28H484.2V416.864H482.412V415.076H480.529V416.864H479.44V418.28H480.529V422.729C480.529 424.269 481.369 425.14 482.987 425.14Z" fill="white"/>
<path d="M401.858 448H403.6V443.983L406.512 438.705H404.822L402.781 442.553L400.688 438.705H398.777L401.858 443.97V448ZM409.668 446.908C408.472 446.908 407.783 446.037 407.783 444.646V444.542C407.783 443.138 408.498 442.293 409.668 442.293C410.838 442.293 411.54 443.151 411.54 444.555V444.646C411.54 446.037 410.838 446.908 409.668 446.908ZM409.655 448.13C411.657 448.13 413.152 446.752 413.152 444.633V444.529C413.152 442.449 411.657 441.058 409.668 441.058C407.666 441.058 406.171 442.462 406.171 444.568V444.672C406.171 446.739 407.653 448.13 409.655 448.13ZM416.849 448.13C417.954 448.13 418.669 447.597 419.007 446.934V448H420.58V441.201H419.007V445.244C419.007 446.323 418.266 446.869 417.421 446.869C416.511 446.869 416.082 446.401 416.082 445.374V441.201H414.509V445.556C414.509 447.363 415.51 448.13 416.849 448.13ZM425.542 448H427.115V443.996C427.115 442.917 427.83 442.371 428.714 442.371C429.65 442.371 430.066 442.839 430.066 443.866V448H431.639V443.723C431.639 441.851 430.677 441.058 429.312 441.058C428.194 441.058 427.44 441.617 427.115 442.28V438.055H425.542V448ZM435.233 448.13C436.273 448.13 436.871 447.753 437.313 447.168V448H438.86V443.541C438.86 441.682 437.664 441.058 436.143 441.058C434.622 441.058 433.361 441.721 433.231 443.307H434.752C434.83 442.631 435.233 442.241 436.052 442.241C436.975 442.241 437.287 442.696 437.287 443.606V443.957H436.442C434.492 443.957 432.958 444.529 432.958 446.115C432.958 447.532 433.985 448.13 435.233 448.13ZM435.61 446.999C434.83 446.999 434.518 446.622 434.518 446.05C434.518 445.218 435.285 444.945 436.481 444.945H437.287V445.621C437.287 446.492 436.572 446.999 435.61 446.999ZM442.253 448H444.086L446.543 441.201H444.996L443.241 446.388L441.46 441.201H439.77L442.253 448ZM450.445 448.13C452.187 448.13 453.344 447.35 453.565 445.92H452.044C451.927 446.583 451.433 446.96 450.484 446.96C449.314 446.96 448.664 446.232 448.612 444.945H453.591V444.49C453.591 442.059 452.07 441.058 450.38 441.058C448.443 441.058 447 442.462 447 444.568V444.672C447 446.817 448.443 448.13 450.445 448.13ZM448.638 443.892C448.794 442.839 449.431 442.202 450.38 442.202C451.355 442.202 451.953 442.722 452.031 443.892H448.638ZM458.093 448H459.666V444.464C459.666 443.021 460.498 442.579 461.876 442.566V441.097C460.732 441.11 460.095 441.617 459.666 442.475V441.201H458.093V448ZM466.123 448.13C467.865 448.13 469.022 447.35 469.243 445.92H467.722C467.605 446.583 467.111 446.96 466.162 446.96C464.992 446.96 464.342 446.232 464.29 444.945H469.269V444.49C469.269 442.059 467.748 441.058 466.058 441.058C464.121 441.058 462.678 442.462 462.678 444.568V444.672C462.678 446.817 464.121 448.13 466.123 448.13ZM464.316 443.892C464.472 442.839 465.109 442.202 466.058 442.202C467.033 442.202 467.631 442.722 467.709 443.892H464.316ZM473.651 448.13C475.497 448.13 476.68 447.025 476.797 445.465H475.354C475.263 446.427 474.548 446.921 473.716 446.921C472.559 446.921 471.831 446.141 471.831 444.659V444.555C471.831 443.151 472.598 442.319 473.677 442.319C474.509 442.319 475.107 442.696 475.237 443.606H476.758C476.576 441.734 475.159 441.058 473.651 441.058C471.753 441.058 470.219 442.423 470.219 444.581V444.685C470.219 446.856 471.701 448.13 473.651 448.13ZM481.142 448.13C482.884 448.13 484.041 447.35 484.262 445.92H482.741C482.624 446.583 482.13 446.96 481.181 446.96C480.011 446.96 479.361 446.232 479.309 444.945H484.288V444.49C484.288 442.059 482.767 441.058 481.077 441.058C479.14 441.058 477.697 442.462 477.697 444.568V444.672C477.697 446.817 479.14 448.13 481.142 448.13ZM479.335 443.892C479.491 442.839 480.128 442.202 481.077 442.202C482.052 442.202 482.65 442.722 482.728 443.892H479.335ZM485.732 448H487.305V441.201H485.732V448ZM486.499 440.083C487.019 440.083 487.435 439.693 487.435 439.186C487.435 438.666 487.019 438.276 486.499 438.276C485.979 438.276 485.563 438.666 485.563 439.186C485.563 439.693 485.979 440.083 486.499 440.083ZM491.003 448H492.836L495.293 441.201H493.746L491.991 446.388L490.21 441.201H488.52L491.003 448ZM499.195 448.13C500.937 448.13 502.094 447.35 502.315 445.92H500.794C500.677 446.583 500.183 446.96 499.234 446.96C498.064 446.96 497.414 446.232 497.362 444.945H502.341V444.49C502.341 442.059 500.82 441.058 499.13 441.058C497.193 441.058 495.75 442.462 495.75 444.568V444.672C495.75 446.817 497.193 448.13 499.195 448.13ZM497.388 443.892C497.544 442.839 498.181 442.202 499.13 442.202C500.105 442.202 500.703 442.722 500.781 443.892H497.388ZM506.294 448.13C507.295 448.13 508.166 447.532 508.53 446.856V448H510.103V438.055H508.53V442.241C508.153 441.565 507.464 441.058 506.359 441.058C504.591 441.058 503.304 442.436 503.304 444.607V444.711C503.304 446.921 504.591 448.13 506.294 448.13ZM506.684 446.882C505.67 446.882 504.916 446.167 504.916 444.672V444.568C504.916 443.099 505.592 442.293 506.749 442.293C507.893 442.293 508.582 443.034 508.582 444.529V444.633C508.582 446.154 507.776 446.882 506.684 446.882ZM519.373 448.13C521.999 448.13 523.611 446.57 523.611 443.996V443.138H519.568V444.438H521.908C521.856 445.725 521.141 446.778 519.399 446.778C517.449 446.778 516.526 445.413 516.526 443.424V443.32C516.526 441.279 517.579 439.927 519.399 439.927C520.608 439.927 521.44 440.46 521.648 441.695H523.377C523.13 439.472 521.362 438.562 519.373 438.562C516.656 438.562 514.732 440.538 514.732 443.307V443.411C514.732 446.154 516.396 448.13 519.373 448.13ZM525.28 448H527.009V444.048H531.182V448H532.924V438.705H531.182V442.657H527.009V438.705H525.28V448ZM538.202 448.13C540.256 448.13 541.621 446.869 541.621 445.257C541.621 443.398 540.49 442.774 538.306 442.475C536.694 442.241 536.382 441.864 536.382 441.11C536.382 440.395 536.928 439.888 537.981 439.888C539.047 439.888 539.606 440.304 539.775 441.279H541.361C541.179 439.498 539.983 438.588 537.981 438.588C536.044 438.588 534.744 439.732 534.744 441.253C534.744 442.995 535.797 443.671 538.02 443.97C539.528 444.217 539.957 444.542 539.957 445.4C539.957 446.258 539.229 446.83 538.202 446.83C536.629 446.83 536.252 446.05 536.135 445.114H534.471C534.601 446.869 535.667 448.13 538.202 448.13ZM545.521 448H552.242V446.661H548.29L550.357 444.646C551.462 443.58 552.177 442.527 552.177 441.318C552.177 439.68 551.033 438.575 549.109 438.575C547.146 438.575 545.924 439.745 545.807 441.773H547.393C547.549 440.46 548.134 439.927 549.057 439.927C549.954 439.927 550.448 440.473 550.448 441.344C550.448 442.228 549.915 443.047 549.031 443.983L545.521 447.688V448ZM556.794 448.13C558.926 448.13 560.278 447.064 560.278 445.348C560.278 444.113 559.563 443.346 558.484 443.099C559.381 442.761 559.992 442.124 559.992 441.071C559.992 439.693 558.861 438.575 556.924 438.575C554.935 438.575 553.726 439.81 553.635 441.422H555.169C555.273 440.486 555.91 439.888 556.898 439.888C557.86 439.888 558.341 440.447 558.341 441.201C558.341 442.072 557.86 442.566 556.794 442.566H556.131V443.801H556.846C557.977 443.801 558.523 444.308 558.523 445.322C558.523 446.245 557.964 446.83 556.755 446.83C555.507 446.83 554.961 446.102 554.87 445.127H553.297C553.375 446.908 554.584 448.13 556.794 448.13ZM562.027 449.599L563.73 446.687L562.235 446.089L561.052 449.17L562.027 449.599ZM569.095 448H570.772V446.115H572.02V444.828H570.772V438.705H568.601L564.493 445.504V446.115H569.095V448ZM566.339 444.828L569.121 440.018V444.828H566.339ZM576.344 448.117C578.736 448.117 580.088 446.414 580.088 443.359V442.878C580.088 440.2 578.892 438.562 576.461 438.562C574.342 438.562 573.016 439.849 573.016 441.747C573.016 443.58 574.303 444.763 576.097 444.763C577.202 444.763 577.956 444.295 578.385 443.593C578.359 445.712 577.644 446.778 576.318 446.778C575.317 446.778 574.888 446.31 574.719 445.582H573.094C573.315 447.181 574.446 448.117 576.344 448.117ZM576.461 443.554C575.395 443.554 574.719 442.813 574.719 441.695C574.719 440.59 575.408 439.849 576.448 439.849C577.514 439.849 578.255 440.577 578.255 441.825C578.255 442.852 577.514 443.554 576.461 443.554ZM584.584 448.13C586.716 448.13 588.068 447.064 588.068 445.348C588.068 444.113 587.353 443.346 586.274 443.099C587.171 442.761 587.782 442.124 587.782 441.071C587.782 439.693 586.651 438.575 584.714 438.575C582.725 438.575 581.516 439.81 581.425 441.422H582.959C583.063 440.486 583.7 439.888 584.688 439.888C585.65 439.888 586.131 440.447 586.131 441.201C586.131 442.072 585.65 442.566 584.584 442.566H583.921V443.801H584.636C585.767 443.801 586.313 444.308 586.313 445.322C586.313 446.245 585.754 446.83 584.545 446.83C583.297 446.83 582.751 446.102 582.66 445.127H581.087C581.165 446.908 582.374 448.13 584.584 448.13ZM590.35 448.091C590.935 448.091 591.39 447.649 591.39 447.077C591.39 446.505 590.935 446.05 590.35 446.05C589.778 446.05 589.323 446.505 589.323 447.077C589.323 447.649 589.778 448.091 590.35 448.091ZM595.768 448.117C598.16 448.117 599.512 446.414 599.512 443.359V442.878C599.512 440.2 598.316 438.562 595.885 438.562C593.766 438.562 592.44 439.849 592.44 441.747C592.44 443.58 593.727 444.763 595.521 444.763C596.626 444.763 597.38 444.295 597.809 443.593C597.783 445.712 597.068 446.778 595.742 446.778C594.741 446.778 594.312 446.31 594.143 445.582H592.518C592.739 447.181 593.87 448.117 595.768 448.117ZM595.885 443.554C594.819 443.554 594.143 442.813 594.143 441.695C594.143 440.59 594.832 439.849 595.872 439.849C596.938 439.849 597.679 440.577 597.679 441.825C597.679 442.852 596.938 443.554 595.885 443.554ZM604.785 446.752C603.394 446.752 602.588 445.686 602.588 443.58V443.112C602.588 441.045 603.355 439.927 604.759 439.927C606.15 439.927 606.904 441.123 606.904 443.099V443.554C606.904 445.66 606.215 446.752 604.785 446.752ZM604.746 448.13C607.177 448.13 608.633 446.349 608.633 443.554V443.086C608.633 440.291 607.099 438.575 604.746 438.575C602.406 438.575 600.846 440.304 600.846 443.125V443.593C600.846 446.388 602.38 448.13 604.746 448.13ZM399.531 464H401.104V457.201H399.531V464ZM400.298 456.083C400.818 456.083 401.234 455.693 401.234 455.186C401.234 454.666 400.818 454.276 400.298 454.276C399.778 454.276 399.362 454.666 399.362 455.186C399.362 455.693 399.778 456.083 400.298 456.083ZM403.021 464H404.594V459.996C404.594 458.917 405.309 458.371 406.193 458.371C407.129 458.371 407.545 458.839 407.545 459.866V464H409.118V459.723C409.118 457.851 408.156 457.058 406.791 457.058C405.673 457.058 404.919 457.617 404.594 458.28V457.201H403.021V464ZM413.244 464.117C413.725 464.117 414.063 464.039 414.31 463.948V462.7C414.089 462.791 413.855 462.83 413.543 462.83C413.049 462.83 412.763 462.557 412.763 461.959V458.384H414.258V457.201H412.763V455.706H411.19V457.201H410.28V458.384H411.19V462.102C411.19 463.389 411.892 464.117 413.244 464.117ZM418.771 462.908C417.575 462.908 416.886 462.037 416.886 460.646V460.542C416.886 459.138 417.601 458.293 418.771 458.293C419.941 458.293 420.643 459.151 420.643 460.555V460.646C420.643 462.037 419.941 462.908 418.771 462.908ZM418.758 464.13C420.76 464.13 422.255 462.752 422.255 460.633V460.529C422.255 458.449 420.76 457.058 418.771 457.058C416.769 457.058 415.274 458.462 415.274 460.568V460.672C415.274 462.739 416.756 464.13 418.758 464.13ZM427.528 466.327H429.075L432.78 457.201H431.246L429.582 461.582L427.775 457.201H426.072L428.763 463.311L427.528 466.327ZM436.748 462.908C435.552 462.908 434.863 462.037 434.863 460.646V460.542C434.863 459.138 435.578 458.293 436.748 458.293C437.918 458.293 438.62 459.151 438.62 460.555V460.646C438.62 462.037 437.918 462.908 436.748 462.908ZM436.735 464.13C438.737 464.13 440.232 462.752 440.232 460.633V460.529C440.232 458.449 438.737 457.058 436.748 457.058C434.746 457.058 433.251 458.462 433.251 460.568V460.672C433.251 462.739 434.733 464.13 436.735 464.13ZM443.928 464.13C445.033 464.13 445.748 463.597 446.086 462.934V464H447.659V457.201H446.086V461.244C446.086 462.323 445.345 462.869 444.5 462.869C443.59 462.869 443.161 462.401 443.161 461.374V457.201H441.588V461.556C441.588 463.363 442.589 464.13 443.928 464.13ZM449.524 464H451.097V460.464C451.097 459.021 451.929 458.579 453.307 458.566V457.097C452.163 457.11 451.526 457.617 451.097 458.475V457.201H449.524V464ZM462.092 464.13C464.718 464.13 466.33 462.57 466.33 459.996V459.138H462.287V460.438H464.627C464.575 461.725 463.86 462.778 462.118 462.778C460.168 462.778 459.245 461.413 459.245 459.424V459.32C459.245 457.279 460.298 455.927 462.118 455.927C463.327 455.927 464.159 456.46 464.367 457.695H466.096C465.849 455.472 464.081 454.562 462.092 454.562C459.375 454.562 457.451 456.538 457.451 459.307V459.411C457.451 462.154 459.115 464.13 462.092 464.13ZM467.999 464H469.728V460.048H473.901V464H475.643V454.705H473.901V458.657H469.728V454.705H467.999V464ZM480.92 464.13C482.974 464.13 484.339 462.869 484.339 461.257C484.339 459.398 483.208 458.774 481.024 458.475C479.412 458.241 479.1 457.864 479.1 457.11C479.1 456.395 479.646 455.888 480.699 455.888C481.765 455.888 482.324 456.304 482.493 457.279H484.079C483.897 455.498 482.701 454.588 480.699 454.588C478.762 454.588 477.462 455.732 477.462 457.253C477.462 458.995 478.515 459.671 480.738 459.97C482.246 460.217 482.675 460.542 482.675 461.4C482.675 462.258 481.947 462.83 480.92 462.83C479.347 462.83 478.97 462.05 478.853 461.114H477.189C477.319 462.869 478.385 464.13 480.92 464.13ZM490.762 464.13C491.802 464.13 492.4 463.753 492.842 463.168V464H494.389V459.541C494.389 457.682 493.193 457.058 491.672 457.058C490.151 457.058 488.89 457.721 488.76 459.307H490.281C490.359 458.631 490.762 458.241 491.581 458.241C492.504 458.241 492.816 458.696 492.816 459.606V459.957H491.971C490.021 459.957 488.487 460.529 488.487 462.115C488.487 463.532 489.514 464.13 490.762 464.13ZM491.139 462.999C490.359 462.999 490.047 462.622 490.047 462.05C490.047 461.218 490.814 460.945 492.01 460.945H492.816V461.621C492.816 462.492 492.101 462.999 491.139 462.999ZM499.169 464.13C501.015 464.13 502.198 463.025 502.315 461.465H500.872C500.781 462.427 500.066 462.921 499.234 462.921C498.077 462.921 497.349 462.141 497.349 460.659V460.555C497.349 459.151 498.116 458.319 499.195 458.319C500.027 458.319 500.625 458.696 500.755 459.606H502.276C502.094 457.734 500.677 457.058 499.169 457.058C497.271 457.058 495.737 458.423 495.737 460.581V460.685C495.737 462.856 497.219 464.13 499.169 464.13ZM506.646 464.13C508.492 464.13 509.675 463.025 509.792 461.465H508.349C508.258 462.427 507.543 462.921 506.711 462.921C505.554 462.921 504.826 462.141 504.826 460.659V460.555C504.826 459.151 505.593 458.319 506.672 458.319C507.504 458.319 508.102 458.696 508.232 459.606H509.753C509.571 457.734 508.154 457.058 506.646 457.058C504.748 457.058 503.214 458.423 503.214 460.581V460.685C503.214 462.856 504.696 464.13 506.646 464.13ZM514.189 462.908C512.993 462.908 512.304 462.037 512.304 460.646V460.542C512.304 459.138 513.019 458.293 514.189 458.293C515.359 458.293 516.061 459.151 516.061 460.555V460.646C516.061 462.037 515.359 462.908 514.189 462.908ZM514.176 464.13C516.178 464.13 517.673 462.752 517.673 460.633V460.529C517.673 458.449 516.178 457.058 514.189 457.058C512.187 457.058 510.692 458.462 510.692 460.568V460.672C510.692 462.739 512.174 464.13 514.176 464.13ZM521.369 464.13C522.474 464.13 523.189 463.597 523.527 462.934V464H525.1V457.201H523.527V461.244C523.527 462.323 522.786 462.869 521.941 462.869C521.031 462.869 520.602 462.401 520.602 461.374V457.201H519.029V461.556C519.029 463.363 520.03 464.13 521.369 464.13ZM526.965 464H528.538V459.996C528.538 458.917 529.253 458.371 530.137 458.371C531.073 458.371 531.489 458.839 531.489 459.866V464H533.062V459.723C533.062 457.851 532.1 457.058 530.735 457.058C529.617 457.058 528.863 457.617 528.538 458.28V457.201H526.965V464ZM537.188 464.117C537.669 464.117 538.007 464.039 538.254 463.948V462.7C538.033 462.791 537.799 462.83 537.487 462.83C536.993 462.83 536.707 462.557 536.707 461.959V458.384H538.202V457.201H536.707V455.706H535.134V457.201H534.224V458.384H535.134V462.102C535.134 463.389 535.836 464.117 537.188 464.117Z" fill="#D8D8D8"/>
<rect x="343.5" y="385.5" width="292" height="102" rx="11.4606" stroke="url(#paint1_linear_1142_8115)"/>
<rect x="0.5" y="0.5" width="382.305" height="252.916" rx="11.4606" fill="url(#paint2_linear_1142_8115)"/>
<path d="M29.64 55H32.04V44.2L36.38 55H37.24L41.5 44.2V55H44.16V40.7H40.64L36.96 50.46L33.2 40.7H29.64V55ZM48.2953 58.58H50.6753L56.3753 44.54H54.0153L51.4553 51.28L48.6753 44.54H46.0553L50.1953 53.94L48.2953 58.58ZM63.1556 55H68.6556C71.7956 55 73.5556 53.66 73.5556 51V50.92C73.5556 49.02 72.6356 47.96 70.6956 47.54C72.3156 47.04 72.9556 45.92 72.9556 44.5V44.42C72.9556 41.82 71.2156 40.7 68.2756 40.7H63.1556V55ZM65.7556 53.1V48.52H68.1556C70.1156 48.52 70.9356 49.26 70.9356 50.74V50.82C70.9356 52.3 70.1156 53.1 68.3356 53.1H65.7556ZM65.7556 46.72V42.6H67.9156C69.6156 42.6 70.3956 43.18 70.3956 44.54V44.62C70.3956 46.08 69.7156 46.72 67.9556 46.72H65.7556ZM78.5863 55.2C80.1863 55.2 81.1063 54.62 81.7863 53.72V55H84.1663V48.14C84.1663 45.28 82.3263 44.32 79.9863 44.32C77.6463 44.32 75.7063 45.34 75.5063 47.78H77.8463C77.9663 46.74 78.5863 46.14 79.8463 46.14C81.2663 46.14 81.7463 46.84 81.7463 48.24V48.78H80.4463C77.4463 48.78 75.0863 49.66 75.0863 52.1C75.0863 54.28 76.6663 55.2 78.5863 55.2ZM79.1663 53.46C77.9663 53.46 77.4863 52.88 77.4863 52C77.4863 50.72 78.6663 50.3 80.5063 50.3H81.7463V51.34C81.7463 52.68 80.6463 53.46 79.1663 53.46ZM87 55H89.42V39.7H87V55ZM95.1097 55.2C96.7097 55.2 97.6297 54.62 98.3097 53.72V55H100.69V48.14C100.69 45.28 98.8497 44.32 96.5097 44.32C94.1697 44.32 92.2297 45.34 92.0297 47.78H94.3697C94.4897 46.74 95.1097 46.14 96.3697 46.14C97.7897 46.14 98.2697 46.84 98.2697 48.24V48.78H96.9697C93.9697 48.78 91.6097 49.66 91.6097 52.1C91.6097 54.28 93.1897 55.2 95.1097 55.2ZM95.6897 53.46C94.4897 53.46 94.0097 52.88 94.0097 52C94.0097 50.72 95.1897 50.3 97.0297 50.3H98.2697V51.34C98.2697 52.68 97.1697 53.46 95.6897 53.46ZM103.463 55H105.883V48.84C105.883 47.18 106.983 46.34 108.343 46.34C109.783 46.34 110.423 47.06 110.423 48.64V55H112.843V48.42C112.843 45.54 111.363 44.32 109.263 44.32C107.543 44.32 106.383 45.18 105.883 46.2V44.54H103.463V55ZM120.211 55.2C123.051 55.2 124.871 53.5 125.051 51.1H122.831C122.691 52.58 121.591 53.34 120.311 53.34C118.531 53.34 117.411 52.14 117.411 49.86V49.7C117.411 47.54 118.591 46.26 120.251 46.26C121.531 46.26 122.451 46.84 122.651 48.24H124.991C124.711 45.36 122.531 44.32 120.211 44.32C117.291 44.32 114.931 46.42 114.931 49.74V49.9C114.931 53.24 117.211 55.2 120.211 55.2ZM131.735 55.2C134.415 55.2 136.195 54 136.535 51.8H134.195C134.015 52.82 133.255 53.4 131.795 53.4C129.995 53.4 128.995 52.28 128.915 50.3H136.575V49.6C136.575 45.86 134.235 44.32 131.635 44.32C128.655 44.32 126.435 46.48 126.435 49.72V49.88C126.435 53.18 128.655 55.2 131.735 55.2ZM128.955 48.68C129.195 47.06 130.175 46.08 131.635 46.08C133.135 46.08 134.055 46.88 134.175 48.68H128.955ZM142.415 55.2C145.095 55.2 146.595 53.98 146.595 51.86C146.595 49.64 145.135 49.04 142.675 48.66C141.015 48.38 140.515 48.08 140.515 47.32C140.515 46.58 141.135 46.08 142.175 46.08C143.295 46.08 143.835 46.52 144.035 47.48H146.275C146.015 45.12 144.315 44.32 142.175 44.32C140.215 44.32 138.255 45.36 138.255 47.46C138.255 49.42 139.275 50.2 142.035 50.64C143.575 50.9 144.275 51.22 144.275 52.08C144.275 52.96 143.695 53.42 142.395 53.42C140.975 53.42 140.435 52.8 140.315 51.74H138.035C138.135 53.96 139.715 55.2 142.415 55.2Z" fill="white"/>
<g clip-path="url(#clip0_1142_8115)">
<path d="M41.1527 116.305C48.4168 116.305 54.3055 110.417 54.3055 103.153C54.3055 95.8887 48.4168 90 41.1527 90C33.8887 90 28 95.8887 28 103.153C28 110.417 33.8887 116.305 41.1527 116.305Z" fill="#F0F0F0"/>
<path d="M28 103.153C28 108.808 31.5693 113.629 36.5779 115.488V90.8184C31.5693 92.6767 28 97.4978 28 103.153Z" fill="#6DA544"/>
<path d="M54.3054 103.153C54.3054 97.4978 50.7361 92.6767 45.7275 90.8184V115.488C50.7361 113.629 54.3054 108.808 54.3054 103.153Z" fill="#6DA544"/>
</g>
<rect x="66.5557" y="91.9023" width="122.5" height="10.5" rx="1.75" fill="url(#paint3_linear_1142_8115)"/>
<rect x="66.5557" y="91.9023" width="122.5" height="10.5" rx="1.75" stroke="url(#paint4_linear_1142_8115)" stroke-opacity="0.6" stroke-width="0.5"/>
<rect x="66.5557" y="91.9023" width="122.5" height="10.5" rx="1.75" stroke="url(#paint5_linear_1142_8115)" stroke-width="0.5"/>
<rect x="66.5057" y="106.852" width="60.6" height="7.6" rx="1.8" fill="url(#paint6_linear_1142_8115)"/>
<rect x="66.5057" y="106.852" width="60.6" height="7.6" rx="1.8" stroke="url(#paint7_linear_1142_8115)" stroke-opacity="0.6" stroke-width="0.4"/>
<rect x="66.5057" y="106.852" width="60.6" height="7.6" rx="1.8" stroke="url(#paint8_linear_1142_8115)" stroke-width="0.4"/>
<path d="M260.849 108.652V104.145H259.481V103.023H260.849V101.585H259.481V100.463H260.849V96.1309H262.673L264.339 100.463H266.408V96.1309H267.794V100.463H269.161V101.585H267.794V103.023H269.161V104.145H267.794V108.652H265.952L264.286 104.145H262.217V108.652H260.849ZM262.217 103.023H263.865L263.339 101.585H262.182L262.217 103.023ZM266.408 106.18H266.478L266.426 104.145H265.689L266.408 106.18ZM262.182 100.463H262.918L262.182 98.288H262.112L262.182 100.463ZM265.268 103.023H266.443L266.408 101.585H264.742L265.268 103.023ZM269.605 108.652H278.671V106.846H273.34L276.128 104.128C277.619 102.69 278.583 101.269 278.583 99.6383C278.583 97.4287 277.04 95.938 274.445 95.938C271.797 95.938 270.148 97.5164 269.99 100.252H272.13C272.34 98.4809 273.129 97.7619 274.375 97.7619C275.585 97.7619 276.251 98.4984 276.251 99.6734C276.251 100.866 275.532 101.971 274.34 103.233L269.605 108.231V108.652ZM284.811 108.828C287.687 108.828 289.511 107.39 289.511 105.075C289.511 103.409 288.547 102.374 287.091 102.041C288.301 101.585 289.125 100.726 289.125 99.3051C289.125 97.4462 287.6 95.938 284.987 95.938C282.304 95.938 280.673 97.604 280.55 99.7786H282.619C282.759 98.516 283.619 97.7093 284.952 97.7093C286.249 97.7093 286.898 98.4634 286.898 99.4805C286.898 100.655 286.249 101.322 284.811 101.322H283.917V102.988H284.881C286.407 102.988 287.144 103.672 287.144 105.04C287.144 106.285 286.39 107.074 284.759 107.074C283.075 107.074 282.339 106.092 282.216 104.777H280.094C280.199 107.179 281.83 108.828 284.811 108.828ZM291.87 110.809L294.168 106.881L292.151 106.074L290.555 110.231L291.87 110.809ZM301.405 108.652H303.668V106.109H305.351V104.373H303.668V96.1134H300.739L295.197 105.285V106.109H301.405V108.652ZM297.688 104.373L301.44 97.8846V104.373H297.688ZM312.011 106.969C310.134 106.969 309.047 105.531 309.047 102.69V102.058C309.047 99.2701 310.082 97.7619 311.976 97.7619C313.852 97.7619 314.869 99.3753 314.869 102.041V102.655C314.869 105.496 313.94 106.969 312.011 106.969ZM311.958 108.828C315.238 108.828 317.202 106.425 317.202 102.655V102.023C317.202 98.2529 315.132 95.938 311.958 95.938C308.801 95.938 306.697 98.2704 306.697 102.076V102.707C306.697 106.478 308.766 108.828 311.958 108.828ZM318.362 108.652H327.429V106.846H322.098L324.886 104.128C326.377 102.69 327.341 101.269 327.341 99.6383C327.341 97.4287 325.798 95.938 323.202 95.938C320.554 95.938 318.906 97.5164 318.748 100.252H320.887C321.098 98.4809 321.887 97.7619 323.132 97.7619C324.342 97.7619 325.009 98.4984 325.009 99.6734C325.009 100.866 324.29 101.971 323.097 103.233L318.362 108.231V108.652ZM330.677 108.775C331.467 108.775 332.08 108.179 332.08 107.407C332.08 106.636 331.467 106.022 330.677 106.022C329.906 106.022 329.292 106.636 329.292 107.407C329.292 108.179 329.906 108.775 330.677 108.775ZM338.556 106.969C336.68 106.969 335.592 105.531 335.592 102.69V102.058C335.592 99.2701 336.627 97.7619 338.521 97.7619C340.397 97.7619 341.415 99.3753 341.415 102.041V102.655C341.415 105.496 340.485 106.969 338.556 106.969ZM338.503 108.828C341.783 108.828 343.747 106.425 343.747 102.655V102.023C343.747 98.2529 341.678 95.938 338.503 95.938C335.347 95.938 333.242 98.2704 333.242 102.076V102.707C333.242 106.478 335.312 108.828 338.503 108.828ZM344.907 108.652H353.974V106.846H348.643L351.431 104.128C352.922 102.69 353.886 101.269 353.886 99.6383C353.886 97.4287 352.343 95.938 349.748 95.938C347.1 95.938 345.451 97.5164 345.293 100.252H347.433C347.643 98.4809 348.432 97.7619 349.677 97.7619C350.887 97.7619 351.554 98.4984 351.554 99.6734C351.554 100.866 350.835 101.971 349.642 103.233L344.907 108.231V108.652Z" fill="white"/>
<g clip-path="url(#clip1_1142_8115)">
<path d="M41.1527 168.611C48.4168 168.611 54.3055 162.722 54.3055 155.458C54.3055 148.194 48.4168 142.306 41.1527 142.306C33.8887 142.306 28 148.194 28 155.458C28 162.722 33.8887 168.611 41.1527 168.611Z" fill="#F0F0F0"/>
<path d="M40.5791 155.458H54.3037C54.3037 154.27 54.1454 153.12 53.8506 152.026H40.5791V155.458Z" fill="#D80027"/>
<path d="M40.5791 148.595H52.3732C51.5681 147.281 50.5386 146.12 49.3383 145.164H40.5791V148.595Z" fill="#D80027"/>
<path d="M41.1522 168.61C44.2477 168.61 47.0928 167.54 49.3396 165.751H32.9648C35.2116 167.54 38.0568 168.61 41.1522 168.61Z" fill="#D80027"/>
<path d="M29.9295 162.32H52.3741C53.0204 161.265 53.5217 160.112 53.8514 158.889H28.4521C28.7818 160.112 29.2831 161.265 29.9295 162.32Z" fill="#D80027"/>
<path d="M34.0926 144.36H35.2912L34.1763 145.17L34.6022 146.48L33.4873 145.67L32.3725 146.48L32.7403 145.348C31.7587 146.166 30.8983 147.124 30.1893 148.191H30.5734L29.8637 148.707C29.7531 148.891 29.6471 149.079 29.5454 149.269L29.8843 150.312L29.2521 149.852C29.0949 150.185 28.9512 150.526 28.8219 150.873L29.1953 152.023H30.5734L29.4585 152.833L29.8843 154.143L28.7695 153.333L28.1017 153.818C28.0348 154.356 28 154.903 28 155.458H41.1527C41.1527 148.194 41.1527 147.338 41.1527 142.306C38.5545 142.306 36.1323 143.059 34.0926 144.36ZM34.6022 154.143L33.4873 153.333L32.3725 154.143L32.7983 152.833L31.6834 152.023H33.0615L33.4873 150.712L33.9131 152.023H35.2912L34.1763 152.833L34.6022 154.143ZM34.1763 149.001L34.6022 150.312L33.4873 149.502L32.3725 150.312L32.7983 149.001L31.6834 148.191H33.0615L33.4873 146.881L33.9131 148.191H35.2912L34.1763 149.001ZM39.32 154.143L38.2051 153.333L37.0903 154.143L37.5162 152.833L36.4013 152.023H37.7793L38.2051 150.712L38.631 152.023H40.009L38.8941 152.833L39.32 154.143ZM38.8941 149.001L39.32 150.312L38.2051 149.502L37.0903 150.312L37.5162 149.001L36.4013 148.191H37.7793L38.2051 146.881L38.631 148.191H40.009L38.8941 149.001ZM38.8941 145.17L39.32 146.48L38.2051 145.67L37.0903 146.48L37.5162 145.17L36.4013 144.36H37.7793L38.2051 143.049L38.631 144.36H40.009L38.8941 145.17Z" fill="#0052B4"/>
</g>
<rect x="66.5557" y="144.208" width="122.5" height="10.5" rx="1.75" fill="url(#paint9_linear_1142_8115)"/>
<rect x="66.5557" y="144.208" width="122.5" height="10.5" rx="1.75" stroke="url(#paint10_linear_1142_8115)" stroke-opacity="0.6" stroke-width="0.5"/>
<rect x="66.5557" y="144.208" width="122.5" height="10.5" rx="1.75" stroke="url(#paint11_linear_1142_8115)" stroke-width="0.5"/>
<rect x="66.5057" y="159.158" width="60.6" height="7.6" rx="1.8" fill="url(#paint12_linear_1142_8115)"/>
<rect x="66.5057" y="159.158" width="60.6" height="7.6" rx="1.8" stroke="url(#paint13_linear_1142_8115)" stroke-opacity="0.6" stroke-width="0.4"/>
<rect x="66.5057" y="159.158" width="60.6" height="7.6" rx="1.8" stroke="url(#paint14_linear_1142_8115)" stroke-width="0.4"/>
<path d="M264.321 163.326H265.496V161.116C268.074 160.94 269.6 159.31 269.6 157.258C269.6 154.89 268.092 154.013 265.496 153.592V149.997C266.566 150.173 267.11 150.787 267.303 151.856H269.372C269.161 149.682 267.758 148.507 265.496 148.296V146.7H264.321V148.279C261.936 148.437 260.375 149.892 260.375 151.839C260.375 154.066 261.726 155.013 264.321 155.451V159.397C262.655 159.187 262.269 158.222 262.129 157.082H259.955C260.13 159.204 261.322 160.905 264.321 161.116V163.326ZM267.443 157.468C267.443 158.503 266.671 159.239 265.496 159.397V155.644C267.022 155.978 267.443 156.469 267.443 157.468ZM262.445 151.646C262.445 150.769 263.111 150.085 264.321 149.945V153.4C262.778 153.084 262.445 152.558 262.445 151.646ZM273.647 160.958H275.997V148.419H273.91L270.999 150.488V152.54L273.647 150.734V160.958ZM284.279 160.958H286.542V158.415H288.225V156.679H286.542V148.419H283.613L278.071 157.591V158.415H284.279V160.958ZM280.562 156.679L284.315 150.19V156.679H280.562ZM290.397 163.115L292.695 159.187L290.678 158.38L289.082 162.536L290.397 163.115ZM298.876 161.133C301.401 161.133 303.541 159.818 303.541 157.345C303.541 155.82 302.681 154.732 301.208 154.206C302.331 153.715 303.067 152.856 303.067 151.576C303.067 149.506 301.121 148.244 298.876 148.244C296.701 148.244 294.667 149.489 294.667 151.611C294.667 152.856 295.368 153.768 296.526 154.224C295.123 154.715 294.176 155.82 294.176 157.416C294.176 159.871 296.386 161.133 298.876 161.133ZM298.876 159.38C297.613 159.38 296.526 158.626 296.526 157.223C296.526 155.82 297.613 155.066 298.893 155.066C300.191 155.066 301.208 155.82 301.208 157.205C301.208 158.608 300.209 159.38 298.876 159.38ZM298.911 153.54C297.824 153.54 296.894 152.873 296.894 151.734C296.894 150.611 297.771 149.927 298.876 149.927C299.998 149.927 300.857 150.646 300.857 151.716C300.857 152.856 300.051 153.54 298.911 153.54ZM310.401 159.274C308.524 159.274 307.437 157.836 307.437 154.995V154.364C307.437 151.576 308.472 150.068 310.366 150.068C312.242 150.068 313.259 151.681 313.259 154.347V154.96C313.259 157.801 312.33 159.274 310.401 159.274ZM310.348 161.133C313.628 161.133 315.592 158.731 315.592 154.96V154.329C315.592 150.559 313.522 148.244 310.348 148.244C307.192 148.244 305.087 150.576 305.087 154.382V155.013C305.087 158.783 307.157 161.133 310.348 161.133ZM321.7 161.116C324.927 161.116 326.75 158.818 326.75 154.697V154.048C326.75 150.436 325.137 148.226 321.858 148.226C318.999 148.226 317.21 149.962 317.21 152.523C317.21 154.995 318.946 156.591 321.367 156.591C322.857 156.591 323.874 155.96 324.453 155.013C324.418 157.871 323.453 159.31 321.665 159.31C320.314 159.31 319.736 158.678 319.508 157.696H317.316C317.614 159.853 319.139 161.116 321.7 161.116ZM321.858 154.96C320.42 154.96 319.508 153.961 319.508 152.453C319.508 150.962 320.437 149.962 321.84 149.962C323.278 149.962 324.278 150.944 324.278 152.628C324.278 154.013 323.278 154.96 321.858 154.96ZM329.222 161.081C330.011 161.081 330.625 160.485 330.625 159.713C330.625 158.941 330.011 158.327 329.222 158.327C328.45 158.327 327.836 158.941 327.836 159.713C327.836 160.485 328.45 161.081 329.222 161.081ZM333.656 160.958H336.006V148.419H333.919L331.008 150.488V152.54L333.656 150.734V160.958ZM344.002 159.274C342.126 159.274 341.038 157.836 341.038 154.995V154.364C341.038 151.576 342.073 150.068 343.967 150.068C345.843 150.068 346.861 151.681 346.861 154.347V154.96C346.861 157.801 345.931 159.274 344.002 159.274ZM343.949 161.133C347.229 161.133 349.193 158.731 349.193 154.96V154.329C349.193 150.559 347.124 148.244 343.949 148.244C340.793 148.244 338.688 150.576 338.688 154.382V155.013C338.688 158.783 340.758 161.133 343.949 161.133Z" fill="white"/>
<g clip-path="url(#clip2_1142_8115)">
<path d="M28 207.765C28 209.374 28.2894 210.915 28.8181 212.34L41.1527 212.912L53.4874 212.34C54.0161 210.915 54.3055 209.374 54.3055 207.765C54.3055 206.156 54.0161 204.615 53.4874 203.19L41.1527 202.618L28.8181 203.19C28.2894 204.615 28 206.156 28 207.765V207.765Z" fill="#FFDA44"/>
<path d="M41.152 194.611C35.4968 194.611 30.6758 198.181 28.8174 203.189H53.4867C51.6283 198.181 46.8072 194.611 41.152 194.611Z" fill="#D80027"/>
<path d="M53.4867 212.339H28.8174C30.6758 217.347 35.4968 220.917 41.152 220.917C46.8073 220.917 51.6283 217.347 53.4867 212.339Z" fill="#496E2D"/>
<path d="M41.153 203.189L42.2884 206.684H45.9634L42.9905 208.844L44.126 212.339L41.153 210.179L38.18 212.339L39.3157 208.844L36.3428 206.684H40.0175L41.153 203.189Z" fill="black"/>
</g>
<rect x="66.5557" y="196.514" width="122.5" height="10.5" rx="1.75" fill="url(#paint15_linear_1142_8115)"/>
<rect x="66.5557" y="196.514" width="122.5" height="10.5" rx="1.75" stroke="url(#paint16_linear_1142_8115)" stroke-opacity="0.6" stroke-width="0.5"/>
<rect x="66.5557" y="196.514" width="122.5" height="10.5" rx="1.75" stroke="url(#paint17_linear_1142_8115)" stroke-width="0.5"/>
<rect x="66.5057" y="211.464" width="60.6" height="7.6" rx="1.8" fill="url(#paint18_linear_1142_8115)"/>
<rect x="66.5057" y="211.464" width="60.6" height="7.6" rx="1.8" stroke="url(#paint19_linear_1142_8115)" stroke-opacity="0.6" stroke-width="0.4"/>
<rect x="66.5057" y="211.464" width="60.6" height="7.6" rx="1.8" stroke="url(#paint20_linear_1142_8115)" stroke-width="0.4"/>
<path d="M266.706 200.567C267.291 200.59 267.852 200.666 268.39 200.795C268.928 200.912 269.413 201.081 269.845 201.303L269.214 202.636C268.863 202.473 268.478 202.326 268.057 202.198C267.647 202.069 267.197 201.993 266.706 201.97V212.054C267.186 212.03 267.642 211.978 268.074 211.896C268.507 211.802 268.933 211.691 269.354 211.563V212.93C268.957 213.082 268.548 213.194 268.127 213.264C267.718 213.346 267.244 213.398 266.706 213.422V214.667H265.584V213.422C264.426 213.34 263.462 213.03 262.69 212.492C261.919 211.943 261.34 211.2 260.954 210.265C260.568 209.33 260.375 208.236 260.375 206.985C260.375 205.816 260.574 204.776 260.972 203.864C261.381 202.94 261.971 202.198 262.743 201.637C263.515 201.064 264.462 200.725 265.584 200.62V199.953H266.706V200.567ZM265.584 202.005C264.847 202.122 264.216 202.397 263.69 202.829C263.164 203.262 262.755 203.835 262.462 204.548C262.182 205.249 262.041 206.068 262.041 207.003C262.041 207.938 262.17 208.763 262.427 209.476C262.696 210.189 263.094 210.762 263.62 211.194C264.146 211.627 264.801 211.896 265.584 212.001V202.005ZM273.595 213.264H275.945V200.725H273.858L270.947 202.794V204.846L273.595 203.04V213.264ZM283.24 213.439C285.765 213.439 287.905 212.124 287.905 209.651C287.905 208.125 287.045 207.038 285.572 206.512C286.695 206.021 287.431 205.162 287.431 203.881C287.431 201.812 285.485 200.549 283.24 200.549C281.065 200.549 279.031 201.794 279.031 203.916C279.031 205.162 279.732 206.074 280.89 206.529C279.487 207.021 278.54 208.125 278.54 209.721C278.54 212.176 280.75 213.439 283.24 213.439ZM283.24 211.685C281.977 211.685 280.89 210.931 280.89 209.528C280.89 208.125 281.977 207.371 283.257 207.371C284.555 207.371 285.572 208.125 285.572 209.511C285.572 210.914 284.573 211.685 283.24 211.685ZM283.275 205.846C282.188 205.846 281.258 205.179 281.258 204.039C281.258 202.917 282.135 202.233 283.24 202.233C284.362 202.233 285.221 202.952 285.221 204.022C285.221 205.162 284.415 205.846 283.275 205.846ZM290.192 215.421L292.489 211.492L290.472 210.686L288.877 214.842L290.192 215.421ZM295.397 213.264H297.747V200.725H295.66L292.749 202.794V204.846L295.397 203.04V213.264ZM302.658 213.264H305.008V200.725H302.921L300.01 202.794V204.846L302.658 203.04V213.264ZM312.127 213.439C315.003 213.439 316.827 212.001 316.827 209.686C316.827 208.02 315.863 206.985 314.407 206.652C315.617 206.196 316.441 205.337 316.441 203.916C316.441 202.058 314.916 200.549 312.303 200.549C309.619 200.549 307.988 202.215 307.866 204.39H309.935C310.075 203.127 310.935 202.321 312.267 202.321C313.565 202.321 314.214 203.075 314.214 204.092C314.214 205.267 313.565 205.933 312.127 205.933H311.233V207.599H312.197C313.723 207.599 314.46 208.283 314.46 209.651C314.46 210.896 313.706 211.685 312.075 211.685C310.391 211.685 309.654 210.703 309.532 209.388H307.41C307.515 211.791 309.146 213.439 312.127 213.439ZM319.905 213.386C320.694 213.386 321.308 212.79 321.308 212.019C321.308 211.247 320.694 210.633 319.905 210.633C319.134 210.633 318.52 211.247 318.52 212.019C318.52 212.79 319.134 213.386 319.905 213.386ZM327.335 213.439C330.211 213.439 332.035 212.001 332.035 209.686C332.035 208.02 331.07 206.985 329.615 206.652C330.825 206.196 331.649 205.337 331.649 203.916C331.649 202.058 330.123 200.549 327.51 200.549C324.827 200.549 323.196 202.215 323.074 204.39H325.143C325.283 203.127 326.143 202.321 327.475 202.321C328.773 202.321 329.422 203.075 329.422 204.092C329.422 205.267 328.773 205.933 327.335 205.933H326.441V207.599H327.405C328.931 207.599 329.667 208.283 329.667 209.651C329.667 210.896 328.913 211.685 327.282 211.685C325.599 211.685 324.862 210.703 324.74 209.388H322.618C322.723 211.791 324.354 213.439 327.335 213.439ZM339.596 213.264H341.859V210.721H343.542V208.985H341.859V200.725H338.93L333.388 209.897V210.721H339.596V213.264ZM335.878 208.985L339.631 202.496V208.985H335.878Z" fill="white"/>
<rect x="0.5" y="0.5" width="382.305" height="252.916" rx="11.4606" stroke="url(#paint21_linear_1142_8115)"/>
<path d="M388 113H530C543.807 113 555 124.193 555 138V386" stroke="#87ADF8" stroke-opacity="0.5"/>
<path d="M341 445L87 445C73.1928 445 62 433.807 62 420L62 264" stroke="#87ADF8" stroke-opacity="0.5"/>
<circle cx="65.5" cy="440.5" r="45.5" stroke="#CEDFFF" stroke-opacity="0.5" stroke-width="2"/>
<circle cx="65.5" cy="440.5" r="37.5" fill="url(#paint22_linear_1142_8115)"/>
<path d="M74.75 427.968C78.4623 430.673 80.875 435.054 80.875 439.999C80.875 448.214 74.2152 454.874 66 454.874H65.125M57.25 452.029C53.5377 449.325 51.125 444.944 51.125 439.999C51.125 431.784 57.7848 425.124 66 425.124H66.875M67.75 458.199L64.25 454.699L67.75 451.199M64.25 428.799L67.75 425.299L64.25 421.799" stroke="#96A3B6" stroke-width="3.5" stroke-linecap="round" stroke-linejoin="round"/>
<circle cx="536.5" cy="114.5" r="45.5" stroke="#CEDFFF" stroke-opacity="0.5" stroke-width="2"/>
<circle cx="536.5" cy="114.5" r="37.5" fill="url(#paint23_linear_1142_8115)"/>
<g clip-path="url(#clip3_1142_8115)">
<path d="M523.5 111.251V122.626H528.375V111.251H523.5ZM533.25 111.251V122.626H538.125V111.251H533.25ZM520.25 130.751H551.125V125.876H520.25V130.751ZM543 111.251V122.626H547.875V111.251H543ZM535.687 96.626L520.25 104.751V108.001H551.125V104.751L535.687 96.626Z" fill="white" fill-opacity="0.5"/>
</g>
<defs>
<linearGradient id="paint0_linear_1142_8115" x1="501.756" y1="386" x2="505.869" y2="486.832" gradientUnits="userSpaceOnUse">
<stop stop-color="#0C2955" stop-opacity="0.6"/>
<stop offset="0.944269" stop-color="#070F1D" stop-opacity="0.7"/>
</linearGradient>
<linearGradient id="paint1_linear_1142_8115" x1="506.752" y1="494.658" x2="506.39" y2="381.149" gradientUnits="userSpaceOnUse">
<stop stop-color="#00349A"/>
<stop offset="0.411458" stop-color="#AFC1FF" stop-opacity="0.59"/>
<stop offset="1" stop-color="#708AE6" stop-opacity="0"/>
</linearGradient>
<linearGradient id="paint2_linear_1142_8115" x1="207.712" y1="1" x2="227.157" y2="251.407" gradientUnits="userSpaceOnUse">
<stop stop-color="#033073" stop-opacity="0.6"/>
<stop offset="0.944269" stop-color="#4F4F4F" stop-opacity="0"/>
</linearGradient>
<linearGradient id="paint3_linear_1142_8115" x1="66.3057" y1="97.0244" x2="183.462" y2="97.0244" gradientUnits="userSpaceOnUse">
<stop stop-color="#445266"/>
<stop offset="1" stop-color="#445266" stop-opacity="0.64"/>
</linearGradient>
<linearGradient id="paint4_linear_1142_8115" x1="212.892" y1="96.0498" x2="175.55" y2="109.302" gradientUnits="userSpaceOnUse">
<stop stop-color="white"/>
<stop offset="1" stop-color="#EFEFEF" stop-opacity="0"/>
</linearGradient>
<linearGradient id="paint5_linear_1142_8115" x1="66.3057" y1="91.6523" x2="68.063" y2="102.097" gradientUnits="userSpaceOnUse">
<stop stop-color="white" stop-opacity="0.5"/>
<stop offset="1" stop-color="white" stop-opacity="0"/>
</linearGradient>
<linearGradient id="paint6_linear_1142_8115" x1="66.3057" y1="110.559" x2="124.407" y2="110.559" gradientUnits="userSpaceOnUse">
<stop stop-color="#445266"/>
<stop offset="1" stop-color="#445266" stop-opacity="0.64"/>
</linearGradient>
<linearGradient id="paint7_linear_1142_8115" x1="139.003" y1="109.85" x2="119.305" y2="114.618" gradientUnits="userSpaceOnUse">
<stop stop-color="white"/>
<stop offset="1" stop-color="#EFEFEF" stop-opacity="0"/>
</linearGradient>
<linearGradient id="paint8_linear_1142_8115" x1="66.3057" y1="106.652" x2="68.1223" y2="114.015" gradientUnits="userSpaceOnUse">
<stop stop-color="white" stop-opacity="0.5"/>
<stop offset="1" stop-color="white" stop-opacity="0"/>
</linearGradient>
<linearGradient id="paint9_linear_1142_8115" x1="66.3057" y1="149.33" x2="183.462" y2="149.33" gradientUnits="userSpaceOnUse">
<stop stop-color="#445266"/>
<stop offset="1" stop-color="#445266" stop-opacity="0.64"/>
</linearGradient>
<linearGradient id="paint10_linear_1142_8115" x1="212.892" y1="148.355" x2="175.55" y2="161.608" gradientUnits="userSpaceOnUse">
<stop stop-color="white"/>
<stop offset="1" stop-color="#EFEFEF" stop-opacity="0"/>
</linearGradient>
<linearGradient id="paint11_linear_1142_8115" x1="66.3057" y1="143.958" x2="68.063" y2="154.403" gradientUnits="userSpaceOnUse">
<stop stop-color="white" stop-opacity="0.5"/>
<stop offset="1" stop-color="white" stop-opacity="0"/>
</linearGradient>
<linearGradient id="paint12_linear_1142_8115" x1="66.3057" y1="162.865" x2="124.407" y2="162.865" gradientUnits="userSpaceOnUse">
<stop stop-color="#445266"/>
<stop offset="1" stop-color="#445266" stop-opacity="0.64"/>
</linearGradient>
<linearGradient id="paint13_linear_1142_8115" x1="139.003" y1="162.156" x2="119.305" y2="166.923" gradientUnits="userSpaceOnUse">
<stop stop-color="white"/>
<stop offset="1" stop-color="#EFEFEF" stop-opacity="0"/>
</linearGradient>
<linearGradient id="paint14_linear_1142_8115" x1="66.3057" y1="158.958" x2="68.1223" y2="166.321" gradientUnits="userSpaceOnUse">
<stop stop-color="white" stop-opacity="0.5"/>
<stop offset="1" stop-color="white" stop-opacity="0"/>
</linearGradient>
<linearGradient id="paint15_linear_1142_8115" x1="66.3057" y1="201.636" x2="183.462" y2="201.636" gradientUnits="userSpaceOnUse">
<stop stop-color="#445266"/>
<stop offset="1" stop-color="#445266" stop-opacity="0.64"/>
</linearGradient>
<linearGradient id="paint16_linear_1142_8115" x1="212.892" y1="200.661" x2="175.55" y2="213.914" gradientUnits="userSpaceOnUse">
<stop stop-color="white"/>
<stop offset="1" stop-color="#EFEFEF" stop-opacity="0"/>
</linearGradient>
<linearGradient id="paint17_linear_1142_8115" x1="66.3057" y1="196.264" x2="68.063" y2="206.709" gradientUnits="userSpaceOnUse">
<stop stop-color="white" stop-opacity="0.5"/>
<stop offset="1" stop-color="white" stop-opacity="0"/>
</linearGradient>
<linearGradient id="paint18_linear_1142_8115" x1="66.3057" y1="215.171" x2="124.407" y2="215.171" gradientUnits="userSpaceOnUse">
<stop stop-color="#445266"/>
<stop offset="1" stop-color="#445266" stop-opacity="0.64"/>
</linearGradient>
<linearGradient id="paint19_linear_1142_8115" x1="139.003" y1="214.462" x2="119.305" y2="219.229" gradientUnits="userSpaceOnUse">
<stop stop-color="white"/>
<stop offset="1" stop-color="#EFEFEF" stop-opacity="0"/>
</linearGradient>
<linearGradient id="paint20_linear_1142_8115" x1="66.3057" y1="211.264" x2="68.1223" y2="218.627" gradientUnits="userSpaceOnUse">
<stop stop-color="white" stop-opacity="0.5"/>
<stop offset="1" stop-color="white" stop-opacity="0"/>
</linearGradient>
<linearGradient id="paint21_linear_1142_8115" x1="214.258" y1="272.018" x2="212.543" y2="-11.0908" gradientUnits="userSpaceOnUse">
<stop stop-color="#00349A"/>
<stop offset="0.411458" stop-color="#AFC1FF" stop-opacity="0.59"/>
<stop offset="1" stop-color="#708AE6" stop-opacity="0"/>
</linearGradient>
<linearGradient id="paint22_linear_1142_8115" x1="28" y1="410.258" x2="103" y2="486.871" gradientUnits="userSpaceOnUse">
<stop stop-color="#445266"/>
<stop offset="1" stop-color="#1D4070"/>
</linearGradient>
<linearGradient id="paint23_linear_1142_8115" x1="499" y1="84.2581" x2="574" y2="160.871" gradientUnits="userSpaceOnUse">
<stop stop-color="#445266"/>
<stop offset="1" stop-color="#1D4070"/>
</linearGradient>
<clipPath id="clip0_1142_8115">
<rect width="26.3055" height="26.3055" fill="white" transform="translate(28 90)"/>
</clipPath>
<clipPath id="clip1_1142_8115">
<rect width="26.3055" height="26.3055" fill="white" transform="translate(28 142.306)"/>
</clipPath>
<clipPath id="clip2_1142_8115">
<rect width="26.3055" height="26.3055" fill="white" transform="translate(28 194.611)"/>
</clipPath>
<clipPath id="clip3_1142_8115">
<rect width="39" height="39" fill="white" transform="translate(517 95)"/>
</clipPath>
</defs>
</svg>
