<svg width="202" height="116" viewBox="0 0 202 94" fill="none" xmlns="http://www.w3.org/2000/svg">
<g clip-path="url(#clip0_744_7812)">
<g opacity="0.4">
<path d="M39.0342 20.2903C39.0342 18.3232 40.6288 16.7285 42.596 16.7285H194.794C196.762 16.7285 198.356 18.3232 198.356 20.2903V110.729H39.0342V20.2903Z" fill="#759CE8" fill-opacity="0.59"/>
</g>
<path d="M31.8643 12.3245C31.8643 10.3574 33.4589 8.7627 35.426 8.7627H187.625C189.592 8.7627 191.186 10.3574 191.186 12.3245V102.763H31.8643V12.3245Z" fill="#759CE8" fill-opacity="0.59"/>
<g filter="url(#filter0_d_744_7812)">
<path d="M24.6953 3.56179C24.6953 1.59467 26.29 0 28.2571 0H180.456C182.423 0 184.017 1.59467 184.017 3.56179V94H24.6953V3.56179Z" fill="white" shape-rendering="crispEdges"/>
<rect x="35.0513" y="11.8613" width="74.8814" height="12.7458" rx="1.59322" fill="#E1F2FF"/>
<path d="M40.9224 19.9091C41.7349 19.9091 42.3181 19.4933 42.4184 18.6712H41.7971C41.7302 19.1539 41.3956 19.3929 40.9224 19.3929C40.2915 19.3929 39.9234 18.9389 39.9234 18.1693V18.1311C39.9234 17.3663 40.3154 16.8979 40.9176 16.8979C41.4099 16.8979 41.6632 17.1321 41.7349 17.5862H42.3802C42.3037 16.7832 41.6967 16.3913 40.9128 16.3913C39.9617 16.3913 39.2543 17.1082 39.2543 18.1359V18.1741C39.2543 19.2256 39.8517 19.9091 40.9224 19.9091ZM44.5368 19.3977C43.9155 19.3977 43.4614 18.915 43.4614 18.1693V18.1311C43.4614 17.395 43.8581 16.9027 44.5273 16.9027C45.1964 16.9027 45.5883 17.4237 45.5883 18.1263V18.1645C45.5883 18.9054 45.1821 19.3977 44.5368 19.3977ZM44.5273 19.9091C45.5644 19.9091 46.2479 19.1587 46.2479 18.1598V18.1215C46.2479 17.1178 45.5453 16.3961 44.5273 16.3961C43.514 16.3961 42.797 17.1369 42.797 18.1359V18.1741C42.797 19.1587 43.4805 19.9091 44.5273 19.9091ZM46.8619 19.8613H47.4355V17.2803L48.4726 19.8613H48.6782L49.6962 17.2803V19.8613H50.3319V16.4439H49.4907L48.6113 18.7763L47.7127 16.4439H46.8619V19.8613ZM51.1141 19.8613H51.7498V18.5613H52.2278C52.9591 18.5613 53.4801 18.241 53.4801 17.5193V17.5002C53.4801 16.7832 52.9782 16.4439 52.2134 16.4439H51.1141V19.8613ZM51.7498 18.1024V16.9362H52.2134C52.6197 16.9362 52.8587 17.0939 52.8587 17.5002V17.5193C52.8587 17.8969 52.6341 18.1024 52.2134 18.1024H51.7498ZM54.0267 19.8613H56.1202V19.3547H54.6624V16.4439H54.0267V19.8613ZM56.6593 19.8613H58.877V19.3595H57.295V18.3605H58.4994V17.8825H57.295V16.9457H58.7958V16.4439H56.6593V19.8613ZM60.134 19.8613H60.7745V16.9457H61.7256V16.4439H59.1829V16.9457H60.134V19.8613ZM62.2371 19.8613H64.4549V19.3595H62.8728V18.3605H64.0773V17.8825H62.8728V16.9457H64.3736V16.4439H62.2371V19.8613ZM66.1673 19.8613H66.8029V18.5613H67.2809C68.0122 18.5613 68.5332 18.241 68.5332 17.5193V17.5002C68.5332 16.7832 68.0313 16.4439 67.2666 16.4439H66.1673V19.8613ZM66.8029 18.1024V16.9362H67.2666C67.6728 16.9362 67.9118 17.0939 67.9118 17.5002V17.5193C67.9118 17.8969 67.6872 18.1024 67.2666 18.1024H66.8029ZM68.5789 19.8613H69.1764L69.444 19.0153H70.7489L71.0213 19.8613H71.6809L70.5529 16.4439H69.7213L68.5789 19.8613ZM70.0989 16.9649L70.6007 18.5517H69.5922L70.0989 16.9649ZM72.6652 19.8613H73.3057V18.3844L74.3763 16.4439H73.755L73.0046 17.8586L72.235 16.4439H71.5324L72.6652 18.3796V19.8613ZM74.8491 19.8613H75.4226V17.2803L76.4598 19.8613H76.6653L77.6834 17.2803V19.8613H78.3191V16.4439H77.4779L76.5984 18.7763L75.6998 16.4439H74.8491V19.8613ZM79.1013 19.8613H81.319V19.3595H79.737V18.3605H80.9414V17.8825H79.737V16.9457H81.2378V16.4439H79.1013V19.8613ZM81.8925 19.8613H82.4709V17.2421L84.0099 19.8613H84.6695V16.4439H84.0912V18.915L82.6525 16.4439H81.8925V19.8613ZM86.1374 19.8613H86.7779V16.9457H87.7291V16.4439H85.1863V16.9457H86.1374V19.8613ZM90.9471 19.3977C90.3258 19.3977 89.8717 18.915 89.8717 18.1693V18.1311C89.8717 17.395 90.2684 16.9027 90.9376 16.9027C91.6067 16.9027 91.9987 17.4237 91.9987 18.1263V18.1645C91.9987 18.9054 91.5924 19.3977 90.9471 19.3977ZM90.9376 19.9091C91.9748 19.9091 92.6583 19.1587 92.6583 18.1598V18.1215C92.6583 17.1178 91.9557 16.3961 90.9376 16.3961C89.9243 16.3961 89.2073 17.1369 89.2073 18.1359V18.1741C89.2073 19.1587 89.8908 19.9091 90.9376 19.9091ZM93.2722 19.8613H93.9079V18.48H94.3142L95.208 19.8613H95.8963L94.9355 18.3844C95.3609 18.2745 95.6955 18.002 95.6955 17.4667V17.4476C95.6955 16.7498 95.1698 16.4439 94.4193 16.4439H93.2722V19.8613ZM93.9079 18.0259V16.9362H94.4193C94.8256 16.9362 95.0694 17.07 95.0694 17.4619V17.4811C95.0694 17.8443 94.8447 18.0259 94.4193 18.0259H93.9079ZM97.0399 19.3595V16.9457H97.4079C98.2109 16.9457 98.5455 17.3902 98.5455 18.1263V18.1645C98.5455 18.9197 98.1775 19.3595 97.4127 19.3595H97.0399ZM96.4042 19.8613H97.4318C98.6315 19.8613 99.2099 19.1539 99.2099 18.1598V18.1168C99.2099 17.1226 98.6315 16.4439 97.4414 16.4439H96.4042V19.8613ZM99.8163 19.8613H102.034V19.3595H100.452V18.3605H101.656V17.8825H100.452V16.9457H101.953V16.4439H99.8163V19.8613ZM102.608 19.8613H103.243V18.48H103.649L104.543 19.8613H105.232L104.271 18.3844C104.696 18.2745 105.031 18.002 105.031 17.4667V17.4476C105.031 16.7498 104.505 16.4439 103.755 16.4439H102.608V19.8613ZM103.243 18.0259V16.9362H103.755C104.161 16.9362 104.405 17.07 104.405 17.4619V17.4811C104.405 17.8443 104.18 18.0259 103.755 18.0259H103.243Z" fill="#00256D"/>
<path d="M38.0234 38.5982H38.7587V37.3038C40.3949 37.1898 41.2648 36.1957 41.2648 34.953C41.2648 33.5135 40.3121 32.9957 38.7587 32.7575V30.9038C39.3076 31.0073 39.5665 31.3387 39.6597 31.8772H41.1406C41.0163 30.5413 40.1671 29.8371 38.7587 29.7129V28.7808H38.0234V29.7025C36.5425 29.8061 35.5898 30.6863 35.5898 31.8772C35.5898 33.2442 36.3768 33.8449 38.0234 34.1038V36.1025C37.2053 35.9782 36.9878 35.4915 36.9153 34.8908H35.3827C35.4655 36.1957 36.2318 37.1795 38.0234 37.3038V38.5982ZM39.7322 35.129C39.7322 35.6364 39.3593 35.9989 38.7587 36.1025V34.2177C39.525 34.3834 39.7322 34.6319 39.7322 35.129ZM37.081 31.7426C37.081 31.3077 37.4124 30.9659 38.0234 30.8831V32.6332C37.2571 32.4779 37.081 32.219 37.081 31.7426ZM41.7997 37.2002H47.3919V35.9264H44.513L45.911 34.5594C46.7705 33.731 47.3401 32.9232 47.3401 31.9394C47.3401 30.6035 46.4081 29.6921 44.7718 29.6921C43.1149 29.6921 42.0793 30.6242 41.9965 32.3329H43.5188C43.6327 31.3594 44.0469 30.9763 44.6994 30.9763C45.3414 30.9763 45.6832 31.3698 45.6832 31.9808C45.6832 32.6539 45.2275 33.3064 44.513 34.0623L41.7997 36.9309V37.2002ZM48.9131 38.474L50.3215 36.061L48.9131 35.5329L48.0018 38.0908L48.9131 38.474ZM53.8266 37.3141C55.6285 37.3141 56.6952 36.4339 56.6952 35.0462C56.6952 34.1038 56.1152 33.4928 55.2557 33.3064C55.991 33.0475 56.4777 32.5297 56.4777 31.7012C56.4777 30.5413 55.5249 29.6921 53.8991 29.6921C52.211 29.6921 51.2479 30.6863 51.1651 32.0429H52.646C52.7288 31.3491 53.1638 30.9245 53.868 30.9245C54.5515 30.9245 54.8932 31.318 54.8932 31.8462C54.8932 32.4779 54.5411 32.83 53.7644 32.83H53.2259V33.9484H53.8059C54.6033 33.9484 54.9968 34.3109 54.9968 35.0151C54.9968 35.6779 54.6033 36.0818 53.7644 36.0818C52.8738 36.0818 52.4907 35.564 52.4285 34.8494H50.9166C50.9787 36.351 51.9418 37.3141 53.8266 37.3141ZM60.8869 35.9989C59.8513 35.9989 59.3024 35.2222 59.3024 33.6688V33.3167C59.3024 31.784 59.8306 30.9866 60.8662 30.9866C61.8914 30.9866 62.4092 31.8255 62.4092 33.3167V33.6481C62.4092 35.2015 61.9328 35.9989 60.8869 35.9989ZM60.8455 37.3141C62.8442 37.3141 64.0765 35.9057 64.0765 33.6378V33.296C64.0765 30.997 62.7613 29.6921 60.8558 29.6921C58.9503 29.6921 57.6248 31.0488 57.6248 33.3271V33.6792C57.6248 35.9471 58.8778 37.3141 60.8455 37.3141ZM68.2433 37.2002H69.8692V35.7297H70.8427V34.5284H69.8692V29.7957H67.8084L64.6084 35.1187V35.7297H68.2433V37.2002ZM66.2861 34.5284L68.2744 31.0591V34.5284H66.2861ZM72.5461 37.2934C73.0742 37.2934 73.4781 36.8895 73.4781 36.3821C73.4781 35.885 73.0742 35.4811 72.5461 35.4811C72.0283 35.4811 71.6244 35.885 71.6244 36.3821C71.6244 36.8895 72.0283 37.2934 72.5461 37.2934ZM75.0718 37.2002H76.7494V29.7957H75.2789L73.5702 31.0073V32.4365L75.0718 31.4527V37.2002ZM77.823 37.2002H83.4152V35.9264H80.5362L81.9343 34.5594C82.7938 33.731 83.3634 32.9232 83.3634 31.9394C83.3634 30.6035 82.4314 29.6921 80.7951 29.6921C79.1382 29.6921 78.1026 30.6242 78.0197 32.3329H79.5421C79.656 31.3594 80.0702 30.9763 80.7226 30.9763C81.3647 30.9763 81.7064 31.3698 81.7064 31.9808C81.7064 32.6539 81.2508 33.3064 80.5362 34.0623L77.823 36.9309V37.2002Z" fill="black"/>
<line x1="35.0513" y1="46.0641" x2="172.068" y2="46.0641" stroke="#CDCDCD" stroke-width="0.238983"/>
<path d="M35.5531 55.167H36.0383V53.4328H36.6517L37.8394 55.167H38.3803L37.1591 53.3993C37.7056 53.2934 38.1461 52.9699 38.1461 52.3119V52.2896C38.1461 51.4922 37.516 51.18 36.752 51.18H35.5531V55.167ZM36.0383 53.048V51.5703H36.7855C37.3264 51.5703 37.661 51.7487 37.661 52.2896V52.3119C37.661 52.8027 37.3543 53.048 36.7855 53.048H36.0383ZM39.7517 55.2172C40.181 55.2172 40.4431 55.0722 40.6606 54.799V55.167H41.1234V53.2432C41.1234 52.429 40.616 52.2004 40.0584 52.2004C39.4952 52.2004 38.9654 52.4458 38.9041 53.1093H39.3669C39.4115 52.7525 39.6346 52.5852 40.0361 52.5852C40.4822 52.5852 40.6606 52.7803 40.6606 53.2432V53.4551H40.2424C39.4952 53.4551 38.7814 53.6837 38.7814 54.3584C38.7814 54.9551 39.2108 55.2172 39.7517 55.2172ZM39.7963 54.8491C39.3892 54.8491 39.2442 54.6596 39.2442 54.3584C39.2442 53.9291 39.6736 53.7841 40.2591 53.7841H40.6606V54.1465C40.6606 54.5982 40.287 54.8491 39.7963 54.8491ZM42.9192 55.206C43.1088 55.206 43.2203 55.1781 43.3151 55.1447V54.7543C43.2148 54.7934 43.1032 54.8157 42.9582 54.8157C42.724 54.8157 42.5958 54.6763 42.5958 54.3919V52.6409H43.2761V52.2506H42.5958V51.587H42.133V52.2506H41.7147V52.6409H42.133V54.4365C42.133 54.8938 42.3895 55.206 42.9192 55.206ZM45.2081 55.2172C45.8661 55.2172 46.3512 54.9105 46.4516 54.325H45.9888C45.9274 54.6651 45.6654 54.8324 45.2137 54.8324C44.617 54.8324 44.2992 54.4644 44.2769 53.8008H46.4739V53.6502C46.4739 52.6075 45.8382 52.2004 45.1635 52.2004C44.3605 52.2004 43.7973 52.8138 43.7973 53.6949V53.7395C43.7973 54.6372 44.3828 55.2172 45.2081 55.2172ZM44.2936 53.4272C44.3717 52.9086 44.6895 52.5852 45.1635 52.5852C45.643 52.5852 45.9553 52.825 45.9999 53.4272H44.2936Z" fill="#344363"/>
<path d="M155.882 55.167H156.379L157.873 51.2469V51.18H155.247V51.5703H157.271L155.882 55.167ZM159.82 55.167H160.294V54.3306H160.846V53.9346H160.294V51.18H159.647L157.823 54.1744V54.3306H159.82V55.167ZM158.437 53.9346L159.82 51.548V53.9346H158.437ZM161.153 55.167H163.824V54.7711H161.901L162.999 53.7004C163.49 53.2209 163.802 52.7413 163.802 52.2506C163.802 51.5647 163.334 51.1298 162.598 51.1298C161.839 51.1298 161.365 51.6261 161.304 52.4067H161.756C161.834 51.7822 162.135 51.5201 162.598 51.5201C163.049 51.5201 163.311 51.7878 163.311 52.2339C163.311 52.6409 163.099 53.0034 162.737 53.3882L161.153 55.0555V55.167ZM164.867 55.1949C165.062 55.1949 165.224 55.0387 165.224 54.838C165.224 54.6372 165.062 54.4811 164.867 54.4811C164.672 54.4811 164.51 54.6372 164.51 54.838C164.51 55.0387 164.672 55.1949 164.867 55.1949ZM167.295 54.8157C166.631 54.8157 166.207 54.2915 166.207 53.2822V53.0592C166.207 52.0777 166.609 51.5201 167.284 51.5201C167.958 51.5201 168.349 52.1223 168.349 53.048V53.2711C168.349 54.2804 167.992 54.8157 167.295 54.8157ZM167.295 55.2172C168.276 55.2172 168.839 54.4365 168.839 53.2766V53.0536C168.839 51.916 168.265 51.1298 167.284 51.1298C166.308 51.1298 165.711 51.8881 165.711 53.0647V53.2878C165.711 54.4477 166.341 55.2172 167.295 55.2172ZM170.248 55.167H170.734V51.18H170.282L169.356 51.8491V52.3008L170.248 51.6595V55.167Z" fill="#344363"/>
<line x1="35.0513" y1="60.0299" x2="172.068" y2="60.0299" stroke="#CDCDCD" stroke-width="0.238983"/>
<path d="M35.5531 69.1328H36.0383V67.3484H37.4769V66.9525H36.0383V65.5417H37.884V65.1458H35.5531V69.1328ZM39.5883 69.183C40.2463 69.183 40.7314 68.8763 40.8318 68.2908H40.3689C40.3076 68.6309 40.0455 68.7982 39.5938 68.7982C38.9972 68.7982 38.6793 68.4302 38.657 67.7666H40.8541V67.6161C40.8541 66.5733 40.2184 66.1662 39.5437 66.1662C38.7407 66.1662 38.1775 66.7796 38.1775 67.6607V67.7053C38.1775 68.6031 38.763 69.183 39.5883 69.183ZM38.6738 67.393C38.7518 66.8744 39.0697 66.551 39.5437 66.551C40.0232 66.551 40.3355 66.7908 40.3801 67.393H38.6738ZM42.7576 69.183C43.4156 69.183 43.9007 68.8763 44.0011 68.2908H43.5383C43.4769 68.6309 43.2148 68.7982 42.7632 68.7982C42.1665 68.7982 41.8487 68.4302 41.8264 67.7666H44.0234V67.6161C44.0234 66.5733 43.3877 66.1662 42.713 66.1662C41.91 66.1662 41.3468 66.7796 41.3468 67.6607V67.7053C41.3468 68.6031 41.9323 69.183 42.7576 69.183ZM41.8431 67.393C41.9211 66.8744 42.239 66.551 42.713 66.551C43.1925 66.551 43.5048 66.7908 43.5494 67.393H41.8431ZM45.6642 69.183C46.3724 69.183 46.7348 68.8261 46.7348 68.2964C46.7348 67.6774 46.311 67.5436 45.7088 67.432C45.1735 67.3373 45.0285 67.2313 45.0285 66.9692C45.0285 66.7183 45.246 66.551 45.5805 66.551C45.9486 66.551 46.127 66.6904 46.1939 67.0083H46.64C46.562 66.3781 46.1103 66.1662 45.5861 66.1662C45.1289 66.1662 44.5991 66.445 44.5991 66.9859C44.5991 67.4934 44.8556 67.7053 45.614 67.8447C46.0657 67.9283 46.2943 68.0287 46.2943 68.3354C46.2943 68.6477 46.0991 68.7982 45.6586 68.7982C45.1902 68.7982 45.0062 68.5808 44.9727 68.235H44.521C44.5489 68.8317 44.9671 69.183 45.6642 69.183Z" fill="#344363"/>
<path d="M159.657 69.8856H159.986V69.1774C160.711 69.1328 161.23 68.6421 161.23 68.0064C161.23 67.2871 160.806 67.025 159.986 66.88V65.4859C160.399 65.5417 160.628 65.7647 160.711 66.1941H161.146C161.074 65.5473 160.656 65.1681 159.986 65.1067V64.5993H159.657V65.1012C158.96 65.1458 158.481 65.5975 158.481 66.1774C158.481 66.8465 158.921 67.1086 159.657 67.248V68.7982C158.977 68.7369 158.843 68.3521 158.787 67.9172H158.319C158.386 68.5585 158.704 69.1105 159.657 69.1774V69.8856ZM160.767 68.0399C160.767 68.4525 160.432 68.7536 159.986 68.7982V67.3038C160.594 67.432 160.767 67.6272 160.767 68.0399ZM158.921 66.1328C158.921 65.787 159.189 65.5194 159.657 65.4804V66.8242C159.038 66.696 158.921 66.4841 158.921 66.1328ZM162.64 69.1328H163.126V65.1458H162.674L161.748 65.8149V66.2666L162.64 65.6253V69.1328ZM164.469 69.1607C164.664 69.1607 164.826 69.0046 164.826 68.8038C164.826 68.6031 164.664 68.4469 164.469 68.4469C164.274 68.4469 164.112 68.6031 164.112 68.8038C164.112 69.0046 164.274 69.1607 164.469 69.1607ZM165.362 69.1328H168.033V68.7369H166.109L167.208 67.6663C167.699 67.1867 168.011 66.7071 168.011 66.2164C168.011 65.5305 167.543 65.0956 166.806 65.0956C166.048 65.0956 165.574 65.5919 165.513 66.3726H165.964C166.043 65.748 166.344 65.4859 166.806 65.4859C167.258 65.4859 167.52 65.7536 167.52 66.1997C167.52 66.6068 167.308 66.9692 166.946 67.354L165.362 69.0213V69.1328ZM169.961 69.183C170.786 69.183 171.377 68.748 171.377 68.0231C171.377 67.4711 171.076 67.1421 170.608 67.0194C170.97 66.8688 171.238 66.6012 171.238 66.1495C171.238 65.5975 170.797 65.0956 170.039 65.0956C169.281 65.0956 168.762 65.6142 168.734 66.2443H169.158C169.208 65.7926 169.543 65.4915 170.039 65.4915C170.524 65.4915 170.764 65.7815 170.764 66.1607C170.764 66.5956 170.535 66.841 170.017 66.841H169.738V67.248H170.039C170.602 67.248 170.881 67.5101 170.881 68.0231C170.881 68.4915 170.597 68.7927 169.972 68.7927C169.342 68.7927 169.058 68.4302 169.013 67.9562H168.567C168.595 68.6533 169.113 69.183 169.961 69.183Z" fill="#344363"/>
<line x1="35.0513" y1="73.9967" x2="172.068" y2="73.9967" stroke="#CDCDCD" stroke-width="0.238983"/>
<path d="M35.5531 83.0986H36.0383V81.3644H36.6517L37.8394 83.0986H38.3803L37.1591 81.331C37.7056 81.225 38.1461 80.9016 38.1461 80.2436V80.2213C38.1461 79.4239 37.516 79.1116 36.752 79.1116H35.5531V83.0986ZM36.0383 80.9796V79.5019H36.7855C37.3264 79.5019 37.661 79.6804 37.661 80.2213V80.2436C37.661 80.7343 37.3543 80.9796 36.7855 80.9796H36.0383ZM40.1328 83.1488C40.7908 83.1488 41.276 82.8421 41.3763 82.2566H40.9135C40.8522 82.5968 40.5901 82.7641 40.1384 82.7641C39.5417 82.7641 39.2239 82.396 39.2016 81.7324H41.3986V81.5819C41.3986 80.5391 40.7629 80.1321 40.0882 80.1321C39.2852 80.1321 38.722 80.7454 38.722 81.6265V81.6711C38.722 82.5689 39.3075 83.1488 40.1328 83.1488ZM39.2183 81.3588C39.2964 80.8402 39.6142 80.5168 40.0882 80.5168C40.5678 80.5168 40.88 80.7566 40.9247 81.3588H39.2183ZM42.2092 83.0986H42.672V80.5726H43.3858V80.1822H42.672V79.6581C42.672 79.3625 42.7947 79.1562 43.0958 79.1562C43.2241 79.1562 43.3412 79.1841 43.4248 79.2175V78.8272C43.3077 78.7882 43.2297 78.7714 43.0791 78.7714C42.4992 78.7714 42.2092 79.1172 42.2092 79.7083V80.1822H41.791V80.5726H42.2092V83.0986ZM45.0883 83.1488C45.7463 83.1488 46.2314 82.8421 46.3318 82.2566H45.869C45.8076 82.5968 45.5456 82.7641 45.0939 82.7641C44.4972 82.7641 44.1794 82.396 44.1571 81.7324H46.3541V81.5819C46.3541 80.5391 45.7184 80.1321 45.0437 80.1321C44.2407 80.1321 43.6775 80.7454 43.6775 81.6265V81.6711C43.6775 82.5689 44.263 83.1488 45.0883 83.1488ZM44.1738 81.3588C44.2519 80.8402 44.5697 80.5168 45.0437 80.5168C45.5232 80.5168 45.8355 80.7566 45.8801 81.3588H44.1738ZM47.0643 83.0986H47.5271V81.4982C47.5271 80.7789 47.9007 80.5949 48.4862 80.567V80.1321C47.9621 80.1488 47.7111 80.3774 47.5271 80.7064V80.1822H47.0643V83.0986ZM50.2725 83.1488C50.9305 83.1488 51.4156 82.8421 51.516 82.2566H51.0532C50.9918 82.5968 50.7297 82.7641 50.2781 82.7641C49.6814 82.7641 49.3636 82.396 49.3412 81.7324H51.5383V81.5819C51.5383 80.5391 50.9026 80.1321 50.2279 80.1321C49.4249 80.1321 48.8617 80.7454 48.8617 81.6265V81.6711C48.8617 82.5689 49.4472 83.1488 50.2725 83.1488ZM49.358 81.3588C49.436 80.8402 49.7539 80.5168 50.2279 80.5168C50.7074 80.5168 51.0197 80.7566 51.0643 81.3588H49.358ZM52.2485 83.0986H52.7113V81.331C52.7113 80.8068 53.0961 80.5335 53.5255 80.5335C53.9939 80.5335 54.2113 80.7622 54.2113 81.2752V83.0986H54.6742V81.3086C54.6742 80.4611 54.2504 80.1321 53.6481 80.1321C53.1686 80.1321 52.8452 80.3718 52.7113 80.6451V80.1822H52.2485V83.0986ZM56.7912 83.1488C57.4938 83.1488 58.0013 82.6804 58.0626 82.0503H57.6333C57.5831 82.5243 57.2095 82.7641 56.7968 82.7641C56.2336 82.7641 55.8433 82.3849 55.8433 81.6711V81.6265C55.8433 80.9406 56.2503 80.5168 56.7801 80.5168C57.1816 80.5168 57.5161 80.6897 57.5886 81.1525H58.0459C57.9567 80.4109 57.3879 80.1321 56.7801 80.1321C55.9994 80.1321 55.3637 80.7343 55.3637 81.6265V81.6711C55.3637 82.5745 55.9771 83.1488 56.7912 83.1488ZM59.9547 83.1488C60.6127 83.1488 61.0979 82.8421 61.1982 82.2566H60.7354C60.6741 82.5968 60.412 82.7641 59.9603 82.7641C59.3636 82.7641 59.0458 82.396 59.0235 81.7324H61.2205V81.5819C61.2205 80.5391 60.5848 80.1321 59.9101 80.1321C59.1071 80.1321 58.5439 80.7454 58.5439 81.6265V81.6711C58.5439 82.5689 59.1294 83.1488 59.9547 83.1488ZM59.0402 81.3588C59.1183 80.8402 59.4361 80.5168 59.9101 80.5168C60.3897 80.5168 60.7019 80.7566 60.7466 81.3588H59.0402ZM63.4678 83.0986H63.953V79.1116H63.4678V83.0986ZM65.4716 82.7027V79.5019H66.0125C67.111 79.5019 67.5571 80.1488 67.5571 81.0689V81.1135C67.5571 82.0893 67.0441 82.7027 66.0181 82.7027H65.4716ZM64.9865 83.0986H66.0292C67.4233 83.0986 68.059 82.2232 68.059 81.1191V81.0689C68.059 79.9592 67.4122 79.1116 66.0404 79.1116H64.9865V83.0986Z" fill="#344363"/>
<path d="M137.122 83.0986H137.629L138.31 80.9127L138.918 83.0986H139.431L140.34 80.1822H139.866L139.18 82.5299L138.516 80.1822H138.115L137.406 82.5299L136.726 80.1822H136.224L137.122 83.0986ZM141.878 83.1377C142.067 83.1377 142.179 83.1098 142.274 83.0763V82.686C142.173 82.725 142.062 82.7473 141.917 82.7473C141.682 82.7473 141.554 82.6079 141.554 82.3235V80.5726H142.235V80.1822H141.554V79.5187H141.091V80.1822H140.673V80.5726H141.091V82.3681C141.091 82.8254 141.348 83.1377 141.878 83.1377ZM142.973 83.0986H143.436V81.331C143.436 80.8068 143.821 80.5335 144.25 80.5335C144.719 80.5335 144.936 80.7622 144.936 81.2752V83.0986H145.399V81.3086C145.399 80.4611 144.975 80.1321 144.373 80.1321C143.893 80.1321 143.57 80.3718 143.436 80.6451V78.7882H142.973V83.0986ZM147.455 83.1488C148.28 83.1488 148.871 82.7139 148.871 81.989C148.871 81.4369 148.57 81.1079 148.101 80.9852C148.464 80.8347 148.732 80.567 148.732 80.1153C148.732 79.5633 148.291 79.0614 147.533 79.0614C146.774 79.0614 146.256 79.58 146.228 80.2101H146.652C146.702 79.7584 147.036 79.4573 147.533 79.4573C148.018 79.4573 148.258 79.7473 148.258 80.1265C148.258 80.5614 148.029 80.8068 147.51 80.8068H147.232V81.2139H147.533C148.096 81.2139 148.375 81.4759 148.375 81.989C148.375 82.4574 148.09 82.7585 147.466 82.7585C146.836 82.7585 146.551 82.396 146.507 81.922H146.061C146.088 82.6191 146.607 83.1488 147.455 83.1488ZM151.362 83.0986H151.836V82.2622H152.388V81.8663H151.836V79.1116H151.189L149.366 82.1061V82.2622H151.362V83.0986ZM149.979 81.8663L151.362 79.4796V81.8663H149.979ZM154.285 83.1488C154.96 83.1488 155.657 82.7529 155.657 81.9555C155.657 81.4425 155.356 81.0968 154.893 80.9295C155.261 80.7678 155.506 80.4889 155.506 80.0874C155.506 79.4629 154.904 79.0614 154.285 79.0614C153.672 79.0614 153.058 79.4518 153.058 80.0986C153.058 80.4889 153.281 80.7901 153.661 80.935C153.237 81.0856 152.908 81.4313 152.908 81.9666C152.908 82.7585 153.633 83.1488 154.285 83.1488ZM154.285 82.7529C153.822 82.7529 153.404 82.4741 153.404 81.9499C153.404 81.4202 153.822 81.1469 154.296 81.1469C154.77 81.1469 155.161 81.4146 155.161 81.9388C155.161 82.4685 154.776 82.7529 154.285 82.7529ZM154.302 80.7622C153.895 80.7622 153.549 80.5224 153.549 80.1042C153.549 79.6915 153.873 79.4406 154.285 79.4406C154.698 79.4406 155.016 79.7083 155.016 80.093C155.016 80.5168 154.726 80.7622 154.302 80.7622ZM157.544 83.1488C158.302 83.1488 158.91 82.6358 158.91 81.7938C158.91 80.9796 158.386 80.4722 157.672 80.4722C157.293 80.4722 157.02 80.5949 156.858 80.7454V79.5298H158.698V79.1116H156.457V81.2473H156.635C156.847 81.0075 157.115 80.8625 157.578 80.8625C158.085 80.8625 158.414 81.2306 158.414 81.7938C158.414 82.396 158.079 82.7585 157.539 82.7585C156.931 82.7585 156.758 82.4574 156.68 82.0224H156.217C156.273 82.6748 156.685 83.1488 157.544 83.1488ZM159.718 83.0986H160.181V81.331C160.181 80.8068 160.566 80.5335 160.995 80.5335C161.464 80.5335 161.681 80.7622 161.681 81.2752V83.0986H162.144V81.3086C162.144 80.4611 161.72 80.1321 161.118 80.1321C160.638 80.1321 160.315 80.3718 160.181 80.6451V80.1822H159.718V83.0986ZM163.151 83.0986H163.614V80.5726H164.328V80.1822H163.614V79.6581C163.614 79.3625 163.737 79.1562 164.038 79.1562C164.166 79.1562 164.283 79.1841 164.367 79.2175V78.8272C164.25 78.7882 164.172 78.7714 164.021 78.7714C163.441 78.7714 163.151 79.1172 163.151 79.7083V80.1822H162.733V80.5726H163.151V83.0986ZM166.429 82.7473C165.765 82.7473 165.341 82.2232 165.341 81.2139V80.9908C165.341 80.0094 165.743 79.4518 166.417 79.4518C167.092 79.4518 167.483 80.054 167.483 80.9796V81.2027C167.483 82.212 167.126 82.7473 166.429 82.7473ZM166.429 83.1488C167.41 83.1488 167.973 82.3681 167.973 81.2083V80.9852C167.973 79.8477 167.399 79.0614 166.417 79.0614C165.442 79.0614 164.845 79.8198 164.845 80.9964V81.2194C164.845 82.3793 165.475 83.1488 166.429 83.1488ZM170.378 83.0986H170.852V82.2622H171.404V81.8663H170.852V79.1116H170.205L168.382 82.1061V82.2622H170.378V83.0986ZM168.995 81.8663L170.378 79.4796V81.8663H168.995Z" fill="#344363"/>
<path d="M24.8001 3.56179C24.8001 1.65252 26.3478 0.104759 28.2571 0.104759H180.456C182.365 0.104759 183.913 1.65252 183.913 3.56179V93.8952H24.8001V3.56179Z" stroke="#DDDDDD" stroke-width="0.209517" shape-rendering="crispEdges"/>
</g>
</g>
<defs>
<filter id="filter0_d_744_7812" x="18.468" y="-6.22731" width="171.777" height="106.455" filterUnits="userSpaceOnUse" color-interpolation-filters="sRGB">
<feFlood flood-opacity="0" result="BackgroundImageFix"/>
<feColorMatrix in="SourceAlpha" type="matrix" values="0 0 0 0 0 0 0 0 0 0 0 0 0 0 0 0 0 0 127 0" result="hardAlpha"/>
<feOffset/>
<feGaussianBlur stdDeviation="3.11365"/>
<feComposite in2="hardAlpha" operator="out"/>
<feColorMatrix type="matrix" values="0 0 0 0 0 0 0 0 0 0 0 0 0 0 0 0 0 0 0.1 0"/>
<feBlend mode="normal" in2="BackgroundImageFix" result="effect1_dropShadow_744_7812"/>
<feBlend mode="normal" in="SourceGraphic" in2="effect1_dropShadow_744_7812" result="shape"/>
</filter>
<clipPath id="clip0_744_7812">
<rect width="201.542" height="94" fill="white"/>
</clipPath>
</defs>
</svg>
