<svg width="103" height="33" viewBox="0 0 103 33" fill="none" xmlns="http://www.w3.org/2000/svg">
<path fill-rule="evenodd" clip-rule="evenodd" d="M67.3295 15.7908V25.4293L69.118 25.3974L70.9065 25.3657V15.7908V6.21591L69.118 6.18418L67.3295 6.15234V15.7908ZM33.0031 11.6427C31.5682 12.0293 30.3281 12.974 29.7775 14.1002C29.5201 14.6268 29.4615 14.9054 29.4591 15.6143C29.4519 17.7512 30.7972 18.9277 34.2603 19.8135C36.5501 20.3992 37.0078 20.6909 37.0078 21.565C37.0078 22.2215 36.6837 22.6051 35.943 22.8252C34.3375 23.3022 32.8602 22.6819 32.511 21.3842L32.3856 20.9182L30.6906 20.9501L28.9956 20.982L29.0315 21.4435C29.1228 22.6153 30.1878 24.0804 31.4442 24.7626C33.8522 26.0699 37.7229 25.6904 39.4882 23.9737C40.9021 22.5987 40.9464 20.2448 39.584 18.8815C38.8756 18.1727 37.7141 17.6537 35.8691 17.2214C33.469 16.6592 32.9726 16.3595 32.9726 15.4727C32.9726 14.4133 34.0469 13.8263 35.4517 14.1182C36.2158 14.2768 36.7497 14.7698 36.8521 15.4116L36.922 15.8485H38.7589H40.596L40.5197 15.3005C40.2653 13.4746 38.8094 12.0831 36.6807 11.6318C35.7067 11.4251 33.789 11.4309 33.0031 11.6427ZM46.3464 11.6524C44.102 12.0863 42.5358 13.472 41.7767 15.6953C41.3618 16.9104 41.2551 19.3777 41.5573 20.7685C42.0851 23.1973 43.6353 24.9048 45.8324 25.4775C46.6851 25.6996 48.5105 25.7044 49.3289 25.4865C51.4163 24.9305 53.0066 23.2429 53.2204 21.3569L53.2956 20.6936H51.6044C50.352 20.6936 49.9016 20.731 49.8687 20.8378C49.8443 20.9172 49.7908 21.1342 49.7497 21.3203C49.646 21.7898 48.9115 22.4886 48.3614 22.6415C46.9213 23.0414 45.6599 22.3812 45.2545 21.0151C45.003 20.1679 44.9133 18.3834 45.0673 17.2905C45.2974 15.6554 45.886 14.833 47.0163 14.5675C47.6039 14.4295 48.5734 14.6434 49.0043 15.0063C49.4385 15.3717 49.8051 16.0721 49.8051 16.536V16.8867H51.5345H53.2639V16.5072C53.2639 15.4804 52.6462 13.9985 51.8959 13.225C50.819 12.1146 49.7588 11.6926 47.9028 11.6356C47.2053 11.6142 46.5049 11.6218 46.3464 11.6524ZM58.3705 11.7541C56.2337 12.2188 54.5277 13.803 54.3966 15.4447L54.3597 15.9062L56.162 15.9378L57.9641 15.9696L58.0437 15.5455C58.214 14.6365 59.3347 14.0943 60.5022 14.3561C61.4738 14.574 61.9107 15.1963 61.9107 16.3618V17.1175L60.4984 17.1189C57.3165 17.1224 55.311 17.9959 54.4479 19.7543C54.1632 20.3346 54.1287 20.5303 54.13 21.5588C54.131 22.5503 54.1711 22.7934 54.4154 23.2892C54.8106 24.0916 55.5589 24.7988 56.4689 25.2303C57.2034 25.5784 57.3096 25.5964 58.6273 25.5964C59.9541 25.5964 60.0453 25.5806 60.7643 25.2265C61.1774 25.0229 61.6421 24.7215 61.7971 24.5564L62.0788 24.2563L62.2542 24.811L62.4296 25.3657L64.303 25.3974C65.3336 25.4148 66.1759 25.4148 66.175 25.3974C66.1743 25.38 66.061 25.0282 65.9236 24.6159C65.6906 23.9171 65.6688 23.5673 65.6042 19.4823C65.5378 15.2795 65.5242 15.0715 65.2731 14.4408C64.7448 13.1141 63.434 12.0905 61.8266 11.7496C60.863 11.5453 59.3214 11.5473 58.3705 11.7541ZM76.6359 11.7609C75.5505 12.0241 74.71 12.4977 73.8878 13.3099C72.5136 14.667 71.9278 16.2805 71.9183 18.7325C71.912 20.3627 72.0888 21.2302 72.6566 22.3557C73.082 23.199 74.2897 24.4303 75.1318 24.8795C76.4894 25.6033 78.8111 25.8659 80.4453 25.4804C81.6684 25.1917 83.0699 24.3603 83.7024 23.5472L83.9504 23.2286L83.0577 22.2443L82.1643 21.2603L81.7508 21.6631C81.5234 21.8846 81.0259 22.2098 80.646 22.3858C80.0646 22.6547 79.7976 22.7063 78.9736 22.7091C78.1297 22.712 77.9024 22.6676 77.3355 22.3891C76.6023 22.0288 76.0636 21.4316 75.802 20.6896C75.4486 19.6876 75.0712 19.7707 79.9715 19.7707H84.3128L84.238 18.2918C84.1152 15.8623 83.6536 14.485 82.5603 13.2883C81.5364 12.167 80.0257 11.576 78.2243 11.5915C77.717 11.5958 77.0021 11.6721 76.6359 11.7609ZM84.2678 11.9044C84.2678 11.959 85.0979 13.4355 86.1119 15.1854C87.1266 16.9354 87.9567 18.4254 87.9567 18.4964C87.9567 18.5675 87.135 20.0383 86.1302 21.765C85.1253 23.4916 84.2418 25.021 84.1663 25.1638L84.029 25.4234H85.9768H87.9247L89.0744 23.3757C89.7069 22.2495 90.2715 21.3369 90.3303 21.3477C90.3883 21.3585 90.9536 22.2799 91.5869 23.3953L92.7382 25.4234H94.6738H96.6095L96.4378 25.0906C96.3432 24.9075 95.4597 23.3774 94.4747 21.69C93.4897 20.0028 92.684 18.5654 92.684 18.496C92.684 18.3964 95.1247 14.1164 96.2822 12.1858L96.5072 11.8109H94.5533H92.5986L91.4663 13.8271C90.8438 14.9361 90.3104 15.8195 90.2814 15.7904C90.2525 15.7613 89.7497 14.867 89.1645 13.803L88.1009 11.8686L86.1843 11.8369C85.1299 11.8195 84.2678 11.85 84.2678 11.9044ZM79.2719 14.7072C79.9692 14.9196 80.4804 15.7028 80.6384 16.8002L80.7177 17.3482H78.174C75.2924 17.3482 75.4785 17.429 75.8602 16.3422C76.0833 15.7071 76.6015 15.039 77.0715 14.7794C77.6124 14.4809 78.4395 14.4538 79.2719 14.7072ZM61.9107 20.4948C61.9107 21.8581 61.8379 22.0235 61.0285 22.498C60.3023 22.9238 59.0281 23.0088 58.487 22.6675C57.9402 22.3225 57.7153 21.9075 57.7251 21.2621C57.737 20.4738 58.0405 20.0083 58.7917 19.6265C59.3583 19.3384 59.5305 19.3093 60.6632 19.3093H61.9107V20.4948Z" fill="white"/>
<path d="M2.56821 12.3768C4.04568 9.33763 6.91355 7.13808 10.2162 6.51098C11.4282 6.28084 13.6889 6.35871 14.8797 6.67156C16.4642 7.0879 18.6078 8.24461 19.4229 9.12309L19.6752 9.39508L17.6359 10.5652L14.0399 12.6284C11.7394 13.9484 11.5847 14.1385 11.6422 15.5752C11.6734 16.3545 11.6992 16.4353 11.9271 16.4678C12.0792 16.4894 12.7974 16.1414 13.7546 15.5819C14.6218 15.0749 15.3989 14.6861 15.4813 14.7177C15.7258 14.8116 15.7661 15.1751 15.7669 17.2972C15.7682 21.0548 15.5108 21.6671 13.4486 22.8142C11.2937 24.0129 10.9271 24.4105 10.9271 25.5484C10.9271 26.7752 10.8171 26.8038 14.7523 24.5532C18.2307 22.5639 18.9088 22.0983 19.3308 21.4102C19.4535 21.2102 19.8947 19.7614 20.3113 18.1906C20.7279 16.62 21.1703 15.1355 21.2946 14.892C21.4187 14.6484 21.716 14.2771 21.9553 14.0669L22.3904 13.6848L22.5321 14.0321C22.9923 15.1609 23.016 18.399 22.5753 19.9505C22.0099 21.9409 20.5983 24.1425 19.1199 25.3395C17.0856 26.9865 14.8141 27.795 12.2213 27.795C9.78122 27.795 7.87679 27.2053 5.98776 25.8646L5.2567 25.3457L6.39128 24.6871C7.01536 24.3249 8.58955 23.4167 9.88948 22.6689C12.8669 20.9563 13.06 20.8242 13.287 20.3457C13.5569 19.7766 13.4942 18.1818 13.1997 18.1255C13.0864 18.104 12.3135 18.4817 11.4821 18.9652C10.6507 19.4485 9.86141 19.855 9.72819 19.8684C9.48908 19.8925 9.48549 19.8579 9.45261 17.1819C9.43155 15.4623 9.46573 14.3022 9.54615 14.0095C9.78603 13.1366 10.33 12.569 11.6879 11.7748C13.5053 10.7118 13.7717 10.5151 13.9751 10.086C14.1874 9.63854 14.2537 8.35158 14.0739 8.1716C13.822 7.91967 11.4799 9.09058 8.21775 11.0989C6.80748 11.9673 6.45054 12.2412 6.28314 12.5837C5.86417 13.441 5.50307 15.2372 5.38168 17.0665C5.31654 18.05 5.23594 19.2324 5.20274 19.6942L5.14221 20.5337L4.54708 20.8332C4.21977 20.9978 3.69946 21.3168 3.39082 21.5418C2.72374 22.0284 2.57894 21.9839 2.18591 21.1712C1.74561 20.2606 1.55595 19.0369 1.54996 17.0665C1.54351 14.9657 1.73235 14.096 2.56821 12.3768Z" fill="white"/>
</svg>
