<svg width="535" height="565" viewBox="0 0 535 565" fill="none" xmlns="http://www.w3.org/2000/svg">
<circle cx="267.5" cy="267.5" r="265.783" fill="url(#paint0_linear_1138_7548)" stroke="url(#paint1_linear_1138_7548)" stroke-width="2.56512"/>
<line x1="419.331" y1="41.3754" x2="120.44" y2="477.673" stroke="#0E1520" stroke-width="3.62329"/>
<line x1="115.251" y1="41.5631" x2="421.574" y2="473.354" stroke="#0E1520" stroke-width="3.62329"/>
<line x1="532" y1="261.063" x2="2.99963" y2="261.063" stroke="#0E1520" stroke-width="3.62329"/>
<circle cx="267.001" cy="267.658" r="115.397" fill="white"/>
<ellipse cx="266.6" cy="267.5" rx="167.6" ry="163.5" fill="url(#paint2_linear_1138_7548)"/>
<g filter="url(#filter0_i_1138_7548)">
<ellipse cx="268" cy="267.5" rx="106" ry="103.5" fill="url(#paint3_linear_1138_7548)"/>
</g>
<path d="M301.402 227.278C297.041 234.893 292.842 242.231 288.407 249.981C289.743 250.096 290.607 250.237 291.471 250.237C298.432 250.258 305.392 250.244 312.352 250.271C314.654 250.278 314.87 250.629 313.749 252.566C305.506 266.844 297.223 281.102 289.014 295.4C288.224 296.777 287.218 297.047 285.821 297.047C278.402 297.02 270.983 297.095 263.564 297.007C261.781 296.987 260.755 297.635 259.912 299.12C256.327 305.425 252.681 311.69 249.036 317.955C248.678 318.576 248.179 319.109 247.51 320C245.532 316.652 243.75 313.654 241.995 310.643C239.808 306.883 237.722 303.062 235.44 299.363C234.394 297.662 234.373 296.318 235.426 294.57C239.247 288.231 242.906 281.791 246.612 275.384C246.829 275.013 246.916 274.567 247.207 273.777C238.437 273.777 229.925 273.777 221 273.777C221.365 272.826 221.493 272.265 221.77 271.786C230.046 257.44 238.309 243.088 246.68 228.797C247.18 227.946 248.53 227.089 249.488 227.082C266.082 226.974 282.682 227.001 299.282 227.008C299.795 227.008 300.315 227.136 301.402 227.278ZM287.664 250.858C286.618 250.717 285.902 250.534 285.186 250.534C277.916 250.514 270.645 250.568 263.375 250.494C261.694 250.474 260.735 251.088 259.925 252.519C256.732 258.17 253.424 263.752 250.184 269.376C249.482 270.598 248.867 271.874 248.057 273.426C249.205 273.494 249.947 273.568 250.683 273.568C256.421 273.582 262.193 273.204 267.891 273.69C272.92 274.115 276.282 272.765 277.848 267.816C277.936 267.54 278.193 267.317 278.348 267.054C281.393 261.774 284.424 256.489 287.664 250.858Z" fill="#AECDFF"/>
<g filter="url(#filter1_b_1138_7548)">
<rect x="3" y="3" width="337" height="95" rx="7.57202" fill="url(#paint4_linear_1138_7548)" fill-opacity="0.6"/>
<circle cx="36.2777" cy="34.2777" r="15.2777" fill="#12B76A"/>
<path d="M42.0972 29.9131L34.0946 37.9157L30.457 34.2782" stroke="#F9FAFB" stroke-width="1.45502" stroke-linecap="round" stroke-linejoin="round"/>
<path d="M65.8312 39H67.9001V34.7689H69.4557C71.8357 34.7689 73.5312 33.7267 73.5312 31.3778V31.3156C73.5312 28.9822 71.8979 27.8778 69.409 27.8778H65.8312V39ZM67.9001 33.2756V29.48H69.409C70.7312 29.48 71.509 29.9933 71.509 31.3156V31.3778C71.509 32.6067 70.7779 33.2756 69.409 33.2756H67.9001ZM77.134 39.1556C78.3785 39.1556 79.094 38.7044 79.6229 38.0044V39H81.474V33.6644C81.474 31.44 80.0429 30.6933 78.2229 30.6933C76.4029 30.6933 74.894 31.4867 74.7385 33.3844H76.5585C76.6518 32.5756 77.134 32.1089 78.114 32.1089C79.2185 32.1089 79.5918 32.6533 79.5918 33.7422V34.1622H78.5807C76.2474 34.1622 74.4118 34.8467 74.4118 36.7444C74.4118 38.44 75.6407 39.1556 77.134 39.1556ZM77.5851 37.8022C76.6518 37.8022 76.2785 37.3511 76.2785 36.6667C76.2785 35.6711 77.1963 35.3444 78.6274 35.3444H79.5918V36.1533C79.5918 37.1956 78.7363 37.8022 77.5851 37.8022ZM84.3057 41.7844H86.1569L90.5902 30.8644H88.7546L86.7635 36.1067L84.6013 30.8644H82.5635L85.7835 38.1756L84.3057 41.7844ZM92.0016 39H93.8838V34.1311C93.8838 32.8867 94.7394 32.2644 95.6727 32.2644C96.5905 32.2644 97.1194 32.7778 97.1194 33.9756V39H99.0016V34.1311C99.0016 32.8867 99.8572 32.2644 100.791 32.2644C101.724 32.2644 102.237 32.7778 102.237 33.9756V39H104.119V33.8511C104.119 31.6111 102.906 30.6933 101.413 30.6933C100.402 30.6933 99.2816 31.1444 98.6594 32.1556C98.255 31.1444 97.415 30.6933 96.3572 30.6933C95.1594 30.6933 94.2727 31.3467 93.8838 32.1089V30.8644H92.0016V39ZM109.859 39.1556C111.943 39.1556 113.328 38.2222 113.592 36.5111H111.772C111.632 37.3044 111.041 37.7556 109.906 37.7556C108.506 37.7556 107.728 36.8844 107.666 35.3444H113.623V34.8C113.623 31.8911 111.803 30.6933 109.781 30.6933C107.463 30.6933 105.737 32.3733 105.737 34.8933V35.0178C105.737 37.5844 107.463 39.1556 109.859 39.1556ZM107.697 34.0844C107.883 32.8244 108.646 32.0622 109.781 32.0622C110.948 32.0622 111.663 32.6844 111.757 34.0844H107.697ZM115.305 39H117.187V34.2089C117.187 32.9178 118.042 32.2644 119.1 32.2644C120.22 32.2644 120.718 32.8244 120.718 34.0533V39H122.6V33.8822C122.6 31.6422 121.449 30.6933 119.816 30.6933C118.478 30.6933 117.576 31.3622 117.187 32.1556V30.8644H115.305V39ZM127.537 39.14C128.113 39.14 128.517 39.0467 128.813 38.9378V37.4444C128.549 37.5533 128.269 37.6 127.895 37.6C127.304 37.6 126.962 37.2733 126.962 36.5578V32.28H128.751V30.8644H126.962V29.0756H125.08V30.8644H123.991V32.28H125.08V36.7289C125.08 38.2689 125.92 39.14 127.537 39.14ZM137.78 39.1556C139.988 39.1556 141.404 37.8333 141.544 35.9667H139.817C139.708 37.1178 138.853 37.7089 137.857 37.7089C136.473 37.7089 135.602 36.7756 135.602 35.0022V34.8778C135.602 33.1978 136.52 32.2022 137.811 32.2022C138.806 32.2022 139.522 32.6533 139.677 33.7422H141.497C141.28 31.5022 139.584 30.6933 137.78 30.6933C135.508 30.6933 133.673 32.3267 133.673 34.9089V35.0333C133.673 37.6311 135.446 39.1556 137.78 39.1556ZM146.805 37.6933C145.374 37.6933 144.549 36.6511 144.549 34.9867V34.8622C144.549 33.1822 145.405 32.1711 146.805 32.1711C148.205 32.1711 149.045 33.1978 149.045 34.8778V34.9867C149.045 36.6511 148.205 37.6933 146.805 37.6933ZM146.789 39.1556C149.185 39.1556 150.974 37.5067 150.974 34.9711V34.8467C150.974 32.3578 149.185 30.6933 146.805 30.6933C144.409 30.6933 142.62 32.3733 142.62 34.8933V35.0178C142.62 37.4911 144.394 39.1556 146.789 39.1556ZM152.674 39H154.557V34.2089C154.557 32.9178 155.412 32.2644 156.47 32.2644C157.59 32.2644 158.088 32.8244 158.088 34.0533V39H159.97V33.8822C159.97 31.6422 158.819 30.6933 157.185 30.6933C155.848 30.6933 154.945 31.3622 154.557 32.1556V30.8644H152.674V39ZM162.465 39H164.347V32.28H166.198V30.8644H164.347V29.6978C164.347 28.9978 164.658 28.5 165.405 28.5C165.747 28.5 165.981 28.5311 166.198 28.6244V27.1622C165.903 27.0689 165.638 27.0222 165.172 27.0222C163.445 27.0222 162.465 27.9867 162.465 29.7756V30.8644H161.361V32.28H162.465V39ZM167.608 39H169.49V30.8644H167.608V39ZM168.526 29.5267C169.148 29.5267 169.646 29.06 169.646 28.4533C169.646 27.8311 169.148 27.3644 168.526 27.3644C167.904 27.3644 167.406 27.8311 167.406 28.4533C167.406 29.06 167.904 29.5267 168.526 29.5267ZM171.785 39H173.667V34.7689C173.667 33.0422 174.662 32.5133 176.311 32.4978V30.74C174.942 30.7556 174.18 31.3622 173.667 32.3889V30.8644H171.785V39ZM177.967 39H179.85V34.1311C179.85 32.8867 180.705 32.2644 181.638 32.2644C182.556 32.2644 183.085 32.7778 183.085 33.9756V39H184.967V34.1311C184.967 32.8867 185.823 32.2644 186.756 32.2644C187.69 32.2644 188.203 32.7778 188.203 33.9756V39H190.085V33.8511C190.085 31.6111 188.872 30.6933 187.378 30.6933C186.367 30.6933 185.247 31.1444 184.625 32.1556C184.221 31.1444 183.381 30.6933 182.323 30.6933C181.125 30.6933 180.238 31.3467 179.85 32.1089V30.8644H177.967V39ZM195.825 39.1556C197.909 39.1556 199.294 38.2222 199.558 36.5111H197.738C197.598 37.3044 197.007 37.7556 195.871 37.7556C194.471 37.7556 193.694 36.8844 193.631 35.3444H199.589V34.8C199.589 31.8911 197.769 30.6933 195.747 30.6933C193.429 30.6933 191.702 32.3733 191.702 34.8933V35.0178C191.702 37.5844 193.429 39.1556 195.825 39.1556ZM193.662 34.0844C193.849 32.8244 194.611 32.0622 195.747 32.0622C196.914 32.0622 197.629 32.6844 197.722 34.0844H193.662ZM204.319 39.1556C205.517 39.1556 206.559 38.44 206.995 37.6311V39H208.877V27.1H206.995V32.1089C206.544 31.3 205.719 30.6933 204.397 30.6933C202.281 30.6933 200.741 32.3422 200.741 34.94V35.0644C200.741 37.7089 202.281 39.1556 204.319 39.1556ZM204.786 37.6622C203.573 37.6622 202.67 36.8067 202.67 35.0178V34.8933C202.67 33.1356 203.479 32.1711 204.864 32.1711C206.233 32.1711 207.057 33.0578 207.057 34.8467V34.9711C207.057 36.7911 206.093 37.6622 204.786 37.6622Z" fill="white"/>
<path d="M67.8577 62H69.5997V57.983L72.5117 52.705H70.8217L68.7807 56.553L66.6877 52.705H64.7767L67.8577 57.97V62ZM75.6684 60.908C74.4724 60.908 73.7834 60.037 73.7834 58.646V58.542C73.7834 57.138 74.4984 56.293 75.6684 56.293C76.8384 56.293 77.5404 57.151 77.5404 58.555V58.646C77.5404 60.037 76.8384 60.908 75.6684 60.908ZM75.6554 62.13C77.6574 62.13 79.1524 60.752 79.1524 58.633V58.529C79.1524 56.449 77.6574 55.058 75.6684 55.058C73.6664 55.058 72.1714 56.462 72.1714 58.568V58.672C72.1714 60.739 73.6534 62.13 75.6554 62.13ZM82.8487 62.13C83.9537 62.13 84.6687 61.597 85.0067 60.934V62H86.5797V55.201H85.0067V59.244C85.0067 60.323 84.2657 60.869 83.4207 60.869C82.5107 60.869 82.0817 60.401 82.0817 59.374V55.201H80.5087V59.556C80.5087 61.363 81.5097 62.13 82.8487 62.13ZM91.5424 62H93.1154V57.996C93.1154 56.917 93.8304 56.371 94.7144 56.371C95.6504 56.371 96.0664 56.839 96.0664 57.866V62H97.6394V57.723C97.6394 55.851 96.6774 55.058 95.3124 55.058C94.1944 55.058 93.4404 55.617 93.1154 56.28V52.055H91.5424V62ZM101.233 62.13C102.273 62.13 102.871 61.753 103.313 61.168V62H104.86V57.541C104.86 55.682 103.664 55.058 102.143 55.058C100.622 55.058 99.3606 55.721 99.2306 57.307H100.752C100.83 56.631 101.233 56.241 102.052 56.241C102.975 56.241 103.287 56.696 103.287 57.606V57.957H102.442C100.492 57.957 98.9576 58.529 98.9576 60.115C98.9576 61.532 99.9846 62.13 101.233 62.13ZM101.61 60.999C100.83 60.999 100.518 60.622 100.518 60.05C100.518 59.218 101.285 58.945 102.481 58.945H103.287V59.621C103.287 60.492 102.572 60.999 101.61 60.999ZM108.253 62H110.086L112.543 55.201H110.996L109.241 60.388L107.46 55.201H105.77L108.253 62ZM116.445 62.13C118.187 62.13 119.344 61.35 119.565 59.92H118.044C117.927 60.583 117.433 60.96 116.484 60.96C115.314 60.96 114.664 60.232 114.612 58.945H119.591V58.49C119.591 56.059 118.07 55.058 116.38 55.058C114.443 55.058 113 56.462 113 58.568V58.672C113 60.817 114.443 62.13 116.445 62.13ZM114.638 57.892C114.794 56.839 115.431 56.202 116.38 56.202C117.355 56.202 117.953 56.722 118.031 57.892H114.638ZM124.093 62H125.666V58.464C125.666 57.021 126.498 56.579 127.876 56.566V55.097C126.732 55.11 126.095 55.617 125.666 56.475V55.201H124.093V62ZM132.123 62.13C133.865 62.13 135.022 61.35 135.243 59.92H133.722C133.605 60.583 133.111 60.96 132.162 60.96C130.992 60.96 130.342 60.232 130.29 58.945H135.269V58.49C135.269 56.059 133.748 55.058 132.058 55.058C130.121 55.058 128.678 56.462 128.678 58.568V58.672C128.678 60.817 130.121 62.13 132.123 62.13ZM130.316 57.892C130.472 56.839 131.109 56.202 132.058 56.202C133.033 56.202 133.631 56.722 133.709 57.892H130.316ZM139.651 62.13C141.497 62.13 142.68 61.025 142.797 59.465H141.354C141.263 60.427 140.548 60.921 139.716 60.921C138.559 60.921 137.831 60.141 137.831 58.659V58.555C137.831 57.151 138.598 56.319 139.677 56.319C140.509 56.319 141.107 56.696 141.237 57.606H142.758C142.576 55.734 141.159 55.058 139.651 55.058C137.753 55.058 136.219 56.423 136.219 58.581V58.685C136.219 60.856 137.701 62.13 139.651 62.13ZM147.142 62.13C148.884 62.13 150.041 61.35 150.262 59.92H148.741C148.624 60.583 148.13 60.96 147.181 60.96C146.011 60.96 145.361 60.232 145.309 58.945H150.288V58.49C150.288 56.059 148.767 55.058 147.077 55.058C145.14 55.058 143.697 56.462 143.697 58.568V58.672C143.697 60.817 145.14 62.13 147.142 62.13ZM145.335 57.892C145.491 56.839 146.128 56.202 147.077 56.202C148.052 56.202 148.65 56.722 148.728 57.892H145.335ZM151.732 62H153.305V55.201H151.732V62ZM152.499 54.083C153.019 54.083 153.435 53.693 153.435 53.186C153.435 52.666 153.019 52.276 152.499 52.276C151.979 52.276 151.563 52.666 151.563 53.186C151.563 53.693 151.979 54.083 152.499 54.083ZM157.003 62H158.836L161.293 55.201H159.746L157.991 60.388L156.21 55.201H154.52L157.003 62ZM165.195 62.13C166.937 62.13 168.094 61.35 168.315 59.92H166.794C166.677 60.583 166.183 60.96 165.234 60.96C164.064 60.96 163.414 60.232 163.362 58.945H168.341V58.49C168.341 56.059 166.82 55.058 165.13 55.058C163.193 55.058 161.75 56.462 161.75 58.568V58.672C161.75 60.817 163.193 62.13 165.195 62.13ZM163.388 57.892C163.544 56.839 164.181 56.202 165.13 56.202C166.105 56.202 166.703 56.722 166.781 57.892H163.388ZM172.294 62.13C173.295 62.13 174.166 61.532 174.53 60.856V62H176.103V52.055H174.53V56.241C174.153 55.565 173.464 55.058 172.359 55.058C170.591 55.058 169.304 56.436 169.304 58.607V58.711C169.304 60.921 170.591 62.13 172.294 62.13ZM172.684 60.882C171.67 60.882 170.916 60.167 170.916 58.672V58.568C170.916 57.099 171.592 56.293 172.749 56.293C173.893 56.293 174.582 57.034 174.582 58.529V58.633C174.582 60.154 173.776 60.882 172.684 60.882ZM185.373 62.13C187.999 62.13 189.611 60.57 189.611 57.996V57.138H185.568V58.438H187.908C187.856 59.725 187.141 60.778 185.399 60.778C183.449 60.778 182.526 59.413 182.526 57.424V57.32C182.526 55.279 183.579 53.927 185.399 53.927C186.608 53.927 187.44 54.46 187.648 55.695H189.377C189.13 53.472 187.362 52.562 185.373 52.562C182.656 52.562 180.732 54.538 180.732 57.307V57.411C180.732 60.154 182.396 62.13 185.373 62.13ZM191.28 62H193.009V58.048H197.182V62H198.924V52.705H197.182V56.657H193.009V52.705H191.28V62ZM204.202 62.13C206.256 62.13 207.621 60.869 207.621 59.257C207.621 57.398 206.49 56.774 204.306 56.475C202.694 56.241 202.382 55.864 202.382 55.11C202.382 54.395 202.928 53.888 203.981 53.888C205.047 53.888 205.606 54.304 205.775 55.279H207.361C207.179 53.498 205.983 52.588 203.981 52.588C202.044 52.588 200.744 53.732 200.744 55.253C200.744 56.995 201.797 57.671 204.02 57.97C205.528 58.217 205.957 58.542 205.957 59.4C205.957 60.258 205.229 60.83 204.202 60.83C202.629 60.83 202.252 60.05 202.135 59.114H200.471C200.601 60.869 201.667 62.13 204.202 62.13ZM211.521 62H218.242V60.661H214.29L216.357 58.646C217.462 57.58 218.177 56.527 218.177 55.318C218.177 53.68 217.033 52.575 215.109 52.575C213.146 52.575 211.924 53.745 211.807 55.773H213.393C213.549 54.46 214.134 53.927 215.057 53.927C215.954 53.927 216.448 54.473 216.448 55.344C216.448 56.228 215.915 57.047 215.031 57.983L211.521 61.688V62ZM222.794 62.13C224.926 62.13 226.278 61.064 226.278 59.348C226.278 58.113 225.563 57.346 224.484 57.099C225.381 56.761 225.992 56.124 225.992 55.071C225.992 53.693 224.861 52.575 222.924 52.575C220.935 52.575 219.726 53.81 219.635 55.422H221.169C221.273 54.486 221.91 53.888 222.898 53.888C223.86 53.888 224.341 54.447 224.341 55.201C224.341 56.072 223.86 56.566 222.794 56.566H222.131V57.801H222.846C223.977 57.801 224.523 58.308 224.523 59.322C224.523 60.245 223.964 60.83 222.755 60.83C221.507 60.83 220.961 60.102 220.87 59.127H219.297C219.375 60.908 220.584 62.13 222.794 62.13ZM228.027 63.599L229.73 60.687L228.235 60.089L227.052 63.17L228.027 63.599ZM235.095 62H236.772V60.115H238.02V58.828H236.772V52.705H234.601L230.493 59.504V60.115H235.095V62ZM232.339 58.828L235.121 54.018V58.828H232.339ZM242.344 62.117C244.736 62.117 246.088 60.414 246.088 57.359V56.878C246.088 54.2 244.892 52.562 242.461 52.562C240.342 52.562 239.016 53.849 239.016 55.747C239.016 57.58 240.303 58.763 242.097 58.763C243.202 58.763 243.956 58.295 244.385 57.593C244.359 59.712 243.644 60.778 242.318 60.778C241.317 60.778 240.888 60.31 240.719 59.582H239.094C239.315 61.181 240.446 62.117 242.344 62.117ZM242.461 57.554C241.395 57.554 240.719 56.813 240.719 55.695C240.719 54.59 241.408 53.849 242.448 53.849C243.514 53.849 244.255 54.577 244.255 55.825C244.255 56.852 243.514 57.554 242.461 57.554ZM250.584 62.13C252.716 62.13 254.068 61.064 254.068 59.348C254.068 58.113 253.353 57.346 252.274 57.099C253.171 56.761 253.782 56.124 253.782 55.071C253.782 53.693 252.651 52.575 250.714 52.575C248.725 52.575 247.516 53.81 247.425 55.422H248.959C249.063 54.486 249.7 53.888 250.688 53.888C251.65 53.888 252.131 54.447 252.131 55.201C252.131 56.072 251.65 56.566 250.584 56.566H249.921V57.801H250.636C251.767 57.801 252.313 58.308 252.313 59.322C252.313 60.245 251.754 60.83 250.545 60.83C249.297 60.83 248.751 60.102 248.66 59.127H247.087C247.165 60.908 248.374 62.13 250.584 62.13ZM256.35 62.091C256.935 62.091 257.39 61.649 257.39 61.077C257.39 60.505 256.935 60.05 256.35 60.05C255.778 60.05 255.323 60.505 255.323 61.077C255.323 61.649 255.778 62.091 256.35 62.091ZM261.768 62.117C264.16 62.117 265.512 60.414 265.512 57.359V56.878C265.512 54.2 264.316 52.562 261.885 52.562C259.766 52.562 258.44 53.849 258.44 55.747C258.44 57.58 259.727 58.763 261.521 58.763C262.626 58.763 263.38 58.295 263.809 57.593C263.783 59.712 263.068 60.778 261.742 60.778C260.741 60.778 260.312 60.31 260.143 59.582H258.518C258.739 61.181 259.87 62.117 261.768 62.117ZM261.885 57.554C260.819 57.554 260.143 56.813 260.143 55.695C260.143 54.59 260.832 53.849 261.872 53.849C262.938 53.849 263.679 54.577 263.679 55.825C263.679 56.852 262.938 57.554 261.885 57.554ZM270.785 60.752C269.394 60.752 268.588 59.686 268.588 57.58V57.112C268.588 55.045 269.355 53.927 270.759 53.927C272.15 53.927 272.904 55.123 272.904 57.099V57.554C272.904 59.66 272.215 60.752 270.785 60.752ZM270.746 62.13C273.177 62.13 274.633 60.349 274.633 57.554V57.086C274.633 54.291 273.099 52.575 270.746 52.575C268.406 52.575 266.846 54.304 266.846 57.125V57.593C266.846 60.388 268.38 62.13 270.746 62.13ZM279.371 62H280.944V55.201H279.371V62ZM280.138 54.083C280.658 54.083 281.074 53.693 281.074 53.186C281.074 52.666 280.658 52.276 280.138 52.276C279.618 52.276 279.202 52.666 279.202 53.186C279.202 53.693 279.618 54.083 280.138 54.083ZM282.861 62H284.434V57.996C284.434 56.917 285.149 56.371 286.033 56.371C286.969 56.371 287.385 56.839 287.385 57.866V62H288.958V57.723C288.958 55.851 287.996 55.058 286.631 55.058C285.513 55.058 284.759 55.617 284.434 56.28V55.201H282.861V62ZM293.084 62.117C293.565 62.117 293.903 62.039 294.15 61.948V60.7C293.929 60.791 293.695 60.83 293.383 60.83C292.889 60.83 292.603 60.557 292.603 59.959V56.384H294.098V55.201H292.603V53.706H291.03V55.201H290.12V56.384H291.03V60.102C291.03 61.389 291.732 62.117 293.084 62.117ZM298.611 60.908C297.415 60.908 296.726 60.037 296.726 58.646V58.542C296.726 57.138 297.441 56.293 298.611 56.293C299.781 56.293 300.483 57.151 300.483 58.555V58.646C300.483 60.037 299.781 60.908 298.611 60.908ZM298.598 62.13C300.6 62.13 302.095 60.752 302.095 58.633V58.529C302.095 56.449 300.6 55.058 298.611 55.058C296.609 55.058 295.114 56.462 295.114 58.568V58.672C295.114 60.739 296.596 62.13 298.598 62.13ZM66.2457 80.327H67.7927L71.4977 71.201H69.9637L68.2997 75.582L66.4927 71.201H64.7897L67.4807 77.311L66.2457 80.327ZM75.4653 76.908C74.2693 76.908 73.5803 76.037 73.5803 74.646V74.542C73.5803 73.138 74.2953 72.293 75.4653 72.293C76.6353 72.293 77.3373 73.151 77.3373 74.555V74.646C77.3373 76.037 76.6353 76.908 75.4653 76.908ZM75.4523 78.13C77.4543 78.13 78.9493 76.752 78.9493 74.633V74.529C78.9493 72.449 77.4543 71.058 75.4653 71.058C73.4633 71.058 71.9683 72.462 71.9683 74.568V74.672C71.9683 76.739 73.4503 78.13 75.4523 78.13ZM82.6456 78.13C83.7506 78.13 84.4656 77.597 84.8036 76.934V78H86.3766V71.201H84.8036V75.244C84.8036 76.323 84.0626 76.869 83.2176 76.869C82.3076 76.869 81.8786 76.401 81.8786 75.374V71.201H80.3056V75.556C80.3056 77.363 81.3066 78.13 82.6456 78.13ZM88.2417 78H89.8147V74.464C89.8147 73.021 90.6467 72.579 92.0247 72.566V71.097C90.8807 71.11 90.2437 71.617 89.8147 72.475V71.201H88.2417V78ZM100.809 78.13C103.435 78.13 105.047 76.57 105.047 73.996V73.138H101.004V74.438H103.344C103.292 75.725 102.577 76.778 100.835 76.778C98.8853 76.778 97.9623 75.413 97.9623 73.424V73.32C97.9623 71.279 99.0153 69.927 100.835 69.927C102.044 69.927 102.876 70.46 103.084 71.695H104.813C104.566 69.472 102.798 68.562 100.809 68.562C98.0923 68.562 96.1683 70.538 96.1683 73.307V73.411C96.1683 76.154 97.8323 78.13 100.809 78.13ZM106.716 78H108.445V74.048H112.618V78H114.36V68.705H112.618V72.657H108.445V68.705H106.716V78ZM119.638 78.13C121.692 78.13 123.057 76.869 123.057 75.257C123.057 73.398 121.926 72.774 119.742 72.475C118.13 72.241 117.818 71.864 117.818 71.11C117.818 70.395 118.364 69.888 119.417 69.888C120.483 69.888 121.042 70.304 121.211 71.279H122.797C122.615 69.498 121.419 68.588 119.417 68.588C117.48 68.588 116.18 69.732 116.18 71.253C116.18 72.995 117.233 73.671 119.456 73.97C120.964 74.217 121.393 74.542 121.393 75.4C121.393 76.258 120.665 76.83 119.638 76.83C118.065 76.83 117.688 76.05 117.571 75.114H115.907C116.037 76.869 117.103 78.13 119.638 78.13ZM129.48 78.13C130.52 78.13 131.118 77.753 131.56 77.168V78H133.107V73.541C133.107 71.682 131.911 71.058 130.39 71.058C128.869 71.058 127.608 71.721 127.478 73.307H128.999C129.077 72.631 129.48 72.241 130.299 72.241C131.222 72.241 131.534 72.696 131.534 73.606V73.957H130.689C128.739 73.957 127.205 74.529 127.205 76.115C127.205 77.532 128.232 78.13 129.48 78.13ZM129.857 76.999C129.077 76.999 128.765 76.622 128.765 76.05C128.765 75.218 129.532 74.945 130.728 74.945H131.534V75.621C131.534 76.492 130.819 76.999 129.857 76.999ZM137.887 78.13C139.733 78.13 140.916 77.025 141.033 75.465H139.59C139.499 76.427 138.784 76.921 137.952 76.921C136.795 76.921 136.067 76.141 136.067 74.659V74.555C136.067 73.151 136.834 72.319 137.913 72.319C138.745 72.319 139.343 72.696 139.473 73.606H140.994C140.812 71.734 139.395 71.058 137.887 71.058C135.989 71.058 134.455 72.423 134.455 74.581V74.685C134.455 76.856 135.937 78.13 137.887 78.13ZM145.364 78.13C147.21 78.13 148.393 77.025 148.51 75.465H147.067C146.976 76.427 146.261 76.921 145.429 76.921C144.272 76.921 143.544 76.141 143.544 74.659V74.555C143.544 73.151 144.311 72.319 145.39 72.319C146.222 72.319 146.82 72.696 146.95 73.606H148.471C148.289 71.734 146.872 71.058 145.364 71.058C143.466 71.058 141.932 72.423 141.932 74.581V74.685C141.932 76.856 143.414 78.13 145.364 78.13ZM152.907 76.908C151.711 76.908 151.022 76.037 151.022 74.646V74.542C151.022 73.138 151.737 72.293 152.907 72.293C154.077 72.293 154.779 73.151 154.779 74.555V74.646C154.779 76.037 154.077 76.908 152.907 76.908ZM152.894 78.13C154.896 78.13 156.391 76.752 156.391 74.633V74.529C156.391 72.449 154.896 71.058 152.907 71.058C150.905 71.058 149.41 72.462 149.41 74.568V74.672C149.41 76.739 150.892 78.13 152.894 78.13ZM160.087 78.13C161.192 78.13 161.907 77.597 162.245 76.934V78H163.818V71.201H162.245V75.244C162.245 76.323 161.504 76.869 160.659 76.869C159.749 76.869 159.32 76.401 159.32 75.374V71.201H157.747V75.556C157.747 77.363 158.748 78.13 160.087 78.13ZM165.683 78H167.256V73.996C167.256 72.917 167.971 72.371 168.855 72.371C169.791 72.371 170.207 72.839 170.207 73.866V78H171.78V73.723C171.78 71.851 170.818 71.058 169.453 71.058C168.335 71.058 167.581 71.617 167.256 72.28V71.201H165.683V78ZM175.906 78.117C176.387 78.117 176.725 78.039 176.972 77.948V76.7C176.751 76.791 176.517 76.83 176.205 76.83C175.711 76.83 175.425 76.557 175.425 75.959V72.384H176.92V71.201H175.425V69.706H173.852V71.201H172.942V72.384H173.852V76.102C173.852 77.389 174.554 78.117 175.906 78.117Z" fill="#D8D8D8"/>
<rect x="3.47325" y="3.47325" width="336.053" height="94.0535" rx="7.09877" stroke="url(#paint5_linear_1138_7548)" stroke-width="0.946502"/>
<rect x="3.47325" y="3.47325" width="336.053" height="94.0535" rx="7.09877" stroke="url(#paint6_linear_1138_7548)" stroke-width="0.946502"/>
</g>
<g filter="url(#filter2_b_1138_7548)">
<rect x="168" y="470" width="337" height="95" rx="7.57202" fill="url(#paint7_linear_1138_7548)" fill-opacity="0.6"/>
<circle cx="201.278" cy="501.278" r="15.2777" fill="#12B76A"/>
<path d="M207.097 496.913L199.095 504.916L195.457 501.278" stroke="#F9FAFB" stroke-width="1.45502" stroke-linecap="round" stroke-linejoin="round"/>
<path d="M230.831 506H232.9V501.769H234.456C236.836 501.769 238.531 500.727 238.531 498.378V498.316C238.531 495.982 236.898 494.878 234.409 494.878H230.831V506ZM232.9 500.276V496.48H234.409C235.731 496.48 236.509 496.993 236.509 498.316V498.378C236.509 499.607 235.778 500.276 234.409 500.276H232.9ZM242.134 506.156C243.378 506.156 244.094 505.704 244.623 505.004V506H246.474V500.664C246.474 498.44 245.043 497.693 243.223 497.693C241.403 497.693 239.894 498.487 239.738 500.384H241.558C241.652 499.576 242.134 499.109 243.114 499.109C244.218 499.109 244.592 499.653 244.592 500.742V501.162H243.581C241.247 501.162 239.412 501.847 239.412 503.744C239.412 505.44 240.641 506.156 242.134 506.156ZM242.585 504.802C241.652 504.802 241.278 504.351 241.278 503.667C241.278 502.671 242.196 502.344 243.627 502.344H244.592V503.153C244.592 504.196 243.736 504.802 242.585 504.802ZM249.306 508.784H251.157L255.59 497.864H253.755L251.764 503.107L249.601 497.864H247.564L250.784 505.176L249.306 508.784ZM257.002 506H258.884V501.131C258.884 499.887 259.739 499.264 260.673 499.264C261.591 499.264 262.119 499.778 262.119 500.976V506H264.002V501.131C264.002 499.887 264.857 499.264 265.791 499.264C266.724 499.264 267.237 499.778 267.237 500.976V506H269.119V500.851C269.119 498.611 267.906 497.693 266.413 497.693C265.402 497.693 264.282 498.144 263.659 499.156C263.255 498.144 262.415 497.693 261.357 497.693C260.159 497.693 259.273 498.347 258.884 499.109V497.864H257.002V506ZM274.859 506.156C276.943 506.156 278.328 505.222 278.592 503.511H276.772C276.632 504.304 276.041 504.756 274.906 504.756C273.506 504.756 272.728 503.884 272.666 502.344H278.623V501.8C278.623 498.891 276.803 497.693 274.781 497.693C272.463 497.693 270.737 499.373 270.737 501.893V502.018C270.737 504.584 272.463 506.156 274.859 506.156ZM272.697 501.084C272.883 499.824 273.646 499.062 274.781 499.062C275.948 499.062 276.663 499.684 276.757 501.084H272.697ZM280.305 506H282.187V501.209C282.187 499.918 283.042 499.264 284.1 499.264C285.22 499.264 285.718 499.824 285.718 501.053V506H287.6V500.882C287.6 498.642 286.449 497.693 284.816 497.693C283.478 497.693 282.576 498.362 282.187 499.156V497.864H280.305V506ZM292.537 506.14C293.113 506.14 293.517 506.047 293.813 505.938V504.444C293.549 504.553 293.269 504.6 292.895 504.6C292.304 504.6 291.962 504.273 291.962 503.558V499.28H293.751V497.864H291.962V496.076H290.08V497.864H288.991V499.28H290.08V503.729C290.08 505.269 290.92 506.14 292.537 506.14ZM302.78 506.156C304.988 506.156 306.404 504.833 306.544 502.967H304.817C304.708 504.118 303.853 504.709 302.857 504.709C301.473 504.709 300.602 503.776 300.602 502.002V501.878C300.602 500.198 301.52 499.202 302.811 499.202C303.806 499.202 304.522 499.653 304.677 500.742H306.497C306.28 498.502 304.584 497.693 302.78 497.693C300.508 497.693 298.673 499.327 298.673 501.909V502.033C298.673 504.631 300.446 506.156 302.78 506.156ZM311.805 504.693C310.374 504.693 309.549 503.651 309.549 501.987V501.862C309.549 500.182 310.405 499.171 311.805 499.171C313.205 499.171 314.045 500.198 314.045 501.878V501.987C314.045 503.651 313.205 504.693 311.805 504.693ZM311.789 506.156C314.185 506.156 315.974 504.507 315.974 501.971V501.847C315.974 499.358 314.185 497.693 311.805 497.693C309.409 497.693 307.62 499.373 307.62 501.893V502.018C307.62 504.491 309.394 506.156 311.789 506.156ZM317.674 506H319.557V501.209C319.557 499.918 320.412 499.264 321.47 499.264C322.59 499.264 323.088 499.824 323.088 501.053V506H324.97V500.882C324.97 498.642 323.819 497.693 322.185 497.693C320.848 497.693 319.945 498.362 319.557 499.156V497.864H317.674V506ZM327.465 506H329.347V499.28H331.198V497.864H329.347V496.698C329.347 495.998 329.658 495.5 330.405 495.5C330.747 495.5 330.981 495.531 331.198 495.624V494.162C330.903 494.069 330.638 494.022 330.172 494.022C328.445 494.022 327.465 494.987 327.465 496.776V497.864H326.361V499.28H327.465V506ZM332.608 506H334.49V497.864H332.608V506ZM333.526 496.527C334.148 496.527 334.646 496.06 334.646 495.453C334.646 494.831 334.148 494.364 333.526 494.364C332.904 494.364 332.406 494.831 332.406 495.453C332.406 496.06 332.904 496.527 333.526 496.527ZM336.785 506H338.667V501.769C338.667 500.042 339.662 499.513 341.311 499.498V497.74C339.942 497.756 339.18 498.362 338.667 499.389V497.864H336.785V506ZM342.967 506H344.85V501.131C344.85 499.887 345.705 499.264 346.638 499.264C347.556 499.264 348.085 499.778 348.085 500.976V506H349.967V501.131C349.967 499.887 350.823 499.264 351.756 499.264C352.69 499.264 353.203 499.778 353.203 500.976V506H355.085V500.851C355.085 498.611 353.872 497.693 352.378 497.693C351.367 497.693 350.247 498.144 349.625 499.156C349.221 498.144 348.381 497.693 347.323 497.693C346.125 497.693 345.238 498.347 344.85 499.109V497.864H342.967V506ZM360.825 506.156C362.909 506.156 364.294 505.222 364.558 503.511H362.738C362.598 504.304 362.007 504.756 360.871 504.756C359.471 504.756 358.694 503.884 358.631 502.344H364.589V501.8C364.589 498.891 362.769 497.693 360.747 497.693C358.429 497.693 356.702 499.373 356.702 501.893V502.018C356.702 504.584 358.429 506.156 360.825 506.156ZM358.662 501.084C358.849 499.824 359.611 499.062 360.747 499.062C361.914 499.062 362.629 499.684 362.722 501.084H358.662ZM369.319 506.156C370.517 506.156 371.559 505.44 371.995 504.631V506H373.877V494.1H371.995V499.109C371.544 498.3 370.719 497.693 369.397 497.693C367.281 497.693 365.741 499.342 365.741 501.94V502.064C365.741 504.709 367.281 506.156 369.319 506.156ZM369.786 504.662C368.573 504.662 367.67 503.807 367.67 502.018V501.893C367.67 500.136 368.479 499.171 369.864 499.171C371.233 499.171 372.057 500.058 372.057 501.847V501.971C372.057 503.791 371.093 504.662 369.786 504.662Z" fill="white"/>
<path d="M232.858 529H234.6V524.983L237.512 519.705H235.822L233.781 523.553L231.688 519.705H229.777L232.858 524.97V529ZM240.668 527.908C239.472 527.908 238.783 527.037 238.783 525.646V525.542C238.783 524.138 239.498 523.293 240.668 523.293C241.838 523.293 242.54 524.151 242.54 525.555V525.646C242.54 527.037 241.838 527.908 240.668 527.908ZM240.655 529.13C242.657 529.13 244.152 527.752 244.152 525.633V525.529C244.152 523.449 242.657 522.058 240.668 522.058C238.666 522.058 237.171 523.462 237.171 525.568V525.672C237.171 527.739 238.653 529.13 240.655 529.13ZM247.849 529.13C248.954 529.13 249.669 528.597 250.007 527.934V529H251.58V522.201H250.007V526.244C250.007 527.323 249.266 527.869 248.421 527.869C247.511 527.869 247.082 527.401 247.082 526.374V522.201H245.509V526.556C245.509 528.363 246.51 529.13 247.849 529.13ZM256.542 529H258.115V524.996C258.115 523.917 258.83 523.371 259.714 523.371C260.65 523.371 261.066 523.839 261.066 524.866V529H262.639V524.723C262.639 522.851 261.677 522.058 260.312 522.058C259.194 522.058 258.44 522.617 258.115 523.28V519.055H256.542V529ZM266.233 529.13C267.273 529.13 267.871 528.753 268.313 528.168V529H269.86V524.541C269.86 522.682 268.664 522.058 267.143 522.058C265.622 522.058 264.361 522.721 264.231 524.307H265.752C265.83 523.631 266.233 523.241 267.052 523.241C267.975 523.241 268.287 523.696 268.287 524.606V524.957H267.442C265.492 524.957 263.958 525.529 263.958 527.115C263.958 528.532 264.985 529.13 266.233 529.13ZM266.61 527.999C265.83 527.999 265.518 527.622 265.518 527.05C265.518 526.218 266.285 525.945 267.481 525.945H268.287V526.621C268.287 527.492 267.572 527.999 266.61 527.999ZM273.253 529H275.086L277.543 522.201H275.996L274.241 527.388L272.46 522.201H270.77L273.253 529ZM281.445 529.13C283.187 529.13 284.344 528.35 284.565 526.92H283.044C282.927 527.583 282.433 527.96 281.484 527.96C280.314 527.96 279.664 527.232 279.612 525.945H284.591V525.49C284.591 523.059 283.07 522.058 281.38 522.058C279.443 522.058 278 523.462 278 525.568V525.672C278 527.817 279.443 529.13 281.445 529.13ZM279.638 524.892C279.794 523.839 280.431 523.202 281.38 523.202C282.355 523.202 282.953 523.722 283.031 524.892H279.638ZM289.093 529H290.666V525.464C290.666 524.021 291.498 523.579 292.876 523.566V522.097C291.732 522.11 291.095 522.617 290.666 523.475V522.201H289.093V529ZM297.123 529.13C298.865 529.13 300.022 528.35 300.243 526.92H298.722C298.605 527.583 298.111 527.96 297.162 527.96C295.992 527.96 295.342 527.232 295.29 525.945H300.269V525.49C300.269 523.059 298.748 522.058 297.058 522.058C295.121 522.058 293.678 523.462 293.678 525.568V525.672C293.678 527.817 295.121 529.13 297.123 529.13ZM295.316 524.892C295.472 523.839 296.109 523.202 297.058 523.202C298.033 523.202 298.631 523.722 298.709 524.892H295.316ZM304.651 529.13C306.497 529.13 307.68 528.025 307.797 526.465H306.354C306.263 527.427 305.548 527.921 304.716 527.921C303.559 527.921 302.831 527.141 302.831 525.659V525.555C302.831 524.151 303.598 523.319 304.677 523.319C305.509 523.319 306.107 523.696 306.237 524.606H307.758C307.576 522.734 306.159 522.058 304.651 522.058C302.753 522.058 301.219 523.423 301.219 525.581V525.685C301.219 527.856 302.701 529.13 304.651 529.13ZM312.142 529.13C313.884 529.13 315.041 528.35 315.262 526.92H313.741C313.624 527.583 313.13 527.96 312.181 527.96C311.011 527.96 310.361 527.232 310.309 525.945H315.288V525.49C315.288 523.059 313.767 522.058 312.077 522.058C310.14 522.058 308.697 523.462 308.697 525.568V525.672C308.697 527.817 310.14 529.13 312.142 529.13ZM310.335 524.892C310.491 523.839 311.128 523.202 312.077 523.202C313.052 523.202 313.65 523.722 313.728 524.892H310.335ZM316.732 529H318.305V522.201H316.732V529ZM317.499 521.083C318.019 521.083 318.435 520.693 318.435 520.186C318.435 519.666 318.019 519.276 317.499 519.276C316.979 519.276 316.563 519.666 316.563 520.186C316.563 520.693 316.979 521.083 317.499 521.083ZM322.003 529H323.836L326.293 522.201H324.746L322.991 527.388L321.21 522.201H319.52L322.003 529ZM330.195 529.13C331.937 529.13 333.094 528.35 333.315 526.92H331.794C331.677 527.583 331.183 527.96 330.234 527.96C329.064 527.96 328.414 527.232 328.362 525.945H333.341V525.49C333.341 523.059 331.82 522.058 330.13 522.058C328.193 522.058 326.75 523.462 326.75 525.568V525.672C326.75 527.817 328.193 529.13 330.195 529.13ZM328.388 524.892C328.544 523.839 329.181 523.202 330.13 523.202C331.105 523.202 331.703 523.722 331.781 524.892H328.388ZM337.294 529.13C338.295 529.13 339.166 528.532 339.53 527.856V529H341.103V519.055H339.53V523.241C339.153 522.565 338.464 522.058 337.359 522.058C335.591 522.058 334.304 523.436 334.304 525.607V525.711C334.304 527.921 335.591 529.13 337.294 529.13ZM337.684 527.882C336.67 527.882 335.916 527.167 335.916 525.672V525.568C335.916 524.099 336.592 523.293 337.749 523.293C338.893 523.293 339.582 524.034 339.582 525.529V525.633C339.582 527.154 338.776 527.882 337.684 527.882ZM350.373 529.13C352.999 529.13 354.611 527.57 354.611 524.996V524.138H350.568V525.438H352.908C352.856 526.725 352.141 527.778 350.399 527.778C348.449 527.778 347.526 526.413 347.526 524.424V524.32C347.526 522.279 348.579 520.927 350.399 520.927C351.608 520.927 352.44 521.46 352.648 522.695H354.377C354.13 520.472 352.362 519.562 350.373 519.562C347.656 519.562 345.732 521.538 345.732 524.307V524.411C345.732 527.154 347.396 529.13 350.373 529.13ZM356.28 529H358.009V525.048H362.182V529H363.924V519.705H362.182V523.657H358.009V519.705H356.28V529ZM369.202 529.13C371.256 529.13 372.621 527.869 372.621 526.257C372.621 524.398 371.49 523.774 369.306 523.475C367.694 523.241 367.382 522.864 367.382 522.11C367.382 521.395 367.928 520.888 368.981 520.888C370.047 520.888 370.606 521.304 370.775 522.279H372.361C372.179 520.498 370.983 519.588 368.981 519.588C367.044 519.588 365.744 520.732 365.744 522.253C365.744 523.995 366.797 524.671 369.02 524.97C370.528 525.217 370.957 525.542 370.957 526.4C370.957 527.258 370.229 527.83 369.202 527.83C367.629 527.83 367.252 527.05 367.135 526.114H365.471C365.601 527.869 366.667 529.13 369.202 529.13ZM376.521 529H383.242V527.661H379.29L381.357 525.646C382.462 524.58 383.177 523.527 383.177 522.318C383.177 520.68 382.033 519.575 380.109 519.575C378.146 519.575 376.924 520.745 376.807 522.773H378.393C378.549 521.46 379.134 520.927 380.057 520.927C380.954 520.927 381.448 521.473 381.448 522.344C381.448 523.228 380.915 524.047 380.031 524.983L376.521 528.688V529ZM387.794 529.13C389.926 529.13 391.278 528.064 391.278 526.348C391.278 525.113 390.563 524.346 389.484 524.099C390.381 523.761 390.992 523.124 390.992 522.071C390.992 520.693 389.861 519.575 387.924 519.575C385.935 519.575 384.726 520.81 384.635 522.422H386.169C386.273 521.486 386.91 520.888 387.898 520.888C388.86 520.888 389.341 521.447 389.341 522.201C389.341 523.072 388.86 523.566 387.794 523.566H387.131V524.801H387.846C388.977 524.801 389.523 525.308 389.523 526.322C389.523 527.245 388.964 527.83 387.755 527.83C386.507 527.83 385.961 527.102 385.87 526.127H384.297C384.375 527.908 385.584 529.13 387.794 529.13ZM393.027 530.599L394.73 527.687L393.235 527.089L392.052 530.17L393.027 530.599ZM400.095 529H401.772V527.115H403.02V525.828H401.772V519.705H399.601L395.493 526.504V527.115H400.095V529ZM397.339 525.828L400.121 521.018V525.828H397.339ZM407.344 529.117C409.736 529.117 411.088 527.414 411.088 524.359V523.878C411.088 521.2 409.892 519.562 407.461 519.562C405.342 519.562 404.016 520.849 404.016 522.747C404.016 524.58 405.303 525.763 407.097 525.763C408.202 525.763 408.956 525.295 409.385 524.593C409.359 526.712 408.644 527.778 407.318 527.778C406.317 527.778 405.888 527.31 405.719 526.582H404.094C404.315 528.181 405.446 529.117 407.344 529.117ZM407.461 524.554C406.395 524.554 405.719 523.813 405.719 522.695C405.719 521.59 406.408 520.849 407.448 520.849C408.514 520.849 409.255 521.577 409.255 522.825C409.255 523.852 408.514 524.554 407.461 524.554ZM415.584 529.13C417.716 529.13 419.068 528.064 419.068 526.348C419.068 525.113 418.353 524.346 417.274 524.099C418.171 523.761 418.782 523.124 418.782 522.071C418.782 520.693 417.651 519.575 415.714 519.575C413.725 519.575 412.516 520.81 412.425 522.422H413.959C414.063 521.486 414.7 520.888 415.688 520.888C416.65 520.888 417.131 521.447 417.131 522.201C417.131 523.072 416.65 523.566 415.584 523.566H414.921V524.801H415.636C416.767 524.801 417.313 525.308 417.313 526.322C417.313 527.245 416.754 527.83 415.545 527.83C414.297 527.83 413.751 527.102 413.66 526.127H412.087C412.165 527.908 413.374 529.13 415.584 529.13ZM421.35 529.091C421.935 529.091 422.39 528.649 422.39 528.077C422.39 527.505 421.935 527.05 421.35 527.05C420.778 527.05 420.323 527.505 420.323 528.077C420.323 528.649 420.778 529.091 421.35 529.091ZM426.768 529.117C429.16 529.117 430.512 527.414 430.512 524.359V523.878C430.512 521.2 429.316 519.562 426.885 519.562C424.766 519.562 423.44 520.849 423.44 522.747C423.44 524.58 424.727 525.763 426.521 525.763C427.626 525.763 428.38 525.295 428.809 524.593C428.783 526.712 428.068 527.778 426.742 527.778C425.741 527.778 425.312 527.31 425.143 526.582H423.518C423.739 528.181 424.87 529.117 426.768 529.117ZM426.885 524.554C425.819 524.554 425.143 523.813 425.143 522.695C425.143 521.59 425.832 520.849 426.872 520.849C427.938 520.849 428.679 521.577 428.679 522.825C428.679 523.852 427.938 524.554 426.885 524.554ZM435.785 527.752C434.394 527.752 433.588 526.686 433.588 524.58V524.112C433.588 522.045 434.355 520.927 435.759 520.927C437.15 520.927 437.904 522.123 437.904 524.099V524.554C437.904 526.66 437.215 527.752 435.785 527.752ZM435.746 529.13C438.177 529.13 439.633 527.349 439.633 524.554V524.086C439.633 521.291 438.099 519.575 435.746 519.575C433.406 519.575 431.846 521.304 431.846 524.125V524.593C431.846 527.388 433.38 529.13 435.746 529.13ZM444.371 529H445.944V522.201H444.371V529ZM445.138 521.083C445.658 521.083 446.074 520.693 446.074 520.186C446.074 519.666 445.658 519.276 445.138 519.276C444.618 519.276 444.202 519.666 444.202 520.186C444.202 520.693 444.618 521.083 445.138 521.083ZM447.861 529H449.434V524.996C449.434 523.917 450.149 523.371 451.033 523.371C451.969 523.371 452.385 523.839 452.385 524.866V529H453.958V524.723C453.958 522.851 452.996 522.058 451.631 522.058C450.513 522.058 449.759 522.617 449.434 523.28V522.201H447.861V529ZM458.084 529.117C458.565 529.117 458.903 529.039 459.15 528.948V527.7C458.929 527.791 458.695 527.83 458.383 527.83C457.889 527.83 457.603 527.557 457.603 526.959V523.384H459.098V522.201H457.603V520.706H456.03V522.201H455.12V523.384H456.03V527.102C456.03 528.389 456.732 529.117 458.084 529.117ZM463.611 527.908C462.415 527.908 461.726 527.037 461.726 525.646V525.542C461.726 524.138 462.441 523.293 463.611 523.293C464.781 523.293 465.483 524.151 465.483 525.555V525.646C465.483 527.037 464.781 527.908 463.611 527.908ZM463.598 529.13C465.6 529.13 467.095 527.752 467.095 525.633V525.529C467.095 523.449 465.6 522.058 463.611 522.058C461.609 522.058 460.114 523.462 460.114 525.568V525.672C460.114 527.739 461.596 529.13 463.598 529.13ZM231.246 547.327H232.793L236.498 538.201H234.964L233.3 542.582L231.493 538.201H229.79L232.481 544.311L231.246 547.327ZM240.465 543.908C239.269 543.908 238.58 543.037 238.58 541.646V541.542C238.58 540.138 239.295 539.293 240.465 539.293C241.635 539.293 242.337 540.151 242.337 541.555V541.646C242.337 543.037 241.635 543.908 240.465 543.908ZM240.452 545.13C242.454 545.13 243.949 543.752 243.949 541.633V541.529C243.949 539.449 242.454 538.058 240.465 538.058C238.463 538.058 236.968 539.462 236.968 541.568V541.672C236.968 543.739 238.45 545.13 240.452 545.13ZM247.646 545.13C248.751 545.13 249.466 544.597 249.804 543.934V545H251.377V538.201H249.804V542.244C249.804 543.323 249.063 543.869 248.218 543.869C247.308 543.869 246.879 543.401 246.879 542.374V538.201H245.306V542.556C245.306 544.363 246.307 545.13 247.646 545.13ZM253.242 545H254.815V541.464C254.815 540.021 255.647 539.579 257.025 539.566V538.097C255.881 538.11 255.244 538.617 254.815 539.475V538.201H253.242V545ZM265.809 545.13C268.435 545.13 270.047 543.57 270.047 540.996V540.138H266.004V541.438H268.344C268.292 542.725 267.577 543.778 265.835 543.778C263.885 543.778 262.962 542.413 262.962 540.424V540.32C262.962 538.279 264.015 536.927 265.835 536.927C267.044 536.927 267.876 537.46 268.084 538.695H269.813C269.566 536.472 267.798 535.562 265.809 535.562C263.092 535.562 261.168 537.538 261.168 540.307V540.411C261.168 543.154 262.832 545.13 265.809 545.13ZM271.716 545H273.445V541.048H277.618V545H279.36V535.705H277.618V539.657H273.445V535.705H271.716V545ZM284.638 545.13C286.692 545.13 288.057 543.869 288.057 542.257C288.057 540.398 286.926 539.774 284.742 539.475C283.13 539.241 282.818 538.864 282.818 538.11C282.818 537.395 283.364 536.888 284.417 536.888C285.483 536.888 286.042 537.304 286.211 538.279H287.797C287.615 536.498 286.419 535.588 284.417 535.588C282.48 535.588 281.18 536.732 281.18 538.253C281.18 539.995 282.233 540.671 284.456 540.97C285.964 541.217 286.393 541.542 286.393 542.4C286.393 543.258 285.665 543.83 284.638 543.83C283.065 543.83 282.688 543.05 282.571 542.114H280.907C281.037 543.869 282.103 545.13 284.638 545.13ZM294.48 545.13C295.52 545.13 296.118 544.753 296.56 544.168V545H298.107V540.541C298.107 538.682 296.911 538.058 295.39 538.058C293.869 538.058 292.608 538.721 292.478 540.307H293.999C294.077 539.631 294.48 539.241 295.299 539.241C296.222 539.241 296.534 539.696 296.534 540.606V540.957H295.689C293.739 540.957 292.205 541.529 292.205 543.115C292.205 544.532 293.232 545.13 294.48 545.13ZM294.857 543.999C294.077 543.999 293.765 543.622 293.765 543.05C293.765 542.218 294.532 541.945 295.728 541.945H296.534V542.621C296.534 543.492 295.819 543.999 294.857 543.999ZM302.887 545.13C304.733 545.13 305.916 544.025 306.033 542.465H304.59C304.499 543.427 303.784 543.921 302.952 543.921C301.795 543.921 301.067 543.141 301.067 541.659V541.555C301.067 540.151 301.834 539.319 302.913 539.319C303.745 539.319 304.343 539.696 304.473 540.606H305.994C305.812 538.734 304.395 538.058 302.887 538.058C300.989 538.058 299.455 539.423 299.455 541.581V541.685C299.455 543.856 300.937 545.13 302.887 545.13ZM310.364 545.13C312.21 545.13 313.393 544.025 313.51 542.465H312.067C311.976 543.427 311.261 543.921 310.429 543.921C309.272 543.921 308.544 543.141 308.544 541.659V541.555C308.544 540.151 309.311 539.319 310.39 539.319C311.222 539.319 311.82 539.696 311.95 540.606H313.471C313.289 538.734 311.872 538.058 310.364 538.058C308.466 538.058 306.932 539.423 306.932 541.581V541.685C306.932 543.856 308.414 545.13 310.364 545.13ZM317.907 543.908C316.711 543.908 316.022 543.037 316.022 541.646V541.542C316.022 540.138 316.737 539.293 317.907 539.293C319.077 539.293 319.779 540.151 319.779 541.555V541.646C319.779 543.037 319.077 543.908 317.907 543.908ZM317.894 545.13C319.896 545.13 321.391 543.752 321.391 541.633V541.529C321.391 539.449 319.896 538.058 317.907 538.058C315.905 538.058 314.41 539.462 314.41 541.568V541.672C314.41 543.739 315.892 545.13 317.894 545.13ZM325.087 545.13C326.192 545.13 326.907 544.597 327.245 543.934V545H328.818V538.201H327.245V542.244C327.245 543.323 326.504 543.869 325.659 543.869C324.749 543.869 324.32 543.401 324.32 542.374V538.201H322.747V542.556C322.747 544.363 323.748 545.13 325.087 545.13ZM330.683 545H332.256V540.996C332.256 539.917 332.971 539.371 333.855 539.371C334.791 539.371 335.207 539.839 335.207 540.866V545H336.78V540.723C336.78 538.851 335.818 538.058 334.453 538.058C333.335 538.058 332.581 538.617 332.256 539.28V538.201H330.683V545ZM340.906 545.117C341.387 545.117 341.725 545.039 341.972 544.948V543.7C341.751 543.791 341.517 543.83 341.205 543.83C340.711 543.83 340.425 543.557 340.425 542.959V539.384H341.92V538.201H340.425V536.706H338.852V538.201H337.942V539.384H338.852V543.102C338.852 544.389 339.554 545.117 340.906 545.117Z" fill="#D8D8D8"/>
<rect x="168.473" y="470.473" width="336.053" height="94.0535" rx="7.09877" stroke="url(#paint8_linear_1138_7548)" stroke-width="0.946502"/>
<rect x="168.473" y="470.473" width="336.053" height="94.0535" rx="7.09877" stroke="url(#paint9_linear_1138_7548)" stroke-width="0.946502"/>
</g>
<defs>
<filter id="filter0_i_1138_7548" x="162" y="164" width="212" height="211" filterUnits="userSpaceOnUse" color-interpolation-filters="sRGB">
<feFlood flood-opacity="0" result="BackgroundImageFix"/>
<feBlend mode="normal" in="SourceGraphic" in2="BackgroundImageFix" result="shape"/>
<feColorMatrix in="SourceAlpha" type="matrix" values="0 0 0 0 0 0 0 0 0 0 0 0 0 0 0 0 0 0 127 0" result="hardAlpha"/>
<feOffset dy="4"/>
<feGaussianBlur stdDeviation="2"/>
<feComposite in2="hardAlpha" operator="arithmetic" k2="-1" k3="1"/>
<feColorMatrix type="matrix" values="0 0 0 0 0 0 0 0 0 0 0 0 0 0 0 0 0 0 1 0"/>
<feBlend mode="normal" in2="shape" result="effect1_innerShadow_1138_7548"/>
</filter>
<filter id="filter1_b_1138_7548" x="-19.7427" y="-19.7427" width="382.485" height="140.485" filterUnits="userSpaceOnUse" color-interpolation-filters="sRGB">
<feFlood flood-opacity="0" result="BackgroundImageFix"/>
<feGaussianBlur in="BackgroundImageFix" stdDeviation="11.3713"/>
<feComposite in2="SourceAlpha" operator="in" result="effect1_backgroundBlur_1138_7548"/>
<feBlend mode="normal" in="SourceGraphic" in2="effect1_backgroundBlur_1138_7548" result="shape"/>
</filter>
<filter id="filter2_b_1138_7548" x="145.257" y="447.257" width="382.485" height="140.485" filterUnits="userSpaceOnUse" color-interpolation-filters="sRGB">
<feFlood flood-opacity="0" result="BackgroundImageFix"/>
<feGaussianBlur in="BackgroundImageFix" stdDeviation="11.3713"/>
<feComposite in2="SourceAlpha" operator="in" result="effect1_backgroundBlur_1138_7548"/>
<feBlend mode="normal" in="SourceGraphic" in2="effect1_backgroundBlur_1138_7548" result="shape"/>
</filter>
<linearGradient id="paint0_linear_1138_7548" x1="289.78" y1="3" x2="351.108" y2="524.792" gradientUnits="userSpaceOnUse">
<stop stop-color="#183C72" stop-opacity="0.6"/>
<stop offset="1" stop-color="#0F2240"/>
</linearGradient>
<linearGradient id="paint1_linear_1138_7548" x1="298.861" y1="572.111" x2="293.409" y2="-22.3613" gradientUnits="userSpaceOnUse">
<stop stop-color="#00349A"/>
<stop offset="0.411458" stop-color="#AFC1FF" stop-opacity="0.59"/>
<stop offset="1" stop-color="#708AE6" stop-opacity="0"/>
</linearGradient>
<linearGradient id="paint2_linear_1138_7548" x1="280.718" y1="104" x2="317.725" y2="426.757" gradientUnits="userSpaceOnUse">
<stop stop-color="#4F7BBC"/>
<stop offset="1" stop-color="#BAD6FF"/>
</linearGradient>
<linearGradient id="paint3_linear_1138_7548" x1="276.929" y1="164" x2="300.376" y2="368.309" gradientUnits="userSpaceOnUse">
<stop stop-color="#142744"/>
<stop offset="1" stop-color="#051A39"/>
</linearGradient>
<linearGradient id="paint4_linear_1138_7548" x1="171.5" y1="3" x2="183.52" y2="96.6357" gradientUnits="userSpaceOnUse">
<stop stop-color="#02102D"/>
<stop offset="1" stop-color="#010815"/>
</linearGradient>
<linearGradient id="paint5_linear_1138_7548" x1="404.624" y1="40.9779" x2="290.868" y2="53.7853" gradientUnits="userSpaceOnUse">
<stop stop-color="white"/>
<stop offset="1" stop-color="#EFEFEF" stop-opacity="0"/>
</linearGradient>
<linearGradient id="paint6_linear_1138_7548" x1="3" y1="3" x2="41.3945" y2="75.397" gradientUnits="userSpaceOnUse">
<stop stop-color="white" stop-opacity="0.5"/>
<stop offset="1" stop-color="white" stop-opacity="0"/>
</linearGradient>
<linearGradient id="paint7_linear_1138_7548" x1="336.5" y1="470" x2="348.52" y2="563.636" gradientUnits="userSpaceOnUse">
<stop stop-color="#02102D"/>
<stop offset="1" stop-color="#010815"/>
</linearGradient>
<linearGradient id="paint8_linear_1138_7548" x1="569.624" y1="507.978" x2="455.868" y2="520.785" gradientUnits="userSpaceOnUse">
<stop stop-color="white"/>
<stop offset="1" stop-color="#EFEFEF" stop-opacity="0"/>
</linearGradient>
<linearGradient id="paint9_linear_1138_7548" x1="168" y1="470" x2="206.395" y2="542.397" gradientUnits="userSpaceOnUse">
<stop stop-color="white" stop-opacity="0.5"/>
<stop offset="1" stop-color="white" stop-opacity="0"/>
</linearGradient>
</defs>
</svg>
