<svg width="632" height="625" viewBox="0 0 632 625" fill="none" xmlns="http://www.w3.org/2000/svg">
<mask id="path-1-outside-1_1162_8182" maskUnits="userSpaceOnUse" x="87.4854" y="56.1514" width="455" height="220" fill="black">
<rect fill="white" x="87.4854" y="56.1514" width="455" height="220"/>
<path d="M540.627 274.755C540.627 246.179 534.779 217.883 523.418 191.482C512.057 165.081 495.405 141.092 474.412 120.886C453.42 100.68 428.498 84.6511 401.07 73.7155C373.642 62.7799 344.244 57.1514 314.556 57.1514C284.868 57.1514 255.471 62.7799 228.043 73.7155C200.614 84.6511 175.693 100.68 154.7 120.886C133.707 141.092 117.055 165.081 105.694 191.482C94.3328 217.883 88.4853 246.179 88.4854 274.755H161.35C161.35 255.389 165.312 236.213 173.012 218.321C180.711 200.43 191.996 184.173 206.223 170.479C220.449 156.785 237.339 145.923 255.927 138.512C274.514 131.101 294.437 127.287 314.556 127.287C334.676 127.287 354.598 131.101 373.186 138.512C391.774 145.923 408.663 156.785 422.89 170.479C437.116 184.173 448.401 200.43 456.101 218.321C463.8 236.213 467.763 255.389 467.763 274.755H540.627Z"/>
</mask>
<path d="M540.627 274.755C540.627 246.179 534.779 217.883 523.418 191.482C512.057 165.081 495.405 141.092 474.412 120.886C453.42 100.68 428.498 84.6511 401.07 73.7155C373.642 62.7799 344.244 57.1514 314.556 57.1514C284.868 57.1514 255.471 62.7799 228.043 73.7155C200.614 84.6511 175.693 100.68 154.7 120.886C133.707 141.092 117.055 165.081 105.694 191.482C94.3328 217.883 88.4853 246.179 88.4854 274.755H161.35C161.35 255.389 165.312 236.213 173.012 218.321C180.711 200.43 191.996 184.173 206.223 170.479C220.449 156.785 237.339 145.923 255.927 138.512C274.514 131.101 294.437 127.287 314.556 127.287C334.676 127.287 354.598 131.101 373.186 138.512C391.774 145.923 408.663 156.785 422.89 170.479C437.116 184.173 448.401 200.43 456.101 218.321C463.8 236.213 467.763 255.389 467.763 274.755H540.627Z" fill="url(#paint0_linear_1162_8182)"/>
<path d="M540.627 274.755C540.627 246.179 534.779 217.883 523.418 191.482C512.057 165.081 495.405 141.092 474.412 120.886C453.42 100.68 428.498 84.6511 401.07 73.7155C373.642 62.7799 344.244 57.1514 314.556 57.1514C284.868 57.1514 255.471 62.7799 228.043 73.7155C200.614 84.6511 175.693 100.68 154.7 120.886C133.707 141.092 117.055 165.081 105.694 191.482C94.3328 217.883 88.4853 246.179 88.4854 274.755H161.35C161.35 255.389 165.312 236.213 173.012 218.321C180.711 200.43 191.996 184.173 206.223 170.479C220.449 156.785 237.339 145.923 255.927 138.512C274.514 131.101 294.437 127.287 314.556 127.287C334.676 127.287 354.598 131.101 373.186 138.512C391.774 145.923 408.663 156.785 422.89 170.479C437.116 184.173 448.401 200.43 456.101 218.321C463.8 236.213 467.763 255.389 467.763 274.755H540.627Z" stroke="url(#paint1_linear_1162_8182)" stroke-width="2" mask="url(#path-1-outside-1_1162_8182)"/>
<mask id="path-2-outside-2_1162_8182" maskUnits="userSpaceOnUse" x="107.188" y="198.224" width="525.751" height="428.352" fill="black">
<rect fill="white" x="107.188" y="198.224" width="525.751" height="428.352"/>
<path d="M109.411 425.866C123.698 451.991 143.192 474.937 166.78 493.394C190.367 511.851 217.585 525.456 246.88 533.434C276.176 541.411 306.975 543.605 337.519 539.889C368.063 536.173 397.753 526.62 424.896 511.776C452.038 496.933 476.1 477.088 495.709 453.377C515.317 429.665 530.088 402.55 539.178 373.58C548.267 344.611 551.497 314.353 548.684 284.536C545.871 254.718 537.069 225.925 522.781 199.799L456.165 236.23C465.848 253.936 471.813 273.449 473.719 293.656C475.626 313.863 473.437 334.368 467.277 354.001C461.117 373.633 451.107 392.009 437.818 408.078C424.53 424.148 408.223 437.596 389.829 447.655C371.435 457.715 351.313 464.189 330.614 466.707C309.915 469.225 289.042 467.739 269.189 462.332C249.336 456.926 230.89 447.706 214.905 435.198C198.92 422.69 185.709 407.139 176.027 389.434L109.411 425.866Z"/>
</mask>
<path d="M109.411 425.866C123.698 451.991 143.192 474.937 166.78 493.394C190.367 511.851 217.585 525.456 246.88 533.434C276.176 541.411 306.975 543.605 337.519 539.889C368.063 536.173 397.753 526.62 424.896 511.776C452.038 496.933 476.1 477.088 495.709 453.377C515.317 429.665 530.088 402.55 539.178 373.58C548.267 344.611 551.497 314.353 548.684 284.536C545.871 254.718 537.069 225.925 522.781 199.799L456.165 236.23C465.848 253.936 471.813 273.449 473.719 293.656C475.626 313.863 473.437 334.368 467.277 354.001C461.117 373.633 451.107 392.009 437.818 408.078C424.53 424.148 408.223 437.596 389.829 447.655C371.435 457.715 351.313 464.189 330.614 466.707C309.915 469.225 289.042 467.739 269.189 462.332C249.336 456.926 230.89 447.706 214.905 435.198C198.92 422.69 185.709 407.139 176.027 389.434L109.411 425.866Z" fill="url(#paint2_linear_1162_8182)"/>
<path d="M109.411 425.866C123.698 451.991 143.192 474.937 166.78 493.394C190.367 511.851 217.585 525.456 246.88 533.434C276.176 541.411 306.975 543.605 337.519 539.889C368.063 536.173 397.753 526.62 424.896 511.776C452.038 496.933 476.1 477.088 495.709 453.377C515.317 429.665 530.088 402.55 539.178 373.58C548.267 344.611 551.497 314.353 548.684 284.536C545.871 254.718 537.069 225.925 522.781 199.799L456.165 236.23C465.848 253.936 471.813 273.449 473.719 293.656C475.626 313.863 473.437 334.368 467.277 354.001C461.117 373.633 451.107 392.009 437.818 408.078C424.53 424.148 408.223 437.596 389.829 447.655C371.435 457.715 351.313 464.189 330.614 466.707C309.915 469.225 289.042 467.739 269.189 462.332C249.336 456.926 230.89 447.706 214.905 435.198C198.92 422.69 185.709 407.139 176.027 389.434L109.411 425.866Z" stroke="url(#paint3_linear_1162_8182)" stroke-opacity="0.33" stroke-width="2" mask="url(#path-2-outside-2_1162_8182)"/>
<g filter="url(#filter0_d_1162_8182)">
<ellipse cx="129.171" cy="336.354" rx="85.9408" ry="84.459" fill="url(#paint4_linear_1162_8182)"/>
</g>
<ellipse cx="129.171" cy="336.354" rx="56.306" ry="54.8243" fill="url(#paint5_linear_1162_8182)"/>
<g opacity="0.7">
<path d="M150.325 331.448C151.31 324.862 146.295 321.321 139.438 318.959L141.663 310.036L136.231 308.683L134.066 317.37C132.638 317.014 131.172 316.679 129.714 316.346L131.896 307.602L126.468 306.248L124.242 315.167C123.06 314.898 121.9 314.632 120.774 314.352L120.78 314.324L113.29 312.454L111.845 318.255C111.845 318.255 115.875 319.178 115.79 319.236C117.989 319.785 118.387 321.24 118.32 322.394L115.786 332.559C115.938 332.598 116.134 332.653 116.351 332.74C116.17 332.695 115.977 332.645 115.777 332.598L112.226 346.836C111.956 347.505 111.274 348.507 109.737 348.127C109.791 348.205 105.789 347.141 105.789 347.141L103.093 353.358L110.16 355.12C111.475 355.45 112.764 355.794 114.032 356.119L111.785 365.144L117.21 366.497L119.436 357.569C120.917 357.971 122.356 358.342 123.764 358.692L121.545 367.579L126.977 368.932L129.224 359.925C138.485 361.677 145.449 360.97 148.381 352.594C150.743 345.85 148.263 341.959 143.39 339.422C146.939 338.604 149.612 336.27 150.325 331.448ZM137.916 348.849C136.238 355.593 124.882 351.947 121.2 351.033L124.183 339.077C127.864 339.996 139.67 341.815 137.916 348.849ZM139.596 331.351C138.065 337.486 128.613 334.369 125.547 333.605L128.251 322.761C131.317 323.525 141.191 324.951 139.596 331.351Z" fill="white"/>
</g>
<g filter="url(#filter1_d_1162_8182)">
<ellipse cx="484" cy="189.088" rx="57" ry="56.088" fill="url(#paint6_linear_1162_8182)"/>
</g>
<ellipse cx="484.455" cy="188.632" rx="39.216" ry="38.304" fill="url(#paint7_linear_1162_8182)"/>
<g opacity="0.7">
<path d="M490.58 170.575L484.372 164.236L468.738 179.972L474.947 186.162L490.58 170.575Z" fill="white"/>
<path d="M500.005 179.972L493.796 173.633L468.738 198.766L474.947 204.956L500.005 179.972Z" fill="white"/>
<path d="M465.522 183.03L471.73 189.369L465.522 195.559L459.313 189.369L465.522 183.03Z" fill="white"/>
<path d="M509.43 189.369L503.221 183.03L478.163 208.163L484.372 214.353L509.43 189.369Z" fill="white"/>
</g>
<defs>
<filter id="filter0_d_1162_8182" x="13.2305" y="225.895" width="231.882" height="228.918" filterUnits="userSpaceOnUse" color-interpolation-filters="sRGB">
<feFlood flood-opacity="0" result="BackgroundImageFix"/>
<feColorMatrix in="SourceAlpha" type="matrix" values="0 0 0 0 0 0 0 0 0 0 0 0 0 0 0 0 0 0 127 0" result="hardAlpha"/>
<feOffset dy="4"/>
<feGaussianBlur stdDeviation="15"/>
<feComposite in2="hardAlpha" operator="out"/>
<feColorMatrix type="matrix" values="0 0 0 0 0.125 0 0 0 0 0.3175 0 0 0 0 1 0 0 0 0.41 0"/>
<feBlend mode="normal" in2="BackgroundImageFix" result="effect1_dropShadow_1162_8182"/>
<feBlend mode="normal" in="SourceGraphic" in2="effect1_dropShadow_1162_8182" result="shape"/>
</filter>
<filter id="filter1_d_1162_8182" x="407" y="113" width="154" height="152.176" filterUnits="userSpaceOnUse" color-interpolation-filters="sRGB">
<feFlood flood-opacity="0" result="BackgroundImageFix"/>
<feColorMatrix in="SourceAlpha" type="matrix" values="0 0 0 0 0 0 0 0 0 0 0 0 0 0 0 0 0 0 127 0" result="hardAlpha"/>
<feOffset/>
<feGaussianBlur stdDeviation="10"/>
<feComposite in2="hardAlpha" operator="out"/>
<feColorMatrix type="matrix" values="0 0 0 0 0.802667 0 0 0 0 0.383333 0 0 0 0 1 0 0 0 0.51 0"/>
<feBlend mode="normal" in2="BackgroundImageFix" result="effect1_dropShadow_1162_8182"/>
<feBlend mode="normal" in="SourceGraphic" in2="effect1_dropShadow_1162_8182" result="shape"/>
</filter>
<linearGradient id="paint0_linear_1162_8182" x1="143.85" y1="250.33" x2="564.414" y2="173.871" gradientUnits="userSpaceOnUse">
<stop stop-color="#4681DA" stop-opacity="0.6"/>
<stop offset="0.531642" stop-color="#437FDB" stop-opacity="0.369162"/>
<stop offset="0.944269" stop-color="#4F4F4F" stop-opacity="0"/>
</linearGradient>
<linearGradient id="paint1_linear_1162_8182" x1="103.5" y1="218" x2="413.5" y2="42" gradientUnits="userSpaceOnUse">
<stop stop-color="#4383FF"/>
<stop offset="1" stop-color="#D2E2FF" stop-opacity="0"/>
</linearGradient>
<linearGradient id="paint2_linear_1162_8182" x1="484.377" y1="249.811" x2="138.104" y2="529.993" gradientUnits="userSpaceOnUse">
<stop stop-color="#A091FF" stop-opacity="0.88"/>
<stop offset="0.531642" stop-color="#C598FF" stop-opacity="0.369162"/>
<stop offset="0.944269" stop-color="white" stop-opacity="0"/>
</linearGradient>
<linearGradient id="paint3_linear_1162_8182" x1="550.5" y1="283.5" x2="209.5" y2="470" gradientUnits="userSpaceOnUse">
<stop stop-color="#ED7EFF"/>
<stop offset="1" stop-color="#C668FF" stop-opacity="0"/>
</linearGradient>
<linearGradient id="paint4_linear_1162_8182" x1="136.41" y1="251.895" x2="155.665" y2="418.589" gradientUnits="userSpaceOnUse">
<stop stop-color="#4F7BBC"/>
<stop offset="1" stop-color="#BAD6FF"/>
</linearGradient>
<linearGradient id="paint5_linear_1162_8182" x1="133.914" y1="281.529" x2="146.3" y2="389.76" gradientUnits="userSpaceOnUse">
<stop stop-color="#142744"/>
<stop offset="1" stop-color="#051A39"/>
</linearGradient>
<linearGradient id="paint6_linear_1162_8182" x1="488.801" y1="133" x2="501.604" y2="243.695" gradientUnits="userSpaceOnUse">
<stop stop-color="#935ED7"/>
<stop offset="1" stop-color="#CCBAFF"/>
</linearGradient>
<linearGradient id="paint7_linear_1162_8182" x1="487.759" y1="150.328" x2="496.439" y2="225.94" gradientUnits="userSpaceOnUse">
<stop stop-color="#460071"/>
<stop offset="1" stop-color="#1F0323"/>
</linearGradient>
</defs>
</svg>
