<svg width="222" height="150" viewBox="0 0 222 150" fill="none" xmlns="http://www.w3.org/2000/svg">
<g clip-path="url(#clip0_859_8638)">
<path fill-rule="evenodd" clip-rule="evenodd" d="M140.623 37C139.45 37 138.5 37.9504 138.5 39.1228C138.5 40.2952 139.45 41.2457 140.623 41.2457H194.754V74.9614C194.754 76.2717 195.816 77.334 197.126 77.334C198.437 77.334 199.499 76.2717 199.499 74.9614V39.3729C199.499 38.0625 198.437 37.0003 197.126 37.0003C197.085 37.0003 197.043 37.0014 197.001 37.0035C196.96 37.0012 196.919 37 196.878 37H140.623Z" fill="#BDB4FE"/>
<path fill-rule="evenodd" clip-rule="evenodd" d="M128.5 50C127.395 50 126.5 50.8954 126.5 52C126.5 53.1046 127.395 54 128.5 54H179.5V85.7647C179.5 86.9992 180.501 88 181.735 88C182.97 88 183.971 86.9992 183.971 85.7647L183.971 52.2353C183.971 51.0008 182.97 50 181.735 50C181.695 50 181.654 50.0011 181.614 50.0032C181.577 50.0011 181.538 50 181.5 50H128.5Z" fill="#BDB4FE"/>
<rect x="0.5" y="16" width="161" height="134" rx="6" fill="#F3F2FD"/>
<path d="M16.9737 45.6316V50.7895H19.1842V45.6316H16.9737ZM21.3947 45.6316V50.7895H23.6053V45.6316H21.3947ZM15.5 54.4737H29.5V52.2632H15.5V54.4737ZM25.8158 45.6316V50.7895H28.0263V45.6316H25.8158ZM22.5 39L15.5 42.6842V44.1579H29.5V42.6842L22.5 39Z" fill="#220575"/>
<line x1="21.8861" y1="62" x2="21.8861" y2="131" stroke="#220575" stroke-width="0.772246" stroke-dasharray="1.93 1.93"/>
<rect x="35.5" y="45" width="32" height="5" rx="0.845455" fill="#D9D6FE"/>
<path d="M76.2733 51.1571H76.8819V50.0857C78.2362 49.9914 78.9562 49.1686 78.9562 48.14C78.9562 46.9486 78.1676 46.52 76.8819 46.3229V44.7886C77.3362 44.8743 77.5505 45.1486 77.6276 45.5943H78.8533C78.7505 44.4886 78.0476 43.9057 76.8819 43.8029V43.0314H76.2733V43.7943C75.0476 43.88 74.2591 44.6086 74.2591 45.5943C74.2591 46.7257 74.9105 47.2229 76.2733 47.4371V49.0914C75.5962 48.9886 75.4162 48.5857 75.3562 48.0886H74.0876C74.1562 49.1686 74.7905 49.9829 76.2733 50.0857V51.1571ZM77.6876 48.2857C77.6876 48.7057 77.3791 49.0057 76.8819 49.0914V47.5314C77.5162 47.6686 77.6876 47.8743 77.6876 48.2857ZM75.4933 45.4829C75.4933 45.1229 75.7676 44.84 76.2733 44.7714V46.22C75.6391 46.0914 75.4933 45.8771 75.4933 45.4829ZM79.3989 50H84.0275V48.9457H81.6446L82.8018 47.8143C83.5132 47.1286 83.9846 46.46 83.9846 45.6457C83.9846 44.54 83.2132 43.7857 81.8589 43.7857C80.4875 43.7857 79.6303 44.5571 79.5618 45.9714H80.8218C80.916 45.1657 81.2589 44.8486 81.7989 44.8486C82.3303 44.8486 82.6132 45.1743 82.6132 45.68C82.6132 46.2371 82.236 46.7771 81.6446 47.4029L79.3989 49.7771V50ZM87.0598 50.0943C88.5512 50.0943 89.4341 49.3657 89.4341 48.2171C89.4341 47.4371 88.9541 46.9314 88.2427 46.7771C88.8512 46.5629 89.2541 46.1343 89.2541 45.4486C89.2541 44.4886 88.4655 43.7857 87.1198 43.7857C85.7227 43.7857 84.9255 44.6086 84.857 45.7314H86.0827C86.1512 45.1571 86.5112 44.8057 87.0941 44.8057C87.6598 44.8057 87.9427 45.1314 87.9427 45.5686C87.9427 46.0914 87.6512 46.3829 87.0084 46.3829H86.5627V47.3086H87.0427C87.7027 47.3086 88.0284 47.6086 88.0284 48.1914C88.0284 48.74 87.7027 49.0743 87.0084 49.0743C86.2712 49.0743 85.9541 48.6457 85.9027 48.0543H84.6512C84.7027 49.2971 85.4998 50.0943 87.0598 50.0943ZM90.6018 51.0543L91.7675 49.0571L90.6018 48.62L89.8475 50.7371L90.6018 51.0543ZM95.2172 50H96.5629V48.7829H97.3686V47.7886H96.5629V43.8714H94.8572L92.2086 48.2771V48.7829H95.2172V50ZM93.5972 47.7886L95.2429 44.9171V47.7886H93.5972ZM100.655 49.0057C99.7975 49.0057 99.3432 48.3629 99.3432 47.0771V46.7857C99.3432 45.5171 99.7803 44.8571 100.637 44.8571C101.486 44.8571 101.915 45.5514 101.915 46.7857V47.06C101.915 48.3457 101.52 49.0057 100.655 49.0057ZM100.62 50.0943C102.275 50.0943 103.295 48.9286 103.295 47.0514V46.7686C103.295 44.8657 102.206 43.7857 100.629 43.7857C99.0518 43.7857 97.9546 44.9086 97.9546 46.7943V47.0857C97.9546 48.9629 98.9918 50.0943 100.62 50.0943ZM106.32 50.0943C107.812 50.0943 108.695 49.3657 108.695 48.2171C108.695 47.4371 108.215 46.9314 107.503 46.7771C108.112 46.5629 108.515 46.1343 108.515 45.4486C108.515 44.4886 107.726 43.7857 106.38 43.7857C104.983 43.7857 104.186 44.6086 104.118 45.7314H105.343C105.412 45.1571 105.772 44.8057 106.355 44.8057C106.92 44.8057 107.203 45.1314 107.203 45.5686C107.203 46.0914 106.912 46.3829 106.269 46.3829H105.823V47.3086H106.303C106.963 47.3086 107.289 47.6086 107.289 48.1914C107.289 48.74 106.963 49.0743 106.269 49.0743C105.532 49.0743 105.215 48.6457 105.163 48.0543H103.912C103.963 49.2971 104.76 50.0943 106.32 50.0943ZM110.162 50.0771C110.6 50.0771 110.934 49.7429 110.934 49.3229C110.934 48.9114 110.6 48.5771 110.162 48.5771C109.734 48.5771 109.4 48.9114 109.4 49.3229C109.4 49.7429 109.734 50.0771 110.162 50.0771ZM114.081 49.0057C113.224 49.0057 112.77 48.3629 112.77 47.0771V46.7857C112.77 45.5171 113.207 44.8571 114.064 44.8571C114.912 44.8571 115.341 45.5514 115.341 46.7857V47.06C115.341 48.3457 114.947 49.0057 114.081 49.0057ZM114.047 50.0943C115.701 50.0943 116.721 48.9286 116.721 47.0514V46.7686C116.721 44.8657 115.632 43.7857 114.055 43.7857C112.478 43.7857 111.381 44.9086 111.381 46.7943V47.0857C111.381 48.9629 112.418 50.0943 114.047 50.0943ZM117.209 50H121.837V48.9457H119.454L120.611 47.8143C121.323 47.1286 121.794 46.46 121.794 45.6457C121.794 44.54 121.023 43.7857 119.669 43.7857C118.297 43.7857 117.44 44.5571 117.371 45.9714H118.631C118.726 45.1657 119.069 44.8486 119.609 44.8486C120.14 44.8486 120.423 45.1743 120.423 45.68C120.423 46.2371 120.046 46.7771 119.454 47.4029L117.209 49.7771V50Z" fill="#220575"/>
<line x1="34.4141" y1="73.7615" x2="23.4994" y2="73.7615" stroke="#220575" stroke-width="0.970192" stroke-dasharray="2.43 2.43"/>
<path d="M45.3314 67.002C43.6683 67.0038 42.0739 67.6653 40.8979 68.8413C39.7219 70.0172 39.0605 71.6117 39.0586 73.2747C39.0614 74.9375 39.7232 76.5314 40.8989 77.7072C42.0747 78.883 43.6686 79.5447 45.3314 79.5475C46.995 79.5475 48.5905 78.8867 49.7669 77.7103C50.9433 76.5339 51.6042 74.9384 51.6042 73.2747C51.6042 71.6111 50.9433 70.0156 49.7669 68.8392C48.5905 67.6628 46.995 67.002 45.3314 67.002ZM49.1467 76.8944C48.7945 76.1838 48.2506 75.5858 47.5765 75.1679C46.9025 74.75 46.125 74.5287 45.3319 74.5292C44.5388 74.5296 43.7616 74.7516 43.0879 75.1703C42.4143 75.5889 41.8711 76.1875 41.5195 76.8984C40.5816 75.9256 40.0589 74.6261 40.0622 73.2747C40.0622 71.8773 40.6174 70.5371 41.6055 69.5489C42.5937 68.5607 43.9339 68.0056 45.3314 68.0056C46.7288 68.0056 48.0691 68.5607 49.0572 69.5489C50.0454 70.5371 50.6005 71.8773 50.6005 73.2747C50.6037 74.6242 50.0824 75.922 49.1467 76.8944ZM45.3314 69.5111C44.8848 69.5111 44.4482 69.6435 44.0768 69.8916C43.7054 70.1398 43.416 70.4925 43.2451 70.9051C43.0742 71.3177 43.0294 71.7718 43.1166 72.2098C43.2037 72.6479 43.4188 73.0503 43.7346 73.3661C44.0504 73.6819 44.4528 73.897 44.8908 73.9841C45.3289 74.0712 45.7829 74.0265 46.1956 73.8556C46.6082 73.6847 46.9609 73.3952 47.209 73.0239C47.4571 72.6525 47.5896 72.2159 47.5896 71.7693C47.5896 71.4727 47.5312 71.1791 47.4177 70.9051C47.3042 70.6311 47.1379 70.3822 46.9282 70.1725C46.7185 69.9628 46.4695 69.7965 46.1956 69.683C45.9216 69.5695 45.6279 69.5111 45.3314 69.5111Z" fill="#220575"/>
<rect x="56.5" y="70" width="66" height="6" rx="1.02532" fill="#D9D6FE"/>
<line x1="34.4141" y1="99.6501" x2="23.4994" y2="99.6501" stroke="#220575" stroke-width="0.970192" stroke-dasharray="2.43 2.43"/>
<path d="M45.3314 92.8906C43.6683 92.8925 42.0739 93.554 40.8979 94.7299C39.7219 95.9059 39.0605 97.5003 39.0586 99.1634C39.0614 100.826 39.7232 102.42 40.8989 103.596C42.0747 104.772 43.6686 105.433 45.3314 105.436C46.995 105.436 48.5905 104.775 49.7669 103.599C50.9433 102.423 51.6042 100.827 51.6042 99.1634C51.6042 97.4998 50.9433 95.9043 49.7669 94.7279C48.5905 93.5515 46.995 92.8906 45.3314 92.8906ZM49.1467 102.783C48.7945 102.072 48.2506 101.475 47.5765 101.057C46.9025 100.639 46.125 100.417 45.3319 100.418C44.5388 100.418 43.7616 100.64 43.0879 101.059C42.4143 101.478 41.8711 102.076 41.5195 102.787C40.5816 101.814 40.0589 100.515 40.0622 99.1634C40.0622 97.766 40.6174 96.4257 41.6055 95.4376C42.5937 94.4494 43.9339 93.8943 45.3314 93.8943C46.7288 93.8943 48.0691 94.4494 49.0572 95.4376C50.0454 96.4257 50.6005 97.766 50.6005 99.1634C50.6037 100.513 50.0824 101.811 49.1467 102.783ZM45.3314 95.3997C44.8848 95.3997 44.4482 95.5322 44.0768 95.7803C43.7054 96.0285 43.416 96.3811 43.2451 96.7938C43.0742 97.2064 43.0294 97.6605 43.1166 98.0985C43.2037 98.5365 43.4188 98.9389 43.7346 99.2547C44.0504 99.5706 44.4528 99.7856 44.8908 99.8728C45.3289 99.9599 45.7829 99.9152 46.1956 99.7443C46.6082 99.5733 46.9609 99.2839 47.209 98.9125C47.4571 98.5412 47.5896 98.1046 47.5896 97.6579C47.5896 97.3614 47.5312 97.0677 47.4177 96.7938C47.3042 96.5198 47.1379 96.2708 46.9282 96.0612C46.7185 95.8515 46.4695 95.6851 46.1956 95.5716C45.9216 95.4582 45.6279 95.3997 45.3314 95.3997Z" fill="#220575"/>
<rect x="56.5" y="96" width="66" height="6" rx="1.02532" fill="#D9D6FE"/>
<line x1="34.4141" y1="125.538" x2="23.4994" y2="125.538" stroke="#220575" stroke-width="0.970192" stroke-dasharray="2.43 2.43"/>
<path d="M45.3314 118.779C43.6683 118.781 42.0739 119.443 40.8979 120.619C39.7219 121.795 39.0605 123.389 39.0586 125.052C39.0614 126.715 39.7232 128.309 40.8989 129.485C42.0747 130.66 43.6686 131.322 45.3314 131.325C46.995 131.325 48.5905 130.664 49.7669 129.488C50.9433 128.311 51.6042 126.716 51.6042 125.052C51.6042 123.388 50.9433 121.793 49.7669 120.617C48.5905 119.44 46.995 118.779 45.3314 118.779ZM49.1467 128.672C48.7945 127.961 48.2506 127.363 47.5765 126.945C46.9025 126.527 46.125 126.306 45.3319 126.306C44.5388 126.307 43.7616 126.529 43.0879 126.948C42.4143 127.366 41.8711 127.965 41.5195 128.676C40.5816 127.703 40.0589 126.403 40.0622 125.052C40.0622 123.655 40.6174 122.314 41.6055 121.326C42.5937 120.338 43.9339 119.783 45.3314 119.783C46.7288 119.783 48.0691 120.338 49.0572 121.326C50.0454 122.314 50.6005 123.655 50.6005 125.052C50.6037 126.402 50.0824 127.699 49.1467 128.672ZM45.3314 121.288C44.8848 121.288 44.4482 121.421 44.0768 121.669C43.7054 121.917 43.416 122.27 43.2451 122.682C43.0742 123.095 43.0294 123.549 43.1166 123.987C43.2037 124.425 43.4188 124.828 43.7346 125.143C44.0504 125.459 44.4528 125.674 44.8908 125.761C45.3289 125.849 45.7829 125.804 46.1956 125.633C46.6082 125.462 46.9609 125.173 47.209 124.801C47.4571 124.43 47.5896 123.993 47.5896 123.547C47.5896 123.25 47.5312 122.956 47.4177 122.682C47.3042 122.408 47.1379 122.16 46.9282 121.95C46.7185 121.74 46.4695 121.574 46.1956 121.46C45.9216 121.347 45.6279 121.288 45.3314 121.288Z" fill="#220575"/>
<rect x="56.5" y="122" width="66" height="6" rx="1.02532" fill="#D9D6FE"/>
<rect x="135.5" y="75" width="82.1528" height="65" rx="8" fill="#D9D6FE"/>
<line x1="147.486" y1="75.9023" x2="147.486" y2="140" stroke="#EBE9FE" stroke-width="0.5"/>
<line x1="161.931" y1="75.9023" x2="161.931" y2="140" stroke="#EBE9FE" stroke-width="0.5"/>
<line x1="176.375" y1="75.9023" x2="176.375" y2="140" stroke="#EBE9FE" stroke-width="0.5"/>
<line x1="190.819" y1="75.9023" x2="190.819" y2="140" stroke="#EBE9FE" stroke-width="0.5"/>
<line x1="205.264" y1="75.9023" x2="205.264" y2="140" stroke="#EBE9FE" stroke-width="0.5"/>
<line x1="135.5" y1="136.139" x2="217.653" y2="136.139" stroke="#EBE9FE" stroke-width="0.5"/>
<line x1="135.5" y1="121.694" x2="217.653" y2="121.694" stroke="#EBE9FE" stroke-width="0.5"/>
<line x1="135.5" y1="107.25" x2="217.653" y2="107.25" stroke="#EBE9FE" stroke-width="0.5"/>
<line x1="135.5" y1="92.8057" x2="217.653" y2="92.8057" stroke="#EBE9FE" stroke-width="0.5"/>
<line x1="135.5" y1="78.3613" x2="217.653" y2="78.3613" stroke="#EBE9FE" stroke-width="0.5"/>
<rect x="154.5" y="85" width="43" height="43" rx="21.5" fill="white"/>
<path d="M176.501 120C176.076 120.006 175.656 119.901 175.284 119.695L174.919 119.488C172.075 117.879 169.709 115.544 168.062 112.722C166.416 109.899 165.548 106.69 165.547 103.422V103.252C165.543 102.821 165.654 102.396 165.868 102.022C166.081 101.648 166.391 101.337 166.764 101.122L175.284 96.3261C175.654 96.1125 176.074 96 176.501 96C176.929 96 177.348 96.1125 177.718 96.3261L186.239 101.122C186.612 101.337 186.921 101.648 187.135 102.022C187.349 102.396 187.46 102.821 187.456 103.252V103.422C187.453 106.692 186.581 109.903 184.93 112.726C183.279 115.549 180.908 117.883 178.059 119.488L177.694 119.695C177.329 119.897 176.918 120.002 176.501 120Z" fill="#3E1C96"/>
<rect x="11.5" y="6" width="124" height="17" rx="1" fill="#D9D6FE"/>
<path d="M20.9815 18H22.5015L22.9915 16.41H25.5815L26.0715 18H27.7615L25.4415 10.85H23.3315L20.9815 18ZM24.2915 12.17L25.2315 15.26H23.3415L24.2915 12.17ZM30.2388 18H31.6788V12.91L34.6588 18H36.2788V10.85H34.8388V15.56L32.1188 10.85H30.2388V18ZM38.7569 18H40.2769L40.7669 16.41H43.3569L43.8469 18H45.5369L43.2169 10.85H41.1069L38.7569 18ZM42.0669 12.17L43.0069 15.26H41.1169L42.0669 12.17ZM48.0141 18H52.5441V16.73H49.6341V10.85H48.0141V18ZM55.9802 18H57.6102V14.92L59.8402 10.85H58.2702L56.8502 13.59L55.4002 10.85H53.6202L55.9802 14.92V18ZM64.4419 18.11C66.1319 18.11 67.1719 17.1 67.1719 15.83C67.1719 14.35 66.2819 13.88 64.5519 13.66C63.4519 13.5 63.2219 13.26 63.2219 12.75C63.2219 12.27 63.5819 11.94 64.2919 11.94C65.0019 11.94 65.3819 12.24 65.4819 12.89H66.9719C66.8419 11.47 65.9019 10.75 64.2919 10.75C62.7119 10.75 61.6919 11.66 61.6919 12.88C61.6919 14.26 62.4419 14.81 64.2719 15.05C65.3219 15.21 65.6219 15.41 65.6219 15.98C65.6219 16.54 65.1519 16.93 64.4419 16.93C63.3819 16.93 63.1119 16.4 63.0419 15.76H61.4919C61.5819 17.19 62.4819 18.11 64.4419 18.11ZM69.8784 18H71.5084V10.85H69.8784V18ZM74.5903 18H76.0303V12.91L79.0103 18H80.6303V10.85H79.1903V15.56L76.4703 10.85H74.5903V18ZM86.9384 18.11C89.0784 18.11 90.2984 16.84 90.2984 14.93V14.17H87.0884V15.35H88.6984C88.6684 16.17 88.1784 16.86 86.9784 16.86C85.5784 16.86 84.9884 15.87 84.9884 14.49V14.41C84.9884 12.95 85.7184 12.02 86.9584 12.02C87.8184 12.02 88.3684 12.4 88.5084 13.24H90.1184C89.9484 11.47 88.5284 10.74 86.9384 10.74C84.8284 10.74 83.2984 12.24 83.2984 14.39V14.47C83.2984 16.59 84.5984 18.11 86.9384 18.11ZM98.308 16.74V12.11H98.948C100.458 12.11 101.088 12.9 101.088 14.37V14.45C101.088 15.93 100.408 16.74 98.968 16.74H98.308ZM96.688 18H99.018C101.528 18 102.778 16.57 102.778 14.43V14.35C102.778 12.21 101.538 10.85 99.028 10.85H96.688V18ZM104.483 18H106.003L106.493 16.41H109.083L109.573 18H111.263L108.943 10.85H106.833L104.483 18ZM107.793 12.17L108.733 15.26H106.843L107.793 12.17ZM114.438 18H116.068V12.11H117.998V10.85H112.508V12.11H114.438V18ZM119.241 18H120.761L121.251 16.41H123.841L124.331 18H126.021L123.701 10.85H121.591L119.241 18ZM122.551 12.17L123.491 15.26H121.601L122.551 12.17Z" fill="#220575"/>
</g>
<defs>
<clipPath id="clip0_859_8638">
<rect width="221" height="150" fill="white" transform="translate(0.5)"/>
</clipPath>
</defs>
</svg>
