<svg width="106" height="32" viewBox="0 0 106 32" fill="none" xmlns="http://www.w3.org/2000/svg">
<g clip-path="url(#clip0_1226_7573)">
<path d="M35.4626 1.64355H44.3299V4.15757H41.2329V13.3159H38.5312V4.15757H35.4531L35.4626 1.64355Z" fill="white"/>
<path d="M51.6344 13.3159L50.1285 10.0886H48.123V13.3159H45.4214V1.64355H50.0693C51.4379 1.64355 52.4979 1.99977 53.2493 2.71221C54.0007 3.42465 54.3771 4.43186 54.3787 5.73383C54.3966 6.52501 54.2335 7.30804 53.9051 8.00741C53.5895 8.64688 53.1122 9.16582 52.5342 9.49816L54.6888 13.3159H51.6344ZM48.123 7.65477H50.0954C50.5588 7.68887 51.0163 7.52157 51.374 7.1872C51.5285 7.0132 51.6486 6.80413 51.7261 6.57384C51.8037 6.34355 51.837 6.09729 51.8239 5.85138C51.8368 5.6095 51.8033 5.36731 51.7257 5.14137C51.648 4.91544 51.528 4.71109 51.374 4.54228C51.0135 4.21484 50.5572 4.05182 50.0954 4.08543H48.1349L48.123 7.65477Z" fill="white"/>
<path d="M59.2023 10.2676C59.3916 10.4867 59.6192 10.659 59.8708 10.7736C60.1222 10.8881 60.3921 10.9423 60.6632 10.9328C60.9261 10.9441 61.1881 10.8913 61.4313 10.7778C61.6743 10.6644 61.893 10.4931 62.072 10.2756C62.4478 9.78694 62.6413 9.15309 62.6118 8.50698V1.64355H65.3111V8.50698C65.3289 9.43283 65.133 10.3479 64.7429 11.1626C64.3679 11.916 63.8024 12.5262 63.1186 12.9152C62.3507 13.3423 61.5025 13.5532 60.6467 13.5297C59.7863 13.5518 58.9338 13.3412 58.1604 12.9152C57.4668 12.5271 56.8902 11.9164 56.503 11.16C56.1063 10.3488 55.9077 9.43323 55.9276 8.50698V1.64355H58.6198V8.50698C58.6071 8.82953 58.6522 9.15168 58.7523 9.45414C58.8524 9.75665 59.0054 10.0333 59.2023 10.2676Z" fill="white"/>
<path d="M72.5186 4.25887C72.0147 4.05046 71.4847 3.93237 70.9487 3.90889C70.6726 3.89218 70.3986 3.96446 70.1574 4.11727C70.0662 4.18001 69.9912 4.26944 69.9409 4.37615C69.89 4.48287 69.8666 4.60294 69.8713 4.72374C69.8686 4.84485 69.89 4.96507 69.9336 5.07589C69.9765 5.18669 70.0415 5.28538 70.1219 5.36493C70.3028 5.54716 70.5125 5.68864 70.7403 5.78171C70.9862 5.88679 71.35 6.02216 71.8318 6.1878C72.4375 6.37722 73.0311 6.61104 73.61 6.88777C74.0844 7.124 74.4978 7.49156 74.8127 7.95643C75.1645 8.50304 75.3414 9.16791 75.3146 9.84257C75.3327 10.556 75.1404 11.256 74.7678 11.833C74.3846 12.3997 73.8653 12.83 73.2717 13.0726C72.5949 13.3589 71.8767 13.5002 71.1544 13.4894C70.282 13.4867 69.4163 13.315 68.5949 12.9818C67.7908 12.673 67.0433 12.2023 66.3882 11.5925L67.437 9.21207C67.9858 9.75345 68.6123 10.1862 69.289 10.4918C69.8853 10.7958 70.5286 10.9654 71.1832 10.9914C71.5128 11.0106 71.8412 10.9245 72.1299 10.743C72.2418 10.6684 72.3336 10.5608 72.3946 10.4318C72.4562 10.3027 72.4851 10.1571 72.4784 10.0109C72.4804 9.88518 72.4583 9.76049 72.4134 9.64524C72.3691 9.53 72.3028 9.42695 72.2197 9.34299C72.0301 9.15512 71.8083 9.01166 71.5691 8.92087C71.3085 8.814 70.944 8.68844 70.4703 8.54418C69.8726 8.36515 69.2863 8.14022 68.7155 7.87094C68.2525 7.64145 67.8458 7.28739 67.5315 6.83968C67.1824 6.30942 67.0077 5.65869 67.037 4.99892C67.0248 4.32183 67.2032 3.6578 67.5463 3.10205C67.9114 2.5348 68.4133 2.098 68.9929 1.84371C69.6857 1.53843 70.4254 1.39132 71.1684 1.41091C71.9182 1.41163 72.6633 1.53216 73.3829 1.76891C74.059 1.98251 74.7049 2.30461 75.3005 2.72535L74.2821 5.15654C73.7246 4.78715 73.133 4.48621 72.5186 4.25887Z" fill="white"/>
<path d="M75.7855 1.64355H84.6647V4.15757H81.5558V13.3159H78.8569V4.15757H75.7788L75.7855 1.64355Z" fill="white"/>
<path d="M85.7471 1.64355H93.8993V4.07475H88.4533V6.2548H93.3807V8.65928L88.4533 8.68601V10.8848H94.0608V13.3159H85.7471V1.64355Z" fill="white"/>
<path d="M103.03 2.37488C103.837 2.83825 104.511 3.55189 104.972 4.43204C105.443 5.35462 105.683 6.40481 105.665 7.46967C105.679 8.53984 105.433 9.59386 104.955 10.518C104.486 11.4064 103.799 12.1228 102.978 12.5805C102.069 13.0838 101.068 13.3356 100.056 13.3152H95.7065V1.64285H100.16C101.155 1.62156 102.14 1.87274 103.03 2.37488ZM101.621 10.4325C102.032 10.1509 102.361 9.7406 102.568 9.25168C102.798 8.70661 102.911 8.10794 102.897 7.50444C102.909 6.89119 102.785 6.28429 102.538 5.73847C102.31 5.24494 101.965 4.8331 101.54 4.54959C101.102 4.26169 100.603 4.11477 100.096 4.1248H98.3987V10.8493H100.229C100.718 10.8608 101.201 10.7164 101.621 10.4325Z" fill="white"/>
<path d="M35.5052 18.6592H43.5367V20.1152H40.2219V30.2675H38.8012V20.1072H35.4863L35.5052 18.6592Z" fill="white"/>
<path d="M46.9134 21.9369C47.4201 21.5992 47.9991 21.4246 48.5875 21.4319V22.9333C48.248 22.8936 47.9048 22.9328 47.5793 23.0485C47.2537 23.1642 46.9526 23.354 46.6946 23.606C46.4365 23.8582 46.227 24.1673 46.079 24.5143C45.9309 24.8613 45.8475 25.2389 45.8337 25.6237V30.2456H44.4604V21.4826H45.8337V23.3715C46.0559 22.7805 46.4325 22.28 46.9134 21.9369Z" fill="white"/>
<path d="M54.5755 30.2458V29.0195C53.9978 29.8798 53.0925 30.3099 51.8597 30.3099C51.3683 30.3238 50.8812 30.2047 50.439 29.9627C50.0485 29.7517 49.7198 29.4189 49.4919 29.0035C49.2706 28.5885 49.1566 28.1119 49.1627 27.6276C49.15 27.2693 49.2131 26.9127 49.347 26.5875C49.4808 26.2622 49.6815 25.9777 49.9323 25.7575C50.4548 25.2997 51.1754 25.0708 52.0941 25.0708H54.5613V24.646C54.5759 24.38 54.5381 24.1135 54.4504 23.8659C54.3628 23.6183 54.2276 23.3956 54.0546 23.214C53.716 22.8774 53.2259 22.7091 52.5795 22.7091C51.7147 22.739 50.879 23.0682 50.1857 23.6522L49.615 22.5835C50.0972 22.2178 50.6172 21.9199 51.1635 21.6966C51.7121 21.5043 52.2847 21.414 52.8589 21.4294C53.8281 21.4294 54.5763 21.6966 55.1036 22.2309C55.6339 22.7653 55.9015 23.5133 55.9109 24.4751L55.9275 30.2404L54.5755 30.2458ZM53.761 28.5146C53.9717 28.3586 54.1516 28.1552 54.2893 27.9171C54.4271 27.6789 54.5197 27.4112 54.5613 27.1307V26.2517H52.2859C51.8114 26.217 51.3373 26.3258 50.9126 26.5669C50.7655 26.6717 50.6461 26.8193 50.5673 26.9943C50.4885 27.1692 50.4532 27.365 50.4651 27.5608C50.4594 27.767 50.4978 27.9717 50.5769 28.1577C50.656 28.3437 50.7736 28.5055 50.9197 28.6295C51.2752 28.9124 51.7046 29.0526 52.1391 29.0276C52.7137 29.0499 53.2804 28.8707 53.761 28.5146Z" fill="white"/>
<path d="M64.9246 22.3346C65.4424 22.9367 65.7021 23.7676 65.7036 24.8273V30.2454H64.3374V25.2414C64.3669 24.9259 64.3337 24.6069 64.2404 24.3077C64.147 24.0084 63.9958 23.7363 63.7976 23.5113C63.5994 23.2862 63.3594 23.1136 63.0948 23.0063C62.8302 22.8989 62.5478 22.8593 62.268 22.8904C61.955 22.8816 61.6438 22.9438 61.3526 23.0731C61.0614 23.2026 60.7962 23.3966 60.5726 23.6437C60.1264 24.1576 59.8627 24.8381 59.8315 25.5567V30.2454H58.4653V21.4824H59.8315V23.3365C60.3493 22.0897 61.3327 21.4548 62.7817 21.4316C63.691 21.4316 64.4053 21.7326 64.9246 22.3346Z" fill="white"/>
<path d="M71.4219 22.8905C71.0628 22.762 70.6889 22.6945 70.3117 22.6901C69.9666 22.6757 69.6243 22.7681 69.3221 22.9573C69.2001 23.0389 69.101 23.1569 69.0346 23.2984C68.9683 23.4399 68.9388 23.5992 68.9482 23.7588C68.9442 23.9233 68.9817 24.0855 69.0561 24.2273C69.1298 24.369 69.2376 24.4843 69.367 24.5603C69.7703 24.7981 70.1958 24.9837 70.636 25.1133C71.0869 25.2574 71.5285 25.4359 71.9573 25.6477C72.2963 25.8194 72.5938 26.0795 72.8263 26.4064C73.1278 26.9141 73.2464 27.5322 73.1587 28.1351C73.0709 28.738 72.7828 29.2806 72.3526 29.6524C71.7409 30.1036 71.0206 30.3294 70.2903 30.2989C69.7187 30.3003 69.1505 30.1938 68.6092 29.9837C68.1019 29.7974 67.6349 29.4934 67.2383 29.0914L67.7522 27.9639C68.0979 28.314 68.4999 28.5861 68.9361 28.7654C69.379 28.9566 69.8494 29.057 70.3238 29.062C70.7017 29.0815 71.0776 28.9845 71.4106 28.7814C71.5419 28.6937 71.6498 28.5668 71.7221 28.4147C71.7945 28.2625 71.828 28.0909 71.8199 27.9185C71.8313 27.7396 71.7978 27.5607 71.7248 27.4015C71.6518 27.2422 71.5412 27.1087 71.4059 27.0155C70.9911 26.7534 70.5496 26.5488 70.0913 26.4064C69.6578 26.2745 69.2336 26.1058 68.8222 25.9015C68.4946 25.7296 68.2078 25.4712 67.9867 25.148C67.7448 24.7748 67.6229 24.3196 67.641 23.8577C67.6215 23.4997 67.6845 23.1424 67.8239 22.82C67.9626 22.4976 68.173 22.221 68.4343 22.0169C69.0239 21.5888 69.7154 21.3753 70.4162 21.4051C70.8853 21.4051 71.3529 21.4807 71.8032 21.6295C72.224 21.7592 72.6233 21.963 72.9871 22.2332L72.488 23.4088C72.153 23.1864 71.7952 23.0123 71.4219 22.8905Z" fill="white"/>
<path d="M77.0883 19.5934C76.9664 19.7284 76.8712 19.8917 76.8103 20.0721C76.7493 20.2524 76.7238 20.4455 76.7352 20.638V21.7788H78.8666V22.957H76.7352V30.2452H75.369V22.957H74.356V21.7788H75.369V20.8357C75.3503 20.2618 75.4722 19.693 75.7221 19.1927C75.9473 18.7622 76.2756 18.4121 76.6696 18.1828C77.0609 17.961 77.4937 17.8492 77.9312 17.8568C78.4029 17.8691 78.8659 18.0054 79.2834 18.2549L78.9591 19.5133C78.6482 19.3425 78.3078 19.2513 77.9621 19.2461C77.6425 19.2313 77.3295 19.3557 77.0883 19.5934Z" fill="white"/>
<path d="M85.9179 22.6347C86.5329 23.4344 86.8418 24.5467 86.8432 25.9716C86.8432 26.1933 86.8432 26.359 86.8271 26.4685H80.6916C80.7713 27.1913 81.0816 27.8564 81.5653 28.3386C82.0538 28.8075 82.6789 29.055 83.3201 29.0333C83.7597 29.0418 84.1959 28.951 84.6033 28.7661C84.9925 28.5806 85.345 28.308 85.6384 27.9646L86.3862 28.8436C86.0003 29.3072 85.5306 29.6716 85.0086 29.9123C84.4391 30.172 83.83 30.301 83.2156 30.2916C82.5074 30.307 81.8079 30.1156 81.1841 29.7359C80.5992 29.3773 80.1201 28.8342 79.8038 28.173C79.4688 27.4662 79.2993 26.6744 79.3114 25.8727C79.2973 25.0726 79.4675 24.2821 79.8038 23.5778C80.1228 22.9198 80.5971 22.3749 81.1747 22.0042C81.7885 21.6148 82.4833 21.4174 83.1875 21.4324C84.3902 21.4324 85.3001 21.8332 85.9179 22.6347ZM85.6123 25.2769C85.6163 24.9257 85.5554 24.5773 85.4341 24.2538C85.3128 23.9302 85.1332 23.6386 84.9068 23.3974C84.681 23.1562 84.413 22.9704 84.1195 22.852C83.8267 22.7336 83.5145 22.6851 83.2042 22.7095C82.5764 22.6853 81.9647 22.934 81.4943 23.4041C81.0286 23.8933 80.7385 24.5591 80.6802 25.2743L85.6123 25.2769Z" fill="white"/>
<path d="M91.2621 21.9369C91.7686 21.5992 92.3475 21.4246 92.9358 21.4319V22.9333C92.5947 22.8924 92.2504 22.931 91.9234 23.0468C91.5964 23.1627 91.2935 23.3532 91.0349 23.6066C90.7756 23.8599 90.5659 24.1707 90.4178 24.5196C90.2697 24.8684 90.1873 25.2479 90.1753 25.6344V30.2563H88.8091V21.4826H90.1753V23.3715C90.3991 22.7794 90.7783 22.2787 91.2621 21.9369Z" fill="white"/>
<path d="M97.6881 22.8905C97.3296 22.762 96.9557 22.6945 96.5799 22.6901C96.2341 22.6757 95.8924 22.7681 95.5902 22.9573C95.4676 23.0384 95.3678 23.1564 95.3021 23.298C95.2358 23.4396 95.2056 23.5992 95.2157 23.7588C95.2123 23.9229 95.2492 24.0849 95.3229 24.2265C95.3966 24.3681 95.5038 24.4837 95.6324 24.5603C96.0365 24.7976 96.4633 24.9831 96.9042 25.1133C97.3544 25.2574 97.796 25.4359 98.2255 25.6477C98.5685 25.818 98.8714 26.0781 99.1086 26.4064C99.4101 26.9141 99.5287 27.5322 99.4409 28.1351C99.3524 28.738 99.0643 29.2806 98.6348 29.6524C98.0231 30.1036 97.3028 30.3294 96.5725 30.2989C96.0003 30.3003 95.4321 30.1938 94.8914 29.9837C94.3842 29.7974 93.9172 29.4934 93.5205 29.0914L94.0344 27.9639C94.3835 28.3154 94.7895 28.5876 95.2298 28.7654C95.6733 28.9566 96.143 29.057 96.6174 29.062C96.9959 29.0815 97.3712 28.9845 97.7042 28.7814C97.8362 28.6937 97.9441 28.5668 98.0164 28.4147C98.0881 28.2625 98.1223 28.0909 98.1142 27.9185C98.1236 27.7383 98.0894 27.5585 98.0137 27.3991C97.9387 27.2397 97.8261 27.107 97.6881 27.0155C97.2713 26.753 96.8291 26.5484 96.3688 26.4064C95.9353 26.275 95.5105 26.1062 95.0998 25.9015C94.7715 25.7303 94.4847 25.4717 94.2642 25.148C94.021 24.7753 93.8991 24.3198 93.9185 23.8577C93.8991 23.4997 93.9621 23.1424 94.1014 22.82C94.2401 22.4976 94.4505 22.221 94.7118 22.0169C95.3008 21.5888 95.9929 21.3753 96.6931 21.4051C97.1628 21.4052 97.6298 21.4808 98.0807 21.6295C98.5015 21.7592 98.9008 21.963 99.2647 22.2332L98.7648 23.4088C98.4271 23.1851 98.0647 23.011 97.6881 22.8905Z" fill="white"/>
<path d="M103.635 30.217C104.682 30.217 105.53 29.2601 105.53 28.0796C105.53 26.8993 104.682 25.9424 103.635 25.9424C102.589 25.9424 101.741 26.8993 101.741 28.0796C101.741 29.2601 102.589 30.217 103.635 30.217Z" fill="white"/>
<path d="M16.2158 12.5303V31.018C16.1163 31.018 16.0169 31.018 15.9174 31.018C12.8772 30.839 10.5378 27.8575 10.5378 24.3763V19.033H5.95378C4.42554 19.0233 2.96196 18.336 1.87888 17.1194C0.795798 15.9029 0.180064 14.2545 0.164551 12.5303H16.2158Z" fill="white"/>
<path d="M26.581 1.02637V31.0182C24.5271 31.0174 22.5457 30.1613 21.0167 28.6137C20.1401 27.7095 19.4424 26.6067 18.9691 25.3776C18.4959 24.1485 18.2577 22.8205 18.2701 21.4804V10.3023H8.50775C6.31433 10.2986 4.2095 9.32547 2.64442 7.5915C1.07935 5.85755 0.178599 3.50077 0.135254 1.02637H26.581Z" fill="white"/>
</g>
<defs>
<clipPath id="clip0_1226_7573">
<rect width="105.865" height="30.8214" fill="white" transform="translate(0.135254 0.611328)"/>
</clipPath>
</defs>
</svg>
