<svg width="64" height="64" viewBox="0 0 64 64" fill="none" xmlns="http://www.w3.org/2000/svg">
<g clip-path="url(#clip0_979_9182)">
<path d="M32.0015 64C49.6746 64 64.0015 49.6731 64.0015 32C64.0015 14.3269 49.6746 0 32.0015 0C14.3284 0 0.00146484 14.3269 0.00146484 32C0.00146484 49.6731 14.3284 64 32.0015 64Z" fill="#F0F0F0"/>
<path d="M6.61565 12.5186C4.10203 15.7889 2.20665 19.5583 1.10303 23.6532H17.7503L6.61565 12.5186Z" fill="#0052B4"/>
<path d="M62.8985 23.6531C61.7948 19.5583 59.8993 15.7889 57.3858 12.5186L46.2515 23.6531H62.8985Z" fill="#0052B4"/>
<path d="M1.10303 40.3467C2.20678 44.4414 4.10215 48.2108 6.61565 51.4811L17.7499 40.3467H1.10303Z" fill="#0052B4"/>
<path d="M51.4822 6.61431C48.2118 4.10069 44.4425 2.20531 40.3477 1.10156V17.7487L51.4822 6.61431Z" fill="#0052B4"/>
<path d="M12.5181 57.3843C15.7884 59.8979 19.5578 61.7932 23.6526 62.897V46.25L12.5181 57.3843Z" fill="#0052B4"/>
<path d="M23.6524 1.10156C19.5577 2.20531 15.7883 4.10069 12.5181 6.61419L23.6524 17.7486V1.10156Z" fill="#0052B4"/>
<path d="M40.3477 62.897C44.4424 61.7932 48.2118 59.8979 51.482 57.3844L40.3477 46.25V62.897Z" fill="#0052B4"/>
<path d="M46.2515 40.3467L57.3858 51.4812C59.8993 48.2109 61.7948 44.4414 62.8985 40.3467H46.2515Z" fill="#0052B4"/>
<path d="M63.7306 27.8261H36.1756H36.1755V0.270875C34.8091 0.093 33.4161 0 32.0015 0C30.5866 0 29.1938 0.093 27.8276 0.270875V27.8259V27.826H0.27234C0.0944649 29.1924 0.00146484 30.5854 0.00146484 32C0.00146484 33.4149 0.0944649 34.8076 0.27234 36.1739H27.8273H27.8275V63.7291C29.1938 63.907 30.5866 64 32.0015 64C33.4161 64 34.8091 63.9071 36.1753 63.7291V36.1741V36.174H63.7306C63.9085 34.8076 64.0015 33.4149 64.0015 32C64.0015 30.5854 63.9085 29.1924 63.7306 27.8261Z" fill="#D80027"/>
<path d="M40.3491 40.3488L54.6286 54.6283C55.2854 53.9718 55.9119 53.2854 56.5096 52.5739L44.2844 40.3486H40.3491V40.3488Z" fill="#D80027"/>
<path d="M23.6532 40.3486H23.6529L9.37354 54.628C10.03 55.2848 10.7164 55.9113 11.4279 56.509L23.6532 44.2835V40.3486Z" fill="#D80027"/>
<path d="M23.6527 23.6519V23.6517L9.37319 9.37207C8.71644 10.0286 8.08994 10.7149 7.49219 11.4264L19.7176 23.6518H23.6527V23.6519Z" fill="#D80027"/>
<path d="M40.3491 23.6528L54.6287 9.37306C53.9722 8.71631 53.2859 8.08981 52.5744 7.49219L40.3491 19.7176V23.6528Z" fill="#D80027"/>
</g>
<defs>
<clipPath id="clip0_979_9182">
<rect width="64" height="64" fill="white"/>
</clipPath>
</defs>
</svg>
