<svg width="64" height="64" viewBox="0 0 64 64" fill="none" xmlns="http://www.w3.org/2000/svg">
<path d="M63.9494 32.0624C63.9773 14.4232 49.6957 0.0963401 32.0505 0.0623809C14.4054 0.0284218 0.0784714 14.3003 0.0505522 31.9394C0.022633 49.5786 14.3043 63.9055 31.9494 63.9394C49.5946 63.9734 63.9215 49.7015 63.9494 32.0624Z" fill="#3574B9"/>
<path d="M26.8245 51.9488C26.8245 52.6696 26.3549 52.9218 25.6506 52.9218C21.3854 51.5098 17.6625 48.7153 15.0228 44.9441C12.3831 41.1728 10.964 36.6214 10.9717 31.9509C10.9794 27.2804 12.4135 22.7341 15.0656 18.9724C17.7178 15.2107 21.4498 12.4295 25.7197 11.0328C26.4102 10.795 26.8935 11.2779 26.8866 12.013V13.75C26.8918 14.0001 26.8299 14.2466 26.7079 14.4619C26.5859 14.6771 26.4086 14.8525 26.1961 14.968C22.8375 16.2299 19.9328 18.541 17.8771 21.5869C15.8214 24.6329 14.7145 28.2659 14.707 31.9917C14.6994 35.7175 15.7916 39.3553 17.835 42.4104C19.8783 45.4654 22.7736 47.7892 26.1271 49.0659C26.3401 49.1808 26.5178 49.356 26.6399 49.5714C26.762 49.7868 26.8236 50.0337 26.8176 50.2839L26.8245 51.9488Z" fill="white"/>
<path d="M33.8399 45.8947C33.8319 46.1535 33.7321 46.4001 33.5599 46.5865C33.3877 46.7729 33.1553 46.886 32.9077 46.9037H31.0365C30.7934 46.8866 30.5647 46.7776 30.3931 46.5972C30.2215 46.4168 30.1189 46.1773 30.1043 45.9235V43.0406C26.3618 42.5433 24.4974 40.3522 23.8 37.181C23.8 36.6981 24.0417 36.208 24.4905 36.208H26.5966C27.0592 36.208 27.2871 36.4531 27.5287 36.9287C27.9914 38.6369 28.9097 40.1 31.9617 40.1072C34.2956 40.1072 35.9321 38.8963 35.939 36.9504C35.9459 35.0044 35.0068 34.2692 31.7408 33.7719C26.8313 33.0512 24.4974 31.5665 24.5043 27.4295C24.5043 24.2655 26.852 21.8294 30.125 21.3537V18.3699C30.1397 18.1169 30.2427 17.8782 30.4144 17.699C30.5861 17.5197 30.8148 17.4123 31.0572 17.3969H32.9284C33.1708 17.4123 33.3995 17.5197 33.5712 17.699C33.7429 17.8782 33.8459 18.1169 33.8606 18.3699V21.2961C36.664 21.7862 38.5284 23.4943 38.991 26.1754C38.991 26.6583 38.7563 27.1484 38.3005 27.1484H36.4431C35.9735 27.1484 35.7526 26.9034 35.5109 26.4277C35.0483 24.7195 33.8813 23.9844 31.7753 23.9844C29.4414 23.9844 28.2676 25.1952 28.2676 26.8673C28.2676 28.5394 28.9581 29.5484 32.4658 30.0458C37.3683 30.7665 39.7022 32.2512 39.6953 36.3882C39.6953 39.5522 37.3545 42.2261 33.8468 42.9541L33.8399 45.8947Z" fill="white"/>
<path d="M37.099 51.992C37.099 52.72 37.5754 53.2101 38.2659 52.965C42.5353 51.5663 46.2673 48.7854 48.9215 45.025C51.5757 41.2646 53.0142 36.7201 53.0288 32.0494C53.0426 22.3123 46.7522 14.0167 38.3488 11.0761C37.6445 11.0761 37.1749 11.3283 37.1749 12.0491V13.7572C37.1697 14.0072 37.2316 14.2538 37.3536 14.4691C37.4756 14.6843 37.6529 14.8597 37.8654 14.9752C41.2186 16.2526 44.1135 18.5771 46.1562 21.6326C48.1989 24.6881 49.2903 28.3261 49.2821 32.052C49.2737 35.7778 48.1661 39.4105 46.1098 42.456C44.0535 45.5015 41.1483 47.812 37.7895 49.0731C37.577 49.1868 37.3995 49.3607 37.2774 49.5748C37.1553 49.789 37.0934 50.0348 37.099 50.2839V51.992Z" fill="white"/>
</svg>
