<svg width="65" height="65" viewBox="0 0 65 65" fill="none" xmlns="http://www.w3.org/2000/svg">
<path d="M32.0908 64.7314C49.7644 64.7314 64.0908 50.405 64.0908 32.7314C64.0908 15.0578 49.7644 0.731445 32.0908 0.731445C14.4172 0.731445 0.0908203 15.0578 0.0908203 32.7314C0.0908203 50.405 14.4172 64.7314 32.0908 64.7314Z" fill="#009393"/>
<path fill-rule="evenodd" clip-rule="evenodd" d="M47.6548 18.1045V23.9388H35.972V27.9839C44.1773 28.4162 50.3333 30.1916 50.379 32.3196L50.3788 36.756C50.333 38.884 44.1773 40.6594 35.972 41.0917V51.0188H28.2145V41.0917C20.0092 40.6594 13.8532 38.884 13.8076 36.756L13.8078 32.3196C13.8535 30.1916 20.0092 28.4162 28.2145 27.9839V23.9388H16.5317V18.1045H47.6548ZM32.0933 38.0439C40.8497 38.0439 48.1686 36.5427 49.9597 34.5379C48.4408 32.8378 42.9468 31.4997 35.972 31.1322V35.3675C34.722 35.4334 33.4242 35.468 32.0933 35.468C30.7623 35.468 29.4647 35.4334 28.2145 35.3675V31.1322C21.2397 31.4997 15.7457 32.8378 14.2268 34.5379C16.0179 36.5427 23.3368 38.0439 32.0933 38.0439Z" fill="white"/>
</svg>
