<svg width="223" height="116" viewBox="0 0 223 105" fill="none" xmlns="http://www.w3.org/2000/svg">
<rect x="7.93848" width="207.123" height="24.7845" rx="6.39224" fill="#FFF0E4"/>
<path d="M20.6137 15.3926H21.7701V9.22247H20.6137V15.3926ZM24.6838 15.4789C25.8401 15.4789 26.4873 14.9525 26.4873 14.0377C26.4873 13.0799 25.8574 12.821 24.7959 12.657C24.0797 12.5362 23.864 12.4068 23.864 12.0788C23.864 11.7595 24.1315 11.5438 24.5802 11.5438C25.0635 11.5438 25.2965 11.7337 25.3827 12.1479H26.3493C26.2371 11.1296 25.5036 10.7844 24.5802 10.7844C23.7345 10.7844 22.8888 11.2331 22.8888 12.1392C22.8888 12.9849 23.3289 13.3215 24.5198 13.5113C25.1843 13.6235 25.4863 13.7616 25.4863 14.1327C25.4863 14.5124 25.236 14.7108 24.6751 14.7108C24.0624 14.7108 23.8294 14.4433 23.7777 13.986H22.7939C22.837 14.9438 23.5188 15.4789 24.6838 15.4789ZM28.948 15.4789C30.1043 15.4789 30.7515 14.9525 30.7515 14.0377C30.7515 13.0799 30.1216 12.821 29.0601 12.657C28.3439 12.5362 28.1281 12.4068 28.1281 12.0788C28.1281 11.7595 28.3957 11.5438 28.8444 11.5438C29.3277 11.5438 29.5606 11.7337 29.6469 12.1479H30.6134C30.5013 11.1296 29.7678 10.7844 28.8444 10.7844C27.9987 10.7844 27.153 11.2331 27.153 12.1392C27.153 12.9849 27.5931 13.3215 28.784 13.5113C29.4485 13.6235 29.7505 13.7616 29.7505 14.1327C29.7505 14.5124 29.5002 14.7108 28.9393 14.7108C28.3266 14.7108 28.0936 14.4433 28.0419 13.986H27.0581C27.1012 14.9438 27.783 15.4789 28.948 15.4789ZM33.1776 15.4789C33.9111 15.4789 34.3858 15.1251 34.6101 14.685V15.3926H35.6543V10.8793H34.6101V13.5631C34.6101 14.2794 34.1182 14.6418 33.5573 14.6418C32.9533 14.6418 32.6685 14.3311 32.6685 13.6494V10.8793H31.6243V13.7702C31.6243 14.9697 32.2888 15.4789 33.1776 15.4789ZM38.8772 15.4789C40.0335 15.4789 40.8015 14.9611 40.9482 14.0119H39.9386C39.8609 14.452 39.533 14.7022 38.903 14.7022C38.1264 14.7022 37.6949 14.219 37.6604 13.3646H40.9655V13.0626C40.9655 11.4489 39.9558 10.7844 38.834 10.7844C37.5482 10.7844 36.5903 11.7164 36.5903 13.1144V13.1834C36.5903 14.6073 37.5482 15.4789 38.8772 15.4789ZM37.6777 12.6656C37.7812 11.9667 38.2041 11.5438 38.834 11.5438C39.4812 11.5438 39.8782 11.889 39.93 12.6656H37.6777ZM43.485 15.4789C44.6413 15.4789 45.2886 14.9525 45.2886 14.0377C45.2886 13.0799 44.6586 12.821 43.5972 12.657C42.8809 12.5362 42.6652 12.4068 42.6652 12.0788C42.6652 11.7595 42.9327 11.5438 43.3814 11.5438C43.8647 11.5438 44.0977 11.7337 44.184 12.1479H45.1505C45.0383 11.1296 44.3048 10.7844 43.3814 10.7844C42.5357 10.7844 41.69 11.2331 41.69 12.1392C41.69 12.9849 42.1302 13.3215 43.321 13.5113C43.9855 13.6235 44.2875 13.7616 44.2875 14.1327C44.2875 14.5124 44.0373 14.7108 43.4764 14.7108C42.8637 14.7108 42.6307 14.4433 42.5789 13.986H41.5951C41.6383 14.9438 42.32 15.4789 43.485 15.4789ZM48.2608 15.3926H49.3049V13.0453C49.3049 12.0875 49.8572 11.7941 50.7719 11.7854V10.8103C50.0125 10.8189 49.5897 11.1555 49.3049 11.725V10.8793H48.2608V15.3926ZM53.5912 15.4789C54.7475 15.4789 55.5155 14.9611 55.6623 14.0119H54.6526C54.5749 14.452 54.247 14.7022 53.6171 14.7022C52.8404 14.7022 52.4089 14.219 52.3744 13.3646H55.6795V13.0626C55.6795 11.4489 54.6699 10.7844 53.548 10.7844C52.2622 10.7844 51.3043 11.7164 51.3043 13.1144V13.1834C51.3043 14.6073 52.2622 15.4789 53.5912 15.4789ZM52.3917 12.6656C52.4952 11.9667 52.9181 11.5438 53.548 11.5438C54.1952 11.5438 54.5922 11.889 54.644 12.6656H52.3917ZM58.199 15.4789C59.3553 15.4789 60.0026 14.9525 60.0026 14.0377C60.0026 13.0799 59.3726 12.821 58.3112 12.657C57.5949 12.5362 57.3792 12.4068 57.3792 12.0788C57.3792 11.7595 57.6467 11.5438 58.0954 11.5438C58.5787 11.5438 58.8117 11.7337 58.898 12.1479H59.8645C59.7523 11.1296 59.0188 10.7844 58.0954 10.7844C57.2497 10.7844 56.4041 11.2331 56.4041 12.1392C56.4041 12.9849 56.8442 13.3215 58.035 13.5113C58.6995 13.6235 59.0015 13.7616 59.0015 14.1327C59.0015 14.5124 58.7513 14.7108 58.1904 14.7108C57.5777 14.7108 57.3447 14.4433 57.2929 13.986H56.3091C56.3523 14.9438 57.034 15.4789 58.199 15.4789ZM62.9378 14.6677C62.1439 14.6677 61.6865 14.0895 61.6865 13.1662V13.0971C61.6865 12.1651 62.1612 11.6042 62.9378 11.6042C63.7145 11.6042 64.1805 12.1738 64.1805 13.1058V13.1662C64.1805 14.0895 63.7145 14.6677 62.9378 14.6677ZM62.9292 15.4789C64.2581 15.4789 65.2505 14.5641 65.2505 13.1575V13.0885C65.2505 11.7078 64.2581 10.7844 62.9378 10.7844C61.6089 10.7844 60.6165 11.7164 60.6165 13.1144V13.1834C60.6165 14.5555 61.6002 15.4789 62.9292 15.4789ZM66.2199 15.3926H67.264V8.79099H66.2199V15.3926ZM69.719 15.3926H70.9358L72.5667 10.8793H71.5398L70.3748 14.3225L69.1926 10.8793H68.0708L69.719 15.3926ZM75.1565 15.4789C76.3129 15.4789 77.0809 14.9611 77.2276 14.0119H76.218C76.1403 14.452 75.8124 14.7022 75.1824 14.7022C74.4058 14.7022 73.9743 14.219 73.9398 13.3646H77.2449V13.0626C77.2449 11.4489 76.2352 10.7844 75.1134 10.7844C73.8276 10.7844 72.8697 11.7164 72.8697 13.1144V13.1834C72.8697 14.6073 73.8276 15.4789 75.1565 15.4789ZM73.957 12.6656C74.0606 11.9667 74.4834 11.5438 75.1134 11.5438C75.7606 11.5438 76.1576 11.889 76.2093 12.6656H73.957ZM79.8689 15.4789C80.5334 15.4789 81.1116 15.0819 81.3532 14.6332V15.3926H82.3974V8.79099H81.3532V11.5697C81.103 11.121 80.6456 10.7844 79.9121 10.7844C78.7385 10.7844 77.8841 11.6991 77.8841 13.1403V13.2093C77.8841 14.6763 78.7385 15.4789 79.8689 15.4789ZM80.1278 14.6504C79.4547 14.6504 78.9542 14.1758 78.9542 13.1834V13.1144C78.9542 12.1392 79.4029 11.6042 80.171 11.6042C80.9304 11.6042 81.3877 12.0961 81.3877 13.0885V13.1575C81.3877 14.1672 80.8527 14.6504 80.1278 14.6504Z" fill="#B0520E"/>
<path d="M189.842 15.3926H194.304V14.5037H191.68L193.052 13.1662C193.786 12.4585 194.26 11.7595 194.26 10.957C194.26 9.86968 193.501 9.13618 192.224 9.13618C190.921 9.13618 190.11 9.91283 190.032 11.259H191.085C191.188 10.3875 191.577 10.0336 192.189 10.0336C192.785 10.0336 193.113 10.3961 193.113 10.9743C193.113 11.5611 192.759 12.1047 192.172 12.7261L189.842 15.1855V15.3926ZM194.734 16.6697H195.614L198.22 8.69607H197.332L194.734 16.6697ZM200.645 15.4789C202.061 15.4789 202.958 14.7713 202.958 13.6322C202.958 12.8124 202.483 12.3032 201.767 12.1392C202.363 11.9149 202.768 11.492 202.768 10.793C202.768 9.87831 202.017 9.13618 200.732 9.13618C199.411 9.13618 198.609 9.95598 198.548 11.026H199.567C199.636 10.4047 200.059 10.0078 200.714 10.0078C201.353 10.0078 201.672 10.3788 201.672 10.8793C201.672 11.4575 201.353 11.7854 200.645 11.7854H200.205V12.6052H200.68C201.431 12.6052 201.793 12.9418 201.793 13.6149C201.793 14.2276 201.422 14.6159 200.619 14.6159C199.791 14.6159 199.429 14.1327 199.368 13.4855H198.324C198.376 14.6677 199.178 15.4789 200.645 15.4789Z" fill="#B0520E"/>
<g filter="url(#filter0_d_746_7580)">
<rect x="10.3062" y="27.2969" width="202.388" height="40.8225" rx="5.34257" fill="white"/>
<circle cx="30.7186" cy="47.7078" r="10.9832" fill="#EAECF0"/>
<path fill-rule="evenodd" clip-rule="evenodd" d="M30.4891 53.4528C33.7888 53.4528 36.4635 50.778 36.4635 47.4783C36.4635 44.1787 33.7888 41.5039 30.4891 41.5039C27.1894 41.5039 24.5146 44.1787 24.5146 47.4783C24.5146 50.778 27.1894 53.4528 30.4891 53.4528ZM32.2814 46.2835C32.2814 46.7588 32.0926 47.2147 31.7565 47.5508C31.4203 47.887 30.9644 48.0758 30.4891 48.0758C30.0137 48.0758 29.5578 47.887 29.2217 47.5508C28.8856 47.2147 28.6968 46.7588 28.6968 46.2835C28.6968 45.8081 28.8856 45.3522 29.2217 45.0161C29.5578 44.68 30.0137 44.4911 30.4891 44.4911C30.9644 44.4911 31.4203 44.68 31.7565 45.0161C32.0926 45.3522 32.2814 45.8081 32.2814 46.2835ZM26.9044 50.4656C27.3214 49.9087 27.8626 49.4567 28.4849 49.1456C29.1071 48.8345 29.7934 48.6727 30.4891 48.6732C31.1848 48.6727 31.8711 48.8345 32.4933 49.1456C33.1156 49.4567 33.6567 49.9087 34.0738 50.4656C33.6567 51.0225 33.1156 51.4744 32.4933 51.7855C31.8711 52.0967 31.1848 52.2584 30.4891 52.2579C29.7934 52.2584 29.1071 52.0967 28.4849 51.7855C27.8626 51.4744 27.3214 51.0225 26.9044 50.4656Z" fill="#98A2B3"/>
<path d="M50.9532 51.208H53.9105C55.5989 51.208 56.5453 50.4875 56.5453 49.0572V49.0142C56.5453 47.9926 56.0506 47.4226 55.0075 47.1968C55.8785 46.9279 56.2227 46.3257 56.2227 45.5622V45.5191C56.2227 44.1211 55.2871 43.5189 53.7062 43.5189H50.9532V51.208ZM52.3512 50.1864V47.7237H53.6417C54.6956 47.7237 55.1365 48.1216 55.1365 48.9174V48.9604C55.1365 49.7562 54.6956 50.1864 53.7385 50.1864H52.3512ZM52.3512 46.7559V44.5405H53.5126C54.4267 44.5405 54.8461 44.8524 54.8461 45.5837V45.6267C54.8461 46.4117 54.4805 46.7559 53.5342 46.7559H52.3512ZM59.6589 51.3155C60.573 51.3155 61.1645 50.8746 61.4441 50.3262V51.208H62.7453V45.5837H61.4441V48.9282C61.4441 49.8207 60.8311 50.2724 60.1321 50.2724C59.3793 50.2724 59.0244 49.8853 59.0244 49.0357V45.5837H57.7232V49.1863C57.7232 50.6811 58.5512 51.3155 59.6589 51.3155ZM64.2882 51.208H65.5894V48.4442L67.6972 51.208H69.2027L66.8369 48.1646L69.0199 45.5837H67.6004L65.5894 48.0571V42.9812H64.2882V51.208ZM72.3391 50.3047C71.3498 50.3047 70.7798 49.5842 70.7798 48.4335V48.3474C70.7798 47.186 71.3713 46.487 72.3391 46.487C73.307 46.487 73.8877 47.1968 73.8877 48.3582V48.4335C73.8877 49.5842 73.307 50.3047 72.3391 50.3047ZM72.3284 51.3155C73.9845 51.3155 75.2212 50.1756 75.2212 48.4227V48.3367C75.2212 46.6161 73.9845 45.4654 72.3391 45.4654C70.683 45.4654 69.4463 46.6268 69.4463 48.369V48.455C69.4463 50.1649 70.6722 51.3155 72.3284 51.3155ZM76.4292 51.208H77.7304V42.9812H76.4292V51.208ZM80.7897 51.3155C81.6501 51.3155 82.1447 51.0037 82.5104 50.5198V51.208H83.7901V47.5194C83.7901 45.9816 82.8007 45.4654 81.5425 45.4654C80.2843 45.4654 79.2412 46.0138 79.1336 47.3258H80.3918C80.4564 46.7666 80.7897 46.444 81.4672 46.444C82.2308 46.444 82.4889 46.8204 82.4889 47.5732V47.8635H81.7899C80.1768 47.8635 78.9078 48.3367 78.9078 49.6487C78.9078 50.8209 79.7574 51.3155 80.7897 51.3155ZM81.1016 50.3799C80.4564 50.3799 80.1983 50.0681 80.1983 49.5949C80.1983 48.9067 80.8328 48.6808 81.8221 48.6808H82.4889V49.24C82.4889 49.9605 81.8974 50.3799 81.1016 50.3799ZM87.3601 51.208H88.7043L89.3066 49.3046H92.2424L92.8554 51.208H94.3394L91.8015 43.5189H89.9303L87.3601 51.208ZM90.7799 44.6911L91.909 48.2614H89.6399L90.7799 44.6911ZM95.4377 51.208H96.7389V45.5837H95.4377V51.208ZM96.0722 44.6588C96.5023 44.6588 96.8465 44.3362 96.8465 43.9168C96.8465 43.4866 96.5023 43.164 96.0722 43.164C95.642 43.164 95.2979 43.4866 95.2979 43.9168C95.2979 44.3362 95.642 44.6588 96.0722 44.6588ZM98.325 51.208H99.6262V47.8958C99.6262 47.0032 100.218 46.5515 100.949 46.5515C101.723 46.5515 102.067 46.9387 102.067 47.7882V51.208H103.369V47.6699C103.369 46.1214 102.573 45.4654 101.444 45.4654C100.519 45.4654 99.8951 45.9278 99.6262 46.4762V45.5837H98.325V51.208ZM106.341 51.3155C107.201 51.3155 107.696 51.0037 108.062 50.5198V51.208H109.341V47.5194C109.341 45.9816 108.352 45.4654 107.094 45.4654C105.836 45.4654 104.792 46.0138 104.685 47.3258H105.943C106.008 46.7666 106.341 46.444 107.018 46.444C107.782 46.444 108.04 46.8204 108.04 47.5732V47.8635H107.341C105.728 47.8635 104.459 48.3367 104.459 49.6487C104.459 50.8209 105.309 51.3155 106.341 51.3155ZM106.653 50.3799C106.008 50.3799 105.75 50.0681 105.75 49.5949C105.75 48.9067 106.384 48.6808 107.373 48.6808H108.04V49.24C108.04 49.9605 107.449 50.3799 106.653 50.3799Z" fill="black"/>
<rect x="181.758" y="36.9541" width="21.508" height="21.508" rx="10.754" fill="#FFC5C5"/>
<path d="M192.441 46.6428C192.441 46.785 192.555 46.8968 192.695 46.8968C192.984 46.8968 193.218 47.1329 193.218 47.4198C193.218 47.5595 193.332 47.6737 193.472 47.6737C193.611 47.6737 193.726 47.5595 193.726 47.4198C193.726 46.8511 193.264 46.3889 192.695 46.3889C192.555 46.3889 192.441 46.5032 192.441 46.6428ZM196.575 47.6737C196.717 47.6737 196.829 47.5595 196.829 47.4198C196.829 45.1397 194.975 43.2861 192.695 43.2861C192.555 43.2861 192.441 43.4004 192.441 43.54C192.441 43.6797 192.555 43.794 192.695 43.794C194.696 43.794 196.321 45.4215 196.321 47.4198C196.321 47.5595 196.435 47.6737 196.575 47.6737Z" fill="#9D3B3B"/>
<path d="M194.769 47.4185C194.769 47.5581 194.883 47.6724 195.023 47.6724C195.163 47.6724 195.277 47.5581 195.277 47.4185C195.277 45.994 194.119 44.8362 192.695 44.8362C192.555 44.8362 192.441 44.9505 192.441 45.0901C192.441 45.2323 192.555 45.344 192.695 45.344C193.84 45.344 194.769 46.2759 194.769 47.4185ZM192.695 41.7334C192.555 41.7334 192.441 41.8477 192.441 41.9873C192.441 42.127 192.555 42.2412 192.695 42.2412C195.551 42.2412 197.874 44.5645 197.874 47.4185C197.874 47.5581 197.986 47.6724 198.128 47.6724C198.268 47.6724 198.382 47.5581 198.382 47.4185C198.382 44.2827 195.83 41.7334 192.695 41.7334ZM195.175 50.0947L194.843 50.275C194.282 50.5822 193.571 50.4781 193.116 50.0236L190.435 47.3423C189.98 46.8878 189.876 46.1769 190.183 45.6132L190.364 45.2831C190.567 44.9073 190.64 44.4858 190.58 44.0643C190.522 43.6437 190.327 43.2537 190.026 42.9547C189.655 42.584 189.163 42.3809 188.637 42.3809C188.112 42.3809 187.616 42.584 187.246 42.9547L187.116 43.0867C186.431 43.7723 186.352 44.953 186.893 46.4155C187.403 47.812 188.431 49.3254 189.782 50.6762C191.841 52.7354 194.134 53.9212 195.78 53.9212C196.43 53.9212 196.981 53.7358 197.372 53.3448L197.504 53.2128C197.687 53.0301 197.832 52.8132 197.93 52.5744C198.029 52.3357 198.08 52.0798 198.08 51.8213C198.077 51.3009 197.87 50.8024 197.504 50.4324C196.892 49.8205 195.935 49.6834 195.175 50.0947Z" fill="#9D3B3B"/>
<rect x="10.4633" y="27.454" width="202.074" height="40.5083" rx="5.18543" stroke="#DDDDDD" stroke-width="0.314269"/>
</g>
<g filter="url(#filter1_d_746_7580)">
<rect x="21.4575" y="70.6328" width="180.085" height="27.6409" rx="3.74508" fill="white" shape-rendering="crispEdges"/>
<rect x="21.4575" y="70.6328" width="180.085" height="27.6409" rx="4.03825" fill="white"/>
<circle cx="38.3705" cy="84.1952" r="7.69911" fill="#F9FAFB"/>
<rect x="51.6108" y="80.6846" width="92.1364" height="8.37604" rx="2.51281" fill="#F6F7F8"/>
<rect x="172.226" y="80.6846" width="23.4529" height="8.37604" rx="2.51281" fill="#F6F7F8"/>
<rect x="21.5677" y="70.743" width="179.864" height="27.4206" rx="3.63493" stroke="#DDDDDD" stroke-width="0.220299" shape-rendering="crispEdges"/>
</g>
<defs>
<filter id="filter0_d_746_7580" x="0.965398" y="17.9561" width="221.07" height="59.5038" filterUnits="userSpaceOnUse" color-interpolation-filters="sRGB">
<feFlood flood-opacity="0" result="BackgroundImageFix"/>
<feColorMatrix in="SourceAlpha" type="matrix" values="0 0 0 0 0 0 0 0 0 0 0 0 0 0 0 0 0 0 127 0" result="hardAlpha"/>
<feOffset/>
<feGaussianBlur stdDeviation="4.67038"/>
<feComposite in2="hardAlpha" operator="out"/>
<feColorMatrix type="matrix" values="0 0 0 0 0 0 0 0 0 0 0 0 0 0 0 0 0 0 0.1 0"/>
<feBlend mode="normal" in2="BackgroundImageFix" result="effect1_dropShadow_746_7580"/>
<feBlend mode="normal" in="SourceGraphic" in2="effect1_dropShadow_746_7580" result="shape"/>
</filter>
<filter id="filter1_d_746_7580" x="14.9098" y="64.085" width="193.18" height="40.7362" filterUnits="userSpaceOnUse" color-interpolation-filters="sRGB">
<feFlood flood-opacity="0" result="BackgroundImageFix"/>
<feColorMatrix in="SourceAlpha" type="matrix" values="0 0 0 0 0 0 0 0 0 0 0 0 0 0 0 0 0 0 127 0" result="hardAlpha"/>
<feOffset/>
<feGaussianBlur stdDeviation="3.27388"/>
<feComposite in2="hardAlpha" operator="out"/>
<feColorMatrix type="matrix" values="0 0 0 0 0 0 0 0 0 0 0 0 0 0 0 0 0 0 0.1 0"/>
<feBlend mode="normal" in2="BackgroundImageFix" result="effect1_dropShadow_746_7580"/>
<feBlend mode="normal" in="SourceGraphic" in2="effect1_dropShadow_746_7580" result="shape"/>
</filter>
</defs>
</svg>
